<svg width="237" height="299" viewBox="0 0 237 299" fill="none" xmlns="http://www.w3.org/2000/svg">
<path d="M-36.1407 32.5083C-38.6168 36.3707 -41.0369 43.1051 -42.3589 48.0389C-38.3208 40.6445 -30.9257 34.6087 -24.1652 32.4883C-16.1608 29.9777 -9.42777 33.1466 -0.851566 37.9597C7.72464 42.7728 15.1347 55.9123 18.0408 59.8002C23.0486 66.4998 34.7731 88.7812 38.3286 93.9286C49.935 110.731 66.9722 130.155 81.9147 135.428C113.474 146.564 134.522 143.251 152.159 135.096C180.471 122.005 191.953 106.199 198.453 81.9414C200.938 72.667 202.784 62.7577 206.954 54.0535C210.423 46.8118 214.001 37.0519 222.933 27.073C227.31 22.183 232.619 20.3753 240.523 16.924C249.813 13.7814 256.948 14.9922 264.928 16.3464L264.963 16.3523C274.964 18.0494 278.649 21.0646 283.806 28.5216C277.091 15.9591 275.652 10.9884 269.185 4.81704C262.816 -1.26098 262.009 -2.60452 254.492 -6.90998C246.974 -11.2154 242.312 -13.4164 232.424 -12.8229C223.934 -12.3133 212.078 -9.57059 201.381 0.40843C192.781 8.4318 192.483 9.93815 188.224 17.1508C184.487 23.4793 179.816 32.346 172.304 48.4154C169.331 54.7743 163.34 66.0482 152.102 81.3176C143.053 93.6131 118.058 106.141 103.397 104.573C81.2973 102.21 66.9786 92.3826 53.2205 76.6202C42.1177 63.9 32.0264 42.622 19.2436 31.5007C8.71522 22.3407 -6.04977 16.0232 -20.7197 19.6294C-25.2286 20.7378 -33.1979 27.9178 -36.1407 32.5083Z" fill="#504EBA"/>
<path d="M-17.4477 10.3739C-19.5025 13.579 -21.5108 19.1675 -22.6078 23.2616C-19.2568 17.1256 -13.1199 12.117 -7.50951 10.3574C-0.866879 8.27415 4.72074 10.9039 11.838 14.8981C18.9552 18.8922 25.1048 29.796 27.5166 33.0223C31.6725 38.5819 41.4026 57.0719 44.3534 61.3433C53.9854 75.2866 64.9051 97.4893 76.9513 107.52C98.2941 125.292 126.455 121.568 141.091 114.801C164.586 103.938 171.843 71.5275 177.236 51.398C179.298 43.7018 182.455 35.1064 184.291 28.2557C186.126 21.4051 186.981 14.4434 192.325 5.54765C195.13 0.879397 201.915 -9.71863 206.876 -15.4742C212.948 -22.5183 221.49 -29.7113 227.774 -32.8214C235.536 -36.6634 236.262 -36.6099 250.562 -31.9673C241.919 -39.0419 239.222 -39.7645 237.249 -40.2933C230.112 -42.2055 228.468 -42.6461 223.631 -42.3558C218.795 -42.0655 211.323 -40.2256 203.094 -34.6406C197.254 -30.6769 193.981 -29.5886 185.105 -21.3078C177.968 -14.6499 172.927 -5.48968 169.393 0.495599C166.292 5.74708 163.091 8.35942 159.537 21.6231C158.03 27.2496 152.775 48.8674 143.449 61.5383C135.939 71.7414 110.645 84.5222 98.478 83.2211C80.1383 81.26 68.1293 60.0609 56.7115 46.9805C47.4974 36.4247 39.1226 18.7674 28.5144 9.53843C19.777 1.93707 7.52385 -3.30566 -4.65029 -0.313293C-8.39212 0.60644 -15.0056 6.56462 -17.4477 10.3739Z" fill="#8A89D1"/>
<path d="M-43.1407 161.675C-45.6168 157.812 -48.0369 151.078 -49.3589 146.144C-45.3208 153.539 -37.9257 159.574 -31.1652 161.695C-23.1608 164.205 -16.4278 161.036 -7.85157 156.223C0.724638 151.41 8.13472 138.271 11.0408 134.383C16.0486 127.683 27.7731 105.402 31.3286 100.255C42.935 83.4522 59.9722 64.0282 74.9147 58.7555C106.474 47.619 127.522 50.9319 145.159 59.0869C173.471 72.1782 184.953 87.9843 191.453 112.242C193.938 121.516 195.784 131.425 199.954 140.13C203.423 147.371 207.001 157.131 215.933 167.11C220.31 172 225.619 173.808 233.523 177.259C242.813 180.402 249.948 179.191 257.928 177.837L257.963 177.831C267.964 176.134 271.649 173.119 276.806 165.661C270.091 178.224 268.652 183.195 262.185 189.366C255.816 195.444 255.009 196.788 247.492 201.093C239.974 205.399 235.312 207.6 225.424 207.006C216.934 206.496 205.078 203.754 194.381 193.775C185.781 185.751 185.483 184.245 181.224 177.032C177.487 170.704 172.816 161.837 165.304 145.768C162.331 139.409 156.34 128.135 145.102 112.865C136.053 100.57 111.058 88.0424 96.3965 89.6101C74.2973 91.973 59.9786 101.8 46.2205 117.563C35.1177 130.283 25.0264 151.561 12.2436 162.682C1.71522 171.842 -13.0498 178.16 -27.7197 174.554C-32.2286 173.445 -40.1979 166.265 -43.1407 161.675Z" fill="#504EBA"/>
<path d="M-13.5071 108.269C-15.5035 105.299 -17.4115 100.093 -18.4354 96.2715C-15.1955 101.968 -9.15211 106.558 -3.57756 108.109C3.0227 109.946 8.65202 107.381 15.8338 103.509C23.0155 99.6364 29.3524 89.3001 31.819 86.2312C36.0696 80.9428 46.1179 63.4272 49.1415 59.3685C59.0116 46.1195 73.4231 30.7502 85.8903 26.4269C112.222 17.2957 129.626 19.5659 144.13 25.6552C167.414 35.4303 176.703 47.5653 181.737 66.3518C183.661 73.5346 185.047 81.2208 188.377 87.935C191.147 93.521 193.971 101.066 201.231 108.702C204.788 112.444 209.164 113.774 215.667 116.344C223.324 118.654 229.258 117.607 235.895 116.436L235.924 116.431C244.241 114.963 247.341 112.562 251.727 106.682C245.975 116.559 244.708 120.449 239.256 125.348C233.886 130.172 233.197 131.23 226.9 134.692C220.604 138.153 216.706 139.935 208.516 139.618C201.484 139.346 191.693 137.384 182.97 129.774C175.956 123.654 175.731 122.486 172.306 116.934C169.3 112.063 165.557 105.23 159.563 92.8315C157.191 87.9254 152.39 79.2377 143.295 67.5169C135.972 58.0788 115.43 48.6938 103.25 50.129C84.8915 52.2923 72.8747 60.1518 61.2357 72.6229C51.8431 82.687 43.1637 99.3976 32.4015 108.242C23.5373 115.526 11.202 120.66 -0.909104 118.068C-4.63154 117.271 -11.1342 111.799 -13.5071 108.269Z" fill="#302E7D"/>
<path d="M195.157 226.072C193.428 229.205 189.67 233.283 186.74 235.94C190.325 230.454 191.644 222.981 190.475 217.314C189.091 210.604 184.235 206.771 177.508 202.154C170.781 197.537 158.691 196.627 154.834 195.837C148.187 194.474 128.015 193.546 123.023 192.713C106.727 189.992 86.4693 184.202 76.9242 175.091C56.7641 155.848 50.8258 139.332 49.6098 123.648C47.6578 98.4713 54.2031 84.6617 68.6095 71.5954C74.1176 66.5997 80.32 61.8534 84.7688 55.822C88.4701 50.8041 93.8889 44.8435 97.3613 34.8953C99.0629 30.0205 98.2442 25.5207 97.5571 18.5617C96.1108 10.6962 92.4665 5.89747 88.3906 0.530392L88.3729 0.507083C83.2647 -6.21923 79.712 -7.87839 72.4773 -9.09032C83.8914 -8.49059 87.9302 -9.14304 94.7798 -6.53334C101.526 -3.96312 102.781 -3.83412 108.739 0.182996C114.696 4.20012 118.063 6.85239 121.525 14.2811C124.498 20.6596 127.231 30.2638 124.45 41.5015C122.215 50.5368 121.279 51.271 117.907 56.8561C114.949 61.7564 110.584 68.2097 102.298 79.2089C99.0186 83.5613 93.4876 91.804 87.2217 105.251C82.1762 116.079 83.2214 138.639 90.0667 148.815C100.384 164.154 112.869 171.247 129.281 175.897C142.526 179.649 161.356 179.727 174.143 185.255C184.674 189.808 194.88 198.431 198.112 210.388C199.105 214.062 197.212 222.347 195.157 226.072Z" fill="#302E7D"/>
<path d="M0.224328 230.329C0.288598 234.972 1.93199 242.059 3.50003 247.012C2.81018 238.496 5.55578 229.365 9.88032 223.944C15.0006 217.526 22.1281 216.676 31.6215 216.262C41.1149 215.847 54.1143 223.225 58.5367 225.029C66.1573 228.137 87.522 241.096 93.1413 243.639C111.484 251.941 135.611 259.613 150.489 256.21C181.912 249.023 197.133 234.978 207.013 218.577C222.875 192.248 223.701 172.529 215.992 148.179C213.044 138.869 209.241 129.352 207.958 119.638C206.891 111.556 204.566 101.247 206.446 87.9027C207.367 81.3637 210.688 76.9836 215.225 69.8083C221.045 62.1625 227.451 59.4118 234.616 56.3353L234.647 56.322C243.626 52.4663 248.211 53.1041 256.357 56.7852C244.227 49.5347 240.411 46.0184 231.894 44.1411C223.507 42.2921 222.138 41.5639 213.77 41.8523C205.402 42.1407 200.463 42.7237 192.799 48.492C186.218 53.4448 178.113 62.111 174.808 76.3936C172.151 87.8772 172.715 89.333 173.13 97.8101C173.493 105.248 174.459 115.369 176.977 133.204C177.974 140.262 179.16 153.158 178.244 172.285C177.507 187.687 164.022 211.767 151.35 218.212C132.249 227.927 115.442 227.075 95.9175 220.813C80.1614 215.759 60.6508 202.797 44.3926 200.014C31.0016 197.722 15.709 200.13 5.7935 211.036C2.7459 214.388 0.148006 224.81 0.224328 230.329Z" fill="#302E7D"/>
<path d="M-24.4477 183.809C-26.5025 180.604 -28.5108 175.016 -29.6078 170.921C-26.2568 177.058 -20.1199 182.066 -14.5095 183.826C-7.86688 185.909 -2.27926 183.279 4.83798 179.285C11.9552 175.291 18.1048 164.387 20.5166 161.161C24.6725 155.601 34.4026 137.111 37.3534 132.84C46.9854 118.897 57.9051 96.6938 69.9513 86.6631C91.2941 68.8911 119.455 72.6146 134.091 79.3817C157.586 90.2449 164.843 122.656 170.236 142.785C172.298 150.481 175.455 159.077 177.291 165.927C179.126 172.778 179.981 179.74 185.325 188.635C188.13 193.304 194.915 203.902 199.876 209.657C205.948 216.701 214.49 223.894 220.774 227.005C228.536 230.846 229.262 230.793 243.562 226.15C234.919 233.225 232.222 233.948 230.249 234.476C223.112 236.389 221.468 236.829 216.631 236.539C211.795 236.249 204.323 234.409 196.094 228.824C190.254 224.86 186.981 223.772 178.105 215.491C170.968 208.833 165.927 199.673 162.393 193.688C159.292 188.436 156.091 185.824 152.537 172.56C151.03 166.934 145.775 145.316 136.449 132.645C128.939 122.442 103.645 109.661 91.478 110.962C73.1384 112.923 61.1293 134.122 49.7115 147.203C40.4974 157.758 32.1226 175.416 21.5144 184.645C12.777 192.246 0.523853 197.489 -11.6503 194.496C-15.3921 193.577 -22.0056 187.618 -24.4477 183.809Z" fill="#8A89D1"/>
</svg>
