<svg width="1013" height="76" viewBox="0 0 1013 76" fill="none" xmlns="http://www.w3.org/2000/svg">
<g opacity="0.6">
<path d="M696.159 50.1198L691.696 48.1543" stroke="white" stroke-width="2" stroke-linecap="round"/>
<path d="M1013 66.5009H863.756L859.488 62.8975H1006.93L1013 66.5009Z" fill="url(#paint0_linear_1330_20179)"/>
<path d="M149.231 66.5009H0L6.09847 62.8975H153.512L149.231 66.5009Z" fill="url(#paint1_linear_1330_20179)"/>
<path d="M33.7837 45.3418L23.4673 51.6624L40.5539 51.7569L50.5077 45.4363L33.7837 45.3418Z" fill="url(#paint2_linear_1330_20179)"/>
<path d="M64.5855 45.3418L54.9407 51.6624L72.0541 51.7569L81.3228 45.4363L64.5855 45.3418Z" fill="url(#paint3_linear_1330_20179)"/>
<path d="M95.387 45.3418L86.4272 51.6624L103.541 51.7569L112.138 45.4363L95.387 45.3418Z" fill="url(#paint4_linear_1330_20179)"/>
<path d="M126.202 45.3418L117.9 51.6624L135.027 51.7569L142.953 45.4363L126.202 45.3418Z" fill="url(#paint5_linear_1330_20179)"/>
<path d="M157.004 45.3418L149.387 51.6624L166.514 51.7569L173.768 45.4363L157.004 45.3418Z" fill="url(#paint6_linear_1330_20179)"/>
<path d="M453.333 35.6354H298.21L300.198 33.0264H453.844L453.333 35.6354Z" fill="url(#paint7_linear_1330_20179)"/>
<path d="M452.07 42.0511H293.334L295.416 39.3213H452.608L452.07 42.0511Z" fill="url(#paint8_linear_1330_20179)"/>
<path d="M450.767 48.7804H288.229L290.406 45.9141H451.318L450.767 48.7804Z" fill="url(#paint9_linear_1330_20179)"/>
<path d="M456.768 26.2072H303.454L319.321 4.91406H460.536L456.768 26.2072Z" fill="url(#paint10_linear_1330_20179)"/>
<path d="M713.675 35.6354H558.552L558.096 33.0264H711.741L713.675 35.6354Z" fill="url(#paint11_linear_1330_20179)"/>
<path d="M718.431 42.0511H559.694L559.211 39.3213H716.402L718.431 42.0511Z" fill="url(#paint12_linear_1330_20179)"/>
<path d="M723.414 48.7804H560.876L560.366 45.9141H721.292L723.414 48.7804Z" fill="url(#paint13_linear_1330_20179)"/>
<path d="M707.761 26.2072H554.696L550.679 4.91406H691.653L707.761 26.2072Z" fill="url(#paint14_linear_1330_20179)"/>
<path d="M977.3 37.6727H818.258L781.84 4.91406H922.384L977.3 37.6727Z" fill="url(#paint15_linear_1330_20179)"/>
<path d="M194.264 37.6727H34.8079L89.3567 4.91406H230.268L194.264 37.6727Z" fill="url(#paint16_linear_1330_20179)"/>
<path d="M861.732 49.7404C863.841 51.4675 861.773 52.8797 857.071 52.8797C852.37 52.8797 846.929 51.4675 844.914 49.7404C842.926 48.0342 845.049 46.6641 849.656 46.6641C854.264 46.6641 859.65 48.0342 861.732 49.7404Z" fill="url(#paint17_linear_1330_20179)"/>
<path d="M902.891 49.7404C905.241 51.4675 903.374 52.8797 898.673 52.8797C893.971 52.8797 888.329 51.4675 886.073 49.7404C883.843 48.0342 885.777 46.6641 890.371 46.6641C894.965 46.6641 900.553 48.0342 902.891 49.7404Z" fill="url(#paint18_linear_1330_20179)"/>
<path d="M985.207 49.7404C988.042 51.4675 986.564 52.8797 981.876 52.8797C977.188 52.8797 971.13 51.4675 968.39 49.7404C965.676 48.0342 967.234 46.6641 971.828 46.6641C976.422 46.6641 982.4 48.0342 985.207 49.7404Z" fill="url(#paint19_linear_1330_20179)"/>
<path d="M944.049 49.7404C946.642 51.4675 944.976 52.8797 940.274 52.8797C935.573 52.8797 929.73 51.4675 927.231 49.7404C924.759 48.0342 926.506 46.6641 931.1 46.6641C935.694 46.6641 941.483 48.0342 944.049 49.7404Z" fill="url(#paint20_linear_1330_20179)"/>
<path d="M504.176 75.9998C501.718 75.9998 499.717 75.2176 499.717 74.2569V1.7429C499.717 0.782208 501.718 0 504.176 0C506.634 0 508.636 0.782208 508.636 1.7429V74.2569C508.636 75.2176 506.634 75.9998 504.176 75.9998Z" fill="url(#paint21_linear_1330_20179)"/>
<path d="M802.507 75.9994C800.693 75.9994 798.987 75.5637 798.316 74.8602L730.037 2.34623C729.19 1.44329 730.372 0.44059 732.683 0.10986C734.993 -0.220871 737.559 0.241086 738.405 1.14403L806.685 73.658C807.531 74.561 806.349 75.5637 804.038 75.8944C803.528 75.9679 803.004 75.9994 802.493 75.9994H802.507Z" fill="url(#paint22_linear_1330_20179)"/>
<path d="M205.832 75.9994C205.322 75.9994 204.798 75.9627 204.287 75.8944C201.977 75.5637 200.795 74.561 201.641 73.658L269.92 1.14403C270.767 0.241086 273.332 -0.220871 275.643 0.10986C277.953 0.44059 279.135 1.44329 278.289 2.34623L210.01 74.8602C209.352 75.5637 207.646 75.9994 205.819 75.9994H205.832Z" fill="url(#paint23_linear_1330_20179)"/>
</g>
<defs>
<linearGradient id="paint0_linear_1330_20179" x1="936.244" y1="62.8975" x2="936.244" y2="66.5009" gradientUnits="userSpaceOnUse">
<stop stop-color="#F85F73"/>
<stop offset="1" stop-color="#923844"/>
</linearGradient>
<linearGradient id="paint1_linear_1330_20179" x1="76.7559" y1="62.8975" x2="76.7559" y2="66.5009" gradientUnits="userSpaceOnUse">
<stop stop-color="#F85F73"/>
<stop offset="1" stop-color="#923844"/>
</linearGradient>
<linearGradient id="paint2_linear_1330_20179" x1="36.9875" y1="45.3418" x2="36.9875" y2="51.7569" gradientUnits="userSpaceOnUse">
<stop stop-color="#F85F73"/>
<stop offset="1" stop-color="#923844"/>
</linearGradient>
<linearGradient id="paint3_linear_1330_20179" x1="68.1318" y1="45.3418" x2="68.1318" y2="51.7569" gradientUnits="userSpaceOnUse">
<stop stop-color="#F85F73"/>
<stop offset="1" stop-color="#923844"/>
</linearGradient>
<linearGradient id="paint4_linear_1330_20179" x1="99.2825" y1="45.3418" x2="99.2825" y2="51.7569" gradientUnits="userSpaceOnUse">
<stop stop-color="#F85F73"/>
<stop offset="1" stop-color="#923844"/>
</linearGradient>
<linearGradient id="paint5_linear_1330_20179" x1="130.427" y1="45.3418" x2="130.427" y2="51.7569" gradientUnits="userSpaceOnUse">
<stop stop-color="#F85F73"/>
<stop offset="1" stop-color="#923844"/>
</linearGradient>
<linearGradient id="paint6_linear_1330_20179" x1="161.578" y1="45.3418" x2="161.578" y2="51.7569" gradientUnits="userSpaceOnUse">
<stop stop-color="#F85F73"/>
<stop offset="1" stop-color="#923844"/>
</linearGradient>
<linearGradient id="paint7_linear_1330_20179" x1="376.027" y1="33.0264" x2="376.027" y2="35.6354" gradientUnits="userSpaceOnUse">
<stop stop-color="#F85F73"/>
<stop offset="1" stop-color="#923844"/>
</linearGradient>
<linearGradient id="paint8_linear_1330_20179" x1="372.971" y1="39.3213" x2="372.971" y2="42.0511" gradientUnits="userSpaceOnUse">
<stop stop-color="#F85F73"/>
<stop offset="1" stop-color="#923844"/>
</linearGradient>
<linearGradient id="paint9_linear_1330_20179" x1="369.774" y1="45.9141" x2="369.774" y2="48.7804" gradientUnits="userSpaceOnUse">
<stop stop-color="#F85F73"/>
<stop offset="1" stop-color="#923844"/>
</linearGradient>
<linearGradient id="paint10_linear_1330_20179" x1="381.995" y1="4.91406" x2="381.995" y2="26.2072" gradientUnits="userSpaceOnUse">
<stop stop-color="#F85F73"/>
<stop offset="1" stop-color="#923844"/>
</linearGradient>
<linearGradient id="paint11_linear_1330_20179" x1="635.885" y1="33.0264" x2="635.885" y2="35.6354" gradientUnits="userSpaceOnUse">
<stop stop-color="#F85F73"/>
<stop offset="1" stop-color="#923844"/>
</linearGradient>
<linearGradient id="paint12_linear_1330_20179" x1="638.821" y1="39.3213" x2="638.821" y2="42.0511" gradientUnits="userSpaceOnUse">
<stop stop-color="#F85F73"/>
<stop offset="1" stop-color="#923844"/>
</linearGradient>
<linearGradient id="paint13_linear_1330_20179" x1="641.89" y1="45.9141" x2="641.89" y2="48.7804" gradientUnits="userSpaceOnUse">
<stop stop-color="#F85F73"/>
<stop offset="1" stop-color="#923844"/>
</linearGradient>
<linearGradient id="paint14_linear_1330_20179" x1="629.22" y1="4.91406" x2="629.22" y2="26.2072" gradientUnits="userSpaceOnUse">
<stop stop-color="#F85F73"/>
<stop offset="1" stop-color="#923844"/>
</linearGradient>
<linearGradient id="paint15_linear_1330_20179" x1="879.57" y1="4.91406" x2="879.57" y2="37.6727" gradientUnits="userSpaceOnUse">
<stop stop-color="#F85F73"/>
<stop offset="1" stop-color="#923844"/>
</linearGradient>
<linearGradient id="paint16_linear_1330_20179" x1="132.538" y1="4.91406" x2="132.538" y2="37.6727" gradientUnits="userSpaceOnUse">
<stop stop-color="#F85F73"/>
<stop offset="1" stop-color="#923844"/>
</linearGradient>
<linearGradient id="paint17_linear_1330_20179" x1="853.363" y1="46.6641" x2="853.363" y2="52.8797" gradientUnits="userSpaceOnUse">
<stop stop-color="#F85F73"/>
<stop offset="1" stop-color="#923844"/>
</linearGradient>
<linearGradient id="paint18_linear_1330_20179" x1="894.526" y1="46.6641" x2="894.526" y2="52.8797" gradientUnits="userSpaceOnUse">
<stop stop-color="#F85F73"/>
<stop offset="1" stop-color="#923844"/>
</linearGradient>
<linearGradient id="paint19_linear_1330_20179" x1="976.85" y1="46.6641" x2="976.85" y2="52.8797" gradientUnits="userSpaceOnUse">
<stop stop-color="#F85F73"/>
<stop offset="1" stop-color="#923844"/>
</linearGradient>
<linearGradient id="paint20_linear_1330_20179" x1="935.689" y1="46.6641" x2="935.689" y2="52.8797" gradientUnits="userSpaceOnUse">
<stop stop-color="#F85F73"/>
<stop offset="1" stop-color="#923844"/>
</linearGradient>
<linearGradient id="paint21_linear_1330_20179" x1="504.176" y1="0" x2="504.176" y2="75.9998" gradientUnits="userSpaceOnUse">
<stop stop-color="#F85F73"/>
<stop offset="1" stop-color="#923844"/>
</linearGradient>
<linearGradient id="paint22_linear_1330_20179" x1="768.361" y1="0.00292969" x2="768.361" y2="75.9994" gradientUnits="userSpaceOnUse">
<stop stop-color="#F85F73"/>
<stop offset="1" stop-color="#923844"/>
</linearGradient>
<linearGradient id="paint23_linear_1330_20179" x1="239.965" y1="0.00292969" x2="239.965" y2="75.9994" gradientUnits="userSpaceOnUse">
<stop stop-color="#F85F73"/>
<stop offset="1" stop-color="#923844"/>
</linearGradient>
</defs>
</svg>
