<svg width="913" height="282" viewBox="0 0 913 282" fill="none" xmlns="http://www.w3.org/2000/svg">
<path d="M150.558 0.0597826C101.045 -0.922606 53.5064 10.51 4.57129 11.7647V325.052H946.819V187.339C937.443 187.339 929.731 184.413 920.158 184.413C903.399 184.413 887.197 187.339 870.737 187.339C826.058 187.339 784.109 187.215 740.682 175.634C732.277 173.392 722.905 164.935 714.346 161.003C697.013 153.039 677.27 154.076 660.048 146.372C646.624 140.366 632.147 142.715 618.918 137.268C604.324 131.258 588.487 119.28 572.423 117.272C557.301 115.381 534.061 113.595 520.889 121.499C505.755 130.579 480.045 127.384 463.34 128.164C450.415 128.767 446.101 129.339 437.654 121.336C431.023 115.054 416.901 111.108 408.392 108.981C393.186 105.179 377.226 108.318 361.572 104.104C339.526 98.1681 322.325 86.3154 305.973 69.9643C290.853 54.844 281.018 38.2006 261.43 27.6964C227.272 9.38004 189.089 0.824284 150.558 0.0597826Z" fill="#302E7D"/>
<path d="M20.97 75.362C14.4988 81.1638 3.76391 88.049 0 96.2041V337L948.571 350.81V202.077C940.286 202.077 784.431 192.871 775.634 192.871C769.345 192.871 764.547 193.945 758.5 195.044C753.212 196.006 747.836 198.979 743.156 199.648C724.176 202.359 704.453 202.17 685.872 207.192C675.763 209.924 664.847 211.349 655.184 215.375C645.842 219.268 639.71 222.791 629.355 222.791C614.114 222.791 598.607 221.908 583.579 219.211C575.306 217.726 571.331 212.375 564.016 211.155C561.738 210.776 556.108 205.077 553.403 203.356C548.838 200.45 542.468 198.928 537.548 196.323C521.139 187.636 498.67 194.668 481.031 195.172C472.314 195.421 463.276 200.231 454.435 201.566C443.233 203.256 431.223 202.077 419.911 202.077C404.081 202.077 393.25 201.2 383.214 188.523C380.794 185.466 375.65 176.76 371.706 176.76C348.198 176.76 323.703 179.089 300.357 176.632C284.449 174.957 279.125 170.028 288.721 156.045C289.913 154.309 303.86 138.414 294.091 137.633C275.219 136.123 256.3 150.268 237.575 144.026C229.519 141.341 277.044 98.6686 250.745 90.4502C238.708 86.6886 223.124 86.8681 214.047 77.7915C191.863 55.6072 163.975 38.6646 131.702 38.6646C109.247 38.6646 85.3642 39.5302 63.9329 47.1037C47.4791 52.9182 33.7962 63.8627 20.97 75.362Z" fill="#6362C2"/>
<path d="M832.991 226.917C870.674 223.412 898.155 202.39 930.936 186H947.071V375H546.571V319.492C565.575 319.492 588.231 295.378 605.39 287.142C611.744 284.092 619.711 278.679 627.127 280.876C636.826 283.75 646.884 291.873 657.047 291.873C670.452 291.873 678.884 280.365 691.571 280.365C713.524 280.365 736.12 275.078 754.737 263.231C765.233 256.551 763.247 252.746 751.54 252.746C750.406 252.746 744.136 253.519 748.088 251.723C759.754 246.42 770.56 239.486 782.484 234.717C799.649 227.851 815.245 228.568 832.991 226.917Z" fill="#201F53"/>
</svg>
