<svg width="91" height="21" viewBox="0 0 91 21" fill="none" xmlns="http://www.w3.org/2000/svg">
<path d="M52.8 0.615723H90.8679V20.3899H48.9932C51.507 14.2451 52.8 7.66949 52.8 1.03036V0.615723Z" fill="#504EBA"/>
<path d="M54.1955 14.542C54.1955 15.3489 54.041 16.1105 53.732 16.8267C53.4321 17.5339 53.0141 18.155 52.478 18.6899C51.9509 19.2158 51.3284 19.6328 50.6105 19.9411C49.9017 20.2403 49.1429 20.3899 48.3341 20.3899C47.6071 20.3899 46.9074 20.263 46.2349 20.0091C45.5715 19.7552 44.9718 19.3835 44.4356 18.8939C43.8995 19.3835 43.2951 19.7552 42.6227 20.0091C41.9502 20.263 41.2505 20.3899 40.5235 20.3899C39.7147 20.3899 38.9514 20.2403 38.2335 19.9411C37.5246 19.6328 36.9022 19.2158 36.366 18.6899C35.8389 18.155 35.4209 17.5339 35.1119 16.8267C34.8121 16.1105 34.6621 15.3489 34.6621 14.542V0.615723H38.5742V14.542C38.5742 14.814 38.6242 15.0724 38.7242 15.3172C38.8241 15.5529 38.9605 15.7614 39.1331 15.9428C39.3149 16.115 39.5239 16.251 39.7601 16.3508C39.9964 16.4505 40.2509 16.5003 40.5235 16.5003C40.7961 16.5003 41.0506 16.4505 41.2868 16.3508C41.5231 16.251 41.7276 16.115 41.9002 15.9428C42.082 15.7614 42.2228 15.5529 42.3228 15.3172C42.4227 15.0724 42.4727 14.814 42.4727 14.542V0.615723H46.3849V14.542C46.3849 14.814 46.4348 15.0724 46.5348 15.3172C46.6348 15.5529 46.7711 15.7614 46.9437 15.9428C47.1255 16.115 47.3345 16.251 47.5708 16.3508C47.807 16.4505 48.0615 16.5003 48.3341 16.5003C48.6067 16.5003 48.8612 16.4505 49.0974 16.3508C49.3337 16.251 49.5382 16.115 49.7108 15.9428C49.8926 15.7614 50.0334 15.5529 50.1334 15.3172C50.2425 15.0724 50.297 14.814 50.297 14.542V0.615723H54.1955V14.542Z" fill="white"/>
<path d="M20.772 4.51888V12.3252H24.6841C25.2203 12.3252 25.7246 12.2255 26.1972 12.026C26.6697 11.8175 27.0832 11.5364 27.4376 11.1828C27.792 10.8292 28.0692 10.4167 28.2691 9.94522C28.4781 9.46469 28.5826 8.95696 28.5826 8.42204C28.5826 7.88711 28.4781 7.38391 28.2691 6.91245C28.0692 6.43193 27.792 6.01486 27.4376 5.66127C27.0832 5.30767 26.6697 5.03114 26.1972 4.83168C25.7246 4.62315 25.2203 4.51888 24.6841 4.51888H20.772ZM20.772 20.1179H16.8599V0.615723H24.6841C25.402 0.615723 26.0927 0.710922 26.756 0.90132C27.4194 1.08265 28.0374 1.34558 28.6099 1.69011C29.1915 2.02557 29.7185 2.43357 30.1911 2.9141C30.6727 3.38556 31.0816 3.91142 31.4179 4.49168C31.7632 5.07194 32.0267 5.693 32.2085 6.35486C32.3993 7.01672 32.4947 7.70578 32.4947 8.42204C32.4947 9.49189 32.2903 10.5028 31.8813 11.4548C31.4724 12.3977 30.9135 13.2228 30.2047 13.93C29.4959 14.6372 28.6644 15.1948 27.7102 15.6028C26.7651 16.0108 25.7564 16.2148 24.6841 16.2148H20.772V20.1179Z" fill="white"/>
<path d="M14.1201 20.1179H0.720703V0.615723H14.1201V4.51888H4.63283V8.42204H11.0531V12.3252H4.63283V16.2148H14.1201V20.1179Z" fill="white"/>
<path d="M62.2331 11.9932C62.444 11.8257 62.5402 11.7482 62.5215 11.7606C63.1295 11.2581 63.6072 10.8455 63.9546 10.5229C64.3082 10.2004 64.606 9.86226 64.8479 9.50865C65.0899 9.15504 65.2108 8.81073 65.2108 8.47574C65.2108 8.22139 65.1519 8.02287 65.034 7.88018C64.9162 7.7375 64.7394 7.66616 64.5036 7.66616C64.2679 7.66616 64.0818 7.75611 63.9453 7.93602C63.815 8.10972 63.7499 8.35787 63.7499 8.68046H62.2145C62.2269 8.15315 62.3385 7.71269 62.5495 7.35908C62.7666 7.00547 63.0489 6.74491 63.3963 6.57742C63.7499 6.40992 64.1407 6.32617 64.5688 6.32617C65.307 6.32617 65.8622 6.51538 66.2344 6.8938C66.6129 7.27223 66.8021 7.76542 66.8021 8.37338C66.8021 9.03717 66.5756 9.65443 66.1228 10.2252C65.6699 10.7897 65.093 11.3418 64.3919 11.8815H66.9044V13.175H62.2331V11.9932ZM67.605 9.77851C67.605 8.71148 67.8098 7.87088 68.2192 7.25672C68.6348 6.64255 69.3017 6.33547 70.2199 6.33547C71.138 6.33547 71.8018 6.64255 72.2113 7.25672C72.6269 7.87088 72.8347 8.71148 72.8347 9.77851C72.8347 10.8579 72.6269 11.7047 72.2113 12.3189C71.8018 12.9331 71.138 13.2401 70.2199 13.2401C69.3017 13.2401 68.6348 12.9331 68.2192 12.3189C67.8098 11.7047 67.605 10.8579 67.605 9.77851ZM71.2714 9.77851C71.2714 9.15194 71.2032 8.67115 71.0667 8.33615C70.9302 7.99495 70.6479 7.82435 70.2199 7.82435C69.7918 7.82435 69.5096 7.99495 69.3731 8.33615C69.2366 8.67115 69.1684 9.15194 69.1684 9.77851C69.1684 10.2004 69.1932 10.5509 69.2428 10.83C69.2924 11.103 69.3917 11.3263 69.5406 11.5C69.6957 11.6675 69.9221 11.7513 70.2199 11.7513C70.5177 11.7513 70.741 11.6675 70.8899 11.5C71.045 11.3263 71.1473 11.103 71.197 10.83C71.2466 10.5509 71.2714 10.2004 71.2714 9.77851ZM73.6196 11.9932C73.8305 11.8257 73.9267 11.7482 73.9081 11.7606C74.516 11.2581 74.9937 10.8455 75.3411 10.5229C75.6947 10.2004 75.9925 9.86226 76.2344 9.50865C76.4764 9.15504 76.5973 8.81073 76.5973 8.47574C76.5973 8.22139 76.5384 8.02287 76.4205 7.88018C76.3027 7.7375 76.1259 7.66616 75.8901 7.66616C75.6544 7.66616 75.4683 7.75611 75.3318 7.93602C75.2015 8.10972 75.1364 8.35787 75.1364 8.68046H73.601C73.6134 8.15315 73.725 7.71269 73.936 7.35908C74.1531 7.00547 74.4354 6.74491 74.7828 6.57742C75.1364 6.40992 75.5272 6.32617 75.9553 6.32617C76.6935 6.32617 77.2487 6.51538 77.6209 6.8938C77.9994 7.27223 78.1886 7.76542 78.1886 8.37338C78.1886 9.03717 77.9621 9.65443 77.5093 10.2252C77.0564 10.7897 76.4795 11.3418 75.7785 11.8815H78.2909V13.175H73.6196V11.9932ZM83.7746 7.86157H80.8713V9.14573C80.9953 9.00925 81.169 8.89759 81.3924 8.81073C81.6157 8.72388 81.8576 8.68046 82.1182 8.68046C82.5835 8.68046 82.9681 8.78592 83.2721 8.99684C83.5823 9.20777 83.8087 9.48073 83.9514 9.81573C84.0941 10.1507 84.1654 10.5136 84.1654 10.9045C84.1654 11.6303 83.9607 12.2072 83.5512 12.6353C83.1418 13.0571 82.5649 13.2681 81.8204 13.2681C81.3241 13.2681 80.893 13.1843 80.5269 13.0168C80.1609 12.8431 79.8787 12.6043 79.6801 12.3003C79.4816 11.9963 79.3731 11.6458 79.3545 11.2488H80.9085C80.9457 11.4411 81.0357 11.6024 81.1783 11.7327C81.321 11.8567 81.5164 11.9188 81.7646 11.9188C82.0562 11.9188 82.2733 11.8257 82.416 11.6396C82.5586 11.4535 82.63 11.2053 82.63 10.8952C82.63 10.5912 82.5555 10.3585 82.4067 10.1973C82.2578 10.036 82.0406 9.95531 81.7553 9.95531C81.5444 9.95531 81.3706 10.008 81.2342 10.1135C81.0977 10.2128 81.0077 10.3461 80.9643 10.5136H79.4289V6.46575H83.7746V7.86157Z" fill="white"/>
</svg>
