<svg width="159" height="262" viewBox="0 0 159 262" fill="none" xmlns="http://www.w3.org/2000/svg">
<g opacity="0.7" filter="url(#filter0_f_1360_24577)">
<path fill-rule="evenodd" clip-rule="evenodd" d="M158.658 110.38H218.362C215.784 89.8501 205.01 71.1692 188.498 58.6667L158.658 110.38ZM158.658 129.62L188.522 181.333C204.962 168.83 215.759 150.101 218.386 129.62H158.682H158.658ZM141.999 139.228L171.839 190.941C152.797 198.919 131.177 198.919 112.135 190.941L141.999 139.228ZM125.341 129.62H65.6369C68.2391 150.149 79.0125 168.83 95.5009 181.333L125.365 129.62H125.341ZM125.341 110.38L95.5009 58.6667C79.0611 71.1449 68.2391 89.8987 65.6369 110.38H125.341ZM141.999 100.772L112.135 49.0587C131.177 41.0804 152.797 41.0804 171.839 49.0587L141.999 100.772ZM230.643 143.776C217.535 192.74 167.194 221.808 118.239 208.697C69.2848 195.586 40.2234 145.236 53.3314 96.2716C66.4395 47.3074 116.78 18.2402 165.735 31.3508C214.689 44.4615 243.751 94.8121 230.643 143.776Z" fill="url(#paint0_linear_1360_24577)"/>
<path d="M65.6382 112.545H125.342C126.12 112.545 126.85 112.131 127.239 111.45C127.628 110.769 127.628 109.942 127.239 109.261L97.3991 57.5483C97.0829 57.0131 96.5479 56.6239 95.9399 56.5023C95.3319 56.3806 94.6996 56.5023 94.1889 56.8915C77.3601 69.6859 66.1732 89.0721 63.4981 110.064C63.4251 110.696 63.6197 111.304 64.0331 111.791C64.4465 112.253 65.0302 112.52 65.6625 112.52L65.6382 112.545ZM94.8699 61.9265L121.572 108.166H68.1674C71.0857 90.0937 80.6918 73.4804 94.8699 61.9265Z" fill="black"/>
<path d="M140.103 101.842C140.492 102.523 141.222 102.937 142 102.937C142.778 102.937 143.508 102.523 143.897 101.842L173.737 50.1295C174.053 49.5944 174.126 48.9376 173.907 48.3295C173.712 47.7458 173.275 47.2593 172.691 47.016C153.211 38.8432 130.789 38.8675 111.309 47.016C110.726 47.2593 110.288 47.7458 110.093 48.3295C109.899 48.9376 109.947 49.57 110.264 50.1295L140.128 101.842H140.103ZM168.678 50.1295L141.976 96.3938L115.273 50.1538C132.321 43.6593 151.63 43.6593 168.678 50.1538V50.1295Z" fill="black"/>
<path d="M127.214 128.525C126.825 127.844 126.095 127.431 125.317 127.431H65.6134C64.9811 127.431 64.3974 127.698 63.984 128.16C63.5705 128.623 63.376 129.255 63.4489 129.887C66.0997 150.903 77.2866 170.29 94.1398 183.06C94.5289 183.351 94.9909 183.497 95.453 183.497C95.5989 183.497 95.7448 183.497 95.8907 183.449C96.4987 183.327 97.0337 182.938 97.3499 182.403L127.214 130.69C127.603 130.009 127.603 129.182 127.214 128.501V128.525ZM94.845 178.073C80.6426 166.519 71.0365 149.906 68.1425 131.809H121.548L94.845 178.073Z" fill="black"/>
<path d="M143.873 138.158C143.484 137.477 142.754 137.063 141.976 137.063C141.198 137.063 140.468 137.477 140.079 138.158L110.215 189.871C109.899 190.406 109.826 191.063 110.045 191.646C110.239 192.23 110.701 192.717 111.261 192.96C121.013 197.046 131.348 199.114 141.976 199.114C152.603 199.114 162.939 197.046 172.667 192.96C173.25 192.717 173.688 192.23 173.883 191.646C174.077 191.063 174.029 190.406 173.712 189.871L143.873 138.158ZM115.273 189.871L141.976 143.607L168.678 189.871C151.655 196.365 132.321 196.365 115.273 189.871Z" fill="black"/>
<path d="M189.812 56.9159C189.325 56.5267 188.669 56.4051 188.061 56.5267C187.453 56.6483 186.918 57.0375 186.602 57.5726L156.762 109.285C156.373 109.966 156.373 110.793 156.762 111.475C157.151 112.156 157.881 112.569 158.659 112.569H218.362C218.995 112.569 219.578 112.302 219.992 111.839C220.405 111.377 220.6 110.745 220.527 110.112C217.9 89.0965 206.689 69.7103 189.836 56.9402L189.812 56.9159ZM162.428 108.191L189.131 61.9266C203.333 73.4805 212.939 90.0938 215.833 108.191H162.428Z" fill="black"/>
<path d="M223.372 73.0182C210.823 51.2726 190.565 35.7296 166.319 29.2351C158.342 27.0945 150.147 26 141.951 26C99.5387 26 62.233 54.6536 51.2408 95.6882C44.7475 119.939 48.0793 145.26 60.628 167.006C73.1767 188.752 93.4346 204.295 117.681 210.789C125.657 212.93 133.877 214 142.049 214C184.461 214 221.767 185.346 232.759 144.312C239.252 120.061 235.921 94.7395 223.372 72.9939V73.0182ZM228.552 143.193C218.07 182.33 182.516 209.646 142.049 209.646C134.242 209.646 126.436 208.6 118.824 206.581C95.7206 200.379 76.3868 185.565 64.4218 164.817C52.4567 144.093 49.2709 119.939 55.4723 96.8071C65.9539 57.6941 101.533 30.3539 141.976 30.3539C149.782 30.3539 157.613 31.3999 165.225 33.4188C188.328 39.6214 207.662 54.4347 219.627 75.1831C231.592 95.9071 234.778 120.061 228.576 143.193H228.552Z" fill="black"/>
<path d="M218.362 127.431H158.659C157.881 127.431 157.151 127.844 156.762 128.525C156.373 129.206 156.373 130.033 156.762 130.714L186.626 182.427C186.942 182.962 187.477 183.352 188.085 183.473C188.231 183.497 188.377 183.522 188.523 183.522C188.985 183.522 189.447 183.376 189.836 183.084C206.665 170.265 217.876 150.903 220.527 129.912C220.6 129.279 220.405 128.671 219.992 128.185C219.578 127.723 218.97 127.455 218.362 127.455V127.431ZM189.131 178.049L162.428 131.785H215.833C212.915 149.857 203.309 166.471 189.131 178.049Z" fill="black"/>
<path fill-rule="evenodd" clip-rule="evenodd" d="M170.257 91.7237C185.87 107.34 185.87 132.661 170.257 148.277C154.644 163.893 129.328 163.893 113.74 148.277C98.1266 132.661 98.1266 107.34 113.74 91.7237C129.352 76.1077 154.669 76.1077 170.257 91.7237Z" fill="url(#paint1_linear_1360_24577)"/>
<path d="M141.999 162.166C130.739 162.166 120.16 157.788 112.183 149.81C95.7436 133.367 95.7436 106.635 112.183 90.1917C120.136 82.2377 130.715 77.8594 141.999 77.8594C153.283 77.8594 163.837 82.2377 171.79 90.1917C188.229 106.635 188.229 133.391 171.79 149.81C163.837 157.764 153.258 162.166 141.999 162.166ZM141.999 82.2134C131.906 82.2134 122.422 86.1539 115.272 93.2808C100.534 108.021 100.534 132.005 115.272 146.745C122.397 153.872 131.906 157.812 141.999 157.812C152.091 157.812 161.576 153.872 168.725 146.745C183.463 132.005 183.463 108.021 168.725 93.2808C161.6 86.1539 152.091 82.2134 141.999 82.2134Z" fill="black"/>
<path fill-rule="evenodd" clip-rule="evenodd" d="M145.061 108.507C138.714 106.804 132.197 110.574 130.494 116.923C128.792 123.271 132.561 129.79 138.909 131.493C145.256 133.195 151.774 129.425 153.476 123.077C155.178 116.728 151.409 110.209 145.061 108.507Z" fill="black"/>
<path d="M141.997 134.071C140.781 134.071 139.541 133.901 138.35 133.585C130.859 131.566 126.385 123.831 128.403 116.339C130.032 110.21 135.626 105.904 141.997 105.904C143.213 105.904 144.454 106.075 145.645 106.391C153.136 108.41 157.61 116.145 155.592 123.636C153.938 129.79 148.345 134.071 141.997 134.071ZM141.997 110.283C137.62 110.283 133.753 113.25 132.635 117.482C131.248 122.663 134.313 127.99 139.493 129.377C144.6 130.715 150.023 127.553 151.385 122.518C152.771 117.337 149.682 112.01 144.527 110.623C143.7 110.404 142.849 110.283 142.022 110.283H141.997Z" fill="black"/>
</g>
<defs>
<filter id="filter0_f_1360_24577" x="0" y="-22" width="284" height="284" filterUnits="userSpaceOnUse" color-interpolation-filters="sRGB">
<feFlood flood-opacity="0" result="BackgroundImageFix"/>
<feBlend mode="normal" in="SourceGraphic" in2="BackgroundImageFix" result="shape"/>
<feGaussianBlur stdDeviation="6" result="effect1_foregroundBlur_1360_24577"/>
</filter>
<linearGradient id="paint0_linear_1360_24577" x1="141.987" y1="28.2051" x2="141.987" y2="211.843" gradientUnits="userSpaceOnUse">
<stop stop-color="#4B019F"/>
<stop offset="0.156466" stop-color="#AB62FE"/>
<stop offset="0.531438" stop-color="#CEA3FE"/>
<stop offset="0.875" stop-color="#AB62FE"/>
<stop offset="1" stop-color="#4B019F"/>
</linearGradient>
<linearGradient id="paint1_linear_1360_24577" x1="141.998" y1="80.0117" x2="141.998" y2="159.989" gradientUnits="userSpaceOnUse">
<stop stop-color="#CEA3FE"/>
<stop offset="0.495192" stop-color="#F1F2F2"/>
<stop offset="1" stop-color="#CEA3FE"/>
</linearGradient>
</defs>
</svg>
