<svg width="660" height="660" viewBox="0 0 660 660" fill="none" xmlns="http://www.w3.org/2000/svg">
<g opacity="0.5" filter="url(#filter0_f_945_13564)">
<path fill-rule="evenodd" clip-rule="evenodd" d="M301.856 313.028V199.541C301.856 161.719 301.856 123.876 301.856 86.0545C240.907 93.0295 186.76 122.392 147.829 165.748C108.92 209.103 85.2269 266.408 85.2269 329.247C85.2269 345.995 86.9435 362.68 90.3342 378.983C93.7038 395.287 98.7477 411.229 105.36 426.536C138.102 407.625 170.845 388.714 203.608 369.782C236.35 350.871 269.093 331.96 301.835 313.028H301.856ZM357.995 313.028C390.738 331.939 423.501 350.85 456.244 369.782C488.986 388.693 521.728 407.604 554.471 426.536C561.083 411.229 566.127 395.287 569.517 378.983C572.887 362.68 574.625 346.016 574.625 329.247C574.625 266.408 550.953 209.103 512.022 165.748C473.113 122.414 418.945 93.0295 357.995 86.0545V313.028ZM329.915 361.662C362.658 380.573 395.421 399.484 428.164 418.395C460.906 437.306 493.67 456.217 526.412 475.149C489.919 524.398 437.382 556.602 380.353 568.644C323.346 580.686 261.887 572.587 207.571 541.21C193.054 532.836 179.491 522.999 167.072 511.932C154.653 500.844 143.358 488.527 133.419 475.128C166.161 456.217 198.925 437.306 231.667 418.395C264.409 399.484 297.173 380.573 329.915 361.662ZM322.667 26.6504H337.184C339.092 32.6926 340.999 38.7347 342.885 44.7769C344.792 50.8191 346.7 56.8613 348.607 62.9034C351.341 57.1793 354.053 51.4763 356.787 45.7521C359.521 40.028 362.234 34.325 364.968 28.6008C367.362 28.9401 369.757 29.2793 372.152 29.6185C374.547 29.9577 376.941 30.2969 379.336 30.6361C380.375 36.8903 381.413 43.1233 382.473 49.3774C383.511 55.6316 384.549 61.8646 385.609 68.1188C389.106 62.8398 392.603 57.5609 396.099 52.2819C399.596 47.003 403.093 41.724 406.59 36.4451C408.921 37.1023 411.252 37.7807 413.562 38.4379C415.893 39.1164 418.203 39.7736 420.534 40.4308C420.704 46.7698 420.873 53.0876 421.043 59.4265C421.212 65.7655 421.382 72.0833 421.53 78.4223C425.726 73.6733 429.923 68.9244 434.119 64.1967C438.315 59.4477 442.511 54.72 446.707 49.9711C448.911 50.9463 451.136 51.9427 453.34 52.9179C455.544 53.8932 457.748 54.8896 459.973 55.8648C459.253 62.1614 458.532 68.458 457.812 74.7546C457.091 81.0512 456.371 87.3265 455.671 93.6231C460.482 89.5102 465.293 85.3973 470.104 81.2844C474.914 77.1714 479.725 73.0585 484.536 68.9456C486.591 70.2176 488.647 71.5109 490.681 72.7829C492.737 74.0762 494.793 75.3482 496.848 76.6414C495.259 82.7684 493.67 88.8954 492.101 95.0436C490.512 101.171 488.922 107.298 487.333 113.446C492.674 110.032 498.014 106.64 503.355 103.227C508.695 99.8349 514.036 96.4216 519.376 93.0083C521.22 94.556 523.085 96.1248 524.928 97.6724C526.793 99.2201 528.637 100.789 530.502 102.337C528.065 108.188 525.649 114.039 523.233 119.891C520.817 125.742 518.38 131.593 515.964 137.445C521.728 134.816 527.472 132.187 533.236 129.558C539 126.929 544.765 124.3 550.508 121.672C552.118 123.474 553.75 125.276 555.361 127.078C556.971 128.88 558.603 130.682 560.214 132.484C556.993 137.932 553.793 143.402 550.571 148.851C547.35 154.299 544.15 159.769 540.929 165.218C546.99 163.416 553.072 161.613 559.133 159.811C565.215 158.009 571.276 156.207 577.337 154.405C578.694 156.419 580.05 158.412 581.406 160.426C582.763 162.44 584.119 164.433 585.475 166.447C581.534 171.408 577.592 176.369 573.65 181.309C569.708 186.27 565.766 191.231 561.825 196.17C568.076 195.238 574.349 194.305 580.601 193.372C586.853 192.439 593.126 191.506 599.378 190.552C600.437 192.736 601.497 194.898 602.557 197.082C603.616 199.266 604.676 201.428 605.735 203.612C601.137 207.979 596.559 212.325 591.96 216.693C587.362 221.06 582.763 225.406 578.185 229.773C584.522 229.71 590.837 229.667 597.174 229.604C603.51 229.54 609.826 229.498 616.162 229.434C616.904 231.745 617.667 234.035 618.409 236.346C619.15 238.656 619.913 240.946 620.655 243.257C615.505 246.925 610.355 250.614 605.206 254.281C600.056 257.949 594.885 261.638 589.735 265.306C596.008 266.132 602.281 266.959 608.554 267.786C614.827 268.613 621.1 269.44 627.394 270.267C627.818 272.641 628.242 275.037 628.644 277.411C629.068 279.786 629.492 282.181 629.916 284.556C624.3 287.482 618.684 290.407 613.068 293.333C607.452 296.259 601.836 299.184 596.22 302.11C602.323 303.806 608.427 305.502 614.53 307.177C620.634 308.873 626.737 310.569 632.819 312.244C632.904 314.661 632.989 317.078 633.074 319.494C633.158 321.911 633.243 324.328 633.328 326.745C627.352 328.865 621.397 330.964 615.42 333.084C609.444 335.204 603.489 337.303 597.513 339.423C603.319 341.946 609.126 344.469 614.933 346.992C620.74 349.515 626.546 352.037 632.353 354.56C632.099 356.977 631.845 359.373 631.59 361.79C631.336 364.185 631.082 366.602 630.827 369.019C624.618 370.291 618.409 371.542 612.199 372.793C605.99 374.065 599.801 375.316 593.592 376.588C598.996 379.895 604.379 383.202 609.783 386.51C615.187 389.817 620.57 393.124 625.974 396.431C625.381 398.785 624.809 401.138 624.215 403.47C623.643 405.823 623.05 408.155 622.456 410.509C616.141 410.89 609.826 411.272 603.489 411.675C597.174 412.056 590.858 412.438 584.543 412.841C589.417 416.869 594.313 420.897 599.208 424.925C604.082 428.953 608.978 432.981 613.852 437.009C612.962 439.257 612.051 441.504 611.139 443.751C610.228 445.999 609.338 448.246 608.427 450.493C602.111 450.005 595.796 449.497 589.502 449.009C583.187 448.521 576.871 448.013 570.577 447.525C574.858 452.189 579.139 456.853 583.398 461.539C587.679 466.203 591.96 470.888 596.241 475.552C595.033 477.651 593.825 479.75 592.617 481.849C591.409 483.948 590.201 486.046 588.993 488.145C582.826 486.767 576.638 485.41 570.45 484.032C564.262 482.654 558.095 481.298 551.906 479.919C555.488 485.135 559.091 490.35 562.672 495.587C566.254 500.802 569.835 506.017 573.438 511.233C571.955 513.141 570.471 515.049 568.966 516.957C567.483 518.865 565.978 520.773 564.495 522.681C558.561 520.455 552.627 518.25 546.693 516.024C540.759 513.798 534.825 511.593 528.891 509.367C531.71 515.028 534.55 520.709 537.368 526.37C540.187 532.031 543.027 537.712 545.845 543.373L540.632 548.419C538.894 550.094 537.157 551.79 535.419 553.464C529.845 550.433 524.293 547.422 518.719 544.391C513.145 541.359 507.593 538.348 502.019 535.317C504.033 541.316 506.046 547.337 508.038 553.337L514.057 571.358L508.186 575.619L502.316 579.88L487.058 568.58C481.971 564.807 476.885 561.054 471.778 557.281L475.232 575.958L478.686 594.636L472.286 598.049L465.886 601.463L452.344 588.149C447.83 583.718 443.316 579.266 438.802 574.835L439.629 593.809L440.455 612.784L433.631 615.264L426.807 617.745L415.236 602.671L403.686 587.597L401.864 606.508L400.041 625.419L392.942 626.924L385.842 628.43L376.496 611.893L367.15 595.357L362.721 613.823L358.292 632.309L351.044 632.818L343.796 633.327L336.845 615.646C334.514 609.752 332.204 603.858 329.873 597.964L322.922 615.646L315.971 633.327L308.723 632.818L301.475 632.309L297.046 613.844C295.562 607.674 294.1 601.526 292.617 595.378C289.501 600.89 286.386 606.402 283.249 611.914L273.904 628.451L266.804 626.946C264.431 626.437 262.057 625.949 259.705 625.44C259.09 619.144 258.497 612.826 257.882 606.529C257.267 600.233 256.674 593.915 256.059 587.619C252.202 592.643 248.345 597.668 244.51 602.692C240.653 607.717 236.795 612.741 232.938 617.766C230.671 616.939 228.382 616.112 226.114 615.285C223.847 614.459 221.579 613.632 219.291 612.805C219.566 606.487 219.841 600.148 220.117 593.83C220.392 587.491 220.668 581.174 220.944 574.856C216.43 579.287 211.915 583.739 207.401 588.17C202.887 592.601 198.374 597.053 193.86 601.484C191.719 600.339 189.579 599.215 187.459 598.07C185.319 596.926 183.178 595.802 181.038 594.657C182.204 588.424 183.348 582.212 184.492 575.979C185.658 569.746 186.802 563.535 187.968 557.302C182.882 561.075 177.796 564.849 172.688 568.602C167.602 572.375 162.516 576.128 157.43 579.902C155.48 578.481 153.509 577.061 151.559 575.64C149.61 574.22 147.639 572.799 145.689 571.379C147.702 565.379 149.716 559.358 151.729 553.358C153.742 547.359 155.755 541.338 157.748 535.338C152.195 538.37 146.621 541.38 141.048 544.412C135.474 547.443 129.922 550.454 124.348 553.486C122.61 551.811 120.873 550.115 119.135 548.44C117.397 546.765 115.659 545.069 113.921 543.394C116.74 537.734 119.58 532.052 122.398 526.391C125.217 520.731 128.036 515.049 130.875 509.388C124.942 511.614 119.008 513.819 113.095 516.045C107.161 518.271 101.248 520.476 95.3145 522.702C93.8098 520.794 92.3263 518.886 90.8428 516.978C89.3594 515.07 87.8547 513.162 86.3713 511.254C89.9528 506.039 93.5555 500.802 97.137 495.587C100.719 490.371 104.321 485.156 107.903 479.919C101.715 481.298 95.5476 482.654 89.3594 484.032C83.1712 485.41 77.0042 486.767 70.816 488.145C69.608 486.046 68.4 483.948 67.192 481.849C65.9841 479.75 64.7761 477.651 63.5681 475.552C67.849 470.888 72.1299 466.224 76.4108 461.539C80.6917 456.874 84.9725 452.21 89.2534 447.525C82.938 448.013 76.6227 448.521 70.3073 449.009C63.992 449.518 57.6766 450.005 51.3825 450.514C50.4712 448.267 49.5811 446.02 48.6698 443.772C47.7585 441.525 46.8685 439.278 45.9572 437.031C50.8526 433.003 55.7269 428.974 60.6224 424.946C65.4967 420.918 70.3921 416.89 75.2876 412.862C68.9722 412.48 62.6569 412.099 56.3203 411.696C50.005 411.314 43.6896 410.933 37.353 410.53C36.7808 408.177 36.1874 405.823 35.594 403.491C35.0218 401.138 34.4285 398.785 33.8351 396.453C39.2392 393.145 44.6221 389.838 50.0262 386.531C55.4303 383.223 60.8131 379.916 66.2172 376.609C60.0078 375.358 53.8196 374.086 47.6102 372.814C41.4008 371.563 35.2126 370.291 29.0032 369.019C28.7489 366.602 28.4946 364.207 28.2403 361.79C27.986 359.373 27.7316 356.977 27.4773 354.56C33.2841 352.037 39.0908 349.515 44.8976 346.992C50.7043 344.469 56.511 341.946 62.3178 339.423C56.3415 337.303 50.3864 335.183 44.4101 333.084C38.4338 330.964 32.4788 328.865 26.5025 326.745C26.5873 324.328 26.672 321.911 26.7568 319.494C26.8416 317.078 26.9263 314.661 27.0111 312.244C33.1145 310.548 39.218 308.852 45.3214 307.177C51.4249 305.481 57.5283 303.785 63.6317 302.11C58.0157 299.184 52.3997 296.259 46.7837 293.333C41.1677 290.407 35.5517 287.482 29.9357 284.556C30.3595 282.181 30.7834 279.786 31.2072 277.411C31.6311 275.037 32.0549 272.641 32.4576 270.267C38.7306 269.44 45.0035 268.613 51.2977 267.786C57.5706 266.959 63.8436 266.132 70.1378 265.306C64.988 261.638 59.8382 257.949 54.6673 254.281C49.5175 250.614 44.3466 246.925 39.1968 243.236C39.9385 240.946 40.7014 238.635 41.4432 236.346C42.1849 234.035 42.9478 231.745 43.6896 229.434C50.0261 229.498 56.3627 229.54 62.6781 229.604C69.0146 229.667 75.3512 229.71 81.6665 229.773C77.0678 225.406 72.4902 221.06 67.8914 216.693C63.2926 212.325 58.7151 207.979 54.1163 203.612C55.1759 201.428 56.2356 199.266 57.2952 197.082C58.3548 194.92 59.4144 192.736 60.474 190.552C66.7258 191.485 72.9988 192.418 79.2718 193.372C85.5236 194.305 91.7965 195.238 98.0483 196.17C94.1065 191.21 90.1647 186.249 86.2229 181.309C82.2811 176.348 78.3393 171.387 74.3975 166.447C75.7538 164.433 77.1101 162.44 78.4664 160.426C79.8228 158.412 81.1791 156.419 82.5142 154.405C88.5965 156.207 94.6575 158.009 100.719 159.811C106.78 161.613 112.862 163.416 118.923 165.218C115.702 159.769 112.48 154.299 109.28 148.851C106.059 143.402 102.859 137.932 99.6377 132.484C101.248 130.682 102.88 128.88 104.491 127.099C106.101 125.297 107.712 123.495 109.344 121.714C115.108 124.343 120.873 126.972 126.637 129.601C132.401 132.229 138.166 134.858 143.93 137.487C141.514 131.636 139.077 125.784 136.661 119.933C134.245 114.082 131.808 108.23 129.392 102.379C131.257 100.831 133.101 99.2625 134.944 97.7148C136.809 96.1672 138.653 94.5984 140.518 93.0507C145.859 96.464 151.199 99.8561 156.54 103.269C161.88 106.683 167.221 110.075 172.561 113.488C170.972 107.361 169.382 101.234 167.793 95.086C166.203 88.959 164.614 82.8108 163.046 76.6838C165.101 75.3906 167.136 74.1186 169.191 72.8253C171.247 71.5533 173.282 70.26 175.337 68.988C180.148 73.1009 184.959 77.2138 189.791 81.3268C194.601 85.4397 199.412 89.5526 204.244 93.6655C203.523 87.3689 202.803 81.0724 202.082 74.7758C201.362 68.4792 200.641 62.1826 199.942 55.9072L206.575 52.9604C208.779 51.9851 210.983 50.9887 213.208 50.0135C217.404 54.7624 221.6 59.4901 225.797 64.2391C229.993 68.988 234.189 73.7157 238.385 78.4647C238.554 72.1257 238.724 65.8079 238.893 59.4689C239.063 53.13 239.233 46.8122 239.381 40.4732L246.353 38.4591C248.684 37.8019 250.994 37.1235 253.326 36.4663C256.822 41.7452 260.319 47.0242 263.816 52.3031C267.313 57.5821 270.809 62.861 274.306 68.14C275.345 61.8858 276.404 55.6528 277.443 49.3986C278.481 43.1445 279.541 36.9115 280.579 30.6573L287.763 29.6397C290.158 29.3005 292.553 28.9613 294.948 28.622C297.681 34.3462 300.394 40.0492 303.128 45.7733C305.862 51.4763 308.574 57.2005 311.308 62.9246C313.216 56.8825 315.123 50.8403 317.009 44.7981C318.916 38.7559 320.824 32.7138 322.71 26.6716L322.667 26.6504Z" fill="url(#paint0_linear_945_13564)"/>
<path d="M527.748 472.838L331.251 359.351C330.424 358.884 329.407 358.884 328.581 359.351L132.105 472.816C131.448 473.198 130.982 473.834 130.834 474.597C130.685 475.339 130.834 476.124 131.3 476.739C141.324 490.243 152.768 502.752 165.314 513.946C177.902 525.182 191.677 535.146 206.258 543.563C243.747 565.23 286.386 576.657 329.534 576.657C346.743 576.657 364.036 574.855 380.926 571.272C440.265 558.721 492.695 525.161 528.574 476.739C529.019 476.124 529.21 475.339 529.04 474.597C528.892 473.855 528.426 473.198 527.769 472.816L527.748 472.838ZM379.803 566.036C363.273 569.534 346.361 571.293 329.513 571.293C287.298 571.293 245.612 560.099 208.907 538.899C194.644 530.673 181.166 520.921 168.853 509.939C157.324 499.656 146.749 488.229 137.382 475.954L329.916 364.757L522.449 475.954C487.418 522.023 436.874 553.951 379.803 566.036Z" fill="#776503"/>
<path d="M304.547 313.027V86.0537C304.547 85.2905 304.229 84.5696 303.657 84.0608C303.085 83.552 302.322 83.2976 301.559 83.4036C241.648 90.2514 186.336 118.851 145.837 163.966C105.041 209.42 82.5559 268.125 82.5559 329.246C82.5559 346.079 84.2937 362.997 87.7269 379.513C91.1389 395.985 96.2463 412.161 102.922 427.596C103.219 428.295 103.812 428.825 104.533 429.08C104.808 429.164 105.084 429.207 105.38 429.207C105.846 429.207 106.313 429.08 106.715 428.846L303.191 315.36C304.017 314.872 304.526 314.003 304.526 313.049L304.547 313.027ZM299.185 311.48L106.673 422.677C100.718 408.43 96.1191 393.547 92.9826 378.41C89.6342 362.255 87.9388 345.698 87.9388 329.225C87.9388 269.418 109.915 211.985 149.842 167.506C188.794 124.13 241.733 96.336 299.185 89.043V311.459V311.48Z" fill="#776503"/>
<path d="M633.434 352.164L604.824 339.72L634.218 329.31C635.32 328.928 636.041 327.868 635.998 326.702L635.49 312.18C635.447 311.014 634.663 309.996 633.54 309.699L603.489 301.368L631.145 286.951C632.184 286.421 632.756 285.255 632.544 284.11L630.022 269.8C629.831 268.655 628.899 267.765 627.733 267.616L596.813 263.546L622.202 245.44C623.156 244.762 623.558 243.554 623.198 242.43L618.705 228.607C618.345 227.505 617.328 226.763 616.162 226.763H616.141L584.967 227.038L607.579 205.562C608.427 204.756 608.66 203.506 608.151 202.446L601.794 189.386C601.285 188.326 600.183 187.732 598.996 187.902L568.161 192.524L587.573 168.101C588.294 167.189 588.357 165.896 587.701 164.942L579.584 152.9C578.927 151.946 577.719 151.5 576.617 151.84L546.714 160.702L562.545 133.819C563.138 132.823 563.011 131.53 562.227 130.66L552.521 119.869C551.737 119 550.487 118.746 549.427 119.233L521.071 132.166L533.003 103.354C533.448 102.273 533.151 101.022 532.24 100.28L521.114 90.9515C520.224 90.2095 518.931 90.1247 517.956 90.7395L491.656 107.509L499.476 77.2983C499.773 76.1747 499.286 74.9663 498.289 74.3515L485.977 66.6556C485.002 66.0408 483.709 66.1256 482.819 66.8888L459.105 87.1566L462.644 56.1613C462.771 54.9953 462.135 53.8929 461.076 53.4052L447.809 47.4903C446.749 47.0239 445.499 47.2995 444.715 48.1687L424.052 71.5318L423.247 40.3457C423.226 39.1796 422.442 38.162 421.297 37.844L407.331 33.8371C406.187 33.5191 405 33.9643 404.364 34.9395L387.156 60.9527L382.006 30.1906C381.816 29.0457 380.904 28.1341 379.739 27.9857L365.37 25.9717C364.226 25.8021 363.081 26.4169 362.594 27.4769L349.158 55.6313L339.791 25.8657C339.431 24.742 338.413 24 337.248 24H322.731C321.565 24 320.527 24.7632 320.188 25.8869L310.821 55.6525L297.406 27.4769C296.897 26.4169 295.795 25.8021 294.63 25.9717L280.261 27.9857C279.096 28.1553 278.184 29.0457 277.994 30.1906L272.844 60.9527L255.636 34.9395C254.979 33.9643 253.792 33.5403 252.669 33.8371L238.703 37.844C237.58 38.162 236.795 39.1796 236.774 40.3457L235.969 71.5318L215.306 48.1687C214.522 47.2995 213.272 47.0239 212.212 47.4903L198.967 53.4052C197.907 53.8929 197.271 54.9953 197.399 56.1613L200.938 87.1566L177.223 66.8888C176.333 66.1256 175.062 66.0408 174.066 66.6556L161.753 74.3515C160.757 74.9663 160.291 76.1535 160.587 77.2983L168.407 107.509L142.107 90.7395C141.133 90.1247 139.84 90.1883 138.95 90.9515L127.824 100.28C126.934 101.022 126.616 102.273 127.061 103.354L138.992 132.166L110.615 119.233C109.556 118.746 108.305 119 107.521 119.869L97.8152 130.66C97.031 131.53 96.9039 132.802 97.4973 133.819L113.328 160.702L83.4254 151.84C82.2811 151.522 81.0943 151.946 80.4373 152.9L72.3206 164.942C71.6636 165.917 71.706 167.189 72.4478 168.101L91.8601 192.524L61.025 187.902C59.817 187.732 58.7362 188.326 58.2276 189.386L51.8699 202.424C51.3613 203.484 51.5732 204.735 52.442 205.541L75.0545 227.017L43.8591 226.741C42.7995 226.529 41.6551 227.483 41.2948 228.607L36.8232 242.409C36.4629 243.511 36.8656 244.741 37.8192 245.419L63.2079 263.546L32.288 267.616C31.1436 267.765 30.2111 268.655 29.9992 269.8L27.4773 284.089C27.2654 285.234 27.8376 286.379 28.876 286.93L56.5322 301.346L26.4813 309.678C25.3581 309.996 24.5528 310.993 24.5104 312.159L24.0018 326.681C23.9594 327.847 24.6799 328.907 25.7819 329.289L55.1759 339.698L26.566 352.143C25.4852 352.609 24.8495 353.712 24.9766 354.878L26.5025 369.316C26.6296 370.482 27.4773 371.414 28.6217 371.648L59.1812 377.859L32.5847 394.163C31.5887 394.777 31.1012 395.965 31.3767 397.088L34.8947 411.166C35.1702 412.31 36.1662 413.116 37.3318 413.201L68.4636 415.109L44.3889 434.953C43.4988 435.695 43.1598 436.946 43.6048 438.027L49.0301 451.489C49.4539 452.57 50.5771 453.249 51.7215 453.164L82.8109 450.705L61.7456 473.707C60.9615 474.577 60.8131 475.849 61.3853 476.866L68.6543 489.438C69.2477 490.456 70.4132 490.943 71.5576 490.71L102.011 483.947L84.3367 509.664C83.6797 510.639 83.7222 511.911 84.4427 512.844L93.3859 524.292C94.1065 525.204 95.3356 525.543 96.4377 525.14L125.662 514.222L111.739 542.143C111.209 543.182 111.442 544.454 112.268 545.259L122.716 555.351C123.543 556.178 124.836 556.326 125.853 555.775L153.276 540.892L143.379 570.467C143.019 571.569 143.379 572.799 144.354 573.477L156.094 582.021C157.048 582.721 158.32 582.7 159.273 582.021L184.344 563.471L178.664 594.148C178.453 595.293 179.364 596.65 180.402 597.201L192.863 603.815C193.881 604.367 195.152 604.176 196 603.37L218.252 581.491L216.896 612.656C216.853 613.822 217.553 614.903 218.655 615.285L232.303 620.246C233.405 620.649 234.634 620.288 235.333 619.356L254.322 594.614L257.31 625.673C257.416 626.839 258.285 627.793 259.429 628.048L273.628 631.058C274.794 631.313 275.959 630.783 276.51 629.744L291.875 602.586L299.144 632.924C299.419 634.069 300.394 634.896 301.56 634.98L316.034 635.998C317.221 636.04 318.281 635.404 318.704 634.302L330.127 605.278L341.55 634.302C341.953 635.341 342.949 635.998 344.029 635.998C344.093 635.998 344.157 635.998 344.22 635.998L358.695 634.98C359.86 634.896 360.835 634.069 361.111 632.945L368.38 602.607L383.744 629.765C384.316 630.783 385.461 631.313 386.626 631.079L400.825 628.048C401.97 627.793 402.817 626.839 402.945 625.673L405.933 594.614L424.921 619.377C425.642 620.31 426.871 620.67 427.952 620.267L441.578 615.306C442.68 614.903 443.38 613.843 443.337 612.677L441.981 581.513L464.233 603.391C465.06 604.218 466.331 604.388 467.37 603.837L480.191 597.01C481.23 596.459 481.781 595.314 481.569 594.148L475.889 563.471L500.96 582.042C501.913 582.742 503.185 582.742 504.117 582.042L515.858 573.499C516.812 572.82 517.193 571.591 516.833 570.488L506.936 540.913L534.338 555.796C535.376 556.347 536.648 556.178 537.474 555.372L547.922 545.281C548.749 544.475 548.982 543.203 548.452 542.164L534.529 514.243L563.753 525.182C564.834 525.585 566.084 525.246 566.805 524.313L575.748 512.865C576.469 511.953 576.511 510.66 575.833 509.706L558.158 483.99L588.612 490.753C589.756 490.986 590.922 490.498 591.515 489.481L598.763 476.909C599.335 475.891 599.208 474.619 598.424 473.771L577.359 450.768L608.448 453.228C609.592 453.312 610.694 452.655 611.139 451.553L616.565 438.09C616.989 437.009 616.692 435.779 615.781 435.037L591.727 415.194L622.859 413.286C624.024 413.222 625.021 412.395 625.296 411.272L628.814 397.173C629.09 396.028 628.602 394.841 627.606 394.247L601.031 377.944L631.59 371.732C632.735 371.499 633.604 370.545 633.709 369.379L635.235 354.942C635.362 353.776 634.705 352.673 633.646 352.207L633.434 352.164ZM628.39 366.835L593.083 374.022C592.003 374.234 591.176 375.103 590.985 376.185C590.795 377.266 591.282 378.347 592.215 378.941L622.922 397.767L620.358 408.049L584.416 410.254C583.314 410.318 582.381 411.06 582.042 412.098C581.703 413.137 582.042 414.303 582.89 414.982L610.694 437.9L606.731 447.715L570.81 444.896C569.75 444.832 568.67 445.405 568.203 446.401C567.716 447.397 567.886 448.563 568.648 449.39L592.977 475.955L587.679 485.135L552.521 477.333C551.419 477.099 550.402 477.63 549.787 478.541C549.173 479.453 549.236 480.725 549.851 481.636L570.132 511.169L563.626 519.522L529.887 506.908C528.849 506.505 527.683 506.802 526.963 507.628C526.221 508.455 526.073 509.621 526.56 510.618L542.645 542.864L535.016 550.22L503.376 533.027C502.401 532.497 501.214 532.624 500.366 533.324C499.519 534.023 499.201 535.189 499.54 536.228L510.963 570.403L502.401 576.636L473.452 555.203C472.562 554.545 471.375 554.503 470.443 555.075C469.51 555.648 469.023 556.75 469.235 557.831L475.804 593.258L466.458 598.24L440.773 572.99C439.989 572.227 438.823 572.015 437.806 572.46C436.81 572.905 436.174 573.923 436.217 575.025L437.785 611.024L427.846 614.649L405.911 586.049C405.254 585.18 404.11 584.799 403.05 585.117C401.991 585.413 401.228 586.346 401.122 587.427L397.668 623.299L387.304 625.504L369.566 594.148C369.015 593.194 367.998 592.643 366.854 592.812C365.752 592.961 364.883 593.766 364.628 594.848L356.215 629.892L345.661 630.634L332.458 597.095C332.056 596.077 331.06 595.399 329.979 595.399C328.898 595.399 327.902 596.077 327.499 597.095L314.296 630.613L303.721 629.871L295.308 594.826C295.054 593.766 294.163 592.961 293.083 592.791C291.981 592.622 290.921 593.173 290.37 594.127L272.632 625.483L262.269 623.278L258.814 587.406C258.708 586.304 257.946 585.392 256.886 585.095C255.826 584.777 254.682 585.159 254.025 586.028L232.091 614.628L222.13 611.003L223.72 575.004C223.762 573.901 223.126 572.884 222.13 572.439C221.134 571.993 219.947 572.205 219.163 572.969L193.478 598.219L184.132 593.236L190.702 557.81C190.914 556.729 190.426 555.627 189.494 555.054C188.561 554.482 187.375 554.524 186.484 555.181L157.536 576.615L148.974 570.382L160.397 536.207C160.757 535.168 160.418 534.002 159.591 533.302C158.744 532.581 157.557 532.475 156.603 533.005L124.942 550.199L117.333 542.843L133.397 510.596C133.885 509.621 133.736 508.434 132.995 507.607C132.253 506.78 131.087 506.505 130.07 506.886L96.3317 519.501L89.8044 511.148L110.213 481.446C110.827 480.534 110.849 479.347 110.213 478.435C109.598 477.523 108.475 477.099 107.415 477.311L72.257 485.113L66.9589 475.933L91.3091 449.369C92.0508 448.563 92.2203 447.376 91.7541 446.38C91.2878 445.383 90.2071 444.811 89.1474 444.875L53.2262 447.694L49.2632 437.878L77.0677 414.96C77.9154 414.261 78.2545 413.116 77.9154 412.077C77.5763 411.038 76.6227 410.296 75.5418 410.233L39.5782 408.028L37.0139 397.746L67.743 378.919C68.6755 378.347 69.1629 377.245 68.9722 376.163C68.7814 375.082 67.9549 374.213 66.8741 374.001L31.5887 366.814L30.4655 356.277L63.5045 341.903C64.5218 341.458 65.1576 340.462 65.1152 339.359C65.0728 338.257 64.3734 337.303 63.335 336.921L29.3846 324.9L29.7449 314.321L64.4582 304.696C65.5178 304.399 66.2807 303.488 66.4079 302.385C66.5138 301.283 65.9629 300.244 64.988 299.735L33.0297 283.093L34.8735 272.662L70.5828 267.955C71.6636 267.807 72.5537 267.023 72.8292 265.941C73.1047 264.881 72.6809 263.758 71.7908 263.1L42.4604 242.175L45.7241 232.105L81.7513 232.423C82.8533 232.423 83.8281 231.766 84.2308 230.748C84.6546 229.731 84.4003 228.565 83.595 227.801L57.4647 202.997L62.1058 193.478L97.7304 198.799C98.8748 198.969 99.892 198.439 100.443 197.485C100.994 196.531 100.909 195.343 100.231 194.474L77.8095 166.277L83.7433 157.5L118.287 167.74C119.347 168.037 120.47 167.677 121.148 166.829C121.826 165.959 121.911 164.772 121.339 163.818L103.05 132.759L110.128 124.894L142.913 139.84C143.909 140.307 145.096 140.095 145.88 139.331C146.664 138.568 146.918 137.402 146.494 136.384L132.698 103.099L140.815 96.2941L171.205 115.65C172.137 116.244 173.324 116.201 174.214 115.565C175.104 114.929 175.507 113.785 175.231 112.725L166.203 77.8284L175.168 72.2102L202.57 95.6157C203.396 96.3365 204.583 96.4425 205.579 95.9337C206.554 95.4249 207.105 94.3648 206.978 93.2624L202.887 57.4546L212.551 53.1508L236.414 80.1392C237.156 80.966 238.321 81.2629 239.339 80.8812C240.377 80.4996 241.076 79.5456 241.098 78.4432L242.03 42.4233L252.202 39.4976L272.081 69.5389C272.696 70.4505 273.798 70.8958 274.878 70.6837C275.959 70.4505 276.786 69.5813 276.955 68.5001L282.889 32.9679L293.379 31.4838L308.892 64.0056C309.359 65.002 310.355 65.5744 311.499 65.532C312.601 65.4472 313.533 64.7052 313.872 63.6663L324.702 29.3002H335.298L346.128 63.6663C346.467 64.7264 347.399 65.4472 348.501 65.532C349.539 65.5744 350.641 65.002 351.108 64.0056L366.621 31.4838L377.111 32.9679L383.045 68.5001C383.236 69.5813 384.062 70.4505 385.122 70.6837C386.202 70.917 387.304 70.4505 387.919 69.5389L407.798 39.4976L417.949 42.4233L418.902 78.4432C418.924 79.5456 419.623 80.5208 420.661 80.8812C421.679 81.2629 422.865 80.966 423.586 80.1392L447.449 53.1508L457.134 57.4546L453.065 93.2624C452.938 94.3648 453.51 95.4249 454.463 95.9337C455.417 96.4425 456.625 96.3153 457.452 95.6157L484.832 72.2102L493.818 77.8284L484.79 112.725C484.514 113.785 484.917 114.908 485.807 115.565C486.697 116.223 487.884 116.244 488.816 115.65L519.185 96.2941L527.302 103.099L513.527 136.384C513.103 137.402 513.357 138.568 514.141 139.331C514.947 140.095 516.112 140.307 517.108 139.84L549.872 124.894L556.95 132.78L538.682 163.839C538.131 164.793 538.195 165.98 538.873 166.85C539.551 167.719 540.696 168.058 541.734 167.761L576.257 157.521L582.191 166.298L559.769 194.495C559.091 195.365 558.985 196.552 559.557 197.506C560.108 198.46 561.168 198.969 562.27 198.82L597.894 193.499L602.535 203.018L576.405 227.823C575.6 228.586 575.345 229.752 575.769 230.77C576.172 231.787 577.168 232.444 578.249 232.444L614.276 232.126L617.54 242.197L588.209 263.122C587.319 263.758 586.895 264.881 587.171 265.963C587.425 267.023 588.336 267.828 589.417 267.977L625.126 272.683L626.97 283.114L595.012 299.756C594.037 300.265 593.465 301.325 593.592 302.406C593.698 303.509 594.482 304.421 595.542 304.717L630.255 314.342L630.615 324.921L596.665 336.942C595.626 337.303 594.927 338.278 594.885 339.38C594.842 340.483 595.478 341.5 596.495 341.924L629.534 356.298L628.432 366.835H628.39Z" fill="#776503"/>
<path d="M358.292 83.4036C357.508 83.2976 356.766 83.552 356.194 84.0608C355.622 84.5696 355.304 85.2905 355.304 86.0537V313.027C355.304 313.981 355.813 314.872 356.639 315.338L553.115 428.825C553.538 429.058 553.984 429.186 554.45 429.186C554.725 429.186 555.022 429.143 555.298 429.058C556.018 428.825 556.611 428.274 556.908 427.574C563.584 412.161 568.691 395.985 572.103 379.491C575.536 362.976 577.274 346.058 577.274 329.225C577.274 268.082 554.789 209.399 513.993 163.945C473.494 118.851 418.203 90.2302 358.271 83.3824L358.292 83.4036ZM566.89 378.431C563.753 393.569 559.133 408.451 553.178 422.698L360.666 311.501V89.0854C418.14 96.3784 471.079 124.172 510.03 167.549C549.957 212.007 571.955 269.439 571.955 329.267C571.955 345.74 570.259 362.298 566.911 378.453L566.89 378.431Z" fill="#776503"/>
<path fill-rule="evenodd" clip-rule="evenodd" d="M329.936 444.663C393.217 444.663 444.545 393.315 444.545 330.01C444.545 266.705 393.217 215.357 329.936 215.357C266.655 215.357 215.327 266.705 215.327 330.01C215.327 393.315 266.655 444.663 329.936 444.663Z" fill="url(#paint1_linear_945_13564)"/>
<path d="M329.936 447.355C265.256 447.355 212.657 394.714 212.657 330.031C212.657 265.348 265.278 212.707 329.936 212.707C394.594 212.707 447.215 265.348 447.215 330.031C447.215 394.714 394.594 447.355 329.936 447.355ZM329.936 218.071C268.223 218.071 218.018 268.295 218.018 330.031C218.018 391.767 268.223 441.992 329.936 441.992C391.648 441.992 441.853 391.767 441.853 330.031C441.853 268.295 391.648 218.071 329.936 218.071Z" fill="#776503"/>
<path fill-rule="evenodd" clip-rule="evenodd" d="M329.936 359.119C345.958 359.119 359.013 346.059 359.013 330.032C359.013 314.004 345.937 300.944 329.936 300.944C313.936 300.944 300.86 314.004 300.86 330.032C300.86 346.059 313.915 359.119 329.936 359.119Z" fill="#DDBC06"/>
<path d="M329.937 361.79C312.432 361.79 298.19 347.543 298.19 330.01C298.19 312.477 312.432 298.23 329.937 298.23C347.442 298.23 361.704 312.477 361.704 330.01C361.704 347.543 347.463 361.79 329.937 361.79ZM329.937 303.594C315.377 303.594 303.531 315.445 303.531 330.01C303.531 344.575 315.377 356.426 329.937 356.426C344.496 356.426 356.342 344.575 356.342 330.01C356.342 315.445 344.496 303.594 329.937 303.594Z" fill="#776503"/>
<path fill-rule="evenodd" clip-rule="evenodd" d="M329.937 315.233C321.799 315.233 315.166 321.89 315.166 330.031C315.166 338.172 321.799 344.829 329.937 344.829C338.075 344.829 344.729 338.194 344.729 330.031C344.729 321.869 338.096 315.233 329.937 315.233Z" fill="#776503"/>
<path d="M329.937 347.5C320.316 347.5 312.474 339.656 312.474 330.031C312.474 320.406 320.294 312.562 329.937 312.562C339.58 312.562 347.4 320.406 347.4 330.031C347.4 339.656 339.558 347.5 329.937 347.5ZM329.937 317.925C323.261 317.925 317.836 323.353 317.836 330.031C317.836 336.709 323.261 342.136 329.937 342.136C336.613 342.136 342.038 336.709 342.038 330.031C342.038 323.353 336.613 317.925 329.937 317.925Z" fill="#776503"/>
</g>
<defs>
<filter id="filter0_f_945_13564" x="0" y="0" width="660" height="660" filterUnits="userSpaceOnUse" color-interpolation-filters="sRGB">
<feFlood flood-opacity="0" result="BackgroundImageFix"/>
<feBlend mode="normal" in="SourceGraphic" in2="BackgroundImageFix" result="shape"/>
<feGaussianBlur stdDeviation="12" result="effect1_foregroundBlur_945_13564"/>
</filter>
<linearGradient id="paint0_linear_945_13564" x1="329.915" y1="26.6504" x2="329.915" y2="633.327" gradientUnits="userSpaceOnUse">
<stop stop-color="#DDBC06"/>
<stop offset="0.514423" stop-color="#FCEEA3"/>
<stop offset="1" stop-color="#FBD921"/>
</linearGradient>
<linearGradient id="paint1_linear_945_13564" x1="329.936" y1="215.357" x2="329.936" y2="444.663" gradientUnits="userSpaceOnUse">
<stop stop-color="#FBD921"/>
<stop offset="0.485577" stop-color="#F1F2F2"/>
<stop offset="0.990385" stop-color="#FBD921"/>
</linearGradient>
</defs>
</svg>
