<svg width="123" height="124" viewBox="0 0 123 124" fill="none" xmlns="http://www.w3.org/2000/svg">
<g opacity="0.5" clip-path="url(#clip0_945_13566)" filter="url(#filter0_f_945_13566)">
<path fill-rule="evenodd" clip-rule="evenodd" d="M51.1989 56.5198L32.7238 24.5241C22.5229 32.2644 15.8501 43.8082 14.257 56.5114H51.1989V56.5198ZM61.5082 50.5727L43.0415 18.5854C54.8188 13.6475 68.206 13.6475 79.9833 18.5854L61.5166 50.5727H61.5082ZM71.8176 56.5198H108.759C107.15 43.8583 100.452 32.2644 90.2844 24.5324L71.8176 56.5198ZM71.8176 68.4223L90.2844 100.418C100.485 92.6776 107.158 81.1255 108.759 68.4223H71.8176ZM61.5082 74.3693L79.975 106.357C68.1976 111.294 54.8105 111.294 43.0415 106.357L61.5082 74.3693ZM51.1989 68.4223H14.257C15.8668 81.0837 22.5646 92.6776 32.7238 100.41L51.1905 68.4223H51.1989ZM46.8116 7.61704C77.0974 -0.498659 108.242 17.4843 116.358 47.7702C124.474 78.0643 106.491 109.201 76.2049 117.317C45.9191 125.432 14.7742 107.449 6.65845 77.1635C-1.45725 46.8693 16.5257 15.7327 46.8116 7.61704Z" fill="url(#paint0_linear_945_13566)"/>
<path d="M14.2573 57.2293H51.1992C51.2659 57.2293 51.3243 57.2293 51.3827 57.2043C51.5578 57.1542 51.7163 57.0375 51.808 56.8706C51.9332 56.6538 51.9332 56.3869 51.808 56.1617L33.3329 24.166C33.2329 23.9908 33.0577 23.8657 32.8575 23.824C32.6573 23.7823 32.4571 23.8323 32.2903 23.9574C21.9893 31.7645 15.1581 43.6003 13.5483 56.4202C13.5233 56.6204 13.5817 56.8206 13.7235 56.9791C13.8569 57.1292 14.0488 57.221 14.249 57.221L14.2573 57.2293ZM32.5155 25.5839L49.9731 55.8197H15.0664C16.7679 43.9422 23.0903 32.999 32.5155 25.5839Z" fill="black"/>
<path d="M60.8912 50.923C61.0163 51.1398 61.2499 51.2733 61.5001 51.2733C61.5668 51.2733 61.6252 51.2733 61.6836 51.2483C61.8588 51.1982 62.0172 51.0814 62.109 50.923L80.5757 18.9356C80.6758 18.7604 80.7009 18.5519 80.6341 18.3601C80.5674 18.1682 80.4256 18.0098 80.2338 17.9347C70.3832 13.806 59.2564 13.0553 48.9053 15.8328C46.8118 16.3916 44.7432 17.1006 42.7497 17.9347C42.5662 18.0098 42.4161 18.1682 42.3494 18.3601C42.2827 18.5519 42.3077 18.7604 42.4078 18.9439L60.8745 50.9313L60.8912 50.923ZM78.9576 18.9273L61.5084 49.1547L44.0593 18.9273C55.1777 14.4899 67.8892 14.5149 78.966 18.9273H78.9576Z" fill="black"/>
<path d="M71.2004 56.8706C71.3255 57.0875 71.559 57.221 71.8092 57.221H108.743C108.809 57.221 108.868 57.221 108.926 57.1959C109.06 57.1626 109.185 57.0875 109.277 56.9791C109.41 56.8289 109.477 56.6288 109.443 56.4202C107.809 43.6086 100.977 31.7812 90.7014 23.9574C90.5429 23.8323 90.3344 23.7823 90.1342 23.824C89.9507 23.8574 89.7589 23.9908 89.6588 24.166L71.192 56.1533C71.0669 56.3702 71.0669 56.6454 71.192 56.8623L71.2004 56.8706ZM90.4845 25.5839C99.9014 33.0073 106.215 43.9422 107.942 55.8113H73.0353L90.4845 25.5839Z" fill="black"/>
<path d="M108.751 67.7139H71.8092C71.559 67.7139 71.3254 67.8473 71.2003 68.0642C71.0752 68.281 71.0752 68.5563 71.2003 68.7732L89.6671 100.769C89.7671 100.944 89.9423 101.069 90.1425 101.111C90.2509 101.136 90.3594 101.128 90.4678 101.103C90.5595 101.077 90.6346 101.036 90.7097 100.986C101.011 93.1786 107.842 81.3429 109.46 68.5146C109.485 68.3144 109.427 68.1142 109.293 67.9558C109.16 67.8056 108.968 67.7139 108.759 67.7139H108.751ZM90.4845 99.3593L73.0353 69.1235H107.942C106.24 81.0009 99.918 91.9359 90.4845 99.3593Z" fill="black"/>
<path d="M117.034 47.5954C108.826 16.976 77.2393 -1.2656 46.6198 6.94185C16.0004 15.1493 -2.24119 46.7363 5.96626 77.3558C14.1737 107.975 45.7607 126.217 76.3802 118.009C107 109.802 125.241 78.2149 117.034 47.5954ZM76.0132 116.641C46.1444 124.64 15.3331 106.858 7.32583 76.9888C-0.673097 47.12 17.1097 16.3087 46.9868 8.30977C76.8556 0.3025 107.667 18.0937 115.666 47.9624C123.665 77.8312 105.882 108.643 76.0132 116.641Z" fill="black"/>
<path d="M51.8079 68.0725C51.6828 67.8557 51.4492 67.7222 51.199 67.7139H14.2571C14.0569 67.7139 13.8651 67.7973 13.7233 67.9558C13.5898 68.1059 13.5231 68.3061 13.5481 68.5146C15.183 81.3262 22.0142 93.1536 32.2902 100.977C32.4486 101.103 32.6572 101.153 32.8573 101.111C32.874 101.111 32.8907 101.111 32.899 101.103C33.0825 101.052 33.2327 100.936 33.3244 100.777L51.7912 68.7899C51.9163 68.573 51.9163 68.3061 51.7912 68.0809L51.8079 68.0725ZM32.5154 99.3593C23.0985 91.9359 16.7844 81.0009 15.0662 69.1318H49.9729L32.5237 99.3593H32.5154Z" fill="black"/>
<path d="M62.1172 74.0193C61.9921 73.8024 61.7585 73.6689 61.5083 73.6689C61.2581 73.6689 61.0245 73.8108 60.8994 74.0193L42.4326 106.007C42.3325 106.182 42.3075 106.39 42.3743 106.582C42.441 106.774 42.5828 106.932 42.7746 107.008C52.6252 111.136 63.752 111.887 74.1031 109.109C76.1966 108.551 78.2652 107.842 80.2586 107.008C80.4421 106.932 80.5923 106.774 80.659 106.582C80.7257 106.39 80.7007 106.182 80.6006 105.998L62.1339 74.0109L62.1172 74.0193ZM44.0508 106.015L61.5 75.7875L78.9491 106.015C67.8307 110.452 55.1192 110.436 44.0424 106.015H44.0508Z" fill="black"/>
<path fill-rule="evenodd" clip-rule="evenodd" d="M37.6117 56.0701C41.1482 42.8831 54.7105 35.051 67.8975 38.5875C81.0845 42.1241 88.9166 55.6864 85.38 68.8734C81.8435 82.0603 68.2812 89.8925 55.0942 86.3559C41.9072 82.8194 34.0751 69.2571 37.6033 56.0701H37.6117Z" fill="url(#paint1_linear_945_13566)"/>
<path d="M68.0642 87.0478C63.7769 88.1988 59.2312 88.1905 54.9189 87.0394C41.3733 83.4111 33.2993 69.4318 36.9359 55.8861C39.2797 47.1365 46.186 40.2386 54.9439 37.8865C59.2312 36.7354 63.7769 36.7438 68.0892 37.8948C74.6535 39.6547 80.1335 43.8586 83.5282 49.7472C86.923 55.6359 87.8321 62.4838 86.0722 69.0481C83.7284 77.7977 76.8305 84.6956 68.0642 87.0394V87.0478ZM55.3109 39.2544C47.0367 41.4731 40.5142 47.9873 38.3038 56.2532C34.8757 69.0481 42.491 82.2434 55.2942 85.6715C59.3646 86.7642 63.6602 86.7642 67.7055 85.6799C75.9797 83.4612 82.5023 76.9469 84.7126 68.6811C86.3724 62.4838 85.5217 56.0112 82.3104 50.4479C79.0992 44.8928 73.9195 40.9142 67.7222 39.2544C63.6518 38.1617 59.3563 38.1617 55.3109 39.2544Z" fill="black"/>
<path fill-rule="evenodd" clip-rule="evenodd" d="M59.5981 55.3695C63.5183 54.3186 67.5553 56.6457 68.6063 60.5743C69.6573 64.4945 67.3301 68.5315 63.4016 69.5825C59.4814 70.6334 55.4443 68.3063 54.3934 64.3777C53.3424 60.4575 55.6696 56.4205 59.5981 55.3695Z" fill="black"/>
<path d="M69.2904 60.3822C68.1393 56.0866 63.7103 53.5343 59.4148 54.677C55.1192 55.8281 52.5669 60.2571 53.7096 64.5527C54.8606 68.8482 59.2897 71.4006 63.5852 70.2495C67.8808 69.0985 70.4331 64.6694 69.282 60.3739L69.2904 60.3822ZM63.2266 68.8899C59.6817 69.8408 56.0367 67.7305 55.0858 64.1857C54.135 60.6408 56.2452 56.9958 59.7901 56.045C63.335 55.0941 66.98 57.2043 67.9308 60.7492C68.8817 64.2941 66.7714 67.9391 63.2266 68.8899Z" fill="black"/>
</g>
<defs>
<filter id="filter0_f_945_13566" x="0" y="0.975586" width="123" height="123" filterUnits="userSpaceOnUse" color-interpolation-filters="sRGB">
<feFlood flood-opacity="0" result="BackgroundImageFix"/>
<feBlend mode="normal" in="SourceGraphic" in2="BackgroundImageFix" result="shape"/>
<feGaussianBlur stdDeviation="2" result="effect1_foregroundBlur_945_13566"/>
</filter>
<linearGradient id="paint0_linear_945_13566" x1="61.5082" y1="5.66895" x2="61.5082" y2="119.265" gradientUnits="userSpaceOnUse">
<stop stop-color="#0047D6"/>
<stop offset="0.331731" stop-color="#78D1FE"/>
<stop offset="0.665865" stop-color="#78D1FE"/>
<stop offset="1" stop-color="#0047D6"/>
</linearGradient>
<linearGradient id="paint1_linear_945_13566" x1="61.4934" y1="37.7383" x2="61.4934" y2="87.2052" gradientUnits="userSpaceOnUse">
<stop stop-color="#78D1FE"/>
<stop offset="0.567308" stop-color="#F1F2F2"/>
<stop offset="1" stop-color="#78D1FE"/>
</linearGradient>
<clipPath id="clip0_945_13566">
<rect width="115" height="115" fill="white" transform="translate(4 4.97559)"/>
</clipPath>
</defs>
</svg>
