<svg width="192" height="192" viewBox="0 0 192 192" fill="none" xmlns="http://www.w3.org/2000/svg">
<g opacity="0.7" filter="url(#filter0_f_945_13495)">
<path fill-rule="evenodd" clip-rule="evenodd" d="M91.9708 89.0141L104.946 66.5413C109.27 59.0518 113.596 51.5581 117.92 44.0685C105.048 38.4784 90.964 38.0996 78.2947 42.232C65.6297 46.3668 54.3842 55.0045 47.2001 67.4479C45.2852 70.7644 43.7178 74.2647 42.5256 77.8809C41.3293 81.4947 40.5058 85.2287 40.0657 89.016C48.7144 89.0163 57.363 89.0166 66.0183 89.0151C74.6669 89.0154 83.3156 89.0156 91.9666 89.0117L91.9708 89.0141ZM103.093 95.4353C107.417 102.925 111.746 110.417 116.068 117.911C120.393 125.401 124.717 132.891 129.039 140.385C132.099 138.11 134.921 135.53 137.457 132.689C139.988 129.846 142.238 126.746 144.155 123.425C151.339 110.981 153.201 96.9261 150.445 83.888C147.691 70.8566 140.319 58.8422 129.042 50.4897L103.093 95.4353ZM91.9694 101.854C96.2939 109.344 100.623 116.836 104.947 124.326C109.272 131.816 113.601 139.308 117.923 146.802C105.062 152.38 90.9727 152.748 78.298 148.61C65.6274 144.474 54.3778 135.841 47.2044 123.415C45.2859 120.096 43.7235 116.597 42.5285 112.985C41.3358 109.369 40.5063 105.638 40.0691 101.848C48.7177 101.848 57.3706 101.851 66.0192 101.851C74.6679 101.851 83.3207 101.854 91.9694 101.854ZM128.835 34.6856L131.711 36.346C131.398 37.7607 131.085 39.1753 130.768 40.5875C130.455 42.0022 130.142 43.4168 129.829 44.8314C131.025 44.0106 132.214 43.1916 133.41 42.3708C134.606 41.55 135.796 40.7309 136.992 39.9101C137.427 40.2512 137.863 40.5923 138.299 40.9333C138.734 41.2744 139.17 41.6155 139.606 41.9566C139.096 43.3138 138.589 44.6669 138.084 46.0265C137.575 47.3837 137.068 48.7368 136.563 50.0965C137.859 49.4511 139.156 48.8057 140.452 48.1603C141.748 47.5149 143.044 46.8695 144.341 46.2241C144.727 46.6209 145.112 47.0219 145.494 47.4162C145.878 47.8172 146.261 48.2116 146.648 48.6084C145.956 49.883 145.268 51.1534 144.577 52.4281C143.885 53.7027 143.197 54.9732 142.501 56.2454C143.876 55.785 145.25 55.3245 146.622 54.8683C147.996 54.4078 149.368 53.9516 150.742 53.4911C151.067 53.9363 151.394 54.3882 151.719 54.8334C152.044 55.2786 152.367 55.728 152.696 56.1756C151.834 57.3401 150.971 58.5045 150.108 59.669C149.246 60.8334 148.386 61.9937 147.527 63.1605C148.951 62.8963 150.374 62.6321 151.797 62.3679C153.22 62.1037 154.644 61.8395 156.067 61.5753C156.329 62.0623 156.588 62.5535 156.846 63.0381C157.105 63.5293 157.367 64.0164 157.626 64.5076C156.611 65.539 155.596 66.5705 154.582 67.6086C153.567 68.6401 152.551 69.6716 151.533 70.7072C152.982 70.6422 154.428 70.5813 155.876 70.5162C157.322 70.4554 158.77 70.3903 160.218 70.3252C160.406 70.8426 160.597 71.3666 160.785 71.8839C160.977 72.4037 161.163 72.9253 161.356 73.445C160.204 74.325 159.056 75.2073 157.909 76.0897C156.761 76.9721 155.609 77.852 154.462 78.7344C155.904 78.8731 157.343 79.0094 158.785 79.1482C160.228 79.2869 161.67 79.4257 163.109 79.562C163.222 80.1031 163.339 80.6465 163.452 81.1876C163.565 81.7287 163.682 82.2722 163.795 82.8132C162.534 83.5237 161.275 84.2408 160.014 84.9513C158.753 85.6618 157.493 86.3789 156.232 87.0894C157.639 87.4258 159.05 87.7647 160.457 88.1011C161.868 88.4399 163.275 88.7763 164.681 89.1127C164.72 89.6667 164.761 90.2164 164.799 90.7704C164.838 91.3244 164.879 91.8741 164.917 92.4281C163.569 92.9596 162.221 93.4911 160.875 94.0184C159.527 94.5499 158.179 95.0814 156.833 95.6088C158.178 96.1391 159.528 96.6719 160.873 97.2023C162.218 97.7326 163.568 98.2654 164.915 98.7915C164.876 99.3451 164.838 99.8946 164.799 100.448C164.759 101.002 164.721 101.551 164.682 102.105C163.271 102.444 161.868 102.781 160.457 103.119C159.047 103.458 157.639 103.793 156.233 104.134C157.495 104.846 158.751 105.56 160.014 106.272C161.277 106.985 162.533 107.699 163.795 108.411C163.678 108.953 163.567 109.494 163.45 110.036C163.333 110.579 163.222 111.119 163.105 111.662C161.665 111.799 160.223 111.941 158.784 112.078C157.344 112.215 155.898 112.354 154.459 112.491C155.607 113.373 156.755 114.254 157.903 115.135C159.051 116.016 160.2 116.897 161.352 117.781C161.165 118.3 160.975 118.823 160.783 119.339C160.595 119.858 160.406 120.38 160.218 120.899C158.771 120.836 157.324 120.773 155.877 120.71C154.43 120.647 152.983 120.584 151.536 120.521C152.551 121.555 153.566 122.589 154.584 123.619C155.599 124.653 156.614 125.687 157.628 126.714C157.368 127.202 157.109 127.691 156.849 128.179C156.59 128.667 156.33 129.155 156.071 129.644C154.644 129.38 153.225 129.115 151.798 128.851C150.372 128.587 148.952 128.322 147.526 128.058C148.388 129.222 149.25 130.385 150.112 131.549C150.974 132.713 151.835 133.877 152.697 135.04C152.371 135.49 152.046 135.935 151.72 136.385C151.396 136.83 151.069 137.279 150.742 137.729C149.367 137.271 147.993 136.808 146.62 136.346C145.245 135.887 143.876 135.427 142.5 134.969C143.193 136.242 143.881 137.512 144.573 138.785C145.266 140.058 145.954 141.329 146.647 142.602C146.26 143 145.878 143.401 145.493 143.795C145.111 144.195 144.727 144.589 144.34 144.987C143.046 144.34 141.751 143.694 140.449 143.049C139.155 142.402 137.86 141.755 136.563 141.113C137.068 142.468 137.577 143.825 138.086 145.183C138.592 146.538 139.101 147.896 139.606 149.251C139.173 149.594 138.735 149.935 138.298 150.276C137.86 150.616 137.427 150.96 136.99 151.3C135.794 150.481 134.601 149.658 133.41 148.842C132.215 148.023 131.022 147.2 129.831 146.383C130.145 147.797 130.46 149.21 130.768 150.625C131.083 152.038 131.396 153.456 131.711 154.869C131.231 155.146 130.752 155.424 130.273 155.701C129.793 155.979 129.314 156.256 128.835 156.533C127.771 155.555 126.7 154.579 125.632 153.598C124.563 152.617 123.496 151.643 122.428 150.663C122.541 152.105 122.659 153.55 122.77 154.996C122.883 156.439 122.996 157.881 123.114 159.326C122.602 159.534 122.09 159.742 121.573 159.948C121.061 160.156 120.545 160.362 120.033 160.57C119.112 159.451 118.189 158.335 117.268 157.216C116.346 156.096 115.423 154.981 114.502 153.861C114.413 155.305 114.326 156.755 114.237 158.198C114.149 159.641 114.062 161.091 113.973 162.535L112.363 162.937C111.827 163.07 111.289 163.207 110.753 163.34C109.996 162.102 109.24 160.871 108.483 159.633C107.725 158.395 106.969 157.164 106.212 155.926C105.924 157.345 105.635 158.767 105.344 160.183L104.476 164.44L102.826 164.613L101.175 164.785L99.4444 160.802C98.8683 159.473 98.2896 158.148 97.7092 156.817L96.2582 160.91L94.8072 165.004L93.149 164.948L91.4909 164.892L90.3302 160.706C89.9425 159.313 89.5573 157.915 89.1696 156.521L87.164 160.373L85.1584 164.225L83.5229 163.936L81.8874 163.646L81.3184 159.338L80.7536 155.032L78.2305 158.568L75.7074 162.104L74.1288 161.59L72.5502 161.077L72.5893 156.733L72.6283 152.389L69.6397 155.539L66.6487 158.694L65.1546 157.965L63.6606 157.237L64.305 152.941C64.517 151.507 64.7331 150.076 64.9451 148.642L61.5466 151.348L58.148 154.054L56.7703 153.125L55.3926 152.195L56.6263 148.032C57.0377 146.64 57.451 145.256 57.86 143.869C56.6126 144.604 55.3652 145.339 54.1137 146.072L50.3716 148.277L49.1372 147.167C48.7251 146.795 48.3106 146.427 47.9028 146.057C48.5009 144.74 49.1057 143.421 49.7038 142.104C50.3019 140.787 50.9066 139.468 51.5048 138.151C50.1662 138.704 48.8276 139.258 47.4933 139.814C46.1547 140.368 44.8161 140.922 43.4776 141.476C43.1229 141.053 42.764 140.627 42.4093 140.204C42.0546 139.781 41.6999 139.358 41.341 138.932C42.1178 137.713 42.8971 136.489 43.674 135.27C44.4533 134.046 45.2302 132.826 46.0071 131.607C44.6062 131.968 43.2029 132.333 41.8021 132.694C40.4012 133.055 38.998 133.421 37.5971 133.782C37.304 133.31 37.0084 132.843 36.7194 132.374C36.4263 131.902 36.1307 131.435 35.8375 130.964C36.781 129.863 37.7179 128.763 38.6573 127.66C39.6008 126.559 40.5377 125.46 41.4812 124.359C40.0421 124.525 38.603 124.69 37.1622 124.849C35.7231 125.014 34.2865 125.176 32.8474 125.341C32.6236 124.837 32.3955 124.33 32.1716 123.826C31.9478 123.322 31.7197 122.815 31.4959 122.311C32.5806 121.353 33.6679 120.391 34.7527 119.433C35.8374 118.475 36.9247 117.513 38.0053 116.553C36.5587 116.518 35.1103 116.477 33.6595 116.44C32.2087 116.403 30.7645 116.364 29.3137 116.327C29.1609 115.796 29.0106 115.262 28.8578 114.731C28.705 114.201 28.5546 113.666 28.4018 113.136C29.6074 112.337 30.8195 111.537 32.0251 110.738C33.2306 109.94 34.4386 109.137 35.6484 108.341C34.2183 108.103 32.7907 107.861 31.3648 107.625C29.9347 107.388 28.5113 107.148 27.0812 106.91C27.0013 106.36 26.9255 105.813 26.8498 105.265C26.774 104.717 26.6941 104.168 26.6183 103.62C27.9241 102.997 29.2365 102.372 30.5423 101.749C31.8481 101.126 33.1581 100.505 34.4664 99.8779C33.0829 99.443 31.706 99.0063 30.3225 98.5714C28.939 98.1364 27.5621 97.6998 26.1786 97.2648C26.1793 96.7111 26.1799 96.1573 26.1806 95.6035C26.1812 95.0497 26.1819 94.4959 26.1825 93.9421C27.5638 93.5082 28.9451 93.0742 30.3289 92.6361C31.7102 92.2021 33.0915 91.7682 34.4753 91.33C33.1684 90.7042 31.8591 90.0826 30.5522 89.4568C29.2429 88.8352 27.936 88.2095 26.6309 87.5903C26.7073 87.0411 26.7879 86.4942 26.8643 85.945C26.9407 85.3958 27.0213 84.849 27.0977 84.2997C28.528 84.062 29.9542 83.8219 31.3846 83.5842C32.8107 83.344 34.2411 83.1063 35.6715 82.8686C34.4639 82.0707 33.2564 81.2728 32.0472 80.4682C30.8397 79.6703 29.6321 78.8724 28.4229 78.0679C28.5785 77.5364 28.73 77.0026 28.8791 76.4729C29.0348 75.9414 29.1863 75.4076 29.3353 74.8779C30.784 74.8411 32.2286 74.8019 33.6773 74.7651C35.126 74.7283 36.5705 74.6891 38.0192 74.6523C36.9321 73.6943 35.8516 72.7346 34.7669 71.7725C33.6797 70.8146 32.5992 69.8549 31.5145 68.8928C31.7404 68.3851 31.9639 67.8817 32.1899 67.374C32.4158 66.8663 32.6393 66.3628 32.8652 65.8551C34.3041 66.0197 35.7429 66.1843 37.1817 66.3489C38.6205 66.5135 40.0593 66.6781 41.4981 66.8427C40.5565 65.7393 39.6191 64.6383 38.6751 63.5391C37.7335 62.4358 36.7937 61.339 35.8522 60.2356C36.1453 59.7667 36.4384 59.2978 36.7315 58.829C37.0246 58.3601 37.3177 57.8912 37.6108 57.4223C39.0139 57.7845 40.4169 58.1468 41.8176 58.5132C43.2206 58.8755 44.6237 59.2377 46.0243 59.6042C45.2462 58.3825 44.4681 57.1608 43.69 55.9391C42.9119 54.7174 42.1338 53.4957 41.3557 52.274C41.7111 51.8522 42.069 51.4263 42.4244 51.0046C42.7799 50.5829 43.1377 50.157 43.489 49.7328C44.8262 50.2866 46.1635 50.8404 47.505 51.3966C48.8422 51.9503 50.1795 52.5041 51.521 53.0603C50.9201 51.745 50.3216 50.4255 49.7165 49.1077C49.1156 47.7924 48.5129 46.4705 47.9144 45.151C48.3232 44.7824 48.7385 44.4121 49.1472 44.0435C49.5584 43.6708 49.9713 43.3046 50.3824 42.9319C51.6305 43.6692 52.881 44.4024 54.1248 45.1374C55.3729 45.8747 56.6234 46.6079 57.8673 47.3428C57.4555 45.952 57.0455 44.5678 56.6338 43.177C56.222 41.7861 55.812 40.4019 55.4003 39.0111C55.8598 38.6999 56.317 38.3929 56.7766 38.0817C57.2337 37.7747 57.6933 37.4634 58.1529 37.1522C59.2848 38.052 60.4209 38.9542 61.5545 39.8607C62.6864 40.7604 63.8225 41.6627 64.9544 42.5625C64.7407 41.1292 64.5269 39.696 64.3108 38.267C64.097 36.8337 63.8833 35.4005 63.6671 33.9715C64.1661 33.7278 64.6626 33.4883 65.1616 33.2446C65.6605 33.0009 66.1571 32.7614 66.6519 32.5153C67.6508 33.5678 68.6455 34.6179 69.6402 35.668C70.635 36.7181 71.6339 37.7706 72.6286 38.8207C72.6134 37.3734 72.6006 35.9218 72.5895 34.4768C72.5743 33.0295 72.5657 31.5803 72.5504 30.1329C73.0755 29.9603 73.6048 29.7901 74.1275 29.6217C74.6526 29.4491 75.1777 29.2765 75.7046 29.1105C76.546 30.2904 77.3875 31.4703 78.2289 32.6501C79.0703 33.83 79.9117 35.0099 80.7532 36.1898C80.9435 34.7548 81.1297 33.3173 81.32 31.8823C81.5104 30.4473 81.6965 29.0098 81.8869 27.5748C82.4333 27.4817 82.9779 27.3819 83.5201 27.2863C84.0665 27.1931 84.6111 27.0934 85.1575 27.0002C85.8253 28.287 86.4955 29.5695 87.1633 30.8563C87.8311 32.143 88.5013 33.4255 89.169 34.7123C89.5546 33.3172 89.9402 31.9222 90.3282 30.5229C90.7138 29.1278 91.1019 27.7286 91.4917 26.3359C92.0468 26.3149 92.5952 26.2958 93.1504 26.2748C93.703 26.258 94.2539 26.2346 94.8066 26.2179C95.2894 27.5826 95.7723 28.9473 96.2593 30.3144C96.7421 31.6791 97.225 33.0437 97.712 34.4109C98.2891 33.0816 98.8662 31.7523 99.4434 30.423C100.02 29.0938 100.598 27.7645 101.177 26.4418L102.828 26.617C103.376 26.676 103.926 26.7308 104.479 26.7922C104.767 28.2125 105.058 29.6286 105.346 31.049C105.634 32.4693 105.925 33.8855 106.214 35.3058C106.972 34.0699 107.728 32.8383 108.486 31.6024C109.244 30.3665 110 29.1349 110.754 27.8966L112.366 28.2953C112.903 28.4318 113.438 28.5616 113.975 28.6981C114.064 30.1434 114.153 31.5887 114.243 33.034C114.332 34.4793 114.421 35.9246 114.51 37.3699C115.431 36.2502 116.354 35.1372 117.274 34.0175C118.195 32.8978 119.118 31.7847 120.038 30.6651L121.578 31.2853C122.091 31.492 122.604 31.6987 123.118 31.9055C123.005 33.3517 122.89 34.7913 122.777 36.2375C122.667 37.6795 122.55 39.1232 122.437 40.5694C123.506 39.5911 124.574 38.6128 125.639 37.6321C126.707 36.6537 127.776 35.6754 128.841 34.6947L128.835 34.6856Z" fill="url(#paint0_linear_945_13495)"/>
<path d="M118.452 146.498L92.4982 101.55C92.3878 101.363 92.1863 101.247 91.9692 101.245L40.0731 101.24C39.8993 101.241 39.7343 101.313 39.6176 101.448C39.5034 101.578 39.4431 101.75 39.4652 101.925C39.9071 105.746 40.7442 109.532 41.9499 113.183C43.1592 116.848 44.749 120.397 46.6752 123.731C51.6252 132.31 58.766 139.45 67.3141 144.385C70.7232 146.353 74.3552 147.974 78.1109 149.197C91.3015 153.498 105.525 152.85 118.169 147.365C118.328 147.294 118.455 147.16 118.507 146.994C118.562 146.83 118.545 146.647 118.458 146.496L118.452 146.498ZM78.4871 148.031C74.8124 146.833 71.2608 145.247 67.9231 143.32C59.5598 138.492 52.5812 131.507 47.7333 123.111C45.8482 119.85 44.2929 116.378 43.1091 112.795C42.0007 109.44 41.2122 105.967 40.7598 102.465L91.6156 102.468L117.046 146.509C104.839 151.625 91.1751 152.166 78.4871 148.031Z" fill="#776503"/>
<path d="M92.504 89.3223L118.453 44.3767C118.541 44.2256 118.56 44.0464 118.505 43.8802C118.45 43.714 118.328 43.5764 118.164 43.5101C105.512 38.0136 91.2848 37.3503 78.1036 41.6518C64.825 45.9865 53.6589 55.0394 46.671 67.1427C44.7465 70.4761 43.1566 74.025 41.9486 77.688C40.7412 81.3403 39.9037 85.1277 39.4617 88.9475C39.4404 89.12 39.4974 89.2928 39.6111 89.4256C39.656 89.4739 39.7057 89.5138 39.7645 89.5477C39.8568 89.601 39.9637 89.6292 40.0702 89.6291L91.9687 89.629C92.1882 89.6269 92.3883 89.513 92.4974 89.3241L92.504 89.3223ZM91.6187 88.4025L40.7671 88.4025C41.2161 84.9002 42.0066 81.4271 43.1158 78.0709C44.2994 74.4889 45.8565 71.0162 47.7398 67.7542C54.5774 55.9112 65.4973 47.052 78.4924 42.811C91.1682 38.6768 104.834 39.2281 117.049 44.3554L91.6212 88.3984L91.6187 88.4025Z" fill="#776503"/>
<path d="M153.185 134.69L148.94 128.953L155.954 130.254C156.216 130.305 156.48 130.177 156.604 129.941L158.164 127.007C158.289 126.772 158.25 126.48 158.061 126.293L153.061 121.206L160.188 121.515C160.454 121.528 160.701 121.363 160.79 121.112L161.926 117.99C162.019 117.741 161.936 117.458 161.722 117.296L156.062 112.953L163.162 112.272C163.428 112.246 163.646 112.053 163.703 111.789L164.394 108.538C164.448 108.279 164.332 108.016 164.101 107.882L164.096 107.88L157.889 104.369L164.824 102.702C165.084 102.64 165.273 102.419 165.294 102.151L165.527 98.8374C165.548 98.5693 165.397 98.3257 165.143 98.2236L158.506 95.6119L165.144 92.996C165.391 92.8979 165.551 92.649 165.53 92.385L165.299 89.072C165.278 88.808 165.089 88.5817 164.832 88.5228L157.895 86.8574L164.105 83.3448C164.336 83.2154 164.459 82.9447 164.403 82.6829L163.714 79.4359C163.658 79.1741 163.439 78.9807 163.173 78.956L156.077 78.2736L161.735 73.933C161.947 73.7698 162.031 73.4882 161.935 73.237L160.798 70.1172C160.706 69.8685 160.46 69.7038 160.196 69.7141L153.069 70.0267L158.072 64.9387C158.259 64.7502 158.301 64.4551 158.174 64.2195L156.614 61.2872C156.491 61.0539 156.226 60.9229 155.962 60.9722L148.947 62.2732L153.191 56.5403C153.35 56.3239 153.35 56.0329 153.196 55.8152L151.244 53.1265C151.087 52.9129 150.808 52.8245 150.553 52.9069L143.789 55.1699L147.195 48.9023C147.324 48.669 147.285 48.3778 147.094 48.1839L144.786 45.793C144.595 45.5992 144.309 45.5516 144.072 45.672L137.689 48.8549L140.186 42.1743C140.279 41.9258 140.202 41.641 139.988 41.4783L137.372 39.436C137.165 39.2716 136.868 39.2624 136.65 39.4166L130.769 43.4549L132.317 36.4893C132.374 36.2256 132.257 35.9623 132.026 35.829L129.15 34.1686C128.919 34.0353 128.626 34.0676 128.431 34.2513L123.172 39.0742L123.736 31.9604C123.756 31.6923 123.608 31.4446 123.358 31.3448L120.281 30.1002C120.031 30.0004 119.748 30.0725 119.58 30.2774L115.042 35.7799L114.607 28.6605C114.589 28.3923 114.402 28.1726 114.145 28.1029L110.921 27.2989C110.662 27.2334 110.39 27.3452 110.253 27.5737L106.528 33.6571L105.105 26.6674C105.049 26.4055 104.833 26.208 104.57 26.1791L101.269 25.8354C101.004 25.8108 100.752 25.9564 100.644 26.2018L97.8012 32.7443L95.4203 26.0184C95.3312 25.7655 95.089 25.6033 94.8214 25.6111L91.5022 25.7267C91.2346 25.7345 91.0065 25.9163 90.9344 26.1769L89.0297 33.0538L85.7366 26.7249C85.6138 26.4916 85.3504 26.3563 85.0868 26.4057L81.8162 26.9803C81.555 27.0254 81.349 27.2367 81.3136 27.5017L80.3833 34.5718L76.2401 28.7652C76.086 28.5474 75.8092 28.4548 75.5545 28.5372L72.3978 29.5639C72.1431 29.6463 71.9725 29.8837 71.9737 30.1531L72.0366 37.2871L67.1257 32.112C66.9353 31.9181 66.6518 31.8663 66.4125 31.9801L63.4278 33.4363C63.1862 33.5543 63.0491 33.811 63.0918 34.0764L64.1454 41.133L58.565 36.6909C58.3451 36.5192 58.0631 36.5131 57.8412 36.6648L55.091 38.5195C54.869 38.6713 54.768 38.9432 54.8481 39.2021L56.8725 46.0412L50.7239 42.4186C50.5382 42.2554 50.2024 42.3134 50.0026 42.4947L47.5388 44.7162C47.3414 44.8933 47.2806 45.1829 47.3919 45.4263L50.3493 51.9197L43.7584 49.1891C43.5147 49.0876 43.2282 49.1573 43.0553 49.3598L40.922 51.9009C40.7492 52.1033 40.7316 52.3955 40.8744 52.6234L44.7051 58.6415L37.7992 56.8541C37.5403 56.7886 37.2668 56.8938 37.1251 57.1199L35.3641 59.9375C35.2224 60.1635 35.2439 60.4558 35.4186 60.6575L40.0518 66.0808L32.9611 65.2728C32.6936 65.2415 32.4416 65.3871 32.3335 65.6325L30.9852 68.666C30.8771 68.9115 30.9384 69.1931 31.1384 69.3702L36.4824 74.0956L29.3494 74.282C29.0818 74.2898 28.8495 74.4691 28.7756 74.7231L27.8632 77.9131C27.7868 78.1713 27.8921 78.4448 28.1133 78.5949L34.0627 82.5335L27.0245 83.7094C26.7634 83.7545 26.5532 83.9634 26.5177 84.2284L26.0534 87.5148C26.0138 87.7774 26.1587 88.0402 26.3951 88.1543L32.8354 91.2233L26.0323 93.3689C25.7776 93.4513 25.6028 93.6862 25.5998 93.9532L25.6026 97.2741C25.6038 97.5435 25.7789 97.7734 26.0323 97.8581L32.8387 100.002L26.3971 103.073C26.1554 103.191 26.0184 103.448 26.0545 103.715L26.5174 107.005C26.5559 107.268 26.7607 107.475 27.025 107.522L34.0629 108.702L28.1124 112.639C27.8887 112.784 27.7894 113.062 27.8611 113.316L28.7772 116.51C28.8464 116.768 29.0855 116.945 29.3501 116.953L36.4844 117.142L31.1425 121.866C30.9451 122.044 30.8759 122.328 30.9914 122.574L32.3406 125.609C32.4495 125.856 32.7039 125.998 32.9703 125.972L40.0579 125.167L35.4255 130.592C35.2526 130.794 35.278 131.167 35.4208 131.395L37.1332 134.13C37.2717 134.356 37.5454 134.463 37.8055 134.401L44.7152 132.613L40.8835 138.63C40.7418 138.856 40.7567 139.15 40.9314 139.351L43.0681 141.895C43.2403 142.101 43.5251 142.17 43.7702 142.065L50.3607 139.338L47.4017 145.83C47.2894 146.073 47.3525 146.361 47.5501 146.542L50.0189 148.763C50.2207 148.946 50.5122 148.975 50.7402 148.832L56.8889 145.212L54.8605 152.051C54.7842 152.309 54.8828 152.584 55.1041 152.734L57.8553 154.591C58.0855 154.735 58.3682 154.731 58.5782 154.561L64.1594 150.12L63.1041 157.174C63.0651 157.426 63.1873 157.67 63.4014 157.793C63.414 157.801 63.4266 157.808 63.4392 157.815L66.4231 159.269C66.6637 159.386 66.9514 159.333 67.1344 159.142L72.0429 153.966L71.9819 161.102C71.9789 161.368 72.1451 161.604 72.4026 161.691L75.5622 162.715C75.818 162.796 76.095 162.704 76.2535 162.487L80.3964 156.679L81.3272 163.754C81.3633 164.021 81.5656 164.233 81.8257 164.277L85.0925 164.853C85.3569 164.9 85.6166 164.77 85.7416 164.534L89.0358 158.208L90.9429 165.085C91.0121 165.343 91.2446 165.523 91.5133 165.532L94.8339 165.647C95.1026 165.656 95.3426 165.493 95.434 165.238L97.816 158.513L100.66 165.058C100.768 165.306 101.02 165.451 101.285 165.42L104.588 165.071C104.854 165.045 105.071 164.846 105.125 164.586L106.546 157.598L110.273 163.679C110.415 163.907 110.687 164.019 110.943 163.954L114.166 163.15C114.422 163.085 114.614 162.86 114.627 162.594L115.061 155.472L119.6 160.981C119.768 161.185 120.055 161.26 120.304 161.158L123.385 159.914C123.632 159.816 123.788 159.565 123.763 159.298L123.201 152.184L128.461 157.007C128.661 157.184 128.948 157.221 129.182 157.087L132.055 155.426C132.285 155.29 132.405 155.024 132.347 154.766L130.803 147.802L136.681 151.845C136.898 151.992 137.192 151.988 137.406 151.821L140.02 149.776C140.227 149.61 140.309 149.333 140.213 149.081L137.717 142.401L144.103 145.584C144.341 145.704 144.633 145.655 144.816 145.464L147.124 143.074C147.31 142.879 147.349 142.588 147.22 142.357L143.819 136.089L150.583 138.354C150.836 138.439 151.118 138.349 151.272 138.13L153.225 135.446C153.383 135.23 153.379 134.936 153.223 134.723L153.185 134.69ZM150.509 137.018L142.693 134.403C142.454 134.321 142.191 134.399 142.03 134.591C141.868 134.784 141.841 135.053 141.958 135.278L145.889 142.518L144.206 144.261L136.833 140.586C136.608 140.473 136.338 140.513 136.152 140.68C135.966 140.847 135.9 141.117 135.99 141.348L138.879 149.066L136.971 150.557L130.177 145.89C129.975 145.756 129.695 145.746 129.489 145.89C129.278 146.031 129.179 146.282 129.235 146.533L131.018 154.576L128.919 155.788L122.846 150.221C122.654 150.049 122.392 150.038 122.166 150.148C121.94 150.258 121.807 150.517 121.825 150.768L122.466 158.936L120.222 159.846L114.98 153.489C114.821 153.29 114.556 153.216 114.319 153.297C114.077 153.376 113.914 153.59 113.897 153.843L113.397 162.068L111.045 162.652L106.742 155.629C106.61 155.412 106.36 155.302 106.112 155.343C105.864 155.385 105.668 155.579 105.616 155.824L103.972 163.898L101.563 164.153L98.2785 156.597C98.1773 156.365 97.947 156.221 97.6969 156.228C97.4467 156.235 97.2241 156.397 97.1425 156.635L94.3938 164.402L91.9727 164.32L89.7709 156.382C89.7028 156.141 89.4962 155.966 89.2437 155.937C88.9955 155.912 88.7532 156.04 88.6356 156.264L84.8306 163.571L82.4471 163.153L81.3714 154.98C81.3406 154.733 81.1575 154.527 80.9113 154.468C80.6674 154.406 80.4096 154.503 80.265 154.705L75.4796 161.414L73.1744 160.665L73.2452 152.427C73.2451 152.175 73.1066 151.949 72.8604 151.852C72.6252 151.756 72.3609 151.816 72.1869 152.001L66.5136 157.978L64.3379 156.918L65.5568 148.766C65.5933 148.519 65.4736 148.27 65.2594 148.147C65.0453 148.023 64.7704 148.043 64.5743 148.199L58.1266 153.326L56.1164 151.97L58.4562 144.068C58.527 143.829 58.4428 143.567 58.2481 143.41C58.0491 143.25 57.7762 143.238 57.558 143.364L50.4591 147.545L48.6581 145.923L52.0748 138.424C52.1799 138.194 52.133 137.926 51.957 137.746C51.7834 137.562 51.513 137.507 51.2835 137.604L43.6684 140.758L42.1096 138.901L46.5401 131.954C46.6746 131.741 46.6649 131.466 46.5185 131.264C46.3721 131.062 46.1127 130.969 45.8701 131.03L37.8948 133.092L36.6129 131.037L41.9646 124.773C42.1302 124.583 42.1597 124.309 42.0404 124.089C41.9211 123.869 41.6812 123.742 41.4297 123.77L33.2441 124.703L32.2606 122.49L38.4307 117.029C38.6209 116.864 38.687 116.595 38.6032 116.361C38.5177 116.122 38.2947 115.965 38.0452 115.961L29.807 115.744L29.1408 113.417L36.0099 108.869C36.2179 108.732 36.3243 108.48 36.2719 108.231C36.2194 107.983 36.02 107.795 35.7749 107.754L27.6488 106.393L27.3106 103.992L34.7495 100.445C34.9755 100.335 35.1154 100.102 35.0937 99.8487C35.0762 99.5979 34.9021 99.3855 34.668 99.3062L26.8108 96.8298L26.8107 94.406L34.6717 91.9308C34.9108 91.8561 35.0801 91.6404 35.1016 91.3898C35.1232 91.1391 34.9745 90.9022 34.7573 90.7936L27.3186 87.2433L27.6557 84.8462L35.7842 83.4883C36.0321 83.4467 36.2302 83.2588 36.2818 83.0143C36.3334 82.7698 36.2293 82.5138 36.0224 82.3776L29.1497 77.8275L29.8173 75.4981L38.0574 75.2848C38.3076 75.2782 38.5301 75.1156 38.616 74.8797C38.7018 74.6437 38.6374 74.3771 38.4476 74.2115L32.2788 68.7524L33.2609 66.5374L41.4497 67.4701C41.7021 67.4982 41.942 67.3736 42.0596 67.1505C42.1773 66.9273 42.1478 66.6584 41.9857 66.4641L36.6341 60.2005L37.9149 58.1468L45.8924 60.2113C46.1362 60.2738 46.3916 60.1805 46.5428 59.9767C46.6899 59.7706 46.6995 59.5018 46.5645 59.2896L42.136 52.3386L43.6937 50.484L51.3062 53.6364C51.5373 53.7307 51.8033 53.6771 51.9815 53.4945C52.1573 53.3162 52.2018 53.0452 52.1006 52.8132L48.6822 45.3148L50.4801 43.694L57.5811 47.8777C57.7994 48.0038 58.0677 47.9851 58.2638 47.8297C58.4641 47.6767 58.5471 47.4167 58.4748 47.1734L56.1339 39.2728L58.1417 37.9187L64.5909 43.0471C64.7982 43.2116 65.0604 43.223 65.2786 43.0971C65.4968 42.9712 65.6158 42.7264 65.5808 42.4767L64.3625 34.3286L66.5415 33.2693L72.2143 39.2481C72.3903 39.428 72.654 39.4851 72.8853 39.3948C73.119 39.3002 73.2716 39.0748 73.2673 38.8205L73.1949 30.5782L75.4964 29.8303L80.2826 36.5399C80.4266 36.7462 80.686 36.84 80.9286 36.7785C81.1712 36.7171 81.3549 36.5153 81.3873 36.2653L82.4595 28.0961L84.8455 27.6769L88.6531 34.9858C88.77 35.21 89.01 35.3374 89.259 35.3132C89.5081 35.2891 89.7187 35.1085 89.7853 34.867L91.9864 26.9242L94.4046 26.8371L97.1574 34.606C97.2387 34.8433 97.4617 35.0001 97.7172 35.0132C97.9685 35.024 98.1988 34.8771 98.2997 34.6442L101.583 27.0857L103.99 27.3388L105.632 35.4125C105.684 35.661 105.881 35.8531 106.126 35.8939C106.376 35.9371 106.623 35.8282 106.753 35.6123L111.056 28.5863L113.406 29.1704L113.91 37.3929C113.927 37.6438 114.095 37.858 114.333 37.9396C114.574 38.0171 114.837 37.9395 114.994 37.7447L120.232 31.3873L122.48 32.2933L121.835 40.5077C121.813 40.7583 121.945 40.9856 122.177 41.1081C122.405 41.2173 122.674 41.1771 122.86 41.0101L128.935 35.4436L131.034 36.6555L129.25 44.6994C129.196 44.9481 129.299 45.1975 129.507 45.3403C129.708 45.4675 129.992 45.4802 130.198 45.3362L136.99 40.6706L138.898 42.1643L136.011 49.8792C135.926 50.1151 135.99 50.3817 136.173 50.5491C136.361 50.7189 136.632 50.7526 136.858 50.6424L144.231 46.9673L145.908 48.7077L141.978 55.9495C141.857 56.1702 141.884 56.4433 142.048 56.6335C142.206 56.8254 142.475 56.9023 142.712 56.821L150.525 54.2062L151.952 56.1662L147.052 62.7914C146.901 62.9952 146.893 63.2706 147.024 63.4804C147.155 63.6902 147.408 63.8032 147.652 63.7592L155.752 62.2562L156.89 64.3965L151.112 70.2741C150.936 70.4525 150.888 70.721 150.989 70.953C151.09 71.1849 151.323 71.3249 151.575 71.314L159.805 70.9546L160.635 73.2306L154.1 78.2461C153.9 78.3992 153.817 78.6592 153.885 78.9C153.957 79.1432 154.164 79.3185 154.415 79.3401L162.614 80.1279L163.115 82.4992L155.945 86.56C155.727 86.6859 155.604 86.9283 155.639 87.178C155.674 87.4277 155.861 87.6257 156.101 87.6857L164.111 89.6067L164.283 92.0234L156.618 95.0424C156.384 95.137 156.227 95.36 156.231 95.6143C156.231 95.8663 156.383 96.0882 156.619 96.1849L164.284 99.2059L164.116 101.622L156.103 103.545C155.856 103.604 155.673 103.806 155.64 104.056C155.604 104.303 155.726 104.547 155.94 104.671L163.114 108.729L162.609 111.096L154.406 111.885C154.157 111.909 153.945 112.083 153.875 112.329C153.805 112.568 153.893 112.831 154.09 112.984L160.627 118.001L159.799 120.277L151.565 119.917C151.314 119.907 151.079 120.051 150.981 120.28C150.876 120.51 150.927 120.78 151.103 120.96L156.88 126.837L155.742 128.973L147.641 127.47C147.395 127.423 147.145 127.536 147.01 127.749C146.876 127.963 146.885 128.237 147.038 128.437L151.94 135.063L150.517 137.023L150.509 137.018Z" fill="#776503"/>
<path d="M129.404 49.9988C129.261 49.8882 129.084 49.8537 128.913 49.889C128.741 49.9243 128.596 50.0307 128.509 50.1818L102.559 95.1274C102.45 95.3163 102.449 95.5508 102.56 95.7377L128.509 140.683C128.566 140.778 128.64 140.854 128.732 140.907C128.787 140.939 128.85 140.964 128.915 140.979C129.084 141.015 129.265 140.974 129.403 140.869C132.488 138.581 135.349 135.962 137.911 133.086C140.479 130.208 142.758 127.057 144.682 123.724C151.672 111.616 153.927 97.4237 151.042 83.7566C148.174 70.1949 140.492 58.2032 129.402 49.9922L129.404 49.9988ZM136.999 132.28C134.647 134.918 132.031 137.337 129.222 139.477L103.796 95.4384L129.224 51.3954C139.777 59.4134 147.087 70.9723 149.845 84.017C152.672 97.3874 150.464 111.276 143.624 123.124C141.74 126.386 139.511 129.47 137.001 132.286L136.999 132.28Z" fill="#776503"/>
<path fill-rule="evenodd" clip-rule="evenodd" d="M82.4842 118.293C95.0208 125.531 111.06 121.234 118.297 108.698C125.535 96.1621 121.237 80.1232 108.7 72.8852C96.1636 65.6472 80.1245 69.9443 72.887 82.4801C65.6495 95.0158 69.9477 111.055 82.4842 118.293Z" fill="url(#paint1_linear_945_13495)"/>
<path d="M82.1764 118.826C69.3627 111.428 64.9605 94.9876 72.3555 82.179C79.7506 69.3703 96.1937 64.965 109.003 72.3606C121.813 79.7561 126.219 96.1989 118.824 109.008C111.429 121.816 94.9858 126.221 82.1764 118.826ZM108.39 73.4227C96.164 66.3641 80.4759 70.5672 73.4177 82.7922C66.3596 95.0173 70.5637 110.705 82.7896 117.764C95.0155 124.822 110.704 120.619 117.762 108.394C124.82 96.1692 120.616 80.4813 108.39 73.4227Z" fill="#776503"/>
<path fill-rule="evenodd" clip-rule="evenodd" d="M92.2645 101.353C95.4385 103.186 99.5178 102.093 101.35 98.9191C103.183 95.7453 102.085 91.6636 98.9154 89.8335C95.7456 88.0034 91.6621 89.0939 89.8297 92.2677C87.9973 95.4415 89.0904 99.5208 92.2645 101.353Z" fill="#DDBC06"/>
<path d="M91.9591 101.882C88.4912 99.8801 87.2986 95.43 89.3031 91.9581C91.3076 88.4862 95.7578 87.2939 99.2257 89.2962C102.694 91.2984 103.89 95.7509 101.886 99.2227C99.8814 102.695 95.4312 103.887 91.9591 101.882ZM98.6124 90.3583C95.7281 88.693 92.0263 89.6848 90.3611 92.5689C88.6959 95.4531 89.688 99.1549 92.5723 100.82C95.4566 102.485 99.1585 101.494 100.824 98.6095C102.489 95.7253 101.497 92.0236 98.6124 90.3583Z" fill="#776503"/>
<path fill-rule="evenodd" clip-rule="evenodd" d="M97.2818 92.6631C95.6696 91.7323 93.5944 92.2919 92.6636 93.904C91.7329 95.5161 92.2859 97.593 93.8981 98.5238C95.5103 99.4546 97.5873 98.9017 98.5205 97.2854C99.4536 95.6691 98.8982 93.5964 97.2818 92.6631Z" fill="#776503"/>
<path d="M93.5928 99.0527C91.6867 97.9522 91.0301 95.502 92.1305 93.596C93.2309 91.69 95.6769 91.0312 97.5872 92.1341C99.4975 93.237 100.15 95.6848 99.0495 97.5907C97.9491 99.4967 95.4989 100.153 93.5928 99.0527ZM96.974 93.1962C95.6515 92.4327 93.9562 92.8868 93.1927 94.2093C92.4292 95.5317 92.8835 97.227 94.206 97.9905C95.5285 98.7541 97.2238 98.2999 97.9873 96.9775C98.7508 95.655 98.2965 93.9598 96.974 93.1962Z" fill="#776503"/>
</g>
<defs>
<filter id="filter0_f_945_13495" x="-8" y="-8" width="207.212" height="207.188" filterUnits="userSpaceOnUse" color-interpolation-filters="sRGB">
<feFlood flood-opacity="0" result="BackgroundImageFix"/>
<feBlend mode="normal" in="SourceGraphic" in2="BackgroundImageFix" result="shape"/>
<feGaussianBlur stdDeviation="4" result="effect1_foregroundBlur_945_13495"/>
</filter>
<linearGradient id="paint0_linear_945_13495" x1="130.27" y1="35.5146" x2="60.9106" y2="155.649" gradientUnits="userSpaceOnUse">
<stop stop-color="#DDBC06"/>
<stop offset="0.514423" stop-color="#FCEEA3"/>
<stop offset="1" stop-color="#FBD921"/>
</linearGradient>
<linearGradient id="paint1_linear_945_13495" x1="108.7" y1="72.8852" x2="82.4842" y2="118.293" gradientUnits="userSpaceOnUse">
<stop stop-color="#FBD921"/>
<stop offset="0.485577" stop-color="#F1F2F2"/>
<stop offset="0.990385" stop-color="#FBD921"/>
</linearGradient>
</defs>
</svg>
