<svg width="360" height="304" viewBox="0 0 360 304" fill="none" xmlns="http://www.w3.org/2000/svg">
<g opacity="0.5">
<path d="M351.816 19.6539L411.581 88.1752V215.808L351.816 284.329H8.17835L-51.5864 215.808V88.1752L8.17835 19.6539H351.816ZM359.836 0H0.164474L-5.29659 6.26579L-65.0613 74.7871L-70 80.4493V223.551L-65.0613 229.213L-5.29659 297.734L0.164474 304H359.836L365.297 297.734L425.061 229.213L430 223.551V80.4493L425.061 74.7871L365.297 6.26579L359.836 0Z" fill="#D6EEFF"/>
<path d="M414.98 85.1531V214.757L354.412 284.336H6.159L-54.4082 214.757V85.1531L6.159 15.5684H354.412L414.98 85.1531Z" fill="#9AC8ED"/>
<path d="M411.576 88.1833V215.816L351.811 284.337H8.18394L6.98294 282.957L-0.998627 273.812L-13.0248 260.027L-45.1557 223.185L-51.5808 215.816V88.1833L8.18394 19.6562H351.811L378.475 50.2321L390.679 64.2181L399.566 74.41L411.576 88.1833Z" fill="#1799BD"/>
<path d="M96.3419 217.223C92.2865 215.855 89.3513 211.79 89.3836 207.008C89.4105 202.225 92.3942 198.161 96.4604 196.798L96.4765 193.896C90.9347 195.333 86.7931 200.656 86.7554 207.013C86.7177 213.371 90.7946 218.7 96.3203 220.137L96.3365 217.228L96.3419 217.223Z" fill="#57FFFF"/>
<path d="M102.794 193.976L102.777 196.908C106.666 198.374 109.445 202.346 109.423 207.002C109.396 211.664 106.574 215.637 102.664 217.102L102.648 220.04C108.034 218.482 112.014 213.234 112.046 207.002C112.078 200.771 108.158 195.529 102.794 193.971V193.976Z" fill="#57FFFF"/>
<path d="M104.673 207.002C104.657 210.112 102.282 212.635 99.3685 212.635C96.4549 212.635 94.1121 210.112 94.1283 207.002C94.1444 203.892 96.5249 201.368 99.4331 201.368C102.341 201.368 104.69 203.892 104.673 207.002Z" fill="#57FFFF"/>
<path d="M131.892 197.68C135.582 195.421 140.369 195.881 143.649 199.146C146.924 202.411 147.699 207.504 145.879 211.626L147.866 213.609C150.634 208.286 149.773 201.428 145.421 197.088C141.07 192.748 134.634 192.334 129.894 195.691L131.887 197.68H131.892Z" fill="#57FFFF"/>
<path d="M143.525 218.502L141.517 216.502C137.871 218.56 133.25 218.048 130.061 214.869C126.868 211.69 126.049 206.776 127.686 202.717L125.677 200.711C123.103 205.988 124.013 212.673 128.284 216.927C132.555 221.181 138.824 221.652 143.531 218.502H143.525Z" fill="#57FFFF"/>
<path d="M133.276 211.148C131.144 209.026 131.02 205.451 132.991 203.163C134.967 200.875 138.296 200.749 140.423 202.87C142.55 204.991 142.68 208.567 140.703 210.854C138.727 213.137 135.404 213.269 133.271 211.148H133.276Z" fill="#57FFFF"/>
<path d="M312.323 75.6407C308.499 74.3531 305.736 70.5189 305.763 66.0064C305.79 61.4938 308.601 57.6654 312.436 56.3777L312.452 53.6357C307.228 54.9924 303.323 60.0108 303.286 66.0006C303.248 71.9962 307.093 77.0204 312.307 78.377L312.323 75.635V75.6407Z" fill="#57FFFF"/>
<path d="M318.409 53.7197L318.393 56.4847C322.061 57.8643 324.684 61.6123 324.657 66.0041C324.63 70.4017 321.969 74.1439 318.285 75.5293L318.269 78.3C323.343 76.8284 327.102 71.8848 327.134 66.0041C327.166 60.1292 323.466 55.1856 318.415 53.7197H318.409Z" fill="#57FFFF"/>
<path d="M320.181 66.0039C320.165 68.9356 317.925 71.3155 315.178 71.3155C312.431 71.3155 310.218 68.9356 310.239 66.0039C310.255 63.0722 312.496 60.6924 315.242 60.6924C317.989 60.6924 320.203 63.0722 320.181 66.0039Z" fill="#57FFFF"/>
<path d="M345.849 57.2231C349.328 55.0962 353.841 55.5273 356.932 58.6085C360.024 61.6897 360.751 66.4896 359.038 70.3755L360.912 72.2438C363.519 67.2254 362.711 60.7584 358.607 56.6655C354.503 52.5727 348.439 52.1818 343.969 55.3491L345.849 57.2231Z" fill="#57FFFF"/>
<path d="M356.814 76.8559L354.918 74.9705C351.482 76.9134 347.125 76.4306 344.115 73.4299C341.104 70.4292 340.329 65.8017 341.874 61.9733L339.978 60.082C337.549 65.0602 338.411 71.3604 342.434 75.3729C346.457 79.3795 352.371 79.8279 356.809 76.8617L356.814 76.8559Z" fill="#57FFFF"/>
<path d="M347.152 69.9142C345.143 67.9137 345.025 64.5394 346.883 62.3895C348.746 60.2338 351.881 60.1131 353.89 62.1136C355.898 64.114 356.017 67.4884 354.153 69.6383C352.29 71.7939 349.156 71.9147 347.147 69.9142H347.152Z" fill="#57FFFF"/>
<path d="M60.7693 186.025H11.9697L11.9859 182.955H60.78L60.7693 186.025Z" fill="#57FFFF"/>
<path d="M60.7427 193.345H11.9324L11.9485 190.275H60.7534L60.7427 193.345Z" fill="#57FFFF"/>
<path d="M60.721 200.666H11.8945L11.9107 197.591H60.7318L60.721 200.666Z" fill="#57FFFF"/>
<path d="M241.136 232.874H169L169.027 229.154H241.152L241.136 232.874Z" fill="#57FFFF"/>
<path d="M241.098 241.729H168.946L168.967 238.01H241.114L241.098 241.729Z" fill="#57FFFF"/>
<path d="M241.06 250.588H168.892L168.913 246.869H241.076L241.06 250.588Z" fill="#57FFFF"/>
<path d="M148.954 150.201H84.1218L84.1434 145.613H148.971L148.954 150.201Z" fill="#57FFFF"/>
<path d="M148.922 161.132H84.0732L84.0948 156.539H148.938L148.922 161.132Z" fill="#57FFFF"/>
<path d="M128.419 172.068H84.0251L84.0359 167.475H128.425L128.419 172.068Z" fill="#57FFFF"/>
<path d="M152.509 88.1477H84.084L84.1109 83.5547H152.525L152.509 88.1477Z" fill="#57FFFF"/>
<path d="M152.466 99.0754H84.0251L84.0467 94.4824H152.488L152.466 99.0754Z" fill="#57FFFF"/>
<path d="M67.6039 223.919H-14.6299L-14.603 219.332H67.6254L67.6039 223.919Z" fill="#57FFFF"/>
<path d="M67.5656 234.847H-14.6951L-14.6681 230.26H67.5818L67.5656 234.847Z" fill="#57FFFF"/>
<path d="M372.508 180.315H289.348L289.375 176.602H372.53L372.508 180.315Z" fill="#57FFFF"/>
<path d="M330.93 189.176H289.283L289.299 185.451H330.936L330.93 189.176Z" fill="#57FFFF"/>
<path d="M372.427 198.029H289.224L289.246 194.304H372.443L372.427 198.029Z" fill="#57FFFF"/>
<path d="M249.671 176.609H232.647C231.71 176.609 230.94 175.793 230.94 174.787V173.901C230.929 172.895 231.689 172.079 232.631 172.079H249.65C250.587 172.079 251.357 172.895 251.362 173.901V174.787C251.373 175.793 250.614 176.609 249.677 176.609H249.671Z" fill="#57FFFF"/>
<path d="M229.314 156.326C207.265 156.326 189.261 137.132 189.185 113.564C189.11 90.0352 206.942 70.9102 228.937 70.9102C250.932 70.9102 268.931 90.0294 269.066 113.564C269.2 137.126 251.368 156.326 229.319 156.326H229.314ZM228.937 71.8357C207.421 71.8357 189.972 90.541 190.047 113.564C190.122 136.615 207.734 155.395 229.303 155.395C250.873 155.395 268.317 136.615 268.188 113.564C268.058 90.541 250.447 71.8357 228.932 71.8357H228.937Z" fill="#57FFFF"/>
<path d="M194.35 108.889C194.129 110.849 194.059 112.849 194.14 114.884C194.566 125.306 199.009 134.544 205.805 140.953L228.441 113.424L194.35 108.889Z" fill="#57FFFF"/>
<path d="M252.101 141.357C258.941 135.063 263.443 125.905 263.928 115.489C264.283 107.959 262.484 100.831 259.113 94.7949L229.632 113.437L252.095 141.357H252.101Z" fill="#5CFFDE"/>
<path d="M229.023 114.048L206.688 141.865C212.834 147.527 220.858 150.913 229.588 150.803C237.839 150.7 245.358 147.492 251.201 142.238L229.028 114.054L229.023 114.048Z" fill="#2BCEFF"/>
<path d="M265.198 89.4288C262.155 84.1115 258.089 79.4553 253.204 75.8223L229.216 112.808L265.198 89.4231V89.4288Z" fill="#57FFFF"/>
<path d="M1.54343 107.973C-8.90477 114.135 -12.7717 128.224 -7.06825 139.388C-3.17442 147.005 4.18241 151.322 11.787 151.333C12.2609 151.333 11.62 148.183 11.62 148.183C5.11413 148.102 -1.15479 144.383 -4.48852 137.865C-9.4164 128.219 -6.07729 116.049 2.94909 110.726C11.9755 105.403 23.3231 108.91 28.2617 118.544C31.687 125.235 31.1323 133.151 27.4485 139.152C27.4485 139.152 29.4466 141.595 29.6512 141.279C34.1375 134.289 34.8861 124.919 30.8415 117.021C25.1273 105.875 11.9916 101.816 1.54343 107.973Z" fill="#57FFFF"/>
<path d="M26.4409 120.927C25.3853 118.433 23.8289 116.346 21.9654 114.742L20.0966 117.18C21.6261 118.496 22.8971 120.203 23.7642 122.238C26.7263 129.228 23.8181 137.529 17.2691 140.737C10.7201 143.944 2.98633 140.863 0.0242085 133.867C-1.026 131.384 -1.33837 128.734 -1.00446 126.21L-3.8804 125.538C-4.34357 128.711 -3.97734 132.056 -2.65786 135.184C0.972084 143.76 10.4562 147.537 18.4809 143.605C26.5055 139.673 30.0762 129.504 26.4409 120.933V120.927Z" fill="#57FFFF"/>
<path d="M9.15849 135.518C7.78515 134.984 6.54106 134.035 5.59857 132.696C2.9919 128.988 3.70281 123.694 7.17118 120.889C10.6449 118.083 15.589 118.813 18.1903 122.515C19.1758 123.918 19.6875 125.545 19.7575 127.183L22.7034 127.39C22.6765 125.022 21.971 122.642 20.5438 120.613C16.9677 115.525 10.1764 114.525 5.41007 118.376C0.638372 122.228 -0.331051 129.505 3.24503 134.593C4.54836 136.444 6.27177 137.754 8.17291 138.484L9.15849 135.513V135.518Z" fill="#57FFFF"/>
<path d="M14.4533 127.42C14.4479 128.932 13.3008 130.15 11.8897 130.15C10.4787 130.15 9.34229 128.926 9.34768 127.42C9.35306 125.908 10.5056 124.689 11.9112 124.689C13.3169 124.689 14.4587 125.914 14.4533 127.42Z" fill="#57FFFF"/>
<path d="M27.1464 125.34L26.3655 124.552L37.7885 111.688H62.261V112.831H38.2463L27.1464 125.34Z" fill="#57FFFF"/>
<path d="M246.284 120.82L245.74 119.832L282.524 96.8896H313.109V98.0393H282.815L246.284 120.82Z" fill="#57FFFF"/>
<path d="M62.261 151.915H27.4911L11.458 127.755L12.3359 127.088L28.0459 150.771H62.261V151.915Z" fill="#57FFFF"/>
<path d="M217.831 97.2433L193.445 78.4632H165.348V77.3135H193.79L193.93 77.4227L218.456 96.3178L217.831 97.2433Z" fill="#57FFFF"/>
<path d="M52.1414 174.229H21.3462L8.53906 149.948L9.47078 149.385L21.9763 173.086H52.1414V174.229Z" fill="#57FFFF"/>
<path d="M17.9855 107.41L17.2961 106.53L32.9038 92.6133H62.2611V93.763H33.2916L17.9855 107.41Z" fill="#57FFFF"/>
<path d="M43.2603 142.457H63.3327L63.3112 138.916H43.2388L43.2603 142.457Z" fill="#57FFFF"/>
<path d="M43.2176 134.953H63.2846L63.263 131.418H43.2014L43.2176 134.953Z" fill="#57FFFF"/>
<path d="M43.1795 127.459H63.2411L63.2196 123.924H43.158L43.1795 127.459Z" fill="#57FFFF"/>
<path d="M44.1382 107.373H63.2412L63.2197 104.01H44.1167L44.1382 107.373Z" fill="#57FFFF"/>
<path d="M52.1952 169.614H27.8628L27.8789 165.325H52.2114L52.1952 169.614Z" fill="#57FFFF"/>
<path d="M341.858 152.899H312.13L312.097 148.714H341.826L341.858 152.899Z" fill="#57FFFF"/>
<path d="M341.804 146.368H312.075L312.043 142.184H341.766L341.804 146.368Z" fill="#57FFFF"/>
<path d="M341.745 139.855H312.027L311.989 135.676H341.707L341.745 139.855Z" fill="#57FFFF"/>
<path d="M341.686 133.332H311.973L311.936 129.153H341.654L341.686 133.332Z" fill="#57FFFF"/>
<path d="M341.632 126.808H311.919L311.887 122.629H341.594L341.632 126.808Z" fill="#57FFFF"/>
<path d="M341.573 120.298H311.865L311.833 116.119H341.535L341.573 120.298Z" fill="#57FFFF"/>
<path d="M189.928 73.9743H165.666L165.655 69.709H189.912L189.928 73.9743Z" fill="#57FFFF"/>
<path d="M277.741 159.501H251.492L235.819 138.594L236.654 137.875L252.009 158.357H277.741V159.501Z" fill="#57FFFF"/>
<path d="M277.693 150.754H258.66L258.687 155.042H277.72L277.693 150.754Z" fill="#57FFFF"/>
<path d="M59.0241 83.9702H-3.30957L-3.28803 79.6934H59.0349L59.0241 83.9702Z" fill="#57FFFF"/>
<path d="M255.117 82.5847L254.427 81.7109L270.035 67.7939H293.441V68.9379H270.423L255.117 82.5847Z" fill="#57FFFF"/>
<path d="M262.097 55.2954H199.763L199.784 51.0186H262.107L262.097 55.2954Z" fill="#57FFFF"/>
<path d="M262.097 43.6089H199.763L199.784 39.332H262.107L262.097 43.6089Z" fill="#57FFFF"/>
<path d="M122.656 246.245H75.0518L75.0679 241.945H122.666L122.656 246.245Z" fill="#57FFFF"/>
<path d="M-8.51709 191.116V200.659L0.36387 200.797V191.254L-8.51709 191.116Z" fill="#57FFFF"/>
<path d="M-8.51709 176.731V186.274L0.36387 186.412V176.875L-8.51709 176.731Z" fill="#57FFFF"/>
<path d="M309.582 251.178H257.265V250.229H309.576L309.582 251.178Z" fill="#57FFFF"/>
<path d="M285.68 248.801H280.865L280.774 220.3H285.583L285.68 248.801Z" fill="#57FFFF"/>
<path d="M261.789 248.801H257.26L257.206 228.164H261.73L261.789 248.801Z" fill="#57FFFF"/>
<path d="M273.735 248.805H269.206L269.163 234.808H273.692L273.735 248.805Z" fill="#57FFFF"/>
<path d="M291.508 248.805H286.984L286.935 234.808H291.459L291.508 248.805Z" fill="#57FFFF"/>
<path d="M279.562 248.802H275.033L275.006 239.409H279.535L279.562 248.802Z" fill="#57FFFF"/>
<path d="M309.571 248.8H305.047L305.025 244.149H309.555L309.571 248.8Z" fill="#57FFFF"/>
<path d="M267.908 248.805H263.087L262.996 215.314H267.811L267.908 248.805Z" fill="#57FFFF"/>
<path d="M297.626 248.799H292.811L292.73 225.776H297.545L297.626 248.799Z" fill="#57FFFF"/>
<path d="M303.744 248.805H298.929L298.859 230.191H303.674L303.744 248.805Z" fill="#57FFFF"/>
<path d="M145.934 136.153H81.3601V135.331H145.929L145.934 136.153Z" fill="#57FFFF"/>
<path d="M116.431 134.105H110.485L110.372 109.565H116.313L116.431 134.105Z" fill="#57FFFF"/>
<path d="M86.9448 134.103H81.3544L81.2844 116.335H86.8747L86.9448 134.103Z" fill="#57FFFF"/>
<path d="M101.685 134.103H96.1002L96.0464 122.049H101.637L101.685 134.103Z" fill="#57FFFF"/>
<path d="M123.627 134.103H118.037L117.978 122.049H123.568L123.627 134.103Z" fill="#57FFFF"/>
<path d="M108.881 134.106H103.29L103.258 126.018H108.843L108.881 134.106Z" fill="#57FFFF"/>
<path d="M145.924 134.102H140.333L140.312 130.102H145.897L145.924 134.102Z" fill="#57FFFF"/>
<path d="M94.4961 134.1H88.5504L88.4319 105.266H94.3723L94.4961 134.1Z" fill="#57FFFF"/>
<path d="M131.178 134.105H125.232L125.129 114.278H131.075L131.178 134.105Z" fill="#57FFFF"/>
<path d="M138.728 134.107H132.782L132.696 118.08H138.642L138.728 134.107Z" fill="#57FFFF"/>
<path d="M357.897 119.018C352.672 119.018 348.429 123.547 348.412 129.141C348.396 134.734 352.619 139.269 357.843 139.269C363.067 139.269 367.316 134.734 367.327 129.141C367.343 123.547 363.121 119.018 357.897 119.018ZM357.853 135.998C354.315 135.998 351.461 132.929 351.471 129.141C351.482 125.352 354.358 122.288 357.891 122.288C361.424 122.288 364.284 125.358 364.273 129.141C364.262 132.929 361.386 135.998 357.853 135.998Z" fill="#57FFFF"/>
<path d="M179.771 142.766C174.547 142.766 170.303 147.295 170.287 152.889C170.271 158.482 174.493 163.017 179.717 163.017C184.941 163.017 189.191 158.482 189.201 152.889C189.212 147.295 184.995 142.766 179.771 142.766ZM179.728 159.746C176.19 159.746 173.335 156.677 173.346 152.889C173.357 149.1 176.233 146.036 179.766 146.036C183.299 146.036 186.158 149.106 186.148 152.889C186.137 156.677 183.261 159.746 179.728 159.746Z" fill="#57FFFF"/>
<path d="M-2.23249 157.422C-5.64162 157.422 -8.40985 160.377 -8.42062 164.027C-8.43139 167.677 -5.67393 170.638 -2.26481 170.638C1.14432 170.638 3.91794 167.677 3.92333 164.027C3.9341 160.377 1.17664 157.422 -2.23249 157.422ZM-2.26481 168.505C-4.57526 168.505 -6.4387 166.499 -6.43331 164.033C-6.42792 161.561 -4.54833 159.56 -2.24326 159.56C0.0618038 159.56 1.93063 161.561 1.92525 164.033C1.91986 166.504 0.0456457 168.505 -2.26481 168.505Z" fill="#57FFFF"/>
<path d="M216.464 205.953H192.169V210.23H216.464V205.953Z" fill="#57FFFF"/>
<path d="M216.459 199.232H192.169V203.509H216.459V199.232Z" fill="#57FFFF"/>
<path d="M211.671 192.502H196.962V196.779H211.671V192.502Z" fill="#57FFFF"/>
<path d="M349.113 220.301H320.165V241.8H349.113V220.301Z" fill="#57FFFF"/>
<path d="M111.626 43.0156H96.6377V59.0135H111.626V43.0156Z" fill="#57FFFF"/>
<path d="M139.551 43.0156H124.562V59.0135H139.551V43.0156Z" fill="#57FFFF"/>
<path d="M167.481 43.0156H152.492V59.0135H167.481V43.0156Z" fill="#57FFFF"/>
<path d="M241.863 221.067H166.765V184.691H241.863V221.067ZM168.198 219.538H240.43V186.215H168.198V219.538Z" fill="#57FFFF"/>
<path d="M379.407 159.601H304.309V106.756H379.407V159.601ZM305.742 158.072H377.974V108.285H305.742V158.072Z" fill="#57FFFF"/>
<path d="M72.9252 211.231H-19.4121V66.6924H72.9306V211.225L72.9252 211.231ZM-17.9849 209.702H71.4926V68.2215H-17.9795V209.702H-17.9849Z" fill="#57FFFF"/>
<path d="M218.144 82.1459L228.441 106.146L230.935 80.5651C230.935 80.5651 223.821 79.0762 218.144 82.1459Z" fill="#57FFFF"/>
<path d="M14.9105 51.0153C14.9105 52.6996 13.6287 54.0677 12.0507 54.0677C10.4727 54.0677 9.19092 52.6996 9.19092 51.0153C9.19092 49.331 10.4727 47.9629 12.0507 47.9629C13.6287 47.9629 14.9105 49.331 14.9105 51.0153Z" fill="#57FFFF"/>
<path d="M28.9029 51.0153C28.9029 52.6996 27.6211 54.0677 26.0431 54.0677C24.4651 54.0677 23.1833 52.6996 23.1833 51.0153C23.1833 49.331 24.4651 47.9629 26.0431 47.9629C27.6211 47.9629 28.9029 49.331 28.9029 51.0153Z" fill="#57FFFF"/>
<path d="M56.8866 51.0153C56.8866 52.6996 55.6048 54.0677 54.0268 54.0677C52.4488 54.0677 51.167 52.6996 51.167 51.0153C51.167 49.331 52.4488 47.9629 54.0268 47.9629C55.6048 47.9629 56.8866 49.331 56.8866 51.0153Z" fill="#57FFFF"/>
<path d="M70.8783 51.0153C70.8783 52.6996 69.5965 54.0677 68.0185 54.0677C66.4405 54.0677 65.1587 52.6996 65.1587 51.0153C65.1587 49.331 66.4405 47.9629 68.0185 47.9629C69.5965 47.9629 70.8783 49.331 70.8783 51.0153Z" fill="#57FFFF"/>
<path d="M42.8944 51.0153C42.8944 52.6996 41.6126 54.0677 40.0346 54.0677C38.4566 54.0677 37.1748 52.6996 37.1748 51.0153C37.1748 49.331 38.4566 47.9629 40.0346 47.9629C41.6126 47.9629 42.8944 49.331 42.8944 51.0153Z" fill="#57FFFF"/>
<path d="M-4.21425 9.94269C-9.91228 15.122 -14.7702 21.4166 -19.8758 27.257C-24.8414 32.9422 -29.8231 38.6216 -34.8102 44.2838C-39.8027 49.9518 -44.7791 55.6312 -49.7339 61.3279C-54.7318 67.0706 -60.2898 72.6408 -64.2698 79.24C-64.8838 80.2575 -63.6289 81.6831 -62.6649 80.9531C-56.676 76.4176 -51.732 70.261 -46.6318 64.639C-41.4831 58.9653 -36.3721 53.2514 -31.2988 47.4972C-26.2255 41.743 -21.1629 35.9831 -16.1112 30.2059C-11.0379 24.4057 -5.61991 18.8068 -1.24675 12.38C0.0888977 10.4198 -2.68472 8.55732 -4.20886 9.94269H-4.21425Z" fill="#EBF7FF"/>
<path d="M258.273 4.27026C250.286 2.70669 242.175 2.97112 234.091 2.94237C225.883 2.91363 217.681 2.89639 209.473 2.88489C193.182 2.8619 176.89 2.86764 160.598 2.90214C128.015 2.97112 95.4263 3.08034 62.8484 3.48848C53.6927 3.60344 44.5371 3.72416 35.3815 3.86212C30.8629 3.92536 26.3443 4.02883 21.8257 4.18404C17.1941 4.33924 12.5732 4.42547 8.02227 5.44294C7.15518 5.63839 7.12825 7.16747 8.02227 7.33992C15.8746 8.87475 24.2116 8.34015 32.1716 8.27692C40.374 8.20794 48.5817 8.1447 56.7895 8.09297C73.0811 7.98375 89.3728 7.84579 105.664 7.74806C138.248 7.54687 170.831 7.46639 203.42 7.50088C212.575 7.51238 221.736 7.52962 230.892 7.55836C240.015 7.58711 249.257 8.11596 258.283 6.44317C259.291 6.25922 259.28 4.48295 258.283 4.28751L258.273 4.27026Z" fill="#EBF7FF"/>
<path d="M337.727 3.33221C334.991 2.49294 331.701 3.03904 328.873 3.07353C325.782 3.11377 322.696 3.177 319.605 3.24598C313.303 3.37819 307.007 3.49316 300.706 3.53915C294.524 3.58514 288.346 3.55065 282.163 3.48741C279.072 3.45292 275.986 3.45867 272.895 3.41843C269.943 3.38394 266.642 2.91832 263.809 3.9243C263.157 4.15423 263.233 5.005 263.809 5.26368C266.475 6.4536 269.685 6.24666 272.534 6.38462C275.62 6.53983 278.711 6.69504 281.803 6.79276C288.098 6.99396 294.405 7.06294 300.701 7.09168C306.884 7.12617 313.061 7.08593 319.244 6.93647C322.335 6.86174 325.421 6.75827 328.512 6.59157C331.426 6.43061 334.97 6.75827 337.722 5.65457C338.729 5.25218 338.858 3.67136 337.722 3.32646L337.727 3.33221Z" fill="#EBF7FF"/>
</g>
</svg>
