<svg width="885" height="440" viewBox="0 0 885 440" fill="none" xmlns="http://www.w3.org/2000/svg">
<g filter="url(#filter0_i_6118_11164)">
<path d="M-190.735 227.883C-193.699 234.968 -196.038 243.079 -198.227 250.808C-200.4 252.506 -199.176 255.249 -199.176 258.642C-199.176 264.094 -197.581 266.912 -193.584 267.135C-190.538 267.305 -188.072 265.476 -185.09 265.074C-179.471 264.317 -173.434 264.582 -167.786 264.95C-159.253 265.506 -151.358 272.985 -142.752 273.732C-133.71 274.518 -134.702 379.895 -125.738 378.975C-94.7701 375.798 -54.1192 276.705 -23.1768 276.783C-14.3356 276.806 -5.46368 276.746 3.30753 274.804C11.7191 272.943 20.08 270.388 28.4729 268.331C42.1316 264.983 55.5159 261.799 69.3601 262.765C79.2706 263.456 89.2932 264.864 99.2209 264.002C104.609 263.534 110.008 262.142 115.365 261.157C121.016 260.118 126.667 259.068 132.274 257.529C133.544 257.18 136.058 256.489 137.523 255.797C137.692 255.717 137.969 255.699 137.998 255.426C138.013 255.284 136.076 255.223 136.046 255.22C135.19 255.136 134.393 254.857 133.566 254.519C128.306 252.368 122.757 251.817 117.422 250.066C108.896 247.267 101.247 241.819 93.4176 236.006C87.8084 231.841 90.3779 230.164 86.0655 223.424C84.1418 220.417 80.2731 212.995 77.7022 211.63C72.6771 208.963 66.2275 206.755 63.6573 199.055C61.3455 192.13 52.1296 181.724 48.3851 177.004C40.1448 166.617 39.1169 176.02 30.6585 166.02C24.9418 159.261 21.7706 143.225 15.2046 139.154C8.18571 134.803 1.20892 130.628 -4.8401 123.322C-8.87311 118.451 -12.0942 107.884 -16.2033 103.146C-19.8777 98.9088 -19.2146 70.8326 -25.0723 73.6629C-29.5269 66.9519 -25.5666 36.4928 -35.5283 27.0097C-35.6136 23.1438 -35.2033 9.05969 -38.3997 0C-37.9205 2.62143 -37.9121 37.0007 -47.4471 46.1452C-46.201 56.8134 -47.9751 73.611 -50.5707 76.6039C-57.7292 84.8581 -54.5828 90.7045 -60.8194 100.727C-64.4637 106.584 -67.2741 113.095 -70.2894 119.693C-72.5101 124.553 -74.4684 130.149 -77.3853 134.083C-80.256 137.954 -83.7018 138.659 -87.3829 139.154C-96.1968 140.341 -104.773 140.988 -113.392 144.679C-117.54 146.456 -123.482 149.407 -125.738 155.894C-127.875 162.04 -128.463 170.322 -129.483 177.004C-131.188 188.167 -132.652 197.237 -138.663 204.382C-144.455 211.265 -151.702 218.887 -159.133 220.215C-168.979 221.973 -179.22 219.05 -188.836 224.461C-189.594 224.888 -190.298 226.838 -190.735 227.883Z" fill="#2A0538"/>
</g>
<g filter="url(#filter1_i_6118_11164)">
<path d="M-143.951 342.883C-148.217 353.076 -151.584 364.747 -154.735 375.867C-157.863 378.311 -156.102 382.257 -156.102 387.139C-156.102 394.983 -153.806 399.038 -148.052 399.359C-143.667 399.604 -140.118 396.971 -135.825 396.393C-127.736 395.304 -119.047 395.686 -110.916 396.215C-98.6341 397.015 -118.181 432.608 -105.793 433.683C-92.7768 434.813 -118.697 468.291 -105.793 466.968C-61.2167 462.396 -39.9682 454.008 4.57176 454.121C17.2981 454.153 73.1137 448.155 85.7394 445.362C97.8474 442.683 130.3 479.854 142.382 476.895C162.043 472.078 189.023 460.322 208.951 461.712C223.216 462.707 230.281 465.872 244.571 464.632C252.328 463.959 268.977 435.1 276.688 433.683C284.823 432.188 299.566 447.577 307.637 445.362C333.395 532.632 628.804 556.31 407.49 437.771C976.248 529.449 632.307 445.233 546.468 424.34C439.607 438.81 326.477 382.219 326.432 382.215C325.2 382.094 324.054 381.693 322.863 381.206C315.292 378.112 307.304 377.319 299.625 374.799C287.351 370.772 276.341 362.933 265.071 354.57C256.997 348.578 260.696 346.164 254.489 336.466C251.72 332.14 246.151 321.461 242.45 319.497C235.217 315.659 225.933 312.484 222.233 301.405C218.905 291.44 205.64 276.468 200.25 269.677C188.388 254.732 186.909 268.261 174.733 253.872C166.504 244.148 161.94 221.074 152.488 215.218C142.385 208.958 132.342 202.95 123.635 192.438C117.83 185.43 113.193 170.225 107.278 163.408C101.989 157.312 102.943 116.915 94.5117 120.988C88.0995 111.332 93.8002 67.5065 79.4608 53.8621C79.338 48.2997 79.9287 28.0352 75.3277 15C76.0174 18.7718 76.0295 68.2372 62.3044 81.3945C64.098 96.7442 61.5444 120.913 57.8082 125.219C47.5038 137.095 52.0329 145.507 43.0557 159.928C37.8099 168.355 33.7645 177.723 29.4241 187.217C26.2276 194.209 23.4087 202.261 19.2099 207.921C15.0777 213.491 10.1176 214.505 4.81895 215.218C-7.86815 216.925 -20.2137 217.857 -32.6203 223.167C-38.5913 225.723 -47.144 229.97 -50.3907 239.303C-53.4668 248.146 -54.314 260.062 -55.7826 269.677C-58.2358 285.739 -60.343 298.789 -68.9964 309.068C-77.3333 318.972 -87.7642 329.939 -98.4619 331.849C-112.634 334.379 -127.375 330.174 -141.217 337.959C-142.308 338.573 -143.322 341.379 -143.951 342.883Z" fill="#370C3F"/>
</g>
<g filter="url(#filter2_i_6118_11164)">
<path d="M13.048 432.021C8.78232 442.213 5.41464 453.885 2.26426 465.005C-0.863741 467.448 0.897311 471.395 0.897311 476.276C0.897311 484.121 3.19313 488.176 8.94714 488.497C13.3315 488.742 16.8812 486.109 21.1738 485.531C29.2628 484.441 37.9519 484.823 46.0827 485.353C58.3649 486.152 38.8179 521.746 51.2061 522.821C64.2222 523.951 38.3023 557.428 51.2061 556.105C95.7823 551.534 117.031 543.145 161.571 543.259C174.297 543.291 230.113 537.293 242.738 534.5C254.846 531.821 287.299 568.992 299.381 566.032C319.042 561.215 346.022 549.46 365.95 550.85C380.215 551.845 387.28 555.01 401.57 553.769C409.327 553.096 425.976 524.238 433.687 522.821C441.822 521.326 456.565 536.715 464.636 534.5C490.394 621.77 785.803 645.448 564.49 526.908C1133.25 618.587 789.306 534.371 703.467 513.478C596.606 527.948 483.476 471.357 483.432 471.352C482.199 471.232 481.053 470.83 479.862 470.344C472.291 467.25 464.303 466.456 456.624 463.937C444.35 459.91 433.34 452.071 422.071 443.707C413.996 437.715 417.695 435.302 411.488 425.604C408.719 421.277 403.15 410.599 399.449 408.635C392.216 404.797 382.932 401.621 379.232 390.542C375.904 380.577 362.639 365.606 357.249 358.815C345.387 343.87 343.908 357.399 331.732 343.01C323.503 333.285 318.939 310.212 309.487 304.355C299.384 298.095 289.341 292.088 280.634 281.576C274.829 274.567 270.192 259.362 264.277 252.545C258.988 246.449 259.943 206.053 251.511 210.125C245.099 200.469 250.799 156.644 236.46 143C236.337 137.437 236.928 117.173 232.327 104.138C233.016 107.909 233.029 157.375 219.303 170.532C221.097 185.882 218.543 210.05 214.807 214.357C204.503 226.233 209.032 234.645 200.055 249.066C194.809 257.492 190.764 266.861 186.423 276.355C183.227 283.346 180.408 291.399 176.209 297.059C172.077 302.629 167.117 303.642 161.818 304.355C149.131 306.063 136.785 306.994 124.379 312.305C118.408 314.861 109.855 319.108 106.608 328.441C103.532 337.284 102.685 349.2 101.216 358.815C98.7632 374.876 96.6561 387.926 88.0026 398.206C79.6657 408.109 69.2348 419.076 58.5371 420.986C44.3652 423.517 29.6236 419.311 15.7819 427.097C14.6908 427.71 13.6773 430.517 13.048 432.021Z" fill="#470F52"/>
</g>
<defs>
<filter id="filter0_i_6118_11164" x="-201.52" y="0" width="339.518" height="382.981" filterUnits="userSpaceOnUse" color-interpolation-filters="sRGB">
<feFlood flood-opacity="0" result="BackgroundImageFix"/>
<feBlend mode="normal" in="SourceGraphic" in2="BackgroundImageFix" result="shape"/>
<feColorMatrix in="SourceAlpha" type="matrix" values="0 0 0 0 0 0 0 0 0 0 0 0 0 0 0 0 0 0 127 0" result="hardAlpha"/>
<feOffset dx="-2" dy="13"/>
<feGaussianBlur stdDeviation="2"/>
<feComposite in2="hardAlpha" operator="arithmetic" k2="-1" k3="1"/>
<feColorMatrix type="matrix" values="0 0 0 0 0 0 0 0 0 0 0 0 0 0 0 0 0 0 0.25 0"/>
<feBlend mode="normal" in2="shape" result="effect1_innerShadow_6118_11164"/>
</filter>
<filter id="filter1_i_6118_11164" x="-160.596" y="15" width="888.597" height="507.862" filterUnits="userSpaceOnUse" color-interpolation-filters="sRGB">
<feFlood flood-opacity="0" result="BackgroundImageFix"/>
<feBlend mode="normal" in="SourceGraphic" in2="BackgroundImageFix" result="shape"/>
<feColorMatrix in="SourceAlpha" type="matrix" values="0 0 0 0 0 0 0 0 0 0 0 0 0 0 0 0 0 0 127 0" result="hardAlpha"/>
<feOffset dx="-8" dy="13"/>
<feGaussianBlur stdDeviation="2"/>
<feComposite in2="hardAlpha" operator="arithmetic" k2="-1" k3="1"/>
<feColorMatrix type="matrix" values="0 0 0 0 0 0 0 0 0 0 0 0 0 0 0 0 0 0 0.25 0"/>
<feBlend mode="normal" in2="shape" result="effect1_innerShadow_6118_11164"/>
</filter>
<filter id="filter2_i_6118_11164" x="-3.59668" y="104.138" width="888.597" height="507.862" filterUnits="userSpaceOnUse" color-interpolation-filters="sRGB">
<feFlood flood-opacity="0" result="BackgroundImageFix"/>
<feBlend mode="normal" in="SourceGraphic" in2="BackgroundImageFix" result="shape"/>
<feColorMatrix in="SourceAlpha" type="matrix" values="0 0 0 0 0 0 0 0 0 0 0 0 0 0 0 0 0 0 127 0" result="hardAlpha"/>
<feOffset dx="-8" dy="13"/>
<feGaussianBlur stdDeviation="2"/>
<feComposite in2="hardAlpha" operator="arithmetic" k2="-1" k3="1"/>
<feColorMatrix type="matrix" values="0 0 0 0 0 0 0 0 0 0 0 0 0 0 0 0 0 0 0.25 0"/>
<feBlend mode="normal" in2="shape" result="effect1_innerShadow_6118_11164"/>
</filter>
</defs>
</svg>
