<svg width="996" height="440" viewBox="0 0 996 440" fill="none" xmlns="http://www.w3.org/2000/svg">
<g filter="url(#filter0_i_6118_11160)">
<path d="M1075.73 227.883C1078.69 234.968 1081.03 243.079 1083.22 250.808C1085.4 252.506 1084.17 255.249 1084.17 258.642C1084.17 264.094 1082.58 266.912 1078.58 267.135C1075.53 267.305 1073.07 265.476 1070.09 265.074C1064.47 264.317 1058.43 264.582 1052.78 264.95C1044.25 265.506 1036.35 272.985 1027.75 273.732C1018.71 274.518 1019.7 379.895 1010.73 378.975C979.767 375.798 939.116 276.705 908.174 276.783C899.333 276.806 890.461 276.746 881.689 274.804C873.278 272.943 864.917 270.388 856.524 268.331C842.866 264.983 829.481 261.799 815.637 262.765C805.727 263.456 795.704 264.864 785.777 264.002C780.388 263.534 774.989 262.142 769.633 261.157C763.981 260.118 758.331 259.068 752.724 257.529C751.454 257.18 748.939 256.489 747.475 255.797C747.305 255.717 747.029 255.699 747 255.426C746.985 255.284 748.921 255.223 748.952 255.22C749.808 255.136 750.604 254.857 751.431 254.519C756.691 252.368 762.24 251.817 767.575 250.066C776.102 247.267 783.751 241.819 791.58 236.006C797.189 231.841 794.619 230.164 798.932 223.424C800.856 220.417 804.724 212.995 807.295 211.63C812.32 208.963 818.77 206.755 821.34 199.055C823.652 192.13 832.868 181.724 836.612 177.004C844.852 166.617 845.88 176.02 854.339 166.02C860.055 159.261 863.226 143.225 869.792 139.154C876.811 134.803 883.788 130.628 889.837 123.322C893.87 118.451 897.091 107.884 901.2 103.146C904.875 98.9088 904.212 70.8326 910.069 73.6629C914.524 66.9519 910.563 36.4928 920.525 27.0097C920.61 23.1438 920.2 9.05969 923.396 0C922.917 2.62143 922.909 37.0007 932.444 46.1452C931.198 56.8134 932.972 73.611 935.567 76.6039C942.726 84.8581 939.58 90.7045 945.816 100.727C949.46 106.584 952.271 113.095 955.286 119.693C957.507 124.553 959.465 130.149 962.382 134.083C965.253 137.954 968.698 138.659 972.379 139.154C981.193 140.341 989.77 140.988 998.389 144.679C1002.54 146.456 1008.48 149.407 1010.73 155.894C1012.87 162.04 1013.46 170.322 1014.48 177.004C1016.18 188.167 1017.65 197.237 1023.66 204.382C1029.45 211.265 1036.7 218.887 1044.13 220.215C1053.97 221.973 1064.22 219.05 1073.83 224.461C1074.59 224.888 1075.29 226.838 1075.73 227.883Z" fill="#2A0538"/>
</g>
<g filter="url(#filter1_i_6118_11160)">
<path d="M1028.95 342.883C1033.21 353.076 1036.58 364.747 1039.73 375.867C1042.86 378.311 1041.1 382.257 1041.1 387.139C1041.1 394.983 1038.8 399.038 1033.05 399.359C1028.66 399.604 1025.11 396.971 1020.82 396.393C1012.73 395.304 1004.04 395.686 995.914 396.215C983.631 397.015 1003.18 432.608 990.79 433.683C977.774 434.813 1003.69 468.291 990.79 466.968C946.214 462.396 924.966 454.008 880.426 454.121C867.7 454.153 811.884 448.155 799.259 445.362C787.151 442.683 754.698 479.854 742.617 476.895C722.956 472.078 695.976 460.322 676.048 461.712C661.782 462.707 654.718 465.872 640.428 464.632C632.671 463.959 616.022 435.1 608.311 433.683C600.176 432.188 585.433 447.577 577.362 445.362C551.605 532.632 256.197 556.31 477.509 437.771C-91.246 529.449 252.693 445.233 338.532 424.34C445.393 438.81 558.523 382.219 558.567 382.215C559.799 382.094 560.946 381.693 562.136 381.206C569.707 378.112 577.695 377.319 585.374 374.799C597.648 370.772 608.658 362.933 619.927 354.57C628.002 348.578 624.303 346.164 630.51 336.466C633.279 332.14 638.848 321.461 642.549 319.497C649.782 315.659 659.066 312.484 662.766 301.405C666.093 291.44 679.359 276.468 684.749 269.677C696.61 254.732 698.09 268.261 710.265 253.872C718.494 244.148 723.059 221.074 732.51 215.218C742.614 208.958 752.656 202.95 761.363 192.438C767.169 185.43 771.805 170.225 777.72 163.408C783.009 157.312 782.055 116.915 790.487 120.988C796.899 111.332 791.198 67.5065 805.537 53.8621C805.66 48.2997 805.069 28.0352 809.67 15C808.981 18.7718 808.969 68.2372 822.694 81.3945C820.9 96.7442 823.454 120.913 827.19 125.219C837.494 137.095 832.965 145.507 841.942 159.928C847.188 168.355 851.233 177.723 855.574 187.217C858.77 194.209 861.589 202.261 865.788 207.921C869.92 213.491 874.88 214.505 880.179 215.218C892.866 216.925 905.211 217.857 917.618 223.167C923.589 225.723 932.142 229.97 935.388 239.303C938.464 248.146 939.312 260.062 940.78 269.677C943.233 285.739 945.34 298.789 953.994 309.068C962.331 318.972 972.762 329.939 983.459 331.849C997.631 334.379 1012.37 330.174 1026.21 337.959C1027.31 338.573 1028.32 341.379 1028.95 342.883Z" fill="#370C3F"/>
</g>
<g filter="url(#filter2_i_6118_11160)">
<path d="M871.948 432.021C876.214 442.213 879.581 453.885 882.732 465.005C885.86 467.448 884.099 471.395 884.099 476.276C884.099 484.121 881.803 488.176 876.049 488.497C871.665 488.742 868.115 486.109 863.822 485.531C855.733 484.441 847.044 484.824 838.914 485.353C826.631 486.152 846.178 521.746 833.79 522.821C820.774 523.951 846.694 557.429 833.79 556.105C789.214 551.534 767.966 543.145 723.426 543.259C710.7 543.291 654.884 537.293 642.259 534.5C630.151 531.821 597.698 568.992 585.617 566.032C565.956 561.215 538.976 549.46 519.048 550.85C504.782 551.845 497.718 555.01 483.428 553.77C475.671 553.096 459.022 524.238 451.311 522.821C443.176 521.326 428.433 536.715 420.362 534.5C394.605 621.77 99.1968 645.448 320.509 526.908C-248.246 618.587 95.6932 534.371 181.532 513.478C288.393 527.948 401.523 471.357 401.567 471.352C402.799 471.232 403.946 470.83 405.136 470.344C412.707 467.25 420.695 466.456 428.374 463.937C440.648 459.91 451.658 452.071 462.927 443.707C471.002 437.715 467.303 435.302 473.51 425.604C476.279 421.277 481.848 410.599 485.549 408.635C492.782 404.797 502.066 401.621 505.766 390.542C509.093 380.577 522.359 365.606 527.749 358.815C539.61 343.87 541.09 357.399 553.265 343.01C561.494 333.285 566.059 310.212 575.51 304.356C585.614 298.095 595.656 292.088 604.363 281.576C610.169 274.567 614.805 259.363 620.72 252.545C626.009 246.449 625.055 206.053 633.487 210.125C639.899 200.469 634.198 156.644 648.537 143C648.66 137.437 648.069 117.173 652.67 104.138C651.981 107.909 651.969 157.375 665.694 170.532C663.9 185.882 666.454 210.05 670.19 214.357C680.494 226.233 675.965 234.645 684.942 249.066C690.188 257.492 694.233 266.861 698.574 276.355C701.77 283.346 704.589 291.399 708.788 297.059C712.92 302.629 717.88 303.643 723.179 304.356C735.866 306.063 748.211 306.994 760.618 312.305C766.589 314.861 775.142 319.108 778.388 328.441C781.464 337.284 782.312 349.2 783.78 358.815C786.233 374.876 788.34 387.926 796.994 398.206C805.331 408.109 815.762 419.076 826.459 420.986C840.631 423.517 855.373 419.311 869.214 427.097C870.305 427.71 871.319 430.517 871.948 432.021Z" fill="#470F52"/>
</g>
<defs>
<filter id="filter0_i_6118_11160" x="745" y="0" width="339.516" height="382.981" filterUnits="userSpaceOnUse" color-interpolation-filters="sRGB">
<feFlood flood-opacity="0" result="BackgroundImageFix"/>
<feBlend mode="normal" in="SourceGraphic" in2="BackgroundImageFix" result="shape"/>
<feColorMatrix in="SourceAlpha" type="matrix" values="0 0 0 0 0 0 0 0 0 0 0 0 0 0 0 0 0 0 127 0" result="hardAlpha"/>
<feOffset dx="-2" dy="13"/>
<feGaussianBlur stdDeviation="2"/>
<feComposite in2="hardAlpha" operator="arithmetic" k2="-1" k3="1"/>
<feColorMatrix type="matrix" values="0 0 0 0 0 0 0 0 0 0 0 0 0 0 0 0 0 0 0.25 0"/>
<feBlend mode="normal" in2="shape" result="effect1_innerShadow_6118_11160"/>
</filter>
<filter id="filter1_i_6118_11160" x="153" y="15" width="888.593" height="507.862" filterUnits="userSpaceOnUse" color-interpolation-filters="sRGB">
<feFlood flood-opacity="0" result="BackgroundImageFix"/>
<feBlend mode="normal" in="SourceGraphic" in2="BackgroundImageFix" result="shape"/>
<feColorMatrix in="SourceAlpha" type="matrix" values="0 0 0 0 0 0 0 0 0 0 0 0 0 0 0 0 0 0 127 0" result="hardAlpha"/>
<feOffset dx="-8" dy="13"/>
<feGaussianBlur stdDeviation="2"/>
<feComposite in2="hardAlpha" operator="arithmetic" k2="-1" k3="1"/>
<feColorMatrix type="matrix" values="0 0 0 0 0 0 0 0 0 0 0 0 0 0 0 0 0 0 0.25 0"/>
<feBlend mode="normal" in2="shape" result="effect1_innerShadow_6118_11160"/>
</filter>
<filter id="filter2_i_6118_11160" x="-4" y="104.138" width="888.593" height="507.862" filterUnits="userSpaceOnUse" color-interpolation-filters="sRGB">
<feFlood flood-opacity="0" result="BackgroundImageFix"/>
<feBlend mode="normal" in="SourceGraphic" in2="BackgroundImageFix" result="shape"/>
<feColorMatrix in="SourceAlpha" type="matrix" values="0 0 0 0 0 0 0 0 0 0 0 0 0 0 0 0 0 0 127 0" result="hardAlpha"/>
<feOffset dx="-8" dy="13"/>
<feGaussianBlur stdDeviation="2"/>
<feComposite in2="hardAlpha" operator="arithmetic" k2="-1" k3="1"/>
<feColorMatrix type="matrix" values="0 0 0 0 0 0 0 0 0 0 0 0 0 0 0 0 0 0 0.25 0"/>
<feBlend mode="normal" in2="shape" result="effect1_innerShadow_6118_11160"/>
</filter>
</defs>
</svg>
