<svg width="935" height="985" viewBox="0 0 935 985" fill="none" xmlns="http://www.w3.org/2000/svg">
<path d="M880.075 491.949C882.6 490.734 884.363 488.041 884.363 484.914C884.363 480.642 881.096 477.182 877.061 477.182C873.026 477.182 869.758 480.642 869.758 484.914C869.758 488.041 871.516 490.727 874.04 491.949C874.04 492.205 874.04 492.46 874.04 492.716C874.04 661.07 781.938 813.851 638.494 885.032C636.483 882.538 633.499 880.945 630.153 880.945C624.1 880.945 619.195 886.138 619.195 892.546C619.195 898.955 624.1 904.148 630.153 904.148C636.205 904.148 641.11 898.955 641.11 892.546C641.11 891.964 641.055 891.402 640.977 890.845C709.769 856.719 768.269 803.439 810.624 736.172C856.059 663.999 880.075 579.816 880.075 492.723C880.075 492.467 880.075 492.211 880.075 491.955V491.949Z" fill="url(#paint0_linear_945_13036)"/>
<path d="M478.016 931.983C479.115 934.778 481.719 936.741 484.757 936.741C488.792 936.741 492.06 933.281 492.06 929.009C492.06 924.737 488.792 921.277 484.757 921.277C481.888 921.277 479.411 923.036 478.215 925.587C473.812 925.734 469.39 925.818 464.999 925.818C338.987 925.818 222.507 866.071 144.352 761.647C144.883 760.578 145.185 759.357 145.185 758.065C145.185 753.793 141.917 750.333 137.882 750.333C133.848 750.333 130.58 753.793 130.58 758.065C130.58 762.337 133.848 765.797 137.882 765.797C138.474 765.797 139.042 765.714 139.592 765.573C176.969 815.451 224.814 856.785 278.343 885.366C306.696 900.504 336.71 912.17 367.546 920.023C399.275 928.107 432.068 932.207 465.005 932.207C469.33 932.207 473.685 932.13 478.022 931.989L478.016 931.983Z" fill="url(#paint1_linear_945_13036)"/>
<path d="M144.733 223.296C146.056 223.897 147.518 224.236 149.052 224.236C155.104 224.236 160.009 219.043 160.009 212.634C160.009 206.226 155.104 201.033 149.052 201.033C142.999 201.033 138.095 206.226 138.095 212.634C138.095 215.097 138.826 217.374 140.058 219.247C112.599 255.759 90.9564 296.325 75.6745 340C58.5926 388.81 49.9309 440.191 49.9309 492.716C49.9309 554.816 61.8907 614.735 85.4779 670.926C84.3363 672.288 83.6356 674.085 83.6356 676.048C83.6356 680.32 86.9034 683.78 90.9383 683.78C94.9732 683.78 98.2409 680.32 98.2409 676.048C98.2409 671.776 95.0033 668.348 90.9926 668.316C67.7496 612.951 55.9711 553.908 55.9711 492.716C55.9711 394.86 87.4229 299.632 144.739 223.302L144.733 223.296Z" fill="url(#paint2_linear_945_13036)"/>
<path d="M890.332 373.916C892.065 372.502 893.189 370.289 893.189 367.789C893.189 363.517 889.921 360.057 885.886 360.057C881.851 360.057 878.583 363.517 878.583 367.789C878.583 371.537 881.102 374.664 884.448 375.374C893.932 413.484 898.74 452.925 898.74 492.717C898.74 532.51 893.587 574.732 883.422 614.116C877.375 614.116 872.47 619.309 872.47 625.717C872.47 632.125 877.375 637.318 883.428 637.318C889.48 637.318 894.385 632.125 894.385 625.717C894.385 621.566 892.319 617.934 889.226 615.887C899.549 575.928 904.78 534.55 904.78 492.717C904.78 450.885 899.917 412.506 890.332 373.922V373.916Z" fill="url(#paint3_linear_945_13036)"/>
<path d="M857.811 702.301C857.895 702.301 857.974 702.314 858.058 702.314C862.093 702.314 865.361 698.854 865.361 694.582C865.361 690.31 862.093 686.85 858.058 686.85C854.024 686.85 850.756 690.31 850.756 694.582C850.756 696.436 851.372 698.131 852.399 699.468C820.156 767.061 772.474 825.33 713.829 868.896C711.932 867.233 709.504 866.242 706.852 866.242C700.8 866.242 695.895 871.435 695.895 877.843C695.895 884.251 700.8 889.444 706.852 889.444C712.905 889.444 717.809 884.251 717.809 877.843C717.809 876.558 717.604 875.33 717.242 874.179C776.744 829.993 825.115 770.879 857.817 702.307L857.811 702.301Z" fill="url(#paint4_linear_945_13036)"/>
<path d="M83.5445 260.851C82.7411 260.653 81.9015 260.537 81.0438 260.537C74.9915 260.537 70.0867 265.731 70.0867 272.139C70.0867 278.547 74.9915 283.74 81.0438 283.74C87.0962 283.74 92.0009 278.547 92.0009 272.139C92.0009 268.954 90.7868 266.063 88.8176 263.965C114.682 216.332 148.03 174.436 188.102 139.229C189.074 139.74 190.167 140.035 191.327 140.035C195.362 140.035 198.63 136.575 198.63 132.302C198.63 128.03 195.362 124.57 191.327 124.57C187.292 124.57 184.024 128.03 184.024 132.302C184.024 132.987 184.115 133.652 184.278 134.285C143.615 170.003 109.783 212.514 83.5445 260.857V260.851Z" fill="url(#paint5_linear_945_13036)"/>
<path d="M251.072 914.164C247.997 914.164 245.225 915.508 243.237 917.663C96.9662 831.996 6.54344 670.197 6.54344 492.717C6.54344 326.378 88.6307 169.818 221.456 81.4075C223.407 83.2941 225.992 84.4517 228.837 84.4517C234.89 84.4517 239.794 79.2586 239.794 72.8504C239.794 66.4421 234.89 61.249 228.837 61.249C222.785 61.249 217.88 66.4421 217.88 72.8504C217.88 73.9312 218.031 74.9672 218.291 75.9585C154.415 118.443 100.85 177.109 62.9717 246.231C42.8757 282.896 27.3582 322.177 16.8421 362.973C5.99984 405.042 0.509216 448.698 0.509216 492.724C0.509216 584.179 24.3864 673.434 69.5494 750.85C111.614 822.94 170.531 882.36 240.374 923.291C240.211 924.09 240.115 924.922 240.115 925.779C240.115 932.187 245.019 937.38 251.072 937.38C257.124 937.38 262.029 932.187 262.029 925.779C262.029 919.37 257.124 914.177 251.072 914.177V914.164Z" fill="url(#paint6_linear_945_13036)"/>
<path d="M149.788 801.208C143.736 801.208 138.831 806.401 138.831 812.809C138.831 819.218 143.736 824.411 149.788 824.411C151.685 824.411 153.467 823.899 155.019 823.004C227.091 898.854 321.157 945.764 421.975 956.144C422.959 961.478 427.399 965.507 432.726 965.507C438.779 965.507 443.683 960.314 443.683 953.906C443.683 947.497 438.779 942.304 432.726 942.304C428.051 942.304 424.071 945.406 422.5 949.774C323.114 939.529 230.383 893.277 159.326 818.514C160.226 816.826 160.751 814.881 160.751 812.809C160.751 806.401 155.847 801.208 149.794 801.208H149.788Z" fill="url(#paint7_linear_945_13036)"/>
<path d="M87.8755 737.72C93.9278 737.72 98.8325 732.527 98.8325 726.119C98.8325 719.711 93.9278 714.518 87.8755 714.518C86.9875 714.518 86.1298 714.639 85.3083 714.85C49.9305 647.161 31.2661 570.607 31.2661 492.717C31.2661 450.91 36.5634 409.551 47.0191 369.663C50.5405 369.106 53.2405 365.902 53.2405 362.02C53.2405 357.748 49.9727 354.288 45.9378 354.288C41.9029 354.288 38.6352 357.748 38.6352 362.02C38.6352 364.38 39.6379 366.491 41.2144 367.91C30.6077 408.368 25.2318 450.322 25.2318 492.717C25.2318 535.113 30.517 576.376 40.9425 616.501C50.1177 651.817 63.2674 685.905 80.0593 718.003C78.1264 720.095 76.9244 722.96 76.9244 726.119C76.9244 732.527 81.8292 737.72 87.8815 737.72H87.8755Z" fill="url(#paint8_linear_945_13036)"/>
<path d="M310.833 43.9422C316.886 43.9422 321.79 38.7491 321.79 32.3408C321.79 32.0466 321.766 31.7589 321.748 31.4711C367.835 15.4313 415.97 7.30267 464.999 7.30267C695.973 7.30267 889.527 187.622 919.487 428.564C915.549 430.323 912.788 434.448 912.788 439.257C912.788 445.665 917.693 450.858 923.745 450.858C929.798 450.858 934.702 445.665 934.702 439.257C934.702 433.476 930.71 428.698 925.485 427.816C911.097 312.365 858.329 206.099 776.139 127.543C690.7 45.88 580.199 0.907227 464.999 0.907227C415.251 0.907227 366.404 9.17016 319.646 25.4721C317.653 22.607 314.451 20.7459 310.833 20.7459C304.781 20.7459 299.876 25.939 299.876 32.3472C299.876 38.7555 304.781 43.9485 310.833 43.9485V43.9422Z" fill="url(#paint9_linear_945_13036)"/>
<path d="M270.546 116.069C274.581 116.069 277.848 112.609 277.848 108.337C277.848 108.068 277.836 107.8 277.812 107.538C335.309 76.1744 399.886 59.623 465.006 59.623C620.766 59.623 763.77 154.352 832.278 301.876C830.013 303.999 828.582 307.095 828.582 310.548C828.582 316.956 833.486 322.149 839.539 322.149C845.591 322.149 850.496 316.956 850.496 310.548C850.496 304.14 845.591 298.947 839.539 298.947C838.923 298.947 838.319 299.011 837.733 299.12C804.825 228.188 754.552 167.994 691.794 124.562C624.354 77.8948 545.933 53.2275 465.006 53.2275C430.262 53.2275 395.736 57.7811 362.382 66.7667C332.048 74.9337 302.595 86.7844 274.744 102.018C273.554 101.136 272.11 100.611 270.546 100.611C266.511 100.611 263.243 104.071 263.243 108.343C263.243 112.616 266.511 116.076 270.546 116.076V116.069Z" fill="url(#paint10_linear_945_13036)"/>
<path d="M834.629 253.993C838.663 253.993 841.931 250.533 841.931 246.261C841.931 241.989 838.663 238.529 834.629 238.529C834.272 238.529 833.922 238.568 833.584 238.619C794.956 175.95 742.206 123.558 680.662 86.8229C648.431 67.5854 614.002 52.7351 578.322 42.6879C541.549 32.3337 503.422 27.083 465.006 27.083C441.534 27.083 418.025 29.0592 394.988 32.9541C393.097 29.4813 389.557 27.1342 385.498 27.1342C379.446 27.1342 374.541 32.3273 374.541 38.7356C374.541 45.1438 379.446 50.3369 385.498 50.3369C391.551 50.3369 396.208 45.3804 396.437 39.1832C419.004 35.3907 442.017 33.4721 465.006 33.4721C612.6 33.4721 747.981 111.311 828.504 242.066C827.767 243.275 827.332 244.714 827.332 246.261C827.332 250.533 830.6 253.993 834.635 253.993H834.629Z" fill="url(#paint11_linear_945_13036)"/>
<path d="M925.806 511.558C921.771 511.558 918.503 515.018 918.503 519.29C918.503 522.251 920.073 524.822 922.387 526.12C906.102 780.154 706.465 978.131 465.005 978.131C431.911 978.131 398.931 974.383 366.869 966.984C366.114 963.562 363.221 961.01 359.766 961.01C355.731 961.01 352.463 964.47 352.463 968.742C352.463 973.014 355.731 976.474 359.766 976.474C362.206 976.474 364.369 975.202 365.691 973.251C398.14 980.734 431.518 984.52 465.005 984.52C584.675 984.52 698.329 936.458 785.019 849.18C827.192 806.72 861.066 757.021 885.704 701.464C910.167 646.297 924.519 587.465 928.421 526.497C931.163 525.385 933.12 522.577 933.12 519.277C933.12 515.005 929.853 511.545 925.818 511.545L925.806 511.558Z" fill="url(#paint12_linear_945_13036)"/>
<path d="M613.802 919.88C609.985 919.88 606.856 922.982 606.53 926.94C588.536 933.515 570.041 938.842 551.358 942.846C549.552 939.066 545.855 936.463 541.585 936.463C535.533 936.463 530.628 941.656 530.628 948.064C530.628 954.473 535.533 959.666 541.585 959.666C547.299 959.666 551.986 955.036 552.494 949.126C571.478 945.065 590.263 939.648 608.547 932.971C609.876 934.436 611.743 935.35 613.808 935.35C617.843 935.35 621.111 931.89 621.111 927.618C621.111 923.346 617.843 919.886 613.808 919.886L613.802 919.88Z" fill="url(#paint13_linear_945_13036)"/>
<path style="mix-blend-mode:screen" d="M465 905.855C680.502 905.855 855.201 720.883 855.201 492.709C855.201 264.535 680.502 79.5635 465 79.5635C249.498 79.5635 74.7985 264.535 74.7985 492.709C74.7985 720.883 249.498 905.855 465 905.855Z" fill="url(#paint14_radial_945_13036)"/>
<g style="mix-blend-mode:overlay">
<path d="M464.999 708.901C410.461 708.901 359.186 686.414 320.619 645.579C282.051 604.744 260.814 550.46 260.814 492.709C260.814 434.958 282.051 380.674 320.619 339.839C359.186 299.004 410.455 276.518 464.999 276.518C519.543 276.518 570.812 299.004 609.38 339.839C647.947 380.674 669.184 434.958 669.184 492.709C669.184 550.46 647.947 604.744 609.38 645.579C570.812 686.414 519.543 708.901 464.999 708.901ZM464.999 282.919C355.743 282.919 266.86 377.035 266.86 492.709C266.86 608.383 355.749 702.499 464.999 702.499C574.249 702.499 663.138 608.383 663.138 492.709C663.138 377.035 574.249 282.919 464.999 282.919Z" fill="white"/>
</g>
<g style="mix-blend-mode:overlay">
<path d="M465 680.756C417.56 680.756 372.965 661.199 339.417 625.679C305.876 590.165 287.398 542.941 287.398 492.711C287.398 442.481 305.869 395.264 339.417 359.744C372.959 324.23 417.56 304.666 465 304.666C512.441 304.666 557.042 324.223 590.584 359.744C624.131 395.257 642.602 442.481 642.602 492.711C642.602 542.941 624.131 590.159 590.584 625.679C557.036 661.199 512.441 680.756 465 680.756ZM465 323.852C377.06 323.852 305.519 399.6 305.519 492.711C305.519 585.822 377.06 661.57 465 661.57C552.941 661.57 624.482 585.822 624.482 492.711C624.482 399.6 552.941 323.852 465 323.852Z" fill="white"/>
</g>
<g style="mix-blend-mode:overlay">
<path d="M464.999 631.855C457.322 631.855 449.627 631.145 442.125 629.751L444.215 617.152C451.028 618.419 458.023 619.058 464.999 619.058C476.633 619.058 488.128 617.293 499.163 613.807L502.618 626.067C490.459 629.905 477.805 631.855 464.999 631.855ZM412.89 620.484C394.232 611.946 377.434 598.682 364.314 582.137L373.568 573.913C385.491 588.948 400.749 600.991 417.692 608.749L412.896 620.491L412.89 620.484ZM530.645 613.277L524.605 602.2C540.618 592.408 554.468 578.581 564.67 562.228L574.751 569.276C563.522 587.279 548.277 602.494 530.645 613.277ZM347.534 555.155C338.281 535.674 333.587 514.665 333.587 492.71V492.409L345.668 492.454V492.71C345.668 512.651 349.926 531.728 358.328 549.412L347.534 555.161V555.155ZM588.487 540.426L577.137 536.039C581.915 522.18 584.337 507.605 584.337 492.71C584.337 487.849 584.071 482.957 583.558 478.167L595.56 476.708C596.134 481.978 596.418 487.363 596.418 492.71C596.418 509.108 593.748 525.16 588.487 540.426ZM348.912 463.316L337.157 460.355C341.869 439.417 351.316 419.61 364.483 403.078L373.719 411.321C361.765 426.338 353.182 444.315 348.912 463.316ZM577.216 449.611C570.922 431.25 560.472 414.404 546.996 400.91L555.296 391.617C570.13 406.48 581.637 425.02 588.565 445.249L577.21 449.611H577.216ZM393.906 391.214L386.699 380.949C403.087 368.063 422.343 359.301 442.391 355.617L444.457 368.222C426.263 371.561 408.783 379.517 393.906 391.22V391.214ZM524.804 383.341C508.598 373.384 490.876 367.743 472.121 366.572L472.834 353.801C493.196 355.067 513.267 361.456 530.869 372.277L524.804 383.341Z" fill="white"/>
</g>
<g style="mix-blend-mode:overlay">
<path d="M465 638.679C445.006 638.679 425.72 634.247 407.671 625.498L412.703 613.865C429.157 621.84 446.752 625.888 465 625.882C466.963 625.882 468.956 625.831 470.925 625.735L471.481 638.513C469.331 638.622 467.15 638.673 465 638.673V638.679ZM484.534 637.221L482.836 624.558C502.57 621.591 521.603 613.539 537.881 601.266L544.888 611.684C527.045 625.14 506.17 633.972 484.534 637.221ZM396.02 619.116C377.102 607.521 360.841 591.091 349.002 571.617L359.162 564.69C369.968 582.47 384.809 597.461 402.078 608.045L396.026 619.116H396.02ZM555.199 603.095L547.292 593.425C562.417 579.56 574.334 561.889 581.758 542.326L592.969 547.096C584.832 568.534 571.773 587.899 555.199 603.095ZM342.43 559.593C332.428 539.077 327.137 515.951 327.137 492.71V492.396L339.217 492.435V492.729C339.217 514.217 343.91 534.747 353.164 553.722L342.43 559.593ZM597.269 533.973L585.678 530.366C589.061 518.196 590.776 505.526 590.776 492.71C590.776 484.28 590.027 475.851 588.553 467.646L600.422 465.254C602.041 474.246 602.857 483.481 602.857 492.71C602.857 506.748 600.978 520.632 597.269 533.973ZM339.803 479.772L327.777 478.544C329.873 455.482 337.266 433.015 349.147 413.553L359.289 420.499C348.453 438.246 341.712 458.737 339.797 479.772H339.803ZM585.757 455.335C580.182 435.106 569.943 416.297 556.147 400.941L564.9 392.129C580.018 408.955 591.241 429.574 597.354 451.753L585.757 455.335ZM366.265 410.202L356.788 402.272C370.373 384.07 388.059 369.386 407.931 359.806L412.938 371.446C394.806 380.188 378.672 393.587 366.271 410.202H366.265ZM547.498 392.186C532.397 378.282 514.192 368.299 494.857 363.317L497.714 350.891C518.921 356.352 538.878 367.301 555.428 382.535L547.504 392.186H547.498ZM424.053 366.758L420.12 354.664C434.526 349.413 449.627 346.753 465 346.753C471.638 346.753 478.312 347.258 484.83 348.256L483.108 360.919C477.159 360.011 471.064 359.55 465 359.55C450.968 359.55 437.19 361.98 424.053 366.764V366.758Z" fill="white"/>
</g>
<g style="mix-blend-mode:overlay">
<path d="M464.999 634.523C429.223 634.523 395.591 619.775 370.294 592.991C344.998 566.207 331.069 530.597 331.069 492.717C331.069 454.837 344.998 419.227 370.294 392.443C395.591 365.659 429.223 350.911 464.999 350.911C500.776 350.911 534.408 365.659 559.705 392.443C585.002 419.227 598.931 454.837 598.931 492.717C598.931 530.597 585.002 566.207 559.705 592.991C534.408 619.775 500.776 634.523 464.999 634.523ZM464.999 355.382C393.483 355.382 335.297 416.989 335.297 492.711C335.297 568.433 393.483 630.04 464.999 630.04C536.516 630.04 594.702 568.433 594.702 492.711C594.702 416.989 536.516 355.382 464.999 355.382Z" fill="white"/>
</g>
<g style="mix-blend-mode:overlay">
<path d="M465 645.925C452.835 645.925 440.742 644.32 429.054 641.16L432.044 628.766C442.753 631.663 453.837 633.134 464.994 633.134C469.995 633.134 475.033 632.833 479.974 632.251L481.321 644.966C475.933 645.605 470.442 645.931 464.994 645.931L465 645.925ZM500.752 641.212L497.774 628.817C503.609 627.244 509.396 625.229 514.971 622.825L519.525 634.669C513.437 637.291 507.119 639.491 500.746 641.205L500.752 641.212ZM416.454 637.093C408.203 633.985 400.17 630.045 392.577 625.389L398.629 614.319C405.588 618.584 412.945 622.191 420.501 625.044L416.448 637.093H416.454ZM537.272 625.479L531.231 614.402C538.184 610.149 544.81 605.192 550.935 599.673L558.769 609.413C552.088 615.438 544.858 620.842 537.272 625.479ZM376.214 613.711C371.037 609.445 366.084 604.764 361.494 599.788L370.137 590.847C374.347 595.407 378.89 599.705 383.637 603.613L376.22 613.711H376.214ZM568.397 599.903L559.766 590.956C571.127 578.67 580.164 564.485 586.627 548.797L597.698 553.907C590.649 571.028 580.792 586.498 568.397 599.903ZM348.682 583.883C338.13 568.809 330.368 552.04 325.621 534.043L337.254 530.602C341.603 547.09 348.719 562.452 358.389 576.266L348.682 583.883ZM604.331 534.209L592.697 530.756C594.322 524.629 595.56 518.317 596.376 511.998L608.341 513.737C607.447 520.632 606.094 527.52 604.325 534.209H604.331ZM322.655 520.453C321.084 511.365 320.287 502.034 320.287 492.716V492.37L332.368 492.409V492.716C332.368 501.26 333.098 509.817 334.536 518.15L322.655 520.453ZM609.7 492.882H597.62V492.722C597.62 484.229 596.901 475.723 595.476 467.441L607.363 465.151C608.915 474.188 609.7 483.461 609.7 492.716V492.875V492.882ZM333.63 473.286L321.664 471.534C322.564 464.64 323.923 457.752 325.705 451.069L337.333 454.541C335.702 460.668 334.457 466.974 333.63 473.293V473.286ZM592.782 454.989C588.445 438.495 581.353 423.127 571.695 409.3L581.408 401.696C591.948 416.783 599.686 433.558 604.421 451.561L592.782 454.989ZM343.427 436.5L332.362 431.377C339.429 414.263 349.304 398.805 361.711 385.419L370.337 394.379C358.963 406.652 349.908 420.824 343.433 436.506L343.427 436.5ZM559.965 394.699C555.761 390.133 551.225 385.835 546.477 381.915L553.907 371.829C559.083 376.101 564.03 380.795 568.614 385.771L559.965 394.699ZM379.168 385.662L371.345 375.916C378.032 369.898 385.268 364.5 392.861 359.876L398.889 370.959C391.937 375.199 385.298 380.149 379.168 385.669V385.662ZM531.485 371.189C524.533 366.917 517.176 363.298 509.625 360.439L513.69 348.396C521.935 351.517 529.963 355.463 537.555 360.125L531.491 371.189H531.485ZM415.155 362.543L410.613 350.692C416.708 348.076 423.026 345.883 429.398 344.175L432.364 356.576C426.529 358.136 420.743 360.145 415.162 362.543H415.155ZM498.088 356.697C487.337 353.775 476.205 352.291 464.994 352.291C460.041 352.291 455.051 352.585 450.159 353.161L448.824 340.447C454.157 339.82 459.594 339.5 464.994 339.5C477.213 339.5 489.36 341.118 501.09 344.309L498.088 356.697Z" fill="white"/>
</g>
<path d="M466.394 732.641C466.286 729.111 468.901 726.156 472.235 726.041C475.57 725.932 478.36 728.701 478.469 732.232C478.578 735.762 475.962 738.717 472.622 738.825C472.556 738.825 472.489 738.825 472.429 738.825C469.179 738.825 466.497 736.094 466.394 732.634V732.641ZM441.593 737.725C438.277 737.374 435.855 734.24 436.187 730.729C436.519 727.211 439.479 724.647 442.795 724.998C446.117 725.35 448.539 728.484 448.207 731.995C447.893 735.295 445.266 737.757 442.203 737.757C442.004 737.757 441.798 737.744 441.593 737.725ZM496.578 730.338C496.028 726.853 498.251 723.559 501.543 722.977C504.835 722.395 507.945 724.749 508.495 728.234C509.039 731.72 506.822 735.014 503.53 735.596C503.192 735.653 502.86 735.679 502.527 735.679C499.628 735.679 497.067 733.466 496.578 730.338ZM410.963 732.276C407.719 731.458 405.714 728.011 406.487 724.57C407.26 721.135 410.516 719.012 413.76 719.831C417.009 720.649 419.009 724.097 418.241 727.531C417.577 730.473 415.1 732.449 412.37 732.449C411.905 732.449 411.434 732.391 410.963 732.276ZM526.205 723.796C525.221 720.419 527.003 716.838 530.192 715.795C533.381 714.753 536.764 716.646 537.748 720.016C538.733 723.393 536.945 726.975 533.755 728.017C533.158 728.209 532.56 728.305 531.968 728.305C529.388 728.305 527.002 726.54 526.199 723.796H526.205ZM381.293 722.523C378.182 721.251 376.63 717.548 377.832 714.254C379.034 710.96 382.531 709.317 385.642 710.589C388.753 711.862 390.305 715.565 389.103 718.859C388.179 721.398 385.89 722.958 383.468 722.958C382.743 722.958 382.006 722.817 381.293 722.523ZM554.751 713.09C553.35 709.886 554.661 706.087 557.687 704.597C560.713 703.113 564.307 704.507 565.709 707.711C567.116 710.916 565.799 714.715 562.773 716.205C561.952 716.608 561.088 716.799 560.236 716.799C557.959 716.799 555.772 715.424 554.751 713.09ZM353.151 708.658C350.228 706.957 349.159 703.068 350.766 699.979C352.372 696.878 356.045 695.752 358.968 697.453C361.892 699.154 362.961 703.043 361.354 706.138C360.249 708.255 358.183 709.451 356.051 709.451C355.072 709.451 354.07 709.195 353.151 708.658ZM581.679 698.438C579.885 695.464 580.707 691.505 583.521 689.606C586.33 687.707 590.063 688.576 591.863 691.557C593.657 694.53 592.835 698.483 590.021 700.389C589.012 701.067 587.888 701.393 586.777 701.393C584.784 701.393 582.833 700.35 581.679 698.438ZM326.997 690.943C324.315 688.845 323.747 684.841 325.729 681.995C327.71 679.156 331.491 678.555 334.173 680.652C336.855 682.75 337.423 686.754 335.447 689.593C334.264 691.294 332.433 692.19 330.579 692.19C329.335 692.19 328.078 691.787 326.997 690.943ZM606.517 680.115C604.366 677.416 604.686 673.381 607.235 671.104C609.784 668.821 613.59 669.16 615.746 671.859C617.902 674.557 617.582 678.593 615.033 680.876C613.898 681.887 612.515 682.385 611.137 682.385C609.422 682.385 607.713 681.612 606.517 680.115ZM303.295 669.697C300.897 667.241 300.837 663.193 303.156 660.654C305.476 658.115 309.299 658.051 311.697 660.507C314.095 662.963 314.156 667.011 311.836 669.55C310.652 670.848 309.076 671.5 307.499 671.5C305.983 671.5 304.467 670.899 303.295 669.697ZM628.841 658.473C626.365 656.1 626.178 652.052 628.419 649.436C630.66 646.82 634.477 646.622 636.954 648.995C639.424 651.368 639.611 655.41 637.37 658.025C636.18 659.42 634.537 660.129 632.895 660.129C631.445 660.129 629.995 659.579 628.841 658.473ZM282.456 645.311C280.39 642.542 280.831 638.519 283.453 636.332C286.068 634.138 289.868 634.612 291.933 637.381C294.005 640.15 293.558 644.173 290.943 646.366C289.831 647.294 288.515 647.741 287.204 647.741C285.416 647.741 283.652 646.91 282.456 645.311ZM648.249 633.889C645.5 631.887 644.812 627.903 646.702 624.999C648.593 622.089 652.356 621.354 655.105 623.355C657.847 625.364 658.541 629.348 656.651 632.252C655.479 634.055 653.588 635.021 651.668 635.021C650.49 635.021 649.294 634.656 648.249 633.889ZM264.855 618.207C263.152 615.169 264.1 611.243 266.969 609.445C269.832 607.642 273.541 608.64 275.244 611.677C276.947 614.715 275.999 618.642 273.13 620.446C272.164 621.053 271.1 621.341 270.056 621.341C267.996 621.341 265.984 620.222 264.855 618.207ZM664.4 606.811C661.423 605.212 660.233 601.362 661.749 598.209C663.253 595.062 666.889 593.802 669.867 595.401C672.839 597 674.029 600.85 672.519 604.003C671.455 606.222 669.329 607.501 667.125 607.501C666.207 607.501 665.276 607.277 664.4 606.811ZM250.823 588.846C249.519 585.597 250.95 581.843 254.019 580.461C257.093 579.08 260.639 580.602 261.937 583.851C263.242 587.1 261.811 590.854 258.742 592.235C257.969 592.581 257.172 592.747 256.386 592.747C254.031 592.747 251.796 591.282 250.823 588.846ZM676.995 577.673C673.848 576.509 672.18 572.864 673.28 569.525C674.373 566.193 677.816 564.428 680.969 565.592C684.116 566.756 685.783 570.401 684.684 573.733C683.82 576.375 681.482 578.025 678.982 578.025C678.323 578.025 677.653 577.91 676.995 577.673ZM240.627 557.751C239.745 554.342 241.642 550.831 244.862 549.898C248.081 548.964 251.403 550.972 252.279 554.381C253.161 557.789 251.264 561.307 248.045 562.234C247.513 562.388 246.976 562.465 246.45 562.465C243.792 562.465 241.358 560.597 240.627 557.751ZM685.783 547.007C682.515 546.303 680.407 542.926 681.072 539.467C681.73 536.007 684.919 533.768 688.193 534.472C691.461 535.175 693.569 538.552 692.904 542.012C692.319 545.05 689.8 547.135 686.985 547.135C686.592 547.135 686.188 547.096 685.777 547.007H685.783ZM234.472 525.512C234.031 522.013 236.357 518.796 239.661 518.33C242.971 517.863 246.009 520.325 246.444 523.823C246.885 527.328 244.566 530.545 241.255 531.012C240.99 531.05 240.718 531.069 240.452 531.069C237.474 531.069 234.877 528.729 234.472 525.512ZM690.615 515.375C687.287 515.138 684.768 512.094 684.992 508.57C685.215 505.046 688.09 502.379 691.419 502.616C694.747 502.853 697.266 505.897 697.042 509.421C696.831 512.804 694.173 515.394 691.02 515.394C690.887 515.394 690.748 515.394 690.615 515.375ZM232.425 492.709C232.425 492.626 232.425 492.537 232.425 492.454C232.425 492.364 232.425 492.275 232.425 492.185C232.437 488.655 235.143 485.796 238.477 485.802C241.817 485.815 244.511 488.68 244.505 492.211C244.505 492.3 244.505 492.383 244.499 492.473C244.505 492.55 244.505 492.633 244.505 492.709C244.505 496.24 241.799 499.105 238.465 499.105C235.131 499.105 232.425 496.24 232.425 492.709ZM685.022 477.373C684.804 473.849 687.329 470.811 690.658 470.581C693.986 470.351 696.861 473.024 697.078 476.548C697.296 480.072 694.771 483.116 691.443 483.347C691.31 483.347 691.177 483.359 691.044 483.359C687.885 483.359 685.227 480.763 685.022 477.373ZM239.715 466.584C236.405 466.111 234.092 462.888 234.539 459.389C234.986 455.885 238.03 453.435 241.334 453.908C244.638 454.382 246.958 457.598 246.511 461.103C246.1 464.314 243.509 466.642 240.531 466.642C240.259 466.642 239.987 466.622 239.715 466.584ZM681.168 446.47C680.51 443.004 682.63 439.634 685.898 438.937C689.172 438.246 692.355 440.484 693.013 443.951C693.666 447.411 691.552 450.781 688.278 451.478C687.879 451.561 687.474 451.606 687.082 451.606C684.267 451.606 681.742 449.508 681.168 446.47ZM244.976 435.029C241.763 434.089 239.872 430.565 240.754 427.163C241.642 423.76 244.97 421.758 248.184 422.692C251.397 423.632 253.288 427.156 252.406 430.559C251.663 433.398 249.235 435.259 246.583 435.259C246.052 435.259 245.514 435.182 244.976 435.029ZM673.431 416.361C672.343 413.029 674.01 409.383 677.17 408.226C680.323 407.074 683.76 408.846 684.853 412.184C685.946 415.523 684.273 419.162 681.12 420.319C680.468 420.556 679.803 420.671 679.145 420.671C676.644 420.671 674.3 419.008 673.437 416.361H673.431ZM254.188 404.503C251.119 403.116 249.694 399.362 251.004 396.113C252.315 392.864 255.861 391.355 258.929 392.736C261.998 394.124 263.423 397.884 262.113 401.133C261.134 403.563 258.905 405.022 256.556 405.022C255.764 405.022 254.961 404.855 254.188 404.503ZM661.954 387.639C660.45 384.486 661.646 380.642 664.624 379.05C667.602 377.457 671.232 378.723 672.736 381.876C674.24 385.029 673.044 388.873 670.066 390.466C669.19 390.932 668.266 391.156 667.348 391.156C665.143 391.15 663.017 389.864 661.954 387.639ZM267.174 375.583C264.311 373.773 263.369 369.847 265.078 366.815C266.788 363.777 270.496 362.786 273.36 364.596C276.223 366.399 277.165 370.326 275.455 373.364C274.326 375.372 272.321 376.485 270.261 376.485C269.21 376.485 268.147 376.191 267.174 375.583ZM646.944 360.797C645.06 357.887 645.76 353.903 648.509 351.907C651.257 349.912 655.02 350.648 656.905 353.564C658.789 356.474 658.088 360.458 655.34 362.453C654.295 363.215 653.105 363.579 651.927 363.579C650.001 363.579 648.11 362.607 646.938 360.797H646.944ZM283.694 348.742C281.079 346.548 280.644 342.525 282.716 339.756C284.788 336.993 288.593 336.526 291.203 338.726C293.818 340.92 294.253 344.943 292.181 347.712C290.985 349.298 289.227 350.129 287.445 350.129C286.129 350.129 284.806 349.675 283.694 348.742ZM628.702 336.309C626.468 333.693 626.661 329.645 629.137 327.279C631.614 324.912 635.431 325.117 637.666 327.739C639.901 330.361 639.708 334.403 637.231 336.769C636.078 337.876 634.628 338.419 633.184 338.419C631.535 338.419 629.892 337.709 628.702 336.309ZM303.44 324.458C301.121 321.913 301.193 317.864 303.597 315.415C305.995 312.966 309.819 313.036 312.132 315.581C314.452 318.127 314.379 322.175 311.981 324.624C310.809 325.82 309.293 326.415 307.789 326.415C306.207 326.415 304.624 325.763 303.44 324.458ZM607.555 314.603C605.013 312.32 604.698 308.284 606.861 305.592C609.017 302.893 612.829 302.567 615.372 304.85C617.915 307.133 618.229 311.168 616.072 313.861C614.876 315.357 613.173 316.125 611.464 316.125C610.08 316.125 608.691 315.626 607.555 314.603ZM326.049 303.155C324.074 300.309 324.647 296.305 327.335 294.214C330.023 292.116 333.804 292.73 335.78 295.576C337.761 298.422 337.181 302.426 334.493 304.517C333.418 305.355 332.162 305.758 330.923 305.758C329.069 305.758 327.233 304.856 326.049 303.155ZM583.89 296.062C581.081 294.157 580.266 290.198 582.066 287.224C583.866 284.25 587.605 283.387 590.413 285.299C593.216 287.205 594.037 291.157 592.231 294.131C591.078 296.037 589.133 297.073 587.146 297.073C586.028 297.073 584.898 296.747 583.89 296.062ZM351.14 285.209C349.539 282.114 350.615 278.225 353.538 276.531C356.468 274.836 360.134 275.974 361.735 279.07C363.335 282.171 362.266 286.06 359.337 287.755C358.419 288.286 357.422 288.535 356.443 288.535C354.305 288.535 352.239 287.333 351.14 285.209ZM558.11 281.027C555.09 279.537 553.779 275.725 555.192 272.527C556.6 269.323 560.194 267.942 563.22 269.432C566.24 270.928 567.551 274.734 566.137 277.938C565.117 280.259 562.936 281.628 560.665 281.628C559.807 281.628 558.937 281.436 558.11 281.027ZM378.267 270.973C377.077 267.673 378.629 263.976 381.746 262.71C384.863 261.444 388.354 263.094 389.55 266.394C390.74 269.688 389.188 273.391 386.071 274.65C385.358 274.938 384.627 275.079 383.909 275.079C381.48 275.079 379.191 273.518 378.267 270.973ZM530.651 269.777C527.468 268.722 525.692 265.14 526.682 261.764C527.673 258.393 531.062 256.513 534.245 257.562C537.428 258.611 539.21 262.198 538.213 265.569C537.41 268.306 535.024 270.065 532.451 270.065C531.859 270.065 531.249 269.969 530.651 269.777ZM406.964 260.715C406.197 257.274 408.209 253.827 411.458 253.021C414.708 252.209 417.958 254.339 418.725 257.779C419.486 261.214 417.474 264.661 414.231 265.467C413.766 265.588 413.294 265.639 412.835 265.639C410.099 265.639 407.617 263.657 406.964 260.715ZM502.02 262.525C498.728 261.936 496.511 258.636 497.067 255.157C497.629 251.672 500.745 249.324 504.031 249.913C507.323 250.501 509.534 253.801 508.984 257.287C508.483 260.408 505.928 262.621 503.035 262.621C502.697 262.621 502.358 262.589 502.02 262.525ZM436.676 254.626C436.35 251.109 438.778 247.981 442.1 247.642C445.423 247.297 448.376 249.868 448.703 253.379C449.023 256.897 446.594 260.024 443.278 260.369C443.079 260.389 442.88 260.401 442.68 260.401C439.612 260.401 436.984 257.933 436.676 254.626ZM472.719 259.391C469.384 259.269 466.775 256.308 466.89 252.778C467.005 249.254 469.801 246.485 473.135 246.606C476.47 246.728 479.079 249.689 478.964 253.219C478.849 256.673 476.168 259.397 472.93 259.397C472.864 259.397 472.791 259.397 472.719 259.391Z" fill="url(#paint15_linear_945_13036)"/>
<path d="M465 791.026C462.832 791.026 460.633 791 458.459 790.949L459.286 752.589C463.019 752.679 466.807 752.679 470.473 752.589L471.27 790.956C469.205 791.007 467.096 791.026 465 791.026ZM484.07 790.355L481.647 752.065C485.362 751.803 489.107 751.445 492.78 751.01L496.839 789.139C492.623 789.645 488.328 790.048 484.07 790.355ZM445.66 790.335C441.407 790.028 437.113 789.619 432.89 789.107L436.98 750.978C440.658 751.419 444.403 751.777 448.112 752.046L445.66 790.329V790.335ZM509.542 787.317L503.852 749.417C507.512 748.803 511.209 748.087 514.839 747.294L522.154 784.88C517.986 785.788 513.74 786.607 509.536 787.317H509.542ZM420.188 787.272C415.978 786.562 411.731 785.737 407.57 784.822L414.921 747.249C418.545 748.042 422.242 748.765 425.908 749.379L420.188 787.272ZM534.663 781.836L525.729 744.646C529.317 743.681 532.941 742.613 536.493 741.468L547.021 778.184C542.944 779.495 538.788 780.723 534.669 781.829L534.663 781.836ZM395.072 781.766C390.953 780.653 386.797 779.418 382.72 778.101L393.291 741.397C396.842 742.542 400.46 743.617 404.042 744.589L395.072 781.766ZM559.241 773.931L547.124 737.765C550.621 736.454 554.137 735.034 557.586 733.544L571.261 769.077C567.305 770.784 563.258 772.415 559.247 773.925L559.241 773.931ZM370.531 773.841C366.52 772.332 362.485 770.701 358.547 768.994L372.246 733.467C375.677 734.951 379.186 736.371 382.684 737.688L370.531 773.841ZM583.046 763.66L567.842 728.83C571.219 727.18 574.595 725.422 577.893 723.618L594.582 757.68C590.801 759.759 586.917 761.773 583.046 763.666V763.66ZM346.811 763.59C342.957 761.703 339.091 759.695 335.316 757.616L352.023 723.561C355.309 725.371 358.68 727.116 362.032 728.76L346.817 763.59H346.811ZM605.842 751.138L587.703 717.92C590.91 715.956 594.123 713.884 597.258 711.761L616.811 744.071C613.217 746.507 609.532 748.886 605.842 751.144V751.138ZM324.087 751.099C320.409 748.842 316.73 746.469 313.154 744.045L332.713 711.742C335.829 713.859 339.037 715.924 342.244 717.894L324.093 751.106L324.087 751.099ZM627.454 736.479L606.53 705.148C609.562 702.878 612.582 700.505 615.518 698.094L637.758 728.395C634.394 731.165 630.927 733.883 627.454 736.486V736.479ZM302.523 736.467C299.05 733.864 295.589 731.146 292.237 728.389L314.477 698.094C317.401 700.499 320.421 702.871 323.447 705.142L302.523 736.473V736.467ZM282.295 719.819C279.063 716.896 275.843 713.859 272.733 710.789L297.468 682.745C300.18 685.425 302.988 688.079 305.809 690.624L282.295 719.826V719.819ZM647.701 719.813L624.186 690.611C627.007 688.066 629.815 685.412 632.527 682.726L657.268 710.77C654.158 713.846 650.938 716.89 647.701 719.813ZM263.57 701.304C260.598 698.088 257.65 694.749 254.811 691.385L281.842 665.823C284.318 668.758 286.885 671.668 289.476 674.469L263.57 701.304ZM666.438 701.285L640.525 674.456C643.122 671.642 645.689 668.732 648.154 665.81L675.184 691.366C672.357 694.724 669.409 698.056 666.431 701.279L666.438 701.285ZM246.488 681.056C243.8 677.558 241.148 673.951 238.611 670.338L267.713 647.468C269.924 650.621 272.231 653.767 274.581 656.811L246.488 681.056ZM683.507 681.05L655.414 656.811C657.758 653.767 660.065 650.627 662.27 647.474L691.372 670.344C688.841 673.957 686.189 677.558 683.507 681.05ZM698.771 659.274L668.721 637.823C670.792 634.568 672.822 631.223 674.749 627.878L705.693 647.858C703.483 651.695 701.157 655.539 698.777 659.274H698.771ZM231.2 659.248C228.82 655.507 226.488 651.657 224.272 647.806L255.216 627.834C257.149 631.191 259.178 634.542 261.256 637.804L231.206 659.248H231.2ZM712.108 636.122L680.342 617.652C682.124 614.224 683.852 610.7 685.488 607.176L718.015 624.099C716.137 628.141 714.15 632.189 712.108 636.128V636.122ZM217.839 636.033C215.785 632.074 213.792 628.013 211.919 623.964L244.458 607.061C246.095 610.585 247.829 614.122 249.617 617.575L217.845 636.033H217.839ZM723.397 611.794L690.176 596.464C691.656 592.876 693.069 589.199 694.392 585.547L728.241 599.252C726.725 603.454 725.094 607.669 723.397 611.794ZM206.525 611.615C204.822 607.471 203.191 603.23 201.669 599.009L235.531 585.336C236.854 589.007 238.279 592.703 239.759 596.311L206.525 611.615ZM732.548 586.455L698.143 574.406C699.309 570.684 700.402 566.879 701.405 563.099L736.299 573.459C735.152 577.802 733.889 582.17 732.548 586.455ZM197.362 586.18C196.027 581.902 194.771 577.527 193.623 573.178L228.53 562.85C229.527 566.629 230.62 570.434 231.78 574.157L197.362 586.174V586.18ZM739.476 560.304L704.171 551.645C705.005 547.82 705.772 543.925 706.442 540.062L742.086 547.008C741.313 551.44 740.437 555.917 739.476 560.304ZM190.458 560.023C189.504 555.629 188.628 551.152 187.861 546.72L223.511 539.82C224.175 543.676 224.936 547.577 225.77 551.402L190.458 560.023ZM744.115 533.603L708.212 528.391C708.713 524.509 709.142 520.55 709.48 516.63L745.571 520.115C745.184 524.611 744.695 529.146 744.115 533.597V533.603ZM185.844 533.315C185.27 528.858 184.786 524.317 184.406 519.827L220.503 516.387C220.835 520.301 221.258 524.259 221.759 528.141L185.85 533.315H185.844ZM746.447 506.576L710.241 504.824C710.411 500.903 710.501 496.919 710.501 492.973L746.743 493.011C746.743 497.52 746.64 502.08 746.447 506.57V506.576ZM183.542 506.288C183.355 501.799 183.258 497.239 183.258 492.73V492.161L219.5 492.225V492.762C219.5 496.669 219.584 500.647 219.748 504.568L183.542 506.288ZM710.26 481.141C710.096 477.202 709.849 473.23 709.517 469.335L745.613 465.92C745.988 470.391 746.278 474.951 746.465 479.466L710.26 481.141ZM219.766 480.387L183.566 478.596C183.766 474.094 184.062 469.54 184.454 465.057L220.545 468.574C220.207 472.482 219.947 476.453 219.772 480.38L219.766 480.387ZM708.272 457.574C707.777 453.679 707.185 449.746 706.527 445.89L742.182 439.021C742.944 443.447 743.62 447.962 744.188 452.432L708.272 457.574ZM221.813 456.826L185.91 451.575C186.49 447.111 187.178 442.596 187.952 438.17L223.589 445.148C222.913 449.004 222.315 452.931 221.807 456.826H221.813ZM704.274 434.308C703.446 430.489 702.522 426.633 701.525 422.847L736.438 412.557C737.58 416.906 738.643 421.338 739.597 425.725L704.274 434.314V434.308ZM225.872 433.572L190.573 424.874C191.54 420.487 192.615 416.061 193.768 411.719L228.651 422.118C227.648 425.898 226.712 429.748 225.872 433.572ZM698.282 411.527C697.122 407.792 695.866 404.031 694.543 400.354L728.417 386.713C729.933 390.94 731.382 395.257 732.711 399.548L698.282 411.527ZM231.925 410.811L197.525 398.73C198.866 394.451 200.316 390.147 201.844 385.939L235.682 399.683C234.353 403.347 233.091 407.095 231.925 410.817V410.811ZM690.327 389.373C688.847 385.766 687.27 382.146 685.639 378.61L718.191 361.745C720.063 365.8 721.875 369.957 723.572 374.101L690.327 389.373ZM239.91 388.759L206.701 373.397C208.398 369.279 210.216 365.141 212.095 361.105L244.609 378.06C242.972 381.577 241.396 385.178 239.916 388.766L239.91 388.759ZM680.493 368.096C678.711 364.655 676.827 361.201 674.894 357.837L705.856 337.896C708.073 341.759 710.235 345.718 712.277 349.67L680.487 368.102L680.493 368.096ZM249.762 367.584L218.014 349.082C220.062 345.142 222.224 341.196 224.441 337.353L255.361 357.364C253.428 360.709 251.544 364.15 249.762 367.584ZM668.866 347.86C666.794 344.599 664.625 341.343 662.415 338.19L691.535 315.352C694.072 318.972 696.56 322.707 698.934 326.455L668.86 347.867L668.866 347.86ZM261.395 347.425L231.363 325.95C233.743 322.221 236.237 318.499 238.774 314.885L267.858 337.788C265.648 340.934 263.473 344.183 261.401 347.432L261.395 347.425ZM655.553 328.834C653.215 325.79 650.775 322.752 648.305 319.823L675.359 294.286C678.192 297.65 680.988 301.129 683.676 304.621L655.559 328.834H655.553ZM274.72 328.45L246.645 304.179C249.333 300.694 252.136 297.221 254.974 293.864L281.98 319.452C279.504 322.381 277.064 325.406 274.72 328.444V328.45ZM640.676 311.163C638.078 308.349 635.39 305.567 632.69 302.881L657.45 274.856C660.554 277.933 663.635 281.124 666.613 284.354L640.682 311.157L640.676 311.163ZM289.621 310.824L263.733 283.97C266.711 280.753 269.797 277.562 272.908 274.492L297.619 302.561C294.907 305.241 292.213 308.023 289.615 310.831L289.621 310.824ZM624.355 294.996C621.534 292.444 618.623 289.93 615.699 287.519L637.97 257.243C641.322 260.006 644.662 262.897 647.9 265.82L624.361 294.996H624.355ZM305.972 294.682L282.488 265.455C285.731 262.532 289.084 259.648 292.442 256.892L314.658 287.212C311.729 289.617 308.805 292.13 305.978 294.682H305.972ZM606.729 280.465C603.703 278.195 600.592 275.969 597.476 273.852L617.064 241.568C620.64 243.998 624.21 246.55 627.683 249.153L606.735 280.465H606.729ZM323.64 280.165L302.747 248.808C306.232 246.205 309.814 243.659 313.402 241.229L332.924 273.558C329.801 275.675 326.672 277.894 323.64 280.165ZM587.95 267.693C584.749 265.73 581.457 263.811 578.171 262.002L594.909 227.965C598.678 230.044 602.453 232.244 606.125 234.495L587.944 267.693H587.95ZM342.486 267.412L324.377 234.175C328.068 231.917 331.861 229.724 335.642 227.652L352.301 261.726C349.003 263.536 345.699 265.449 342.486 267.412ZM568.168 256.796C564.816 255.152 561.379 253.56 557.954 252.076L571.69 216.568C575.622 218.276 579.572 220.099 583.42 221.992L568.168 256.802V256.796ZM362.358 256.527L347.191 221.678C351.063 219.792 355.031 217.969 358.988 216.268L372.633 251.82C369.19 253.304 365.735 254.883 362.364 256.533L362.358 256.527ZM547.529 247.848C544.037 246.531 540.474 245.277 536.928 244.133L547.535 207.442C551.606 208.759 555.701 210.198 559.712 211.714L547.529 247.855V247.848ZM383.095 247.605L371.008 211.426C375.031 209.917 379.144 208.491 383.233 207.18L393.738 243.909C390.18 245.047 386.604 246.294 383.095 247.605ZM526.176 240.929C522.588 239.956 518.928 239.055 515.298 238.255L522.685 200.688C526.859 201.609 531.063 202.639 535.182 203.758L526.176 240.929ZM404.489 240.743L395.586 203.547C399.711 202.441 403.921 201.418 408.089 200.516L415.374 238.108C411.743 238.895 408.077 239.784 404.489 240.749V240.743ZM504.311 236.113C500.656 235.492 496.929 234.949 493.245 234.501L497.37 196.378C501.599 196.89 505.875 197.516 510.073 198.226L504.317 236.113H504.311ZM426.367 235.991L420.719 198.085C424.923 197.382 429.194 196.774 433.428 196.276L437.445 234.412C433.76 234.846 430.033 235.377 426.367 235.991ZM482.113 233.42C478.41 233.152 474.653 232.966 470.938 232.87L471.796 194.51C476.048 194.619 480.355 194.83 484.595 195.137L482.107 233.42H482.113ZM448.577 233.369L446.191 195.08C450.431 194.785 454.738 194.587 458.99 194.491L459.745 232.857C456.031 232.941 452.274 233.113 448.571 233.369H448.577Z" fill="url(#paint16_linear_945_13036)"/>
<path d="M647.615 833.74L646.255 831.246L524.061 607.226L526.417 605.787C564.452 582.527 588.112 539.256 588.16 492.857V489.979L835.207 490.26V493.138C835.135 563.111 817.395 631.823 783.913 691.851C751.489 749.973 705.172 798.54 649.976 832.295L647.621 833.734L647.615 833.74ZM531.472 609.311L649.602 825.874C702.962 792.675 747.744 745.381 779.232 688.934C811.765 630.614 829.209 563.967 829.759 496.022L593.566 495.754C592.582 542.146 569.043 585.207 531.478 609.318L531.472 609.311ZM282.015 833.516L279.666 832.077C224.506 798.258 178.249 749.646 145.892 691.493C112.471 631.427 94.8032 562.695 94.8032 492.722V489.051L341.856 489.473V492.735C341.856 539.121 365.462 582.412 403.461 605.717L405.811 607.162L282.009 833.523L282.015 833.516ZM100.245 494.813C100.596 563.034 117.98 629.988 150.573 688.57C181.994 745.042 226.723 792.387 280.04 825.643L398.405 609.228C360.768 585.009 337.254 541.756 336.438 495.216L100.245 494.813ZM529.008 381.237L526.658 379.791C507.8 368.203 487.058 362.326 465.005 362.326C442.952 362.326 422.476 368.126 403.709 379.574L401.353 381.013L278.035 154.359L280.39 152.92C336.341 118.793 400.181 100.752 465.005 100.752C529.829 100.752 594.478 119.017 650.701 153.578L653.051 155.024L529.008 381.237ZM465.005 356.57C487.112 356.57 507.964 362.23 527.027 373.396L645.615 157.121C590.788 123.999 528.398 106.508 465.005 106.508C401.612 106.508 340.026 123.776 285.47 156.475L403.37 373.172C422.331 362.153 443.055 356.57 465.005 356.57Z" fill="url(#paint17_linear_945_13036)"/>
<path d="M464.999 857.289C428.6 857.289 392.745 851.296 358.437 839.49L371.514 796.916C401.594 807.27 433.046 812.521 465.005 812.521C487.644 812.521 510.204 809.86 532.064 804.616L541.408 848.278C516.486 854.258 490.779 857.289 464.999 857.289ZM571.205 839.612L558.176 797.025C609.893 779.284 656.282 746.884 692.312 703.319L724.121 732.814C683.059 782.456 630.182 819.383 571.205 839.612ZM329.522 827.979C272.508 802.115 223.014 760.276 186.392 706.99L220.58 680.653C252.72 727.429 296.149 764.146 346.169 786.83L329.522 827.985V827.979ZM743.413 707.277L709.249 680.903C741.39 634.229 760.948 579.189 765.823 521.733L807.935 525.736C802.372 591.27 780.066 654.048 743.413 707.271V707.277ZM169.358 679.7C137.514 623.363 120.68 558.705 120.68 492.717V491.949L162.962 492.071V492.749C162.962 550.615 177.718 607.323 205.636 656.715L169.358 679.707V679.7ZM809.331 493.068H767.049V492.717C767.049 434.934 752.347 378.328 724.531 329.006L760.833 306.053C792.563 362.307 809.331 426.856 809.331 492.717V493.068ZM164.212 463.368L122.105 459.313C127.729 393.786 150.102 331.034 186.802 277.849L220.942 304.262C188.759 350.904 169.141 405.918 164.212 463.368ZM709.606 305.049C677.508 258.241 634.121 221.473 584.119 198.731L600.808 157.596C657.798 183.523 707.25 225.413 743.818 278.744L709.6 305.042L709.606 305.049ZM237.897 281.865L206.119 252.338C247.229 202.741 300.142 165.871 359.137 145.706L372.124 188.313C320.389 205.996 273.97 238.344 237.897 281.872V281.865ZM558.786 188.62C528.615 178.195 497.061 172.913 464.999 172.913C442.469 172.913 420.005 175.548 398.242 180.747L388.94 137.073C413.753 131.15 439.34 128.145 464.999 128.145C501.518 128.145 537.488 134.175 571.9 146.065L558.786 188.626V188.62Z" fill="url(#paint18_linear_945_13036)"/>
<path d="M483.023 873.348L482.727 866.959C488.677 866.646 494.693 866.172 500.607 865.546L501.205 871.909C495.194 872.542 489.076 873.028 483.023 873.342V873.348ZM422.355 871.167C402.247 868.654 382.241 864.311 362.882 858.255L364.592 852.122C383.619 858.07 403.292 862.342 423.062 864.81L422.355 871.161V871.167ZM519.289 869.505L518.383 863.179C524.266 862.239 530.204 861.12 536.033 859.867L537.241 866.134C531.309 867.413 525.269 868.545 519.289 869.505ZM566.729 858.376L565.026 852.243C584.089 846.308 602.814 838.595 620.675 829.315L623.333 835.059C605.164 844.498 586.119 852.345 566.729 858.383V858.376ZM334.131 847.837C328.507 845.509 322.866 843.002 317.357 840.373L319.839 834.541C325.252 837.124 330.803 839.593 336.329 841.876L334.131 847.83V847.837ZM300.952 832.021C295.576 829.098 290.194 825.996 284.969 822.792L287.995 817.26C293.135 820.413 298.427 823.464 303.712 826.335L300.958 832.027L300.952 832.021ZM675.394 801.956L671.86 796.769C676.686 793.079 681.488 789.21 686.139 785.27L689.915 790.258C685.191 794.268 680.304 798.202 675.394 801.956ZM235.173 786.025C219.625 772.351 205.056 757.188 191.882 740.95L196.461 736.78C209.417 752.743 223.739 767.657 239.027 781.1L235.167 786.018L235.173 786.025ZM703.856 777.807L699.845 773.023C704.29 768.847 708.7 764.485 712.952 760.066L717.186 764.626C712.861 769.122 708.38 773.554 703.856 777.807ZM737.947 741.142L733.368 736.972C746.343 721.009 758.115 703.779 768.36 685.77L773.536 689.07C763.117 707.386 751.139 724.904 737.947 741.142ZM173.061 715.688C169.509 710.482 166.042 705.116 162.75 699.744L167.818 696.265C171.056 701.547 174.462 706.824 177.954 711.94L173.055 715.688H173.061ZM153.213 683.269C150.18 677.712 147.239 672 144.472 666.296L149.848 663.379C152.566 668.988 155.453 674.603 158.437 680.065L153.206 683.269H153.213ZM800.343 631.428L794.719 629.1C796.888 623.229 798.941 617.223 800.82 611.25L806.552 613.271C804.637 619.347 802.554 625.454 800.349 631.428H800.343ZM121.459 606.786C115.425 586.385 110.991 565.273 108.291 544.034L114.277 543.183C116.935 564.065 121.29 584.824 127.221 604.874L121.459 606.786ZM811.874 594.807L806.051 593.1C807.639 587.031 809.101 580.84 810.4 574.687L816.295 576.082C814.978 582.336 813.486 588.636 811.874 594.814V594.807ZM821.653 544.418L815.667 543.561C817.811 526.83 818.899 509.722 818.899 492.717C818.899 488.637 818.838 484.505 818.711 480.431L824.745 480.227C824.872 484.364 824.933 488.566 824.933 492.717C824.933 510.01 823.827 527.406 821.647 544.418H821.653ZM105.513 512.012C105.211 505.623 105.06 499.131 105.06 492.717H111.1C111.1 499.029 111.251 505.412 111.547 511.692L105.513 512.012ZM111.16 485.727L105.12 485.612C105.229 479.197 105.494 472.706 105.911 466.323L111.939 466.758C111.535 473.032 111.275 479.414 111.166 485.727H111.16ZM811.795 417.66C810.611 411.488 809.258 405.266 807.778 399.164L813.631 397.572C815.135 403.775 816.513 410.107 817.715 416.387L811.795 417.66ZM121.012 404.294L115.141 402.791C119.894 381.993 126.364 361.476 134.379 341.816L139.924 344.349C132.047 363.676 125.681 383.841 121.012 404.287V404.294ZM802.874 380.905C801.098 374.881 799.147 368.824 797.081 362.896L802.747 360.683C804.849 366.714 806.83 372.873 808.636 379L802.874 380.905ZM785.544 333.701C777.106 314.668 767.067 296.249 755.693 278.943L760.652 275.291C772.213 292.885 782.427 311.624 791.011 330.983L785.544 333.701ZM152.911 315.883L147.589 312.858C150.446 307.217 153.478 301.583 156.601 296.102L161.772 299.408C158.703 304.793 155.719 310.338 152.911 315.883ZM171.406 283.426L166.398 279.851C169.781 274.543 173.333 269.26 176.963 264.137L181.795 267.975C178.225 273.008 174.728 278.207 171.406 283.426ZM717.597 230.273C713.429 225.778 709.098 221.333 704.719 217.067L708.815 212.366C713.266 216.709 717.67 221.224 721.91 225.797L717.597 230.273ZM221.516 220.789L217.36 216.146C232.038 201.404 247.99 187.891 264.77 175.976L268.135 181.291C251.639 193.007 235.952 206.297 221.516 220.789ZM691.243 204.564C686.671 200.535 681.941 196.576 677.188 192.796L680.812 187.68C685.65 191.524 690.458 195.546 695.109 199.646L691.243 204.564ZM652.561 174.902C635.703 163.722 617.848 154.008 599.492 146.014L601.787 140.098C620.458 148.226 638.615 158.107 655.763 169.478L652.555 174.902H652.561ZM293.637 164.791L290.707 159.195C296.011 156.08 301.459 153.074 306.895 150.254L309.553 155.997C304.207 158.772 298.85 161.727 293.637 164.791ZM325.874 148.073L323.5 142.195C329.075 139.669 334.789 137.258 340.473 135.039L342.563 141.038C336.976 143.219 331.358 145.585 325.874 148.073ZM542.556 127.032C536.752 125.657 530.838 124.422 524.967 123.367L525.982 117.061C531.95 118.142 537.972 119.396 543.873 120.79L542.556 127.032ZM400.115 124.288L399.015 118.001C418.815 114.119 439.135 111.983 459.424 111.657L459.515 118.053C439.57 118.372 419.582 120.47 400.115 124.295V124.288ZM507.233 120.643C501.331 119.901 495.327 119.306 489.384 118.878L489.794 112.495C495.835 112.93 501.941 113.531 507.945 114.292L507.233 120.643Z" fill="url(#paint19_linear_945_13036)"/>
<path d="M464.999 911.548H464.818V905.152H464.999C471.1 905.152 477.273 904.999 483.356 904.705L483.634 911.094C477.46 911.394 471.191 911.548 464.999 911.548ZM445.997 911.075C435.577 910.55 425.061 909.584 414.75 908.203L415.511 901.859C425.665 903.221 436.018 904.174 446.281 904.685L445.997 911.075ZM514.88 908.248L514.125 901.903C534.535 899.185 554.873 894.715 574.558 888.614L576.255 894.753C556.256 900.944 535.61 905.485 514.88 908.248ZM371.575 899.793C351.297 894.593 331.262 887.622 312.018 879.072L314.355 873.175C333.303 881.598 353.031 888.46 372.994 893.577L371.575 899.793ZM617.661 879.212L615.33 873.316C624.789 869.12 634.211 864.471 643.344 859.483L646.111 865.168C636.839 870.233 627.265 874.959 617.661 879.219V879.212ZM283.616 865.015C278.083 861.99 272.538 858.773 267.126 855.46L270.152 849.928C275.48 853.189 280.94 856.355 286.389 859.335L283.616 865.015ZM662.649 855.594L659.629 850.056C664.962 846.794 670.29 843.347 675.473 839.823L678.74 845.201C673.479 848.783 668.067 852.281 662.655 855.594H662.649ZM251.083 845.08C242.331 839.113 233.693 832.698 225.412 826.009L229.073 820.924C237.233 827.512 245.738 833.83 254.357 839.708L251.083 845.086V845.08ZM704.436 826.13L700.775 821.039C717.12 807.858 732.601 793.2 746.796 777.455L751.163 781.867C736.751 797.85 721.028 812.738 704.436 826.124V826.13ZM192.015 795.829C176.909 780.576 162.841 763.935 150.199 746.373L155.001 742.497C167.45 759.797 181.306 776.182 196.183 791.205L192.015 795.835V795.829ZM779.679 746.533L774.877 742.651C781.099 734.017 787.073 725.012 792.624 715.892L797.697 719.358C792.056 728.619 785.991 737.764 779.673 746.533H779.679ZM132.175 719.173C128.786 713.602 125.482 707.872 122.353 702.142L127.584 698.938C130.665 704.579 133.92 710.219 137.26 715.707L132.181 719.166L132.175 719.173ZM807.513 702.372L802.288 699.168C805.368 693.54 808.358 687.759 811.185 681.983L816.549 684.925C813.68 690.79 810.642 696.661 807.513 702.378V702.372ZM113.305 684.631C108.521 674.82 104.051 664.69 100.022 654.515L105.591 652.04C109.56 662.055 113.957 672.032 118.669 681.695L113.305 684.631ZM829.832 654.854L824.262 652.372C832.223 632.316 838.717 611.429 843.561 590.292L849.432 591.801C844.515 613.271 837.919 634.478 829.832 654.854ZM85.3323 610.681C79.4732 589.512 75.1786 567.646 72.5572 545.703L78.5491 544.903C81.1282 566.514 85.3565 588.041 91.1249 608.883L85.3263 610.681H85.3323ZM857.387 546.087L851.395 545.281C852.688 534.53 853.588 523.568 854.083 512.702L860.117 513.009C859.622 524.042 858.704 535.176 857.393 546.093L857.387 546.087ZM69.8571 512.619C69.5672 506.019 69.4162 499.317 69.4162 492.698V491.936L75.4564 491.943V492.691C75.4564 499.214 75.6014 505.815 75.8913 512.312L69.8571 512.613V512.619ZM860.57 493.075H854.53V492.678C854.53 486.296 854.391 479.817 854.113 473.447L860.148 473.153C860.426 479.625 860.57 486.2 860.57 492.698V493.075ZM75.9276 472.322L69.8934 472.008C70.4008 460.976 71.3249 449.848 72.6477 438.931L78.6397 439.743C77.341 450.494 76.4229 461.456 75.9276 472.322ZM851.486 440.862C848.925 419.246 844.715 397.719 838.964 376.87L844.763 375.079C850.604 396.254 854.881 418.12 857.484 440.069L851.492 440.862H851.486ZM86.5102 394.738L80.639 393.223C85.5739 371.76 92.188 350.552 100.294 330.189L105.863 332.671C97.884 352.72 91.3726 373.602 86.5102 394.732V394.738ZM824.534 333.7C820.578 323.685 816.187 313.702 811.481 304.032L816.851 301.103C821.629 310.92 826.093 321.057 830.109 331.232L824.534 333.7ZM118.971 303.085L113.607 300.144C116.482 294.279 119.526 288.408 122.655 282.697L127.88 285.907C124.793 291.529 121.797 297.31 118.971 303.085ZM802.584 286.783C799.509 281.143 796.26 275.495 792.926 270.008L798.005 266.548C801.388 272.125 804.692 277.855 807.815 283.586L802.584 286.783ZM137.55 269.196L132.477 265.723C138.124 256.469 144.195 247.33 150.525 238.568L155.321 242.45C149.087 251.084 143.107 260.076 137.55 269.196ZM775.197 243.205C762.76 225.899 748.922 209.495 734.057 194.459L738.231 189.835C753.326 205.101 767.375 221.755 780.005 239.329L775.197 243.198V243.205ZM183.438 207.672L179.071 203.253C193.495 187.283 209.23 172.407 225.835 159.041L229.489 164.132C213.138 177.293 197.639 191.939 183.432 207.672H183.438ZM701.198 164.707C693.044 158.114 684.545 151.788 675.932 145.905L679.205 140.532C687.952 146.506 696.583 152.933 704.864 159.629L701.198 164.714V164.707ZM254.816 145.38L251.554 140.002C256.822 136.42 262.234 132.928 267.652 129.622L270.672 135.16C265.338 138.416 260.005 141.856 254.822 145.38H254.816ZM660.142 135.665C654.827 132.404 649.367 129.232 643.918 126.239L646.697 120.559C652.236 123.597 657.781 126.821 663.175 130.133L660.142 135.665ZM286.962 125.753L284.196 120.067C293.468 115.015 303.048 110.295 312.658 106.048L314.983 111.951C305.518 116.134 296.089 120.783 286.956 125.759L286.962 125.753ZM615.964 112.373C597.022 103.938 577.3 97.0498 557.343 91.9142L558.769 85.6979C579.04 90.9166 599.069 97.9068 618.307 106.477L615.964 112.373ZM355.767 96.6853L354.076 90.5457C374.075 84.3741 394.733 79.8525 415.463 77.1089L416.212 83.4531C395.796 86.152 375.458 90.6032 355.767 96.6853ZM514.826 83.5938C504.672 82.2188 494.319 81.2594 484.056 80.735L484.346 74.346C494.766 74.8768 505.276 75.8553 515.587 77.2495L514.82 83.5938H514.826ZM446.987 80.6839L446.715 74.2948C452.768 74.0007 458.917 73.8535 464.993 73.8535H465.531L465.519 80.249H464.987C459.001 80.249 452.949 80.3961 446.981 80.6839H446.987Z" fill="url(#paint20_linear_945_13036)"/>
<path style="mix-blend-mode:color-dodge" d="M465 905.855C680.502 905.855 855.201 720.883 855.201 492.709C855.201 264.535 680.502 79.5635 465 79.5635C249.498 79.5635 74.7985 264.535 74.7985 492.709C74.7985 720.883 249.498 905.855 465 905.855Z" fill="url(#paint21_radial_945_13036)"/>
<defs>
<linearGradient id="paint0_linear_945_13036" x1="751.779" y1="477.182" x2="751.779" y2="904.148" gradientUnits="userSpaceOnUse">
<stop stop-color="#F85F73"/>
<stop offset="0.125" stop-color="#FA8595"/>
<stop offset="0.533654" stop-color="#FCACB6"/>
<stop offset="0.879808" stop-color="#FA8595"/>
<stop offset="1" stop-color="#F85F73"/>
</linearGradient>
<linearGradient id="paint1_linear_945_13036" x1="311.32" y1="750.333" x2="311.32" y2="936.741" gradientUnits="userSpaceOnUse">
<stop stop-color="#F85F73"/>
<stop offset="0.125" stop-color="#FA8595"/>
<stop offset="0.533654" stop-color="#FCACB6"/>
<stop offset="0.879808" stop-color="#FA8595"/>
<stop offset="1" stop-color="#F85F73"/>
</linearGradient>
<linearGradient id="paint2_linear_945_13036" x1="104.97" y1="201.033" x2="104.97" y2="683.78" gradientUnits="userSpaceOnUse">
<stop stop-color="#F85F73"/>
<stop offset="0.125" stop-color="#FA8595"/>
<stop offset="0.533654" stop-color="#FCACB6"/>
<stop offset="0.879808" stop-color="#FA8595"/>
<stop offset="1" stop-color="#F85F73"/>
</linearGradient>
<linearGradient id="paint3_linear_945_13036" x1="888.625" y1="360.057" x2="888.625" y2="637.318" gradientUnits="userSpaceOnUse">
<stop stop-color="#F85F73"/>
<stop offset="0.125" stop-color="#FA8595"/>
<stop offset="0.533654" stop-color="#FCACB6"/>
<stop offset="0.879808" stop-color="#FA8595"/>
<stop offset="1" stop-color="#F85F73"/>
</linearGradient>
<linearGradient id="paint4_linear_945_13036" x1="780.628" y1="686.85" x2="780.628" y2="889.444" gradientUnits="userSpaceOnUse">
<stop stop-color="#F85F73"/>
<stop offset="0.125" stop-color="#FA8595"/>
<stop offset="0.533654" stop-color="#FCACB6"/>
<stop offset="0.879808" stop-color="#FA8595"/>
<stop offset="1" stop-color="#F85F73"/>
</linearGradient>
<linearGradient id="paint5_linear_945_13036" x1="134.358" y1="124.57" x2="134.358" y2="283.74" gradientUnits="userSpaceOnUse">
<stop stop-color="#F85F73"/>
<stop offset="0.125" stop-color="#FA8595"/>
<stop offset="0.533654" stop-color="#FCACB6"/>
<stop offset="0.879808" stop-color="#FA8595"/>
<stop offset="1" stop-color="#F85F73"/>
</linearGradient>
<linearGradient id="paint6_linear_945_13036" x1="131.269" y1="61.249" x2="131.269" y2="937.38" gradientUnits="userSpaceOnUse">
<stop stop-color="#F85F73"/>
<stop offset="0.125" stop-color="#FA8595"/>
<stop offset="0.533654" stop-color="#FCACB6"/>
<stop offset="0.879808" stop-color="#FA8595"/>
<stop offset="1" stop-color="#F85F73"/>
</linearGradient>
<linearGradient id="paint7_linear_945_13036" x1="291.257" y1="801.208" x2="291.257" y2="965.507" gradientUnits="userSpaceOnUse">
<stop stop-color="#F85F73"/>
<stop offset="0.125" stop-color="#FA8595"/>
<stop offset="0.533654" stop-color="#FCACB6"/>
<stop offset="0.879808" stop-color="#FA8595"/>
<stop offset="1" stop-color="#F85F73"/>
</linearGradient>
<linearGradient id="paint8_linear_945_13036" x1="62.0321" y1="354.288" x2="62.0321" y2="737.72" gradientUnits="userSpaceOnUse">
<stop stop-color="#F85F73"/>
<stop offset="0.125" stop-color="#FA8595"/>
<stop offset="0.533654" stop-color="#FCACB6"/>
<stop offset="0.879808" stop-color="#FA8595"/>
<stop offset="1" stop-color="#F85F73"/>
</linearGradient>
<linearGradient id="paint9_linear_945_13036" x1="617.289" y1="0.907227" x2="617.289" y2="450.858" gradientUnits="userSpaceOnUse">
<stop stop-color="#F85F73"/>
<stop offset="0.125" stop-color="#FA8595"/>
<stop offset="0.533654" stop-color="#FCACB6"/>
<stop offset="0.879808" stop-color="#FA8595"/>
<stop offset="1" stop-color="#F85F73"/>
</linearGradient>
<linearGradient id="paint10_linear_945_13036" x1="556.869" y1="53.2275" x2="556.869" y2="322.149" gradientUnits="userSpaceOnUse">
<stop stop-color="#F85F73"/>
<stop offset="0.125" stop-color="#FA8595"/>
<stop offset="0.533654" stop-color="#FCACB6"/>
<stop offset="0.879808" stop-color="#FA8595"/>
<stop offset="1" stop-color="#F85F73"/>
</linearGradient>
<linearGradient id="paint11_linear_945_13036" x1="608.236" y1="27.083" x2="608.236" y2="253.993" gradientUnits="userSpaceOnUse">
<stop stop-color="#F85F73"/>
<stop offset="0.125" stop-color="#FA8595"/>
<stop offset="0.533654" stop-color="#FCACB6"/>
<stop offset="0.879808" stop-color="#FA8595"/>
<stop offset="1" stop-color="#F85F73"/>
</linearGradient>
<linearGradient id="paint12_linear_945_13036" x1="642.792" y1="511.545" x2="642.792" y2="984.52" gradientUnits="userSpaceOnUse">
<stop stop-color="#F85F73"/>
<stop offset="0.125" stop-color="#FA8595"/>
<stop offset="0.533654" stop-color="#FCACB6"/>
<stop offset="0.879808" stop-color="#FA8595"/>
<stop offset="1" stop-color="#F85F73"/>
</linearGradient>
<linearGradient id="paint13_linear_945_13036" x1="575.869" y1="919.88" x2="575.869" y2="959.666" gradientUnits="userSpaceOnUse">
<stop stop-color="#F85F73"/>
<stop offset="0.125" stop-color="#FA8595"/>
<stop offset="0.533654" stop-color="#FCACB6"/>
<stop offset="0.879808" stop-color="#FA8595"/>
<stop offset="1" stop-color="#F85F73"/>
</linearGradient>
<radialGradient id="paint14_radial_945_13036" cx="0" cy="0" r="1" gradientUnits="userSpaceOnUse" gradientTransform="translate(465 492.709) scale(390.201 413.146)">
<stop offset="0.16"/>
<stop offset="0.21" stop-color="#000002"/>
<stop offset="0.24" stop-color="#020309"/>
<stop offset="0.26" stop-color="#060917"/>
<stop offset="0.27" stop-color="#0C1029"/>
<stop offset="0.29" stop-color="#131A42"/>
<stop offset="0.3" stop-color="#1C255F"/>
<stop offset="0.31" stop-color="#273382"/>
<stop offset="0.32" stop-color="#2A388F"/>
<stop offset="0.35" stop-color="#1D2764"/>
<stop offset="0.38" stop-color="#131940"/>
<stop offset="0.41" stop-color="#0A0E23"/>
<stop offset="0.44" stop-color="#04060F"/>
<stop offset="0.47" stop-color="#010103"/>
<stop offset="0.5"/>
<stop offset="0.52" stop-color="#060815"/>
<stop offset="0.59" stop-color="#1A2257"/>
<stop offset="0.65" stop-color="#263280"/>
<stop offset="0.67" stop-color="#2B3990"/>
<stop offset="0.69" stop-color="#24307A"/>
<stop offset="0.74" stop-color="#192155"/>
<stop offset="0.78" stop-color="#101536"/>
<stop offset="0.83" stop-color="#090C1E"/>
<stop offset="0.88" stop-color="#03050D"/>
<stop offset="0.93" stop-color="#000103"/>
<stop offset="1"/>
</radialGradient>
<linearGradient id="paint15_linear_945_13036" x1="464.758" y1="246.603" x2="464.758" y2="738.825" gradientUnits="userSpaceOnUse">
<stop stop-color="#F85F73"/>
<stop offset="0.125" stop-color="#FA8595"/>
<stop offset="0.533654" stop-color="#FCACB6"/>
<stop offset="0.879808" stop-color="#FA8595"/>
<stop offset="1" stop-color="#F85F73"/>
</linearGradient>
<linearGradient id="paint16_linear_945_13036" x1="465.001" y1="194.491" x2="465.001" y2="791.026" gradientUnits="userSpaceOnUse">
<stop stop-color="#F85F73"/>
<stop offset="0.125" stop-color="#FA8595"/>
<stop offset="0.533654" stop-color="#FCACB6"/>
<stop offset="0.879808" stop-color="#FA8595"/>
<stop offset="1" stop-color="#F85F73"/>
</linearGradient>
<linearGradient id="paint17_linear_945_13036" x1="465.005" y1="100.752" x2="465.005" y2="833.74" gradientUnits="userSpaceOnUse">
<stop stop-color="#F85F73"/>
<stop offset="0.125" stop-color="#FA8595"/>
<stop offset="0.533654" stop-color="#FCACB6"/>
<stop offset="0.879808" stop-color="#FA8595"/>
<stop offset="1" stop-color="#F85F73"/>
</linearGradient>
<linearGradient id="paint18_linear_945_13036" x1="465.005" y1="128.145" x2="465.005" y2="857.289" gradientUnits="userSpaceOnUse">
<stop stop-color="#F85F73"/>
<stop offset="0.125" stop-color="#FA8595"/>
<stop offset="0.533654" stop-color="#FCACB6"/>
<stop offset="0.879808" stop-color="#FA8595"/>
<stop offset="1" stop-color="#F85F73"/>
</linearGradient>
<linearGradient id="paint19_linear_945_13036" x1="464.996" y1="111.657" x2="464.996" y2="873.348" gradientUnits="userSpaceOnUse">
<stop stop-color="#F85F73"/>
<stop offset="0.125" stop-color="#FA8595"/>
<stop offset="0.533654" stop-color="#FCACB6"/>
<stop offset="0.879808" stop-color="#FA8595"/>
<stop offset="1" stop-color="#F85F73"/>
</linearGradient>
<linearGradient id="paint20_linear_945_13036" x1="464.993" y1="73.8535" x2="464.993" y2="911.548" gradientUnits="userSpaceOnUse">
<stop stop-color="#F85F73"/>
<stop offset="0.125" stop-color="#FA8595"/>
<stop offset="0.533654" stop-color="#FCACB6"/>
<stop offset="0.879808" stop-color="#FA8595"/>
<stop offset="1" stop-color="#F85F73"/>
</linearGradient>
<radialGradient id="paint21_radial_945_13036" cx="0" cy="0" r="1" gradientUnits="userSpaceOnUse" gradientTransform="translate(465 492.709) scale(390.201 413.146)">
<stop offset="0.16"/>
<stop offset="0.21" stop-color="#020202"/>
<stop offset="0.24" stop-color="#0B0B0B"/>
<stop offset="0.27" stop-color="#191A1A"/>
<stop offset="0.3" stop-color="#2E2E30"/>
<stop offset="0.32" stop-color="#49494B"/>
<stop offset="0.34" stop-color="#696A6D"/>
<stop offset="0.35" stop-color="#6D6E71"/>
<stop offset="0.37" stop-color="#47484A"/>
<stop offset="0.4" stop-color="#28292A"/>
<stop offset="0.43" stop-color="#121212"/>
<stop offset="0.46" stop-color="#040404"/>
<stop offset="0.48" stop-color="#040404"/>
<stop offset="0.58" stop-color="#6A6B6D"/>
<stop offset="0.63" stop-color="#737477"/>
<stop offset="0.64" stop-color="#4F5152"/>
<stop offset="0.65" stop-color="#1C1C1D"/>
<stop offset="0.66" stop-color="#0C0C0C"/>
<stop offset="0.67" stop-color="#020303"/>
<stop offset="0.68" stop-color="#040404"/>
<stop offset="0.69" stop-color="#121213"/>
<stop offset="0.7" stop-color="#292A2B"/>
<stop offset="0.71" stop-color="#737476"/>
<stop offset="0.72" stop-color="#939598"/>
<stop offset="0.73" stop-color="#727376"/>
<stop offset="0.74" stop-color="#535456"/>
<stop offset="0.75" stop-color="#393A3B"/>
<stop offset="0.76" stop-color="#242425"/>
<stop offset="0.77" stop-color="#131414"/>
<stop offset="0.79" stop-color="#080808"/>
<stop offset="0.81" stop-color="#010101"/>
<stop offset="0.87"/>
</radialGradient>
</defs>
</svg>
