<svg width="885" height="623" viewBox="0 0 885 623" fill="none" xmlns="http://www.w3.org/2000/svg">
<g filter="url(#filter0_f_5241_4025)">
<circle cx="865.671" cy="278.671" r="134.671" fill="#FF1546" fill-opacity="0.3"/>
</g>
<path d="M422.367 370.93C420.463 368.431 416.302 369.263 416.302 372.848V438.5H592.363V356.019C590.802 356.019 589.051 355.75 587.616 356.354C584.796 357.542 581.072 358.835 578.027 359.375C571.784 360.483 566.227 362.052 560.335 364.457C558.493 365.209 556.523 366.016 554.917 367.238C553.324 368.45 551.866 370.178 550.074 371.074C545.2 373.511 540.801 377.608 536.217 380.663C531.391 383.881 526.829 386.905 521.354 388.958C518.754 389.933 516.473 390.41 513.73 390.972C508.866 391.968 504.394 392.518 499.682 394.089C496.306 395.214 492.904 396.402 489.373 397.013C483.752 397.986 477.98 397.059 472.328 397.661C466.982 398.229 461.903 399.171 456.481 399.171H447.371C443.518 399.171 441.322 397.848 440.251 393.993C439.722 392.086 437.821 389.813 436.392 388.383C434.602 386.594 432.211 385.367 430.638 383.444C429.46 382.005 428.465 380.565 427.33 379.105C426.66 378.244 426.892 377.161 426.395 376.276C425.313 374.354 423.698 372.677 422.367 370.93Z" fill="#5754E3"/>
<path d="M26.3361 493.812H0V680.992H892.502V373.836C844.749 342.001 812.875 278.017 794.635 223.298C790.734 211.594 776.844 215.698 775.452 227.525C774.393 236.525 752.926 216.544 750.579 212.894C743.402 201.729 741.763 196.625 734.485 209.967C724.365 228.521 712.572 246.079 700.996 263.94C684.857 288.84 683.986 317.208 654.013 331.406C643.368 336.449 630.263 332.161 623.938 341.648C617.433 351.406 596.984 351.87 587.198 357.742C582.441 360.597 579.363 365.895 575.005 369.285C566.552 375.859 561.247 377.14 551.758 379.851C543.529 382.203 536.485 389.332 528.348 392.044C520.42 394.687 516.496 403.099 507.702 403.099H491.607C479.273 403.099 438.322 408.195 436.009 394.32C434.929 387.84 421.784 382.066 418.777 375.3C416.507 370.194 415.784 370.888 414.062 377.088C411.796 385.246 412.599 394.06 412.599 402.449C412.599 407.886 414.773 411.673 411.949 406.025C399.499 381.126 385.042 385.259 364.866 391.028L364.154 391.231C349.304 395.474 340.685 411.871 331.965 425.208C325.902 434.48 321.153 452.195 311.644 458.535C305.795 462.434 300.128 468.496 294.899 472.678C290.215 476.426 277.812 474.353 272.14 476.905C246.985 488.225 224.915 486.474 198.984 485.033C188.948 484.476 179.866 472.091 168.421 470.565C158.171 469.198 146.593 469.514 141.76 479.181C136.777 489.146 126.69 484.595 120.626 478.531C112.433 470.338 98.417 468.251 87.6245 472.028C66.446 479.44 49.3922 493.812 26.3361 493.812Z" fill="#6362C2"/>
<path d="M412.312 405.5C405.223 400.086 404.38 387 392.312 387C383.604 387 362.896 387.658 348.312 401.5C333.435 415.619 324.704 442.991 318.312 449.5L321.011 688.243L892.811 682V377.388L866.174 348.001C844.734 324.347 827.512 297.19 815.259 267.71L796.098 221.611C795.038 219.059 792.859 217.14 790.195 216.41C787.795 215.752 785.229 216.123 783.113 217.433L779.659 219.571L775.116 228.906L749.621 213C749.621 221.622 750.677 233.34 753.004 241.631C757.816 258.785 760.751 277.186 768.012 293.295C781.345 322.875 794.296 353.941 800.565 385.861C802.908 397.79 799.871 411.292 796.76 422.671C793.322 435.252 788.377 445.229 777.101 452.378C767.249 458.626 752.956 457.301 751.524 443.337C751.133 439.529 759.93 432.194 758.711 430.421C755.827 426.225 758.002 420.5 750.678 420.303L750.58 420.301C742.615 420.087 730.755 419.769 724.889 426.116C722.661 428.526 729.684 429.073 723.41 433.865C720.399 436.165 715.333 445.28 713.897 448.934C711.625 454.72 700.046 455.908 694.45 458.621C680.463 465.404 669.609 474.981 653.441 471.107C642.942 468.591 656.707 452.866 656.401 445.059C655.667 426.369 595.064 442.927 584.115 445.918L584.107 445.92C570.702 449.583 558.329 457.114 544.155 457.114C537.732 457.114 531.864 455.177 525.553 455.177C519.398 455.177 526.528 444.091 519.423 438.171C514.474 434.047 508.445 430.821 503.781 426.546C500.472 423.514 497.195 424.178 492.789 424.178C478.984 424.178 460.931 425.58 447.975 421.81C439.535 419.355 430.344 416.968 421.552 414.922C413.518 413.052 417.983 409.832 412.312 405.5Z" fill="#504EBA"/>
<path fill-rule="evenodd" clip-rule="evenodd" d="M740.086 203C738.419 203.63 736.542 206.043 733.949 210.797C725.358 226.547 715.562 241.579 705.716 256.688C703.964 259.378 702.209 262.07 700.46 264.77C695.254 272.801 691.637 281.193 688.12 289.353C680.732 306.495 673.783 322.617 653.477 332.235C649.242 334.242 644.618 334.771 640.187 335.279C633.478 336.047 627.211 336.764 623.402 342.477C619.422 348.447 610.225 350.938 601.442 353.317C599.526 353.836 597.63 354.35 595.812 354.893C603.385 354.836 610.824 353.559 618.11 351.409C621.093 350.529 623.582 348.379 626.214 346.106L626.227 346.094C627.323 345.148 628.517 344.75 629.507 344.457C629.654 344.414 629.795 344.373 629.931 344.334C630.764 344.092 631.405 343.906 632.034 343.537C634.053 342.354 636.076 341.444 638.133 340.536C641.134 339.209 644.383 338.08 647.655 336.985C648.268 336.78 648.881 336.577 649.494 336.373C652.175 335.482 654.851 334.593 657.465 333.603C663.898 331.164 669.694 328.201 673.698 323.462C675.378 321.473 677.061 319.506 678.739 317.545L678.741 317.543C683.302 312.212 687.822 306.929 692.123 301.4C693.948 299.052 695.973 296.8 697.975 294.588L698.276 294.256C700.187 292.144 702.07 290.064 703.799 287.907C707.436 283.373 710.283 278.636 711.107 272.965C711.254 271.947 711.263 270.698 711.208 269.262C711.177 268.451 711.13 267.664 711.082 266.851L711.082 266.846C711.042 266.169 711 265.473 710.966 264.73C710.826 261.707 710.818 258.294 712.071 255.788C713.733 252.463 716.414 249.902 719.006 247.578C719.343 247.276 719.678 246.977 720.01 246.682C722.299 244.647 724.439 242.743 726.054 240.476C726.439 239.937 726.823 239.4 727.207 238.866C731.64 232.681 735.868 226.784 737.303 219.569C737.823 216.954 738.224 214.311 738.615 211.635C738.661 211.319 738.707 211.003 738.753 210.686L738.771 210.561L738.771 210.559C739.108 208.243 739.448 205.9 739.86 203.569C739.897 203.359 739.976 203.167 740.086 203Z" fill="#5754E3"/>
<defs>
<filter id="filter0_f_5241_4025" x="587.427" y="0.427322" width="556.488" height="556.488" filterUnits="userSpaceOnUse" color-interpolation-filters="sRGB">
<feFlood flood-opacity="0" result="BackgroundImageFix"/>
<feBlend mode="normal" in="SourceGraphic" in2="BackgroundImageFix" result="shape"/>
<feGaussianBlur stdDeviation="71.7863" result="effect1_foregroundBlur_5241_4025"/>
</filter>
</defs>
</svg>
