<svg width="171" height="127" viewBox="0 0 171 127" fill="none" xmlns="http://www.w3.org/2000/svg">
<g filter="url(#filter0_di_6118_11175)">
<circle cx="84.1004" cy="63.6" r="55.2" fill="#E73D2B"/>
</g>
<g filter="url(#filter1_i_6118_11175)">
<ellipse cx="69.7749" cy="26.4634" rx="8.85" ry="4.6" transform="rotate(-27.4672 69.7749 26.4634)" fill="#D33929"/>
</g>
<g filter="url(#filter2_i_6118_11175)">
<ellipse cx="119.941" cy="35.9658" rx="6.82536" ry="3.54765" transform="rotate(-122.229 119.941 35.9658)" fill="#D33929"/>
</g>
<g filter="url(#filter3_i_6118_11175)">
<ellipse cx="113.256" cy="89.6333" rx="13.3392" ry="6.93338" transform="rotate(-62.8528 113.256 89.6333)" fill="#D33929"/>
</g>
<g filter="url(#filter4_i_6118_11175)">
<ellipse cx="128.751" cy="54.8" rx="2.15" ry="3" fill="#D33929"/>
</g>
<g filter="url(#filter5_i_6118_11175)">
<ellipse cx="57.35" cy="60.5" rx="4.85" ry="6.8" fill="#D33929"/>
</g>
<g filter="url(#filter6_d_6118_11175)">
<path d="M12.8139 55.3291C2.23853 55.2284 27.944 44.0644 31.8146 42.1291C31.8146 43.3926 28.3162 46.6791 26.7146 46.6791C25.4184 46.6791 19.9902 48.9474 23.2636 48.7291C29.5429 48.3105 40.289 44.885 44.9131 40.6463C46.9618 38.7684 48.3534 36.2525 50.5109 34.5117C52.9062 32.5791 56.294 32.484 59.0993 31.5723C61.6996 30.7271 64.1179 28.2569 66.3073 26.6902C69.6153 24.3231 71.1604 28.0026 75.213 27.3791C77.6186 27.009 83.5605 21.0607 85.7589 21.8081C89.1835 22.9725 94.0458 26.4539 97.6402 26.9409C101.736 27.4958 121.793 26.4714 124.739 22.2791C126.628 19.5903 115.684 14.3933 111.575 13.9099C109.352 13.6484 106.964 13.5864 104.802 12.9897C103.296 12.5745 104.645 12.5137 105.262 12.274C111.281 9.93335 115.952 7.00855 122.592 7.00855C124.033 7.00855 124.535 6.84724 125.455 7.92873C126.718 9.41491 127.124 11.7294 128.215 13.3987C129.779 15.7906 131.665 18.0581 132.969 20.6068C136.153 26.8296 129.509 29.0681 124.739 31.4445C119.778 33.916 114.485 36.0168 108.84 35.6875C106.416 35.5461 104.03 34.8076 101.632 34.4606C95.0617 33.5096 88.1033 35.0041 81.4903 35.0741C77.6736 35.1144 75.7237 35.3757 72.1863 37.1445C57.9126 44.2813 29.3256 55.4864 12.8139 55.3291Z" fill="#FCF9F5"/>
<path d="M73.7446 42.1491C70.7596 43.4088 66.9974 45.2128 64.0371 46.5302C64.025 46.627 68.2999 45.6992 68.4918 45.6576L68.4965 45.6565C71.1911 45.0719 73.9594 44.5811 76.5936 43.7594C77.5842 43.4504 78.2181 43.1973 79.2797 43.127C84.123 42.806 88.9582 43.2812 93.805 42.8532C96.9255 42.5776 100.524 42.4225 103.46 41.1972C103.812 41.0504 104.247 40.8077 103.975 40.3888C103.443 39.569 101.985 39.455 101.152 39.4174C98.0008 39.2752 95.0087 40.1816 91.8883 40.2454C89.7173 40.2898 87.7072 39.7037 85.6687 39.0328C84.917 38.7853 83.9851 38.3195 83.1653 38.2961C82.6399 38.2811 81.7364 38.7803 81.4767 38.8893C78.8978 39.9723 76.3216 41.0616 73.7446 42.1491Z" fill="#FCF9F5"/>
<path d="M18.7345 73.2002C20.8736 70.208 24.0647 67.3757 27.4069 65.7881C27.2464 66.1091 25.6668 67.4132 25.3514 67.7987C24.4763 68.8682 23.9576 69.7529 25.1413 71.0396C26.3303 72.332 28.7465 73.4925 30.4228 73.9954C32.3978 74.5879 34.9462 75.2407 37.0246 75.2407C39.3868 75.2407 40.8212 74.0865 42.6812 72.8101C44.4763 71.5781 46.4776 71.0217 48.6828 70.8595C49.7402 70.7818 52.8008 70.3634 51.8637 70.8595C51.1524 71.2361 50.0556 71.4502 49.283 71.6697C47.6901 72.1223 44.9984 71.7193 44.9618 73.9504C44.9417 75.1731 44.8386 76.2139 46.3122 76.306C47.6923 76.3923 49.1191 76.3414 50.4683 76.0359C53.6364 75.3187 56.7706 74.4772 59.9359 73.7553C66.9316 72.1598 74.4963 72.114 80.7016 68.0988C82.9657 66.6338 84.7219 63.5462 87.3335 62.7573C93.4443 60.9113 99.875 61.8364 106.029 60.4767C111.126 59.3503 115.826 57.3363 120.313 54.7151C123.718 52.7252 127.528 51.9691 131.446 52.4044C135.959 52.9059 140.231 53.0946 144.799 53.0946C147.125 53.0946 149.472 53.1963 151.776 52.8245C152.456 52.7149 153.484 52.6718 153.907 52.0143C154.764 50.6811 150.963 49.4412 150.261 49.3136C147.175 48.7525 144.261 48.856 141.138 48.7584C140.444 48.7367 135.191 47.9632 138.077 47.9632C138.965 47.9632 139.862 48.0041 140.748 47.9632C142.254 47.8937 143.706 47.2863 145.189 47.0329C147.514 46.636 149.789 46.1622 152.151 46.0727C155.096 45.9611 157.874 45.083 160.854 45.1724C163.706 45.258 168.918 45.4317 170.817 48.1132C171.961 49.7307 167.157 53.4112 166.225 54.2349C163.641 56.5197 160.851 58.8123 157.313 59.1563C152.591 59.6153 147.725 59.3063 142.984 59.3063C140.168 59.3063 137.263 59.1085 134.462 59.4264C131.098 59.808 127.616 61.4669 124.259 61.4669C123.76 61.4669 123.411 61.9563 122.953 62.1421C121.73 62.6391 120.456 63.2201 119.187 63.5825C117.31 64.119 115.566 64.5754 113.741 65.488C110.224 67.2462 106.83 69.2253 103.208 70.7695C99.5579 72.3255 95.867 73.2763 92.0148 74.1604C87.1041 75.2875 82.2117 76.529 77.3107 77.7014C60.8041 81.6503 42.8276 85.7293 25.8765 82.0526C21.2069 81.0398 14.9301 78.5219 18.7345 73.2002Z" fill="#FCF9F5"/>
<path d="M21.8865 67.516C21.1565 67.9327 20.4195 68.3536 19.6785 68.778C19.4296 68.9309 19.182 69.0841 18.9355 69.235C16.9924 70.4246 14.9672 71.7825 13.2223 73.244C11.6957 74.5227 10.4021 76.1264 10.2358 78.1782C9.98581 81.2611 11.5295 83.2515 14.399 84.208C16.693 84.9726 19.1578 84.7664 21.5406 84.7436C24.3026 84.7172 27.0643 84.6056 29.8265 84.6056C29.8669 84.6056 28.3609 85.2089 27.9112 85.3928C27.11 85.7206 25.9914 85.8097 25.1926 85.896C20.7126 86.3799 16.1049 86.7212 11.5992 86.5696C9.15349 86.4873 5.50466 86.551 4.36019 83.8103C3.68351 82.1899 3.96074 79.3773 5.18796 78.0078C6.70705 76.3126 9.15049 74.9962 11.0149 73.8608C13.8458 72.1366 16.793 70.4304 19.6785 68.778C20.4034 68.3326 21.139 67.89 21.8865 67.516Z" fill="#FCF9F5"/>
<path d="M30.7905 102.326C32.4302 99.749 36.2003 96.9195 38.7139 95.2301C38.7139 96.5392 38.9442 98.6672 38.502 99.9107C38.0335 101.228 37.7462 102.984 37.5687 104.379C37.2153 107.156 38.0759 108.982 41.0336 109.361C45.0971 109.88 48.0322 106.913 50.3084 103.901C52.7649 100.65 56.4587 98.9707 60.4116 100.891C61.856 101.592 62.9288 102.478 64.6348 102.267C66.2919 102.063 67.9403 101.374 69.3597 100.517C70.2312 99.9912 71.372 99.0652 70.5147 97.9741C70.0993 97.4454 68.5899 97.568 67.9947 97.5308C67.6171 97.5072 68.54 96.8737 68.6247 96.7958C69.276 96.1966 69.8119 96.0797 70.7014 96.0608C72.3786 96.0251 74.0599 96.2899 75.6596 96.8075C77.5948 97.4335 75.738 98.3545 74.8546 99.1174C73.7107 100.105 72.058 102.474 72.358 104.064C72.5371 105.013 75.2825 104.281 75.7879 103.947C76.6897 103.352 77.2023 101.271 77.5612 100.284C78.0428 98.9597 79.8522 99.1281 80.9766 99.2327L80.9911 99.2341C83.0659 99.4271 84.302 101.467 86.591 101.521C89.9366 101.599 94.7405 101.839 97.3475 99.3624C98.776 98.0053 99.9243 96.8714 102.002 96.7491C104.568 96.5982 107.075 97.2068 109.551 97.7874C113.015 98.6 116.501 99.3172 120.074 99.3624C122.183 99.3891 124.236 99.0293 126.327 98.8374C129.463 98.5497 133.886 97.4329 132.86 93.4242C132.609 92.4435 134.32 90.7733 133.665 90.0291C134.509 89.5807 132.701 89.1746 132.86 89.0791C133.143 88.9091 134.975 88.6853 135.215 88.8791C135.861 89.4021 133.989 91.1381 134.773 91.5459C136.218 92.297 137.377 93.8655 137.702 95.4541C138.55 99.6033 136.191 102.3 132.86 104.391C128.477 107.141 123.352 108.449 118.324 109.477C115.268 110.102 112.147 110.419 109.107 111.11C106.647 111.67 104.328 112.513 101.804 112.837C98.0994 113.313 95.4419 113.32 91.6426 113.035C87.2509 112.706 82.9716 111.914 78.7745 110.597C77.5545 110.214 76.7895 109.636 75.5196 109.944C71.2248 110.985 67.0835 112.546 62.6982 113.257C57.0796 114.168 51.9636 114.527 46.3185 113.374C40.9575 112.278 34.6769 109.594 31.0938 105.231C30.0858 104.003 30.0118 103.549 30.7905 102.326Z" fill="#FCF9F5"/>
</g>
<defs>
<filter id="filter0_di_6118_11175" x="20.9004" y="0.400024" width="126.4" height="126.4" filterUnits="userSpaceOnUse" color-interpolation-filters="sRGB">
<feFlood flood-opacity="0" result="BackgroundImageFix"/>
<feColorMatrix in="SourceAlpha" type="matrix" values="0 0 0 0 0 0 0 0 0 0 0 0 0 0 0 0 0 0 127 0" result="hardAlpha"/>
<feOffset/>
<feGaussianBlur stdDeviation="4"/>
<feComposite in2="hardAlpha" operator="out"/>
<feColorMatrix type="matrix" values="0 0 0 0 0.905882 0 0 0 0 0.239216 0 0 0 0 0.168627 0 0 0 1 0"/>
<feBlend mode="normal" in2="BackgroundImageFix" result="effect1_dropShadow_6118_11175"/>
<feBlend mode="normal" in="SourceGraphic" in2="effect1_dropShadow_6118_11175" result="shape"/>
<feColorMatrix in="SourceAlpha" type="matrix" values="0 0 0 0 0 0 0 0 0 0 0 0 0 0 0 0 0 0 127 0" result="hardAlpha"/>
<feOffset dx="10.1" dy="-3"/>
<feGaussianBlur stdDeviation="2"/>
<feComposite in2="hardAlpha" operator="arithmetic" k2="-1" k3="1"/>
<feColorMatrix type="matrix" values="0 0 0 0 0 0 0 0 0 0 0 0 0 0 0 0 0 0 0.25 0"/>
<feBlend mode="normal" in2="shape" result="effect2_innerShadow_6118_11175"/>
</filter>
<filter id="filter1_i_6118_11175" x="61.6387" y="20.691" width="16.2725" height="11.9448" filterUnits="userSpaceOnUse" color-interpolation-filters="sRGB">
<feFlood flood-opacity="0" result="BackgroundImageFix"/>
<feBlend mode="normal" in="SourceGraphic" in2="BackgroundImageFix" result="shape"/>
<feColorMatrix in="SourceAlpha" type="matrix" values="0 0 0 0 0 0 0 0 0 0 0 0 0 0 0 0 0 0 127 0" result="hardAlpha"/>
<feOffset dy="1.2"/>
<feGaussianBlur stdDeviation="0.2"/>
<feComposite in2="hardAlpha" operator="arithmetic" k2="-1" k3="1"/>
<feColorMatrix type="matrix" values="0 0 0 0 0 0 0 0 0 0 0 0 0 0 0 0 0 0 0.25 0"/>
<feBlend mode="normal" in2="shape" result="effect1_innerShadow_6118_11175"/>
</filter>
<filter id="filter2_i_6118_11175" x="114.824" y="29.8883" width="9.83555" height="12.5549" filterUnits="userSpaceOnUse" color-interpolation-filters="sRGB">
<feFlood flood-opacity="0" result="BackgroundImageFix"/>
<feBlend mode="normal" in="SourceGraphic" in2="BackgroundImageFix" result="shape"/>
<feColorMatrix in="SourceAlpha" type="matrix" values="0 0 0 0 0 0 0 0 0 0 0 0 0 0 0 0 0 0 127 0" result="hardAlpha"/>
<feOffset dx="-0.7" dy="0.9"/>
<feGaussianBlur stdDeviation="0.2"/>
<feComposite in2="hardAlpha" operator="arithmetic" k2="-1" k3="1"/>
<feColorMatrix type="matrix" values="0 0 0 0 0 0 0 0 0 0 0 0 0 0 0 0 0 0 0.25 0"/>
<feBlend mode="normal" in2="shape" result="effect1_innerShadow_6118_11175"/>
</filter>
<filter id="filter3_i_6118_11175" x="104.19" y="77.2462" width="17.733" height="24.6742" filterUnits="userSpaceOnUse" color-interpolation-filters="sRGB">
<feFlood flood-opacity="0" result="BackgroundImageFix"/>
<feBlend mode="normal" in="SourceGraphic" in2="BackgroundImageFix" result="shape"/>
<feColorMatrix in="SourceAlpha" type="matrix" values="0 0 0 0 0 0 0 0 0 0 0 0 0 0 0 0 0 0 127 0" result="hardAlpha"/>
<feOffset dx="-1.4" dy="-0.1"/>
<feGaussianBlur stdDeviation="0.2"/>
<feComposite in2="hardAlpha" operator="arithmetic" k2="-1" k3="1"/>
<feColorMatrix type="matrix" values="0 0 0 0 0 0 0 0 0 0 0 0 0 0 0 0 0 0 0.25 0"/>
<feBlend mode="normal" in2="shape" result="effect1_innerShadow_6118_11175"/>
</filter>
<filter id="filter4_i_6118_11175" x="126.201" y="51.8" width="4.6998" height="6" filterUnits="userSpaceOnUse" color-interpolation-filters="sRGB">
<feFlood flood-opacity="0" result="BackgroundImageFix"/>
<feBlend mode="normal" in="SourceGraphic" in2="BackgroundImageFix" result="shape"/>
<feColorMatrix in="SourceAlpha" type="matrix" values="0 0 0 0 0 0 0 0 0 0 0 0 0 0 0 0 0 0 127 0" result="hardAlpha"/>
<feOffset dx="-0.8"/>
<feGaussianBlur stdDeviation="0.2"/>
<feComposite in2="hardAlpha" operator="arithmetic" k2="-1" k3="1"/>
<feColorMatrix type="matrix" values="0 0 0 0 0 0 0 0 0 0 0 0 0 0 0 0 0 0 0.25 0"/>
<feBlend mode="normal" in2="shape" result="effect1_innerShadow_6118_11175"/>
</filter>
<filter id="filter5_i_6118_11175" x="52.5" y="53.7" width="10.1002" height="13.9" filterUnits="userSpaceOnUse" color-interpolation-filters="sRGB">
<feFlood flood-opacity="0" result="BackgroundImageFix"/>
<feBlend mode="normal" in="SourceGraphic" in2="BackgroundImageFix" result="shape"/>
<feColorMatrix in="SourceAlpha" type="matrix" values="0 0 0 0 0 0 0 0 0 0 0 0 0 0 0 0 0 0 127 0" result="hardAlpha"/>
<feOffset dx="1" dy="0.3"/>
<feGaussianBlur stdDeviation="0.2"/>
<feComposite in2="hardAlpha" operator="arithmetic" k2="-1" k3="1"/>
<feColorMatrix type="matrix" values="0 0 0 0 0 0 0 0 0 0 0 0 0 0 0 0 0 0 0.25 0"/>
<feBlend mode="normal" in2="shape" result="effect1_innerShadow_6118_11175"/>
</filter>
<filter id="filter6_d_6118_11175" x="-1.49012e-07" y="7.00003" width="170.992" height="110.5" filterUnits="userSpaceOnUse" color-interpolation-filters="sRGB">
<feFlood flood-opacity="0" result="BackgroundImageFix"/>
<feColorMatrix in="SourceAlpha" type="matrix" values="0 0 0 0 0 0 0 0 0 0 0 0 0 0 0 0 0 0 127 0" result="hardAlpha"/>
<feOffset dx="-3.6" dy="3"/>
<feGaussianBlur stdDeviation="0.2"/>
<feComposite in2="hardAlpha" operator="out"/>
<feColorMatrix type="matrix" values="0 0 0 0 0 0 0 0 0 0 0 0 0 0 0 0 0 0 0.25 0"/>
<feBlend mode="normal" in2="BackgroundImageFix" result="effect1_dropShadow_6118_11175"/>
<feBlend mode="normal" in="SourceGraphic" in2="effect1_dropShadow_6118_11175" result="shape"/>
</filter>
</defs>
</svg>
