<svg width="53" height="63" viewBox="0 0 53 63" fill="none" xmlns="http://www.w3.org/2000/svg">
<path d="M1.16133 29.9694C1.03908 29.9491 0.957584 29.8268 0.916836 29.6027C0.896462 29.4805 0.886275 26.0882 0.886275 19.4258C0.886275 12.7635 0.896462 9.40175 0.916836 9.34063C0.957584 9.27951 0.998332 9.22857 1.03908 9.18782C1.1002 9.14708 1.87442 9.11652 3.36173 9.09614C7.84404 9.07577 10.3806 9.08595 10.9715 9.1267C11.5216 9.14708 11.8068 9.17764 11.8272 9.21839C11.8272 9.23876 11.817 10.0843 11.7966 11.755C11.7762 13.4053 11.7661 14.2406 11.7661 14.261C11.7661 14.261 10.89 14.261 9.1378 14.261L6.47897 14.2915V17.5005L7.73198 17.531C9.81014 17.5514 10.9817 17.6023 11.2465 17.6838L11.3993 17.745V19.1508C11.4197 19.9454 11.4197 20.3936 11.3993 20.4955C11.379 20.5973 11.3076 20.6686 11.1854 20.7094C11.1039 20.7501 10.2991 20.7705 8.77106 20.7705H6.50954L6.47897 20.8316C6.47897 20.8928 6.47897 21.6059 6.47897 22.9709C6.49935 24.336 6.50954 25.0287 6.50954 25.0491C6.52991 25.0695 7.16151 25.0898 8.40433 25.1102C10.3602 25.1102 11.3586 25.1204 11.3993 25.1408C11.3993 25.1611 11.379 25.8539 11.3382 27.2189C11.2975 28.584 11.2771 29.3684 11.2771 29.5721C11.2771 29.7759 11.2669 29.8879 11.2465 29.9083C11.2465 29.9287 10.3806 29.9491 8.64882 29.9694C3.75903 30.0102 1.2632 30.0102 1.16133 29.9694ZM16.4517 30C16.1665 29.9796 15.6062 29.9694 14.7708 29.9694C14.0781 29.9491 13.6706 29.9389 13.5484 29.9389C13.4465 29.9185 13.3752 29.8574 13.3345 29.7555C13.2937 29.6944 13.2632 29.6129 13.2428 29.511C13.2224 29.3888 13.2122 26.8929 13.2122 22.0235C13.2122 13.7109 13.2326 9.41194 13.2733 9.1267C13.3141 8.94334 13.3752 8.82109 13.4567 8.75997C13.4975 8.71922 14.0476 8.68866 15.107 8.66829C19.2226 8.62754 21.6879 8.61735 22.5028 8.63772C23.3178 8.67847 24.0207 8.73959 24.6116 8.82109C25.3043 8.92296 25.8442 9.14708 26.2313 9.49344C26.6184 9.81942 26.924 10.3186 27.1481 10.9909C27.3111 11.5207 27.4436 12.3458 27.5454 13.4664C27.6065 14.1591 27.6575 14.9537 27.6982 15.8502C27.7797 18.3358 27.6167 20.1695 27.2093 21.3512C27.0055 21.9013 26.7508 22.3291 26.4452 22.6348C25.7525 23.3275 24.7847 23.7961 23.5419 24.0406C22.7677 24.2036 21.6064 24.2851 20.0579 24.2851C19.2226 24.2851 18.8049 24.2952 18.8049 24.3156C18.8049 24.336 18.7947 25.2325 18.7744 27.005C18.7744 28.4719 18.7642 29.3175 18.7438 29.5416C18.7438 29.7453 18.7031 29.8778 18.6216 29.9389C18.5808 29.9796 18.2752 30 17.7047 30C17.1342 30 16.7166 30 16.4517 30ZM19.1105 22.9404C19.6606 22.7774 20.1496 22.5533 20.5775 22.268C21.0665 21.9624 21.4026 21.5753 21.586 21.1067C21.7897 20.6381 21.9425 19.8333 22.0444 18.6924C22.0648 18.4682 22.075 17.908 22.075 17.0115C22.075 16.115 22.0648 15.4631 22.0444 15.0556C21.9833 14.1184 21.912 13.3034 21.8305 12.6107C21.7286 11.9587 21.586 11.429 21.4026 11.0215C21.1378 10.5325 20.7812 10.2065 20.333 10.0435C20.007 9.92129 19.6097 9.84998 19.1411 9.82961H18.8966V10.8993C18.8762 11.592 18.8559 13.4766 18.8355 16.5531C18.7947 20.8113 18.7846 22.9506 18.8049 22.9709C18.8253 22.9913 18.9272 22.9811 19.1105 22.9404ZM31.7536 29.9694C31.6721 29.9287 31.6008 29.837 31.5396 29.6944C31.5193 29.5925 31.285 28.2784 30.8367 25.752C29.8588 20.2306 29.2985 17.0217 29.1559 16.1252C28.402 11.8874 28.0251 9.68699 28.0251 9.524C28.0251 9.21839 28.0862 9.03502 28.2085 8.9739C28.2696 8.95352 29.1151 8.94334 30.745 8.94334C32.3953 8.94334 33.2511 8.96371 33.3122 9.00446C33.4141 9.04521 33.4854 9.1267 33.5261 9.24895C33.5669 9.37119 33.6382 9.71755 33.74 10.288C33.7604 10.3695 33.9642 11.5309 34.3513 13.772C34.6772 15.6057 34.9319 17.0522 35.1153 18.1117C35.156 18.2543 35.1968 18.4479 35.2375 18.6924L35.5737 20.4038C35.5941 20.3834 35.7571 20.0269 36.0627 19.3341C36.3683 18.621 36.5313 18.2441 36.5517 18.2034C36.5517 18.183 36.7758 17.7042 37.224 16.767L37.8964 15.3917H39.4244C40.4635 15.3917 40.9932 15.4019 41.0136 15.4223C41.0544 15.4834 41.2887 15.9724 41.7165 16.8892C41.798 17.093 41.9101 17.3477 42.0527 17.6533C42.2157 17.9793 42.4602 18.5192 42.7862 19.273C43.1121 20.0065 43.2853 20.3834 43.3057 20.4038C43.3261 20.4038 43.3363 20.4038 43.3363 20.4038C43.3566 20.4038 43.4076 20.1389 43.4891 19.6092C43.6317 18.835 43.7641 18.0913 43.8864 17.3782C44.8032 12.1828 45.2718 9.524 45.2922 9.40175C45.3533 9.17764 45.445 9.04521 45.5672 9.00446C45.6487 8.96371 46.5044 8.94334 48.1344 8.94334C49.4994 8.94334 50.2736 8.95352 50.457 8.9739C50.6608 8.9739 50.783 9.02483 50.8237 9.1267C50.8645 9.26932 50.8645 9.50362 50.8237 9.82961C50.783 10.1556 50.62 11.1234 50.3348 12.7329C49.7643 16.0132 49.1123 19.7416 48.3789 23.9183C47.7065 27.6672 47.3601 29.5925 47.3398 29.6944C47.299 29.7963 47.2583 29.8676 47.2175 29.9083L47.1258 30H44.6198C43.214 30 42.4194 30 42.2361 30C42.0527 29.9796 41.8999 29.9083 41.7776 29.7861C41.6961 29.7046 41.6045 29.5721 41.5026 29.3888C41.4211 29.2054 41.0442 28.3599 40.3718 26.8522C39.781 25.5075 39.4652 24.8352 39.4244 24.8352C39.404 24.8352 39.0984 25.5075 38.5076 26.8522C37.8352 28.3599 37.4583 29.2054 37.3768 29.3888C37.2953 29.5721 37.2138 29.7046 37.1323 29.7861C36.9897 29.9083 36.8267 29.9796 36.6434 30C36.4804 30 35.696 30 34.2901 30C32.6398 30 31.7943 29.9898 31.7536 29.9694Z" fill="white"/>
<rect x="0.121094" y="36.7559" width="36.516" height="25.2809" rx="1.52806" fill="#4B019F"/>
<path d="M12.8055 55.906C12.7321 55.8938 12.6771 55.8388 12.6404 55.741C12.616 55.6554 12.5854 55.2948 12.5487 54.6591C12.4998 53.7301 12.4815 52.8499 12.4937 52.0186C12.506 51.5908 12.5121 50.3805 12.5121 48.3879C12.5121 46.3831 12.506 45.3624 12.4937 45.3257C12.4815 45.3135 12.1698 45.3012 11.5586 45.289C11.0451 45.289 10.7456 45.289 10.6601 45.289C10.5867 45.2768 10.5378 45.2401 10.5134 45.179C10.4889 45.1545 10.4767 45.0995 10.4767 45.014C10.4767 44.9284 10.4828 44.8612 10.495 44.8123C10.5072 44.7634 10.6295 44.6228 10.8618 44.3905C11.1062 44.146 11.2957 43.9688 11.4302 43.8587C11.9192 43.492 12.237 43.2842 12.3837 43.2353C12.4448 43.2231 12.9644 43.217 13.9423 43.217C14.9203 43.217 15.4399 43.2231 15.501 43.2353C15.6966 43.2964 15.8127 43.5654 15.8494 44.0421C15.8616 44.2255 15.8677 45.289 15.8677 47.2327C15.8799 49.1764 15.8799 50.5945 15.8677 51.4869C15.8555 52.746 15.8738 53.8156 15.9227 54.6958C15.9594 55.1603 15.9777 55.4537 15.9777 55.576C15.9655 55.7471 15.9166 55.851 15.831 55.8877C15.7944 55.9122 15.287 55.9244 14.3091 55.9244C13.3433 55.9244 12.8421 55.9183 12.8055 55.906ZM20.5602 55.9244C20.0957 55.8877 19.6434 55.7716 19.2033 55.576C18.6532 55.3437 18.2131 54.9647 17.883 54.4391C17.3818 53.62 17.0823 52.5198 16.9845 51.1385C16.9112 49.9771 16.9479 48.9625 17.0946 48.0945C17.1679 47.6545 17.2718 47.1655 17.4063 46.6276C17.6386 45.6985 17.9686 44.9467 18.3965 44.3722C18.8855 43.7243 19.5334 43.3331 20.3402 43.1986C20.438 43.1864 20.982 43.1742 21.9722 43.1619C22.8646 43.1619 23.4208 43.1681 23.6408 43.1803C23.8731 43.1925 24.1298 43.2353 24.411 43.3086C25.01 43.4553 25.4928 43.7182 25.8596 44.0971C26.1041 44.3538 26.2813 44.6778 26.3913 45.069C26.5136 45.5091 26.5197 45.8941 26.4097 46.2242C26.3241 46.4442 26.2324 46.5665 26.1346 46.5909C26.0857 46.6032 25.5662 46.6093 24.576 46.6093C23.598 46.6093 23.0968 46.597 23.0724 46.5726C23.0112 46.5359 22.9807 46.4442 22.9807 46.2975C22.9807 46.1875 22.999 46.0958 23.0357 46.0225C23.109 45.8513 23.1335 45.6863 23.109 45.5274C23.0601 45.2707 22.9807 45.0567 22.8707 44.8856C22.8095 44.7878 22.7117 44.6717 22.5773 44.5372C22.4428 44.3905 22.3572 44.311 22.3206 44.2988C22.2839 44.2744 22.2411 44.2744 22.1922 44.2988C22.1555 44.3233 22.0761 44.3966 21.9538 44.5189C21.8316 44.6289 21.7399 44.7206 21.6788 44.7939C21.2754 45.3196 20.9636 46.0164 20.7436 46.8843C20.6091 47.41 20.5419 47.7156 20.5419 47.8012C20.5419 47.8134 20.8108 47.8195 21.3487 47.8195L22.1372 47.8378L22.4489 47.8928C22.7912 47.9662 23.0724 48.0457 23.2924 48.1312C23.867 48.339 24.3376 48.5835 24.7043 48.8647C25.4989 49.4637 26.0185 49.9405 26.263 50.295C26.593 50.7962 26.7581 51.4319 26.7581 52.202C26.7581 52.422 26.752 52.5932 26.7397 52.7154C26.6542 53.2289 26.538 53.6873 26.3913 54.0907C26.1835 54.6163 25.8779 55.032 25.4745 55.3376C25.1811 55.5576 24.8572 55.7104 24.5026 55.796C24.2459 55.8571 24.0014 55.8938 23.7692 55.906C23.6714 55.9183 23.1335 55.9244 22.1555 55.9244C21.1898 55.9244 20.658 55.9244 20.5602 55.9244ZM22.2105 54.8792C22.5162 54.6714 22.7668 54.3719 22.9623 53.9807C23.0968 53.7362 23.2191 53.3267 23.3291 52.7521C23.3658 52.5932 23.3841 52.4098 23.3841 52.202C23.3841 51.5541 23.2252 51.0162 22.9073 50.5884C22.7729 50.4294 22.51 50.1849 22.1189 49.8549C21.7277 49.5248 21.4159 49.2864 21.1837 49.1397C20.7803 48.9075 20.5235 48.7913 20.4135 48.7913C20.3891 48.7913 20.3707 48.883 20.3585 49.0664C20.2974 49.5921 20.2974 50.2889 20.3585 51.1568C20.4441 52.257 20.6764 53.1494 21.0553 53.834C21.2142 54.1396 21.4037 54.3902 21.6238 54.5858C21.6971 54.6469 21.7888 54.7203 21.8988 54.8058C22.0211 54.8792 22.0944 54.9159 22.1189 54.9159C22.1311 54.9159 22.1616 54.9036 22.2105 54.8792Z" fill="white"/>
</svg>
