<svg width="924" height="928" viewBox="0 0 924 928" fill="none" xmlns="http://www.w3.org/2000/svg">
<path fill-rule="evenodd" clip-rule="evenodd" d="M413.82 166.653L431.983 164.398L425.162 183.694L413.82 166.653Z" fill="white"/>
<path d="M393.041 170.576L390.049 171.271L393.361 185.538L396.354 184.843L393.041 170.576Z" fill="white"/>
<path d="M362.487 179.177L359.584 180.181L364.37 194.024L367.273 193.02L362.487 179.177Z" fill="white"/>
<path d="M332.909 191.017L330.127 192.319L336.336 205.585L339.118 204.283L332.909 191.017Z" fill="white"/>
<path d="M304.733 205.908L302.102 207.493L309.661 220.039L312.292 218.454L304.733 205.908Z" fill="white"/>
<path d="M253.795 243.953L251.551 246.051L261.553 256.751L263.797 254.653L253.795 243.953Z" fill="white"/>
<path d="M231.518 266.816L229.506 269.137L240.572 278.733L242.585 276.412L231.518 266.816Z" fill="white"/>
<path d="M211.866 291.803L210.107 294.321L222.116 302.708L223.875 300.189L211.866 291.803Z" fill="white"/>
<path d="M194.842 318.706L193.355 321.395L206.175 328.48L207.661 325.791L194.842 318.706Z" fill="white"/>
<path d="M169.828 377.203L168.93 380.153L182.942 384.419L183.84 381.469L169.828 377.203Z" fill="white"/>
<path d="M162.015 408.093L161.432 411.109L175.812 413.892L176.396 410.876L162.015 408.093Z" fill="white"/>
<path d="M170.869 471.124L156.225 471.4L156.283 474.472L170.927 474.196L170.869 471.124Z" fill="white"/>
<path d="M177.99 531.232L163.723 534.547L164.418 537.539L178.685 534.224L177.99 531.232Z" fill="white"/>
<path d="M186.224 560.388L172.381 565.176L173.385 568.079L187.228 563.291L186.224 560.388Z" fill="white"/>
<path d="M197.518 588.555L184.252 594.764L185.554 597.546L198.82 591.337L197.518 588.555Z" fill="white"/>
<path d="M211.55 615.387L199.008 622.952L200.595 625.583L213.137 618.017L211.55 615.387Z" fill="white"/>
<path fill-rule="evenodd" clip-rule="evenodd" d="M295.902 705.52L287.515 717.539L284.992 715.763L293.379 703.756L295.902 705.52Z" fill="white"/>
<path d="M318.972 719.913L311.891 732.734L314.58 734.219L321.661 721.398L318.972 719.913Z" fill="white"/>
<path fill-rule="evenodd" clip-rule="evenodd" d="M377.512 744.686L373.236 758.702L370.293 757.814L374.568 743.786L377.512 744.686Z" fill="white"/>
<path fill-rule="evenodd" clip-rule="evenodd" d="M467.324 756.728L467.604 771.375L464.532 771.433L464.252 756.798L467.324 756.728Z" fill="white"/>
<path d="M611.092 714.487L608.461 716.073L616.031 728.626L618.661 727.04L611.092 714.487Z" fill="white"/>
<path fill-rule="evenodd" clip-rule="evenodd" d="M659.301 677.754L669.3 688.453L667.045 690.555L657.047 679.856L659.301 677.754Z" fill="white"/>
<path fill-rule="evenodd" clip-rule="evenodd" d="M680.253 655.768L691.315 665.369L689.306 667.681L678.232 658.092L680.253 655.768Z" fill="white"/>
<path d="M698.681 631.744L696.916 634.272L708.937 642.661L710.702 640.133L698.681 631.744Z" fill="white"/>
<path d="M714.617 606.058L713.131 608.746L725.95 615.831L727.436 613.143L714.617 606.058Z" fill="white"/>
<path d="M737.945 550.113L737.051 553.052L751.063 557.317L751.958 554.378L737.945 550.113Z" fill="white"/>
<path fill-rule="evenodd" clip-rule="evenodd" d="M742.139 400.265L756.401 396.948L757.101 399.95L742.84 403.256L742.139 400.265Z" fill="white"/>
<path d="M747.323 366.336L733.48 371.124L734.485 374.027L748.327 369.239L747.323 366.336Z" fill="white"/>
<path fill-rule="evenodd" clip-rule="evenodd" d="M722.027 343.156L735.285 336.954L736.593 339.734L723.324 345.948L722.027 343.156Z" fill="white"/>
<path fill-rule="evenodd" clip-rule="evenodd" d="M707.568 316.457L720.113 308.899L721.713 311.539L709.157 319.096L707.568 316.457Z" fill="white"/>
<path fill-rule="evenodd" clip-rule="evenodd" d="M670.883 268.348L681.582 258.338L683.685 260.592L672.985 270.591L670.883 268.348Z" fill="white"/>
<path fill-rule="evenodd" clip-rule="evenodd" d="M648.955 247.472L658.556 236.411L660.881 238.42L651.291 249.493L648.955 247.472Z" fill="white"/>
<path d="M633.332 216.964L624.945 228.973L627.473 230.738L635.86 218.73L633.332 216.964Z" fill="white"/>
<path d="M606.207 200.253L599.119 213.071L601.808 214.558L608.895 201.74L606.207 200.253Z" fill="white"/>
<path fill-rule="evenodd" clip-rule="evenodd" d="M543.215 189.795L547.478 175.778L550.41 176.678L546.158 190.682L543.215 189.795Z" fill="white"/>
<path d="M516.629 168.255L513.85 182.636L516.866 183.219L519.646 168.838L516.629 168.255Z" fill="white"/>
<path d="M485.058 164.041L483.799 178.634L486.859 178.898L488.118 164.305L485.058 164.041Z" fill="white"/>
<path d="M456.226 163.062L453.154 163.119L453.425 177.764L456.497 177.707L456.226 163.062Z" fill="white"/>
<path fill-rule="evenodd" clip-rule="evenodd" d="M269.791 230.223L284.392 219.186L288.129 239.311L269.791 230.223Z" fill="white"/>
<path fill-rule="evenodd" clip-rule="evenodd" d="M159.819 513.736L157.564 495.573L176.861 502.395L159.819 513.736Z" fill="white"/>
<path fill-rule="evenodd" clip-rule="evenodd" d="M350.404 750.785L333.549 743.66L349.107 730.368L350.404 750.785Z" fill="white"/>
<path fill-rule="evenodd" clip-rule="evenodd" d="M506.872 767.823L488.709 770.077L495.542 750.793L506.872 767.823Z" fill="white"/>
<path fill-rule="evenodd" clip-rule="evenodd" d="M650.901 704.302L636.3 715.328L632.562 695.203L650.901 704.302Z" fill="white"/>
<path fill-rule="evenodd" clip-rule="evenodd" d="M743.96 577.255L736.835 594.11L723.543 578.551L743.96 577.255Z" fill="white"/>
<path fill-rule="evenodd" clip-rule="evenodd" d="M697.423 276.694L708.45 291.295L688.348 295.032L697.423 276.694Z" fill="white"/>
<path fill-rule="evenodd" clip-rule="evenodd" d="M570.408 183.662L587.263 190.787L571.705 204.079L570.408 183.662Z" fill="white"/>
<path fill-rule="evenodd" clip-rule="evenodd" d="M654.441 218.283C590.724 168.631 508.061 143.284 421.555 154.007C335.05 164.741 261.089 209.523 211.435 273.239C161.781 336.955 136.435 419.628 147.157 506.12C157.892 592.624 202.663 666.584 266.38 716.225C330.097 765.878 412.772 791.224 499.266 780.502C585.771 769.768 659.732 724.997 709.386 661.269C759.04 597.554 784.386 514.892 773.652 428.388C762.918 341.884 718.146 267.925 654.429 218.272L654.441 218.283ZM421.368 152.488C508.295 141.708 591.355 167.171 655.387 217.069C719.419 266.967 764.413 341.288 775.205 428.201C785.987 515.138 760.511 598.196 710.612 662.227C660.713 726.259 586.402 771.251 499.464 782.032C412.538 792.824 329.478 767.338 265.446 717.452C201.425 667.553 156.42 593.244 145.639 506.307C134.858 419.383 160.321 336.324 210.22 272.293C260.119 208.262 334.442 163.269 421.368 152.488Z" fill="white"/>
<path fill-rule="evenodd" clip-rule="evenodd" d="M652.109 221.178C620.023 196.171 583.077 177.401 543.282 166.41C504.958 155.839 463.936 152.463 421.98 157.661C380.024 162.871 341.081 176.163 306.495 195.786C270.589 216.156 239.356 243.383 214.336 275.48C189.328 307.577 170.546 344.51 159.566 384.317C148.984 422.64 145.62 463.661 150.818 505.616C156.027 547.56 169.32 586.526 188.943 621.088C209.314 657.004 236.541 688.238 268.639 713.245C331.608 762.314 413.29 787.356 498.768 776.751C540.724 771.541 579.678 758.249 614.253 738.626C650.158 718.256 681.392 691.029 706.4 658.932C731.408 626.834 750.178 589.901 761.17 550.107C771.741 511.784 775.116 470.751 769.919 428.807C764.709 386.851 751.417 347.898 731.793 313.324C711.423 277.419 684.195 246.186 652.097 221.178H652.109ZM420.871 148.737C463.983 143.388 506.185 146.869 545.641 157.755C586.652 169.073 624.66 188.369 657.646 214.077C690.643 239.785 718.653 271.918 739.643 308.921C759.838 344.522 773.528 384.585 778.877 427.697C784.227 470.809 780.746 513.01 769.86 552.466C758.553 593.475 739.246 631.483 713.537 664.468C687.828 697.453 655.683 725.462 618.703 746.464C583.101 766.659 543.025 780.348 499.912 785.686C456.8 791.036 414.598 787.555 375.141 776.68C334.143 765.362 296.135 746.055 263.137 720.358C230.152 694.65 202.142 662.506 181.152 625.514C160.945 589.925 147.267 549.85 141.917 506.738C136.567 463.626 140.048 421.437 150.934 381.969C162.253 340.96 181.549 302.952 207.258 269.967C232.967 236.982 265.111 208.973 302.103 187.983C337.694 167.765 377.758 154.087 420.871 148.737Z" fill="white"/>
<path fill-rule="evenodd" clip-rule="evenodd" d="M637.852 239.428C579.555 193.991 503.924 170.806 424.777 180.617C345.63 190.429 277.965 231.403 232.527 289.711C187.09 348.007 163.905 423.649 173.728 502.794C183.551 581.928 224.515 649.615 282.812 695.04C341.109 740.476 416.74 763.662 495.887 753.838C575.023 744.027 642.711 703.053 688.136 644.756C733.574 586.46 756.771 510.83 746.948 431.685C737.124 352.539 696.149 284.864 637.852 239.439V239.428ZM424.59 179.087C504.157 169.217 580.185 192.531 638.81 238.201C697.422 283.871 738.608 351.909 748.478 431.475C758.348 511.041 735.034 587.068 689.363 645.691C643.692 704.302 575.653 745.475 496.086 755.357C416.518 765.227 340.478 741.901 281.877 696.243C223.265 650.573 182.079 582.536 172.209 502.97C162.339 423.404 185.654 347.365 231.324 288.753C276.995 230.142 345.034 188.957 424.601 179.087H424.59Z" fill="white"/>
<path fill-rule="evenodd" clip-rule="evenodd" d="M646.905 227.872C585.652 180.135 506.178 155.77 423.025 166.083C339.872 176.397 268.761 219.451 221.023 280.702C173.285 341.953 148.919 421.426 159.233 504.578C169.547 587.729 212.601 658.827 273.853 706.565C335.106 754.313 414.58 778.679 497.733 768.353C580.887 758.028 651.997 714.986 699.736 653.735C747.474 592.483 771.839 513.011 761.514 429.859C751.2 346.707 708.157 275.598 646.893 227.86L646.905 227.872ZM422.826 164.565C506.412 154.193 586.283 178.686 647.851 226.657C709.419 274.628 752.672 346.1 763.044 429.672C773.416 513.256 748.934 593.126 700.95 654.681C652.979 716.259 581.517 759.511 497.932 769.883C414.358 780.255 334.487 755.762 272.919 707.791C211.351 659.808 168.087 588.36 157.714 504.765C147.342 421.192 171.836 341.323 219.808 279.756C267.791 218.189 339.253 174.925 422.826 164.565Z" fill="white"/>
<path d="M556.472 740.417L553.568 741.421L558.356 755.263L561.26 754.259L556.472 740.417Z" fill="white"/>
<path d="M527.373 748.938L524.381 749.633L527.693 763.9L530.686 763.206L527.373 748.938Z" fill="white"/>
<path fill-rule="evenodd" clip-rule="evenodd" d="M584.417 728.881L590.619 742.15L587.839 743.446L581.625 730.177L584.417 728.881Z" fill="white"/>
<path d="M434.005 755.642L432.744 770.234L435.805 770.499L437.066 755.906L434.005 755.642Z" fill="white"/>
<path d="M403.955 751.302L401.178 765.684L404.194 766.266L406.971 751.885L403.955 751.302Z" fill="white"/>
<path d="M269.565 684.983L259.971 696.051L262.292 698.063L271.886 686.995L269.565 684.983Z" fill="white"/>
<path fill-rule="evenodd" clip-rule="evenodd" d="M223.347 657.787L212.309 643.187L232.434 639.449L223.347 657.787Z" fill="white"/>
<path d="M247.821 663.825L237.121 673.827L239.219 676.071L249.919 666.069L247.821 663.825Z" fill="white"/>
<path d="M157.44 439.54L157.176 442.601L171.769 443.859L172.033 440.799L157.44 439.54Z" fill="white"/>
<path fill-rule="evenodd" clip-rule="evenodd" d="M176.812 357.245L183.938 340.391L197.23 355.937L176.812 357.245Z" fill="white"/>
<path fill-rule="evenodd" clip-rule="evenodd" d="M760.995 420.734L763.249 438.897L743.953 432.064L760.995 420.734Z" fill="white"/>
<path fill-rule="evenodd" clip-rule="evenodd" d="M749.846 460.274L764.493 460.005L764.551 463.077L749.904 463.357L749.846 460.274Z" fill="white"/>
<path d="M749.008 490.578L748.744 493.639L763.338 494.895L763.601 491.834L749.008 490.578Z" fill="white"/>
<path d="M744.982 520.626L744.4 523.643L758.783 526.415L759.364 523.398L744.982 520.626Z" fill="white"/>
<path d="M592.47 175.466L530.946 154.9L541.296 137.232L594.826 155.126L592.47 175.466Z" fill="white"/>
<path d="M537.299 173.412L576.269 186.438L567.008 204.47L533.855 193.388L537.299 173.412Z" fill="white"/>
<path d="M331.471 751.715L392.995 772.28L382.651 789.93L329.121 772.037L331.471 751.715Z" fill="white"/>
<path d="M186.643 621.048L224.336 673.858L205.582 682.071L172.798 636.119L186.643 621.048Z" fill="white"/>
<path d="M526.069 772.31L587.943 752.781L589.943 773.149L536.097 790.144L526.069 772.31Z" fill="white"/>
<path d="M227.116 251.98L188.531 304.15L174.937 288.855L208.502 243.457L227.116 251.98Z" fill="white"/>
<path d="M147.557 430.463L147.019 495.332L127.021 490.948L127.498 434.51L147.557 430.463Z" fill="white"/>
<path d="M696.789 675.185L735.369 623.033L748.968 638.311L715.403 683.709L696.789 675.185Z" fill="white"/>
<path d="M776.319 496.702L776.857 431.834L796.838 436.211L796.373 492.673L776.319 496.702Z" fill="white"/>
<path d="M397.801 154.865L335.927 174.395L333.927 154.027L387.749 137.044L397.801 154.865Z" fill="white"/>
<path d="M737.283 306.097L699.591 253.287L718.321 245.086L751.129 291.026L737.283 306.097Z" fill="white"/>
<path d="M673.997 228.773L621.65 190.46L636.885 176.78L682.431 210.115L673.997 228.773Z" fill="white"/>
<path d="M250.006 698.312L302.353 736.624L287.129 750.289L241.583 716.955L250.006 698.312Z" fill="white"/>
<path d="M151.78 529.723L171.612 591.499L151.248 593.615L134.004 539.865L151.78 529.723Z" fill="white"/>
<path d="M429.082 777.134L493.965 777.361L489.671 797.37L433.207 797.173L429.082 777.134Z" fill="white"/>
<path d="M302.751 190.506L250.117 228.459L241.824 209.752L287.613 176.722L302.751 190.506Z" fill="white"/>
<path d="M172.535 336.292L152.281 397.92L134.565 387.658L152.196 334.042L172.535 336.292Z" fill="white"/>
<path d="M621.234 736.567L673.856 698.629L682.161 717.321L636.372 750.351L621.234 736.567Z" fill="white"/>
<path d="M751.39 590.781L771.645 529.153L789.345 539.403L771.719 593.045L751.39 590.781Z" fill="white"/>
<path d="M494.896 149.951L430.013 149.724L434.307 129.715L490.745 129.916L494.896 149.951Z" fill="white"/>
<path d="M772.229 397.288L752.397 335.512L772.735 333.4L790.005 387.146L772.229 397.288Z" fill="white"/>
<path d="M487.035 103.757C510.487 87.6541 530.973 91.7826 546.938 115.394C563.19 139.435 569.941 166.99 574.748 194.914C578.338 215.811 579.176 237.168 582.429 258.137C583.247 263.371 587.656 269.292 592.125 272.519C617.275 290.67 640.358 310.952 656.579 337.585C702.307 412.67 709.579 490.613 671.962 571.352C669.868 575.853 667.752 580.355 664.659 586.97C696.643 582.288 725.14 573.642 748.516 553.272C761.494 541.953 762.343 526.536 757.301 510.792C752.412 495.56 743.882 482.602 731.937 471.949C719.888 461.214 714.315 447.816 715.501 431.713C716.166 422.76 723.11 418.314 729.901 423.006C762.783 445.685 795.379 468.897 818.432 502.403C824.098 510.639 827.82 520.668 830.5 530.409C834.018 543.172 828.23 553.364 817.89 561.088C797.751 576.115 774.074 580.745 750.019 583.839C721.985 587.445 693.828 590.088 665.855 594.072C661.233 594.728 656.088 599.256 653.204 603.404C618.287 653.751 570.769 685.27 511.5 699.334C443.507 715.467 381.302 700.994 323.639 663.113C320.928 661.331 318.218 659.559 315.457 657.879C315.038 657.623 314.331 657.848 312.685 657.848C319.506 685.341 326.666 712.323 347.857 732.585C361.726 745.85 378.715 747.601 395.713 736.426C411.699 725.926 427.982 725.045 445.553 729.747C451.443 731.325 454.931 734.08 451.443 740.349C437.125 766.06 421.262 790.543 395.836 806.983C363.619 827.808 341.507 822.348 327.372 786.558C318.607 764.37 314.086 740.257 309.78 716.625C306.467 698.412 306.374 679.605 304.983 661.055C304.288 651.774 300.555 644.081 293.958 637.617C255.768 600.228 232.643 555.034 224.973 502.146C218.407 456.932 224.339 413.336 243.362 371.635C244.61 368.9 244.63 365.612 245.224 362.59C242.258 362.723 238.975 362.067 236.377 363.122C217.671 370.753 198.033 376.91 180.728 387.03C154.064 402.621 148.194 426.785 163.341 453.726C169.549 464.758 178.581 474.664 187.929 483.36C201.613 496.103 206.86 511.673 206.553 529.374C206.41 537.354 199.997 534.691 196.11 532.365C173.61 518.905 150.935 505.691 129.058 491.258C112.479 480.318 98.0683 466.602 87.6465 449.312C70.9448 421.582 76.007 400.378 103.417 383.261C123.074 370.989 145.238 365.877 167.646 362.497C192.387 358.758 217.343 356.423 242.258 353.965C248.752 353.319 253.048 351.096 256.556 345.473C293.304 286.593 345.587 250.096 413.55 235.652C466.56 224.385 516.491 233.727 564.848 256.058C567.026 257.061 569.542 257.328 571.895 257.942C571.935 255.504 572.498 252.933 571.945 250.639C566.289 227.304 558.547 204.829 544.096 185.213C529.419 165.29 511.889 160.896 490.002 172.112C477.463 178.535 466.755 187.139 459.217 199.339C448.038 217.429 430.467 220.369 411.331 219.15C404.929 218.741 402.699 214.233 405.501 209.224C427.429 170.022 448.631 130.123 487.035 103.757ZM461.159 247.832C343.398 247.259 239.548 340.115 238.433 467.35C237.348 589.862 336.485 690.043 457.856 690.453C580.158 690.873 678.508 592.412 678.794 469.275C679.776 346.272 579.063 248.406 461.159 247.832Z" fill="white"/>
<path d="M487.035 103.757C510.487 87.6541 530.973 91.7826 546.938 115.394C563.19 139.435 569.941 166.99 574.748 194.914C578.338 215.811 579.176 237.168 582.429 258.137C583.247 263.371 587.656 269.292 592.125 272.519C617.275 290.67 640.358 310.952 656.579 337.585C702.307 412.67 709.579 490.613 671.962 571.352C669.868 575.853 667.752 580.355 664.659 586.97C696.643 582.288 725.14 573.642 748.516 553.272C761.494 541.953 762.343 526.536 757.301 510.792C752.412 495.56 743.882 482.602 731.937 471.949C719.888 461.214 714.315 447.816 715.501 431.713C716.166 422.76 723.11 418.314 729.901 423.006C762.783 445.685 795.379 468.897 818.432 502.403C824.098 510.639 827.82 520.668 830.5 530.409C834.018 543.172 828.23 553.364 817.89 561.088C797.751 576.115 774.074 580.745 750.019 583.839C721.985 587.445 693.828 590.088 665.855 594.072C661.233 594.728 656.088 599.256 653.204 603.404C618.287 653.751 570.769 685.27 511.5 699.334C443.507 715.467 381.302 700.994 323.639 663.113C320.928 661.331 318.218 659.559 315.457 657.879C315.038 657.623 314.331 657.848 312.685 657.848C319.506 685.341 326.666 712.323 347.857 732.585C361.726 745.85 378.715 747.601 395.713 736.426C411.699 725.926 427.982 725.045 445.553 729.747C451.443 731.325 454.931 734.08 451.443 740.349C437.125 766.06 421.262 790.543 395.836 806.983C363.619 827.808 341.507 822.348 327.372 786.558C318.607 764.37 314.086 740.257 309.78 716.625C306.467 698.412 306.374 679.605 304.983 661.055C304.288 651.774 300.555 644.081 293.958 637.617C255.768 600.228 232.643 555.034 224.973 502.146C218.407 456.932 224.339 413.336 243.362 371.635C244.61 368.9 244.63 365.612 245.224 362.59C242.258 362.723 238.975 362.067 236.377 363.122C217.671 370.753 198.033 376.91 180.728 387.03C154.064 402.621 148.194 426.785 163.341 453.726C169.549 464.758 178.581 474.664 187.929 483.36C201.613 496.103 206.86 511.673 206.553 529.374C206.41 537.354 199.997 534.691 196.11 532.365C173.61 518.905 150.935 505.691 129.058 491.258C112.479 480.318 98.0683 466.602 87.6465 449.312C70.9448 421.582 76.007 400.378 103.417 383.261C123.074 370.989 145.238 365.877 167.646 362.497C192.387 358.758 217.343 356.423 242.258 353.965C248.752 353.319 253.048 351.096 256.556 345.473C293.304 286.593 345.587 250.096 413.55 235.652C466.56 224.385 516.491 233.727 564.848 256.058C567.026 257.061 569.542 257.328 571.895 257.942C571.935 255.504 572.498 252.933 571.945 250.639C566.289 227.304 558.547 204.829 544.096 185.213C529.419 165.29 511.889 160.896 490.002 172.112C477.463 178.535 466.755 187.139 459.217 199.339C448.038 217.429 430.467 220.369 411.331 219.15C404.929 218.741 402.699 214.233 405.501 209.224C427.429 170.022 448.631 130.123 487.035 103.757ZM461.159 247.832C343.398 247.259 239.548 340.115 238.433 467.35C237.348 589.862 336.485 690.043 457.856 690.453C580.158 690.873 678.508 592.412 678.794 469.275C679.776 346.272 579.063 248.406 461.159 247.832Z" stroke="white"/>
<path d="M484.244 400.242C484.244 402.595 484.353 404.948 484.226 407.291C483.855 413.726 480.471 417.87 473.991 417.771C467.385 417.671 465.231 412.712 465.511 406.893C466.597 384.468 458.326 365.12 446.245 346.967C439.828 337.329 438.236 336.343 428.96 342.795C411.874 354.677 394.951 366.885 378.869 380.061C365.503 391.011 362.028 405.744 367.322 422.486C370.851 433.635 374.236 444.865 376.797 456.259C377.657 460.087 377.096 465.679 374.752 468.304C372.996 470.276 366.878 469.969 363.539 468.62C351.204 463.607 340.716 467.344 330.308 473.742C314.598 483.407 314.245 484.674 323.919 500.792C332.517 515.117 343.241 525.307 361.865 522.628C364.598 522.239 369.485 524.981 370.471 527.433C371.611 530.293 370.725 535.424 368.679 537.85C360.444 547.605 359.449 558.311 364.064 569.333C367.765 578.165 372.887 586.437 377.883 594.663C378.697 596.011 382.688 596.934 384.181 596.129C399.349 588.002 414.869 580.283 420.408 561.641C421.222 558.89 427.141 555.216 429.457 555.94C432.697 556.953 436.417 561.406 437.041 564.89C438.706 574.328 433.665 582.011 427.647 588.799C414.851 603.224 398.118 611.794 380.688 618.943C378.037 620.029 372.661 618.327 370.471 616.056C356.308 601.35 345.838 584.4 342.453 563.876C341.838 560.166 342.535 556.139 343.168 552.347C344.145 546.501 342.86 541.668 337.096 539.469C321.223 533.415 312.707 520.547 305.675 506.276C302.571 499.977 300.146 493.344 296.996 487.072C293.096 479.317 295.476 473.77 301.983 468.865C314.797 459.218 328.245 450.756 344.236 447.752C350.951 446.494 351.666 443.716 350.58 437.499C348.408 425.056 345.195 412.133 346.67 399.916C347.856 390.061 353.738 379.681 360.254 371.772C380.905 346.714 408.724 330.94 437.448 316.931C440.435 315.474 447.032 316.461 449.077 318.814C469.358 342.153 483.312 368.469 484.253 400.242H484.244Z" fill="white"/>
<path d="M528.592 459.87C528.51 475.544 523.271 486.304 511.922 493.869C505.117 498.412 499.66 498.295 495.931 493.562C492.049 488.639 493.316 484.422 500.429 478.603C509.415 471.246 511.904 462.676 507.859 453.011C504.601 445.219 496.8 440.875 487.47 441.653C473.66 442.803 465.922 455.698 472.013 468.431C480.112 485.372 488.882 501.987 497.253 518.801C498.501 521.317 500.311 524.348 499.832 526.738C499.198 529.905 497.207 534.041 494.628 535.235C492.04 536.43 487.542 535.353 484.773 533.742C482.366 532.339 480.963 528.928 479.533 526.195C470.737 509.353 461.081 492.865 453.57 475.454C444.158 453.626 455.09 431.274 477.144 423.916C498.673 416.731 521.081 428.866 527.298 451.246C528.266 454.712 528.384 458.404 528.592 459.87Z" fill="white"/>
<path d="M411.711 543.305C384.326 542.246 365.403 519.251 372.091 493.016C373.937 485.768 379.041 477.94 384.978 473.469C395.059 465.877 406.923 460.61 418.172 454.619C423.765 451.642 429.213 452.275 432.073 458.447C434.715 464.157 431.973 468.456 426.634 471.306C418.127 475.858 409.575 480.32 401.222 485.134C390.109 491.541 386.996 502.147 392.67 513.143C397.557 522.608 408.715 526.029 419.502 521.079C428.498 516.952 437.34 512.5 446.244 508.183C451.629 505.577 456.217 505.586 459.448 511.64C462.688 517.704 460.181 521.658 454.95 524.518C445.367 529.749 435.837 535.133 425.964 539.766C421.629 541.803 416.498 542.174 411.738 543.296L411.711 543.305Z" fill="white"/>
<path d="M570.43 460.714C555.652 459.8 544.792 453.276 537.371 441.484C531.706 432.48 526.937 422.878 522.15 413.358C519.407 407.91 518.394 401.883 525.027 398.408C531.263 395.15 535.588 399.304 538.557 404.136C543.733 412.562 547.842 421.666 553.344 429.846C562.529 443.493 575.869 444.489 585.914 432.914C591.344 426.652 591.308 419.566 588.303 412.426C584.068 402.363 579.461 392.444 574.991 382.481C572.602 377.16 574.52 373.296 579.244 370.698C584.068 368.047 588.33 368.517 590.946 373.983C597 386.671 603.507 399.177 608.873 412.154C614.294 425.258 604.403 446.488 589.353 454.371C583.534 457.42 576.756 458.651 570.421 460.714H570.43Z" fill="white"/>
<path d="M580.569 421.428C578.324 423.545 575.854 427.21 572.46 428.595C570.261 429.491 565.211 427.979 564.017 425.989C558.017 416.034 552.533 405.736 547.573 395.22C545.175 390.134 548.116 385.528 553.166 384.279C556.134 383.546 561.564 384.632 562.895 386.768C569.067 396.65 574.207 407.174 579.673 417.491C580.026 418.152 580.035 418.993 580.569 421.437V421.428Z" fill="white"/>
<path d="M446.814 491.691C445.846 492.696 444.19 495.383 441.782 496.732C432.715 501.818 423.393 506.442 414.19 511.293C408.932 514.071 404.706 512.044 402.226 507.6C399.602 502.885 399.909 497.99 405.638 495.039C414.887 490.288 423.982 485.203 433.429 480.868C440.353 477.691 447.04 482.406 446.814 491.682V491.691Z" fill="white"/>
</svg>
