<svg width="154" height="93" viewBox="0 0 154 93" fill="none" xmlns="http://www.w3.org/2000/svg">
<path fill-rule="evenodd" clip-rule="evenodd" d="M41.5117 16.7173L43.3337 16.4912L42.6494 18.4269L41.5117 16.7173Z" fill="white"/>
<path d="M39.4271 17.111L39.127 17.1807L39.4592 18.6119L39.7594 18.5422L39.4271 17.111Z" fill="white"/>
<path d="M36.3616 17.9735L36.0703 18.0742L36.5504 19.4629L36.8416 19.3622L36.3616 17.9735Z" fill="white"/>
<path d="M33.3943 19.1614L33.1152 19.292L33.738 20.6228L34.0171 20.4922L33.3943 19.1614Z" fill="white"/>
<path d="M30.5686 20.6554L30.3047 20.8145L31.063 22.073L31.3269 21.9139L30.5686 20.6554Z" fill="white"/>
<path d="M25.4595 24.4712L25.2344 24.6816L26.2377 25.755L26.4629 25.5446L25.4595 24.4712Z" fill="white"/>
<path d="M23.2253 26.7652L23.0234 26.998L24.1335 27.9606L24.3354 27.7278L23.2253 26.7652Z" fill="white"/>
<path d="M21.2526 29.2718L21.0762 29.5244L22.2808 30.3657L22.4572 30.1131L21.2526 29.2718Z" fill="white"/>
<path d="M19.5456 31.9705L19.3965 32.2402L20.6824 32.951L20.8315 32.6813L19.5456 31.9705Z" fill="white"/>
<path d="M17.0354 37.8388L16.9453 38.1348L18.3509 38.5626L18.441 38.2667L17.0354 37.8388Z" fill="white"/>
<path d="M16.2519 40.9377L16.1934 41.2402L17.6359 41.5193L17.6944 41.2168L16.2519 40.9377Z" fill="white"/>
<path d="M17.1409 47.2604L15.6719 47.2881L15.6777 47.5962L17.1467 47.5685L17.1409 47.2604Z" fill="white"/>
<path d="M17.855 53.2896L16.4238 53.6221L16.4936 53.9222L17.9247 53.5897L17.855 53.2896Z" fill="white"/>
<path d="M18.6815 56.215L17.293 56.6953L17.3937 56.9865L18.7823 56.5062L18.6815 56.215Z" fill="white"/>
<path d="M19.8132 59.0403L18.4824 59.6631L18.613 59.9422L19.9438 59.3194L19.8132 59.0403Z" fill="white"/>
<path d="M21.221 61.7323L19.9629 62.4912L20.1221 62.7551L21.3802 61.9961L21.221 61.7323Z" fill="white"/>
<path fill-rule="evenodd" clip-rule="evenodd" d="M29.6822 70.7736L28.841 71.9793L28.5879 71.8012L29.4292 70.5967L29.6822 70.7736Z" fill="white"/>
<path d="M31.9974 72.2177L31.2871 73.5039L31.5569 73.6529L32.2672 72.3667L31.9974 72.2177Z" fill="white"/>
<path fill-rule="evenodd" clip-rule="evenodd" d="M37.8686 74.7025L37.4398 76.1086L37.1445 76.0195L37.5734 74.6123L37.8686 74.7025Z" fill="white"/>
<path fill-rule="evenodd" clip-rule="evenodd" d="M46.8785 75.9102L46.9066 77.3795L46.5984 77.3853L46.5703 75.9172L46.8785 75.9102Z" fill="white"/>
<path d="M61.301 71.6729L61.0371 71.832L61.7964 73.0913L62.0603 72.9322L61.301 71.6729Z" fill="white"/>
<path fill-rule="evenodd" clip-rule="evenodd" d="M66.1363 67.9883L67.1393 69.0616L66.9131 69.2725L65.9102 68.1992L66.1363 67.9883Z" fill="white"/>
<path fill-rule="evenodd" clip-rule="evenodd" d="M68.2379 65.7832L69.3474 66.7463L69.1459 66.9783L68.0352 66.0164L68.2379 65.7832Z" fill="white"/>
<path d="M70.0872 63.3733L69.9102 63.627L71.116 64.4685L71.293 64.2148L70.0872 63.3733Z" fill="white"/>
<path d="M71.6842 60.7957L71.5352 61.0654L72.8211 61.7762L72.9702 61.5065L71.6842 60.7957Z" fill="white"/>
<path d="M74.0253 55.1837L73.9355 55.4785L75.3412 55.9064L75.4309 55.6116L74.0253 55.1837Z" fill="white"/>
<path fill-rule="evenodd" clip-rule="evenodd" d="M74.4453 40.1521L75.8759 39.8193L75.9463 40.1205L74.5156 40.4521L74.4453 40.1521Z" fill="white"/>
<path d="M74.9648 36.7482L73.5762 37.2285L73.6769 37.5197L75.0655 37.0394L74.9648 36.7482Z" fill="white"/>
<path fill-rule="evenodd" clip-rule="evenodd" d="M72.4277 34.423L73.7576 33.8008L73.8888 34.0796L72.5578 34.703L72.4277 34.423Z" fill="white"/>
<path fill-rule="evenodd" clip-rule="evenodd" d="M70.9785 31.7444L72.2369 30.9863L72.3974 31.2511L71.1379 32.0092L70.9785 31.7444Z" fill="white"/>
<path fill-rule="evenodd" clip-rule="evenodd" d="M67.2969 26.9192L68.3701 25.915L68.581 26.1412L67.5078 27.1442L67.2969 26.9192Z" fill="white"/>
<path fill-rule="evenodd" clip-rule="evenodd" d="M65.0977 24.8244L66.0608 23.7148L66.2939 23.9164L65.332 25.0272L65.0977 24.8244Z" fill="white"/>
<path d="M63.5307 21.7641L62.6895 22.9688L62.9431 23.1459L63.7843 21.9412L63.5307 21.7641Z" fill="white"/>
<path d="M60.8106 20.0882L60.0996 21.374L60.3693 21.5231L61.0803 20.2373L60.8106 20.0882Z" fill="white"/>
<path fill-rule="evenodd" clip-rule="evenodd" d="M54.4902 19.0389L54.9179 17.6328L55.212 17.723L54.7855 19.1279L54.4902 19.0389Z" fill="white"/>
<path d="M51.8238 16.8777L51.5449 18.3203L51.8475 18.3788L52.1263 16.9362L51.8238 16.8777Z" fill="white"/>
<path d="M48.6575 16.4551L48.5312 17.9189L48.8383 17.9454L48.9645 16.4815L48.6575 16.4551Z" fill="white"/>
<path d="M45.7651 16.3576L45.457 16.3633L45.4842 17.8323L45.7923 17.8266L45.7651 16.3576Z" fill="white"/>
<path fill-rule="evenodd" clip-rule="evenodd" d="M27.0645 23.0946L28.5291 21.9873L28.904 24.0061L27.0645 23.0946Z" fill="white"/>
<path fill-rule="evenodd" clip-rule="evenodd" d="M16.0328 51.5349L15.8066 49.7129L17.7423 50.3972L16.0328 51.5349Z" fill="white"/>
<path fill-rule="evenodd" clip-rule="evenodd" d="M35.1497 75.3147L33.459 74.6L35.0197 73.2666L35.1497 75.3147Z" fill="white"/>
<path fill-rule="evenodd" clip-rule="evenodd" d="M50.8454 77.0238L49.0234 77.2499L49.7089 75.3154L50.8454 77.0238Z" fill="white"/>
<path fill-rule="evenodd" clip-rule="evenodd" d="M65.2927 70.651L63.8281 71.7571L63.4531 69.7383L65.2927 70.651Z" fill="white"/>
<path fill-rule="evenodd" clip-rule="evenodd" d="M74.6282 57.9072L73.9135 59.598L72.5801 58.0373L74.6282 57.9072Z" fill="white"/>
<path fill-rule="evenodd" clip-rule="evenodd" d="M69.9592 27.7559L71.0653 29.2205L69.0488 29.5954L69.9592 27.7559Z" fill="white"/>
<path fill-rule="evenodd" clip-rule="evenodd" d="M57.2188 18.4238L58.9095 19.1386L57.3488 20.472L57.2188 18.4238Z" fill="white"/>
<path fill-rule="evenodd" clip-rule="evenodd" d="M65.6493 21.8963C59.2577 16.9154 50.9657 14.3728 42.2882 15.4484C33.6106 16.5252 26.1915 21.0175 21.2107 27.4092C16.2298 33.8008 13.6873 42.0941 14.7629 50.7706C15.8396 59.4482 20.3307 66.8674 26.7223 71.8472C33.1138 76.8281 41.407 79.3707 50.0834 78.2951C58.7609 77.2183 66.18 72.7271 71.1609 66.3343C76.1417 59.9427 78.6843 51.6505 77.6075 42.9729C76.5307 34.2953 72.0397 26.876 65.6481 21.8951L65.6493 21.8963ZM42.2694 15.2961C50.9891 14.2146 59.321 16.7689 65.7442 21.7744C72.1674 26.78 76.6807 34.2355 77.7634 42.9541C78.8448 51.6751 76.2894 60.0071 71.2839 66.4304C66.2785 72.8537 58.8242 77.3671 50.1033 78.4485C41.3836 79.5312 33.0517 76.9745 26.6285 71.9702C20.2065 66.9647 15.692 59.5103 14.6105 50.7893C13.5291 42.0695 16.0834 33.7375 21.0888 27.3143C26.0943 20.891 33.5497 16.3776 42.2694 15.2961Z" fill="white"/>
<path fill-rule="evenodd" clip-rule="evenodd" d="M65.4144 22.1867C62.1958 19.6781 58.4897 17.7952 54.4978 16.6926C50.6535 15.6322 46.5385 15.2936 42.3298 15.815C38.1211 16.3376 34.2147 17.671 30.7453 19.6395C27.1435 21.6829 24.0105 24.4141 21.5007 27.634C18.9921 30.8538 17.108 34.5587 16.0067 38.5519C14.9451 42.3963 14.6077 46.5113 15.1291 50.72C15.6516 54.9276 16.985 58.8364 18.9534 62.3035C20.9969 65.9065 23.7281 69.0396 26.9479 71.5482C33.2644 76.4706 41.4581 78.9827 50.0325 77.9188C54.2412 77.3962 58.1487 76.0628 61.6169 74.0943C65.2187 72.0509 68.3518 69.3197 70.8604 66.0998C73.369 62.88 75.2519 59.175 76.3544 55.1831C77.4148 51.3387 77.7534 47.2225 77.232 43.0149C76.7095 38.8062 75.3761 34.8985 73.4076 31.4303C71.3642 27.8285 68.633 24.6953 65.4132 22.1867H65.4144ZM42.2185 14.9198C46.5432 14.3832 50.7765 14.7324 54.7344 15.8244C58.8482 16.9598 62.6609 18.8954 65.9698 21.4743C69.2798 24.0533 72.0895 27.2766 74.195 30.9886C76.2209 34.5599 77.5941 38.5789 78.1307 42.9036C78.6673 47.2284 78.3182 51.4617 77.2262 55.4197C76.092 59.5336 74.1552 63.3463 71.5763 66.6552C68.9974 69.9641 65.7729 72.7738 62.0634 74.8806C58.4921 76.9064 54.472 78.2797 50.1473 78.8151C45.8226 79.3518 41.5893 79.0026 37.6313 77.9117C33.5187 76.7764 29.706 74.8395 26.396 72.2618C23.0872 69.6829 20.2775 66.4584 18.1719 62.7476C16.1449 59.1774 14.7729 55.1573 14.2362 50.8325C13.6996 46.5078 14.0488 42.2756 15.1408 38.3164C16.2761 34.2025 18.2118 30.3898 20.7907 27.0809C23.3695 23.772 26.594 20.9623 30.3048 18.8568C33.8749 16.8285 37.8938 15.4565 42.2185 14.9198Z" fill="white"/>
<path fill-rule="evenodd" clip-rule="evenodd" d="M63.9847 24.0178C58.1368 19.4599 50.5501 17.1341 42.6108 18.1183C34.6714 19.1025 27.8838 23.2129 23.3259 29.062C18.7681 34.91 16.4423 42.4979 17.4277 50.4374C18.4131 58.3757 22.5222 65.1657 28.3701 69.7224C34.218 74.2804 41.8046 76.6062 49.744 75.6208C57.6822 74.6366 64.4721 70.5262 69.0288 64.6782C73.5867 58.8303 75.9136 51.2435 74.9282 43.304C73.9429 35.3646 69.8326 28.5757 63.9847 24.019V24.0178ZM42.592 17.9648C50.5735 16.9747 58.2001 19.3134 64.0808 23.8948C69.9603 28.4762 74.0917 35.3013 75.0817 43.283C76.0718 51.2646 73.7331 58.8912 69.1518 64.772C64.5705 70.6516 57.7454 74.7818 49.7639 75.7731C41.7824 76.7632 34.1547 74.4233 28.2763 69.8431C22.3968 65.2618 18.2654 58.4366 17.2753 50.455C16.2853 42.4733 18.624 34.8455 23.2053 28.9659C27.7866 23.0863 34.6116 18.9549 42.5932 17.9648H42.592Z" fill="white"/>
<path fill-rule="evenodd" clip-rule="evenodd" d="M64.8934 22.8582C58.7491 18.0694 50.7769 15.6252 42.4357 16.6599C34.0944 17.6945 26.9612 22.0134 22.1725 28.1578C17.3838 34.3022 14.9397 42.2744 15.9743 50.6158C17.0089 58.9571 21.3277 66.0893 27.4721 70.8781C33.6164 75.668 41.5886 78.1121 49.9298 77.0764C58.271 76.0406 65.4043 71.7229 70.193 65.5784C74.9817 59.434 77.4258 51.4618 76.39 43.1204C75.3554 34.7791 71.0378 27.6457 64.8923 22.857L64.8934 22.8582ZM42.4158 16.5075C50.8004 15.4671 58.8124 17.9241 64.9883 22.7363C71.1643 27.5485 75.5031 34.7181 76.5435 43.1017C77.584 51.4864 75.1281 59.4985 70.3148 65.6733C65.5027 71.8506 58.3343 76.1894 49.9497 77.2299C41.5663 78.2703 33.5543 75.8133 27.3783 71.0011C21.2024 66.1877 16.8624 59.0204 15.822 50.6345C14.7815 42.251 17.2386 34.2389 22.0507 28.0629C26.864 21.8868 34.0324 17.5468 42.4158 16.5075Z" fill="white"/>
<path d="M55.8205 74.2743L55.5293 74.375L56.0096 75.7636L56.3008 75.6629L55.8205 74.2743Z" fill="white"/>
<path d="M52.9017 75.1295L52.6016 75.1992L52.9338 76.6305L53.234 76.5608L52.9017 75.1295Z" fill="white"/>
<path fill-rule="evenodd" clip-rule="evenodd" d="M58.6238 73.1172L59.2459 74.4482L58.9671 74.5783L58.3438 73.2472L58.6238 73.1172Z" fill="white"/>
<path d="M43.5367 75.8018L43.4102 77.2656L43.7172 77.2922L43.8437 75.8283L43.5367 75.8018Z" fill="white"/>
<path d="M40.5208 75.3659L40.2422 76.8086L40.5448 76.867L40.8233 75.4244L40.5208 75.3659Z" fill="white"/>
<path d="M27.0405 68.714L26.0781 69.8242L26.311 70.0261L27.2734 68.9158L27.0405 68.714Z" fill="white"/>
<path fill-rule="evenodd" clip-rule="evenodd" d="M22.4041 65.9851L21.2969 64.5205L23.3157 64.1455L22.4041 65.9851Z" fill="white"/>
<path d="M24.8605 66.5913L23.7871 67.5947L23.9975 67.8198L25.0709 66.8165L24.8605 66.5913Z" fill="white"/>
<path d="M15.7941 44.0924L15.7676 44.3994L17.2314 44.5257L17.2579 44.2187L15.7941 44.0924Z" fill="white"/>
<path fill-rule="evenodd" clip-rule="evenodd" d="M17.7363 35.8363L18.4511 34.1455L19.7844 35.705L17.7363 35.8363Z" fill="white"/>
<path fill-rule="evenodd" clip-rule="evenodd" d="M76.3364 42.2051L76.5626 44.0271L74.627 43.3416L76.3364 42.2051Z" fill="white"/>
<path fill-rule="evenodd" clip-rule="evenodd" d="M75.2188 46.1715L76.688 46.1445L76.6939 46.4527L75.2246 46.4808L75.2188 46.1715Z" fill="white"/>
<path d="M75.1339 49.2115L75.1074 49.5186L76.5713 49.6446L76.5977 49.3375L75.1339 49.2115Z" fill="white"/>
<path d="M74.7302 52.2257L74.6719 52.5283L76.1146 52.8064L76.1729 52.5038L74.7302 52.2257Z" fill="white"/>
<path d="M59.4308 17.6022L53.2592 15.5392L54.2974 13.7668L59.6671 15.5618L59.4308 17.6022Z" fill="white"/>
<path d="M53.8965 17.3965L57.8056 18.7032L56.8766 20.512L53.551 19.4004L53.8965 17.3965Z" fill="white"/>
<path d="M33.25 75.4082L39.4216 77.4712L38.384 79.2417L33.0143 77.4468L33.25 75.4082Z" fill="white"/>
<path d="M18.7225 62.2998L22.5034 67.5975L20.6222 68.4214L17.3336 63.8117L18.7225 62.2998Z" fill="white"/>
<path d="M52.7696 77.4741L58.9763 75.515L59.1768 77.5581L53.7754 79.263L52.7696 77.4741Z" fill="white"/>
<path d="M22.7824 25.2768L18.9118 30.5103L17.5482 28.9759L20.9151 24.4218L22.7824 25.2768Z" fill="white"/>
<path d="M14.8012 43.1814L14.7472 49.6887L12.7411 49.2489L12.789 43.5874L14.8012 43.1814Z" fill="white"/>
<path d="M69.8954 67.7308L73.7655 62.4991L75.1296 64.0317L71.7627 68.5858L69.8954 67.7308Z" fill="white"/>
<path d="M77.8727 49.8262L77.9267 43.319L79.931 43.7581L79.8843 49.4221L77.8727 49.8262Z" fill="white"/>
<path d="M39.9031 15.5348L33.6965 17.4939L33.4959 15.4507L38.8949 13.747L39.9031 15.5348Z" fill="white"/>
<path d="M73.9581 30.7061L70.1771 25.4084L72.0559 24.5858L75.3469 29.1943L73.9581 30.7061Z" fill="white"/>
<path d="M67.6088 22.9488L62.3577 19.1054L63.8861 17.7331L68.4548 21.0771L67.6088 22.9488Z" fill="white"/>
<path d="M25.0781 70.0498L30.3292 73.8931L28.802 75.2639L24.2332 71.92L25.0781 70.0498Z" fill="white"/>
<path d="M15.225 53.1385L17.2144 59.3355L15.1717 59.5478L13.4419 54.1559L15.225 53.1385Z" fill="white"/>
<path d="M43.0413 77.9573L49.5497 77.98L49.119 79.9873L43.455 79.9675L43.0413 77.9573Z" fill="white"/>
<path d="M30.3697 19.1094L25.09 22.9166L24.2581 21.04L28.8512 17.7266L30.3697 19.1094Z" fill="white"/>
<path d="M17.3072 33.7337L15.2755 39.9159L13.4984 38.8865L15.2669 33.5081L17.3072 33.7337Z" fill="white"/>
<path d="M62.3175 73.8875L67.5961 70.0818L68.4291 71.9569L63.836 75.2702L62.3175 73.8875Z" fill="white"/>
<path d="M75.3722 59.2632L77.4039 53.081L79.1795 54.1092L77.4114 59.4903L75.3722 59.2632Z" fill="white"/>
<path d="M49.6438 15.0413L43.1353 15.0185L43.566 13.0112L49.2274 13.0314L49.6438 15.0413Z" fill="white"/>
<path d="M77.4639 39.8532L75.4745 33.6562L77.5146 33.4443L79.247 38.8358L77.4639 39.8532Z" fill="white"/>
<path d="M66.672 58.8812C69.8812 58.4116 72.7405 57.5444 75.0858 55.5005C76.3877 54.3651 76.4729 52.8186 75.9671 51.2392C75.4767 49.7112 74.6211 48.4113 73.4228 47.3426C72.2142 46.2657 71.655 44.9217 71.774 43.3063C71.8407 42.4082 72.5374 41.9623 73.2186 42.4329C76.517 44.7079 79.7867 47.0364 82.0992 50.3976C82.6676 51.2238 83.041 52.2298 83.3098 53.207C83.6628 54.4873 83.0821 55.5098 82.0448 56.2846C80.0247 57.792 77.6497 58.2565 75.2366 58.5668C72.4245 58.9285 69.6001 59.1936 66.7941 59.5934C66.3304 59.6591 65.8143 60.1133 65.525 60.5295C62.0224 65.58 57.2558 68.7418 51.3104 70.1527C44.4899 71.7711 38.2501 70.3192 32.4658 66.5192C32.1939 66.3404 31.922 66.1626 31.645 65.9941C31.603 65.9684 31.5322 65.991 31.367 65.991C32.0513 68.749 32.7695 71.4556 34.8952 73.4882C36.2864 74.8189 37.9905 74.9946 39.6957 73.8735C41.2992 72.8203 42.9325 72.7319 44.6951 73.2035C45.2861 73.3618 45.6359 73.6382 45.2861 74.2671C43.8497 76.8463 42.2585 79.3022 39.708 80.9514C36.4762 83.0405 34.2581 82.4928 32.8403 78.9025C31.961 76.6767 31.5075 74.2578 31.0756 71.8872C30.7432 70.0602 30.734 68.1736 30.5944 66.3126C30.5247 65.3817 30.1502 64.61 29.4885 63.9616C25.6576 60.2109 23.3379 55.6773 22.5684 50.3719C21.9098 45.8362 22.5048 41.4629 24.4131 37.2796C24.5383 37.0052 24.5403 36.6754 24.5998 36.3723C24.3023 36.3856 23.973 36.3199 23.7124 36.4257C21.8359 37.1912 19.8661 37.8088 18.1302 38.8241C15.4555 40.388 14.8666 42.8121 16.3861 45.5146C17.0088 46.6213 17.9147 47.6149 18.8524 48.4873C20.2252 49.7656 20.7515 51.3276 20.7207 53.1032C20.7063 53.9037 20.0631 53.6365 19.6732 53.4032C17.4161 52.053 15.1416 50.7275 12.9471 49.2796C11.284 48.1822 9.83844 46.8062 8.793 45.0717C7.11762 42.2901 7.62547 40.163 10.375 38.4459C12.3469 37.2149 14.5701 36.7021 16.818 36.363C19.2998 35.9879 21.8031 35.7537 24.3023 35.507C24.9538 35.4423 25.3847 35.2193 25.7366 34.6552C29.4228 28.7487 34.6675 25.0875 41.4849 23.6386C46.8024 22.5083 51.8111 23.4454 56.6618 25.6855C56.8803 25.7862 57.1327 25.8129 57.3687 25.8746C57.3728 25.63 57.4292 25.3721 57.3738 25.1419C56.8065 22.8011 56.0298 20.5466 54.5801 18.5788C53.1079 16.5802 51.3494 16.1394 49.1539 17.2645C47.8961 17.9088 46.8219 18.772 46.0658 19.9958C44.9444 21.8105 43.1818 22.1054 41.2623 21.9832C40.62 21.9421 40.3964 21.4899 40.6775 20.9874C42.8771 17.0549 45.0039 13.0525 48.8564 10.4076C51.2089 8.79221 53.2639 9.20632 54.8654 11.5749C56.4956 13.9866 57.1727 16.7508 57.6549 19.5519C58.015 21.6482 58.0992 23.7907 58.4254 25.8941C58.5075 26.4192 58.9497 27.0131 59.398 27.3368C61.9208 29.1577 64.2364 31.1923 65.8635 33.864C70.4506 41.3961 71.18 49.2149 67.4066 57.3142C67.1963 57.7663 66.9839 58.2185 66.673 58.8833L66.672 58.8812ZM68.0919 47.0744C68.1904 34.7353 58.0879 24.9179 46.2607 24.8604C34.4479 24.8028 24.0304 34.1178 23.9186 46.8812C23.8098 59.171 33.7544 69.2207 45.9293 69.2618C58.1976 69.3039 68.0632 59.4269 68.0919 47.0744Z" fill="white"/>
<path d="M48.5759 40.1494C48.5759 40.3855 48.5868 40.6215 48.5741 40.8566C48.5369 41.5021 48.1974 41.9178 47.5474 41.9079C46.8847 41.8979 46.6687 41.4004 46.6968 40.8167C46.8057 38.5671 45.976 36.6262 44.7641 34.8052C44.1205 33.8384 43.9607 33.7394 43.0302 34.3867C41.3163 35.5786 39.6188 36.8033 38.0056 38.125C36.6648 39.2235 36.3162 40.7014 36.8473 42.3808C37.2013 43.4992 37.5408 44.6258 37.7977 45.7687C37.884 46.1527 37.8277 46.7138 37.5926 46.977C37.4164 47.1749 36.8028 47.1441 36.4678 47.0088C35.2305 46.5059 34.1784 46.8808 33.1344 47.5226C31.5585 48.4922 31.5231 48.6193 32.4935 50.2361C33.3559 51.6731 34.4316 52.6953 36.2999 52.4266C36.574 52.3876 37.0642 52.6626 37.1632 52.9086C37.2776 53.1955 37.1886 53.7102 36.9834 53.9535C36.1573 54.9321 36.0575 56.0061 36.5205 57.1118C36.8917 57.9978 37.4056 58.8275 37.9067 59.6527C37.9884 59.788 38.3887 59.8806 38.5385 59.7998C40.0599 58.9846 41.6168 58.2102 42.1724 56.3401C42.2541 56.0642 42.8478 55.6956 43.0802 55.7682C43.4052 55.8699 43.7783 56.3165 43.8409 56.666C44.0079 57.6129 43.5023 58.3836 42.8986 59.0645C41.615 60.5115 39.9365 61.3712 38.1881 62.0884C37.9221 62.1973 37.3829 62.0266 37.1632 61.7988C35.7425 60.3236 34.6922 58.6233 34.3526 56.5644C34.2909 56.1922 34.3608 55.7882 34.4244 55.4078C34.5224 54.8214 34.3935 54.3366 33.8152 54.116C32.223 53.5087 31.3687 52.2178 30.6634 50.7862C30.352 50.1544 30.1087 49.4889 29.7928 48.8598C29.4015 48.0818 29.6403 47.5253 30.293 47.0333C31.5784 46.0656 32.9274 45.2168 34.5315 44.9154C35.2051 44.7892 35.2768 44.5105 35.1678 43.8869C34.95 42.6386 34.6277 41.3423 34.7757 40.1168C34.8946 39.1282 35.4847 38.0869 36.1383 37.2935C38.2099 34.7798 41.0004 33.1975 43.8817 31.7922C44.1813 31.646 44.8431 31.745 45.0483 31.981C47.0826 34.3222 48.4824 36.9621 48.5769 40.1494H48.5759Z" fill="white"/>
<path d="M53.0238 46.1314C53.0157 47.7037 52.4901 48.7831 51.3517 49.542C50.669 49.9978 50.1216 49.986 49.7476 49.5112C49.3582 49.0173 49.4853 48.5943 50.1988 48.0106C51.1002 47.2725 51.3499 46.4128 50.9441 45.4433C50.6173 44.6617 49.8348 44.2259 48.8988 44.304C47.5135 44.4193 46.7374 45.7129 47.3483 46.9902C48.1608 48.6896 49.0404 50.3563 49.8802 52.043C50.0054 52.2954 50.187 52.5995 50.1389 52.8392C50.0753 53.1569 49.8756 53.5718 49.6169 53.6916C49.3573 53.8114 48.9061 53.7034 48.6283 53.5418C48.3868 53.4011 48.2461 53.0589 48.1027 52.7847C47.2203 51.0953 46.2517 49.4413 45.4982 47.6947C44.5541 45.505 45.6508 43.2627 47.863 42.5247C50.0227 41.8039 52.2704 43.0213 52.894 45.2663C52.9912 45.614 53.003 45.9843 53.0238 46.1314Z" fill="white"/>
<path d="M41.2993 54.5011C38.5523 54.3949 36.6541 52.0882 37.3249 49.4565C37.5101 48.7293 38.0221 47.944 38.6176 47.4956C39.6289 46.7339 40.819 46.2056 41.9474 45.6046C42.5084 45.306 43.0549 45.3695 43.3418 45.9886C43.6069 46.5615 43.3318 46.9927 42.7962 47.2786C41.9429 47.7353 41.085 48.1828 40.2471 48.6658C39.1324 49.3085 38.8201 50.3724 39.3893 51.4754C39.8795 52.425 40.9988 52.7681 42.0809 52.2716C42.9832 51.8576 43.8701 51.411 44.7634 50.9779C45.3035 50.7165 45.7638 50.7174 46.0879 51.3247C46.4129 51.9329 46.1614 52.3297 45.6367 52.6165C44.6753 53.1412 43.7194 53.6814 42.729 54.1462C42.2942 54.3504 41.7795 54.3876 41.302 54.5002L41.2993 54.5011Z" fill="white"/>
<path d="M57.221 46.2165C55.7386 46.1248 54.6492 45.4703 53.9048 44.2874C53.3365 43.3841 52.8581 42.4209 52.3779 41.4659C52.1029 40.9194 52.0012 40.3148 52.6666 39.9662C53.2921 39.6394 53.726 40.0561 54.0237 40.5409C54.543 41.386 54.9551 42.2993 55.5071 43.1199C56.4285 44.4889 57.7666 44.5888 58.7742 43.4277C59.3189 42.7995 59.3153 42.0887 59.0139 41.3724C58.589 40.3629 58.127 39.368 57.6785 38.3685C57.4389 37.8347 57.6313 37.4471 58.1052 37.1865C58.589 36.9205 59.0166 36.9678 59.279 37.5161C59.8863 38.7888 60.539 40.0434 61.0773 41.3452C61.6211 42.6597 60.6288 44.7894 59.1192 45.5801C58.5355 45.886 57.8555 46.0095 57.2201 46.2165H57.221Z" fill="white"/>
<path d="M58.2387 42.2748C58.0136 42.4873 57.7657 42.8549 57.4253 42.9938C57.2047 43.0837 56.6982 42.9321 56.5784 42.7324C55.9765 41.7338 55.4264 40.7007 54.9289 39.6458C54.6883 39.1356 54.9834 38.6736 55.4899 38.5483C55.7877 38.4748 56.3323 38.5837 56.4658 38.7979C57.0849 39.7893 57.6005 40.845 58.1488 41.8799C58.1842 41.9462 58.1851 42.0306 58.2387 42.2757V42.2748Z" fill="white"/>
<path d="M44.8212 49.3235C44.724 49.4243 44.5579 49.6939 44.3164 49.8292C43.4068 50.3393 42.4718 50.8032 41.5486 51.2898C41.0212 51.5685 40.5972 51.3652 40.3485 50.9194C40.0852 50.4465 40.1161 49.9553 40.6907 49.6594C41.6185 49.1828 42.5308 48.6726 43.4786 48.2378C44.173 47.9191 44.8439 48.3921 44.8212 49.3226V49.3235Z" fill="white"/>
<path d="M102.161 40.9685C102.039 40.9481 101.958 40.8258 101.917 40.6017C101.896 40.4795 101.886 37.0872 101.886 30.4248C101.886 23.7625 101.896 20.4008 101.917 20.3397C101.958 20.2785 101.998 20.2276 102.039 20.1868C102.1 20.1461 102.874 20.1155 104.362 20.0952C108.844 20.0748 111.381 20.085 111.971 20.1257C112.522 20.1461 112.807 20.1767 112.827 20.2174C112.827 20.2378 112.817 21.0833 112.797 22.754C112.776 24.4043 112.766 25.2396 112.766 25.26C112.766 25.26 111.89 25.26 110.138 25.26L107.479 25.2906V28.4995L108.732 28.5301C110.81 28.5504 111.982 28.6014 112.247 28.6829L112.399 28.744V30.1498C112.42 30.9444 112.42 31.3926 112.399 31.4945C112.379 31.5964 112.308 31.6677 112.185 31.7084C112.104 31.7492 111.299 31.7695 109.771 31.7695H107.51L107.479 31.8307C107.479 31.8918 107.479 32.6049 107.479 33.9699C107.499 35.335 107.51 36.0277 107.51 36.0481C107.53 36.0685 108.162 36.0889 109.404 36.1092C111.36 36.1092 112.359 36.1194 112.399 36.1398C112.399 36.1602 112.379 36.8529 112.338 38.218C112.297 39.583 112.277 40.3674 112.277 40.5712C112.277 40.7749 112.267 40.887 112.247 40.9073C112.247 40.9277 111.381 40.9481 109.649 40.9685C104.759 41.0092 102.263 41.0092 102.161 40.9685ZM117.452 40.999C117.166 40.9786 116.606 40.9685 115.771 40.9685C115.078 40.9481 114.671 40.9379 114.548 40.9379C114.447 40.9175 114.375 40.8564 114.334 40.7545C114.294 40.6934 114.263 40.6119 114.243 40.51C114.222 40.3878 114.212 37.892 114.212 33.0226C114.212 24.7099 114.233 20.411 114.273 20.1257C114.314 19.9424 114.375 19.8201 114.457 19.759C114.497 19.7182 115.048 19.6877 116.107 19.6673C120.223 19.6266 122.688 19.6164 123.503 19.6367C124.318 19.6775 125.021 19.7386 125.612 19.8201C126.304 19.922 126.844 20.1461 127.231 20.4925C127.618 20.8184 127.924 21.3176 128.148 21.99C128.311 22.5197 128.444 23.3448 128.545 24.4654C128.607 25.1581 128.657 25.9527 128.698 26.8492C128.78 29.3348 128.617 31.1685 128.209 32.3502C128.006 32.9003 127.751 33.3282 127.445 33.6338C126.753 34.3265 125.785 34.7951 124.542 35.0396C123.768 35.2026 122.606 35.2841 121.058 35.2841C120.223 35.2841 119.805 35.2943 119.805 35.3146C119.805 35.335 119.795 36.2315 119.774 38.004C119.774 39.471 119.764 40.3165 119.744 40.5406C119.744 40.7443 119.703 40.8768 119.622 40.9379C119.581 40.9786 119.275 40.999 118.705 40.999C118.134 40.999 117.717 40.999 117.452 40.999ZM120.111 33.9394C120.661 33.7764 121.15 33.5523 121.577 33.267C122.066 32.9614 122.403 32.5743 122.586 32.1057C122.79 31.6371 122.943 30.8323 123.044 29.6914C123.065 29.4673 123.075 28.907 123.075 28.0105C123.075 27.1141 123.065 26.4621 123.044 26.0546C122.983 25.1174 122.912 24.3024 122.83 23.6097C122.729 22.9577 122.586 22.428 122.403 22.0205C122.138 21.5315 121.781 21.2056 121.333 21.0426C121.007 20.9203 120.61 20.849 120.141 20.8286H119.897V21.8983C119.876 22.591 119.856 24.4756 119.835 27.5521C119.795 31.8103 119.785 33.9496 119.805 33.9699C119.825 33.9903 119.927 33.9801 120.111 33.9394ZM132.754 40.9685C132.672 40.9277 132.601 40.836 132.54 40.6934C132.519 40.5915 132.285 39.2774 131.837 36.751C130.859 31.2296 130.298 28.0207 130.156 27.1242C129.402 22.8864 129.025 20.686 129.025 20.523C129.025 20.2174 129.086 20.034 129.208 19.9729C129.27 19.9525 130.115 19.9424 131.745 19.9424C133.395 19.9424 134.251 19.9627 134.312 20.0035C134.414 20.0442 134.485 20.1257 134.526 20.248C134.567 20.3702 134.638 20.7166 134.74 21.2871C134.76 21.3685 134.964 22.5299 135.351 24.771C135.677 26.6047 135.932 28.0513 136.115 29.1107C136.156 29.2533 136.197 29.4469 136.238 29.6914L136.574 31.4028C136.594 31.3824 136.757 31.0259 137.063 30.3332C137.368 29.6201 137.531 29.2432 137.552 29.2024C137.552 29.182 137.776 28.7032 138.224 27.766L138.896 26.3908H140.424C141.464 26.3908 141.993 26.401 142.014 26.4213C142.054 26.4825 142.289 26.9714 142.717 27.8883C142.798 28.092 142.91 28.3467 143.053 28.6523C143.216 28.9783 143.46 29.5182 143.786 30.272C144.112 31.0055 144.285 31.3824 144.306 31.4028C144.326 31.4028 144.336 31.4028 144.336 31.4028C144.357 31.4028 144.408 31.1379 144.489 30.6082C144.632 29.834 144.764 29.0903 144.886 28.3772C145.803 23.1818 146.272 20.523 146.292 20.4008C146.353 20.1767 146.445 20.0442 146.567 20.0035C146.649 19.9627 147.504 19.9424 149.134 19.9424C150.499 19.9424 151.274 19.9525 151.457 19.9729C151.661 19.9729 151.783 20.0239 151.824 20.1257C151.864 20.2683 151.864 20.5026 151.824 20.8286C151.783 21.1546 151.62 22.1224 151.335 23.7319C150.764 27.0122 150.112 30.7406 149.379 34.9173C148.707 38.6662 148.36 40.5915 148.34 40.6934C148.299 40.7953 148.258 40.8666 148.218 40.9073L148.126 40.999H145.62C144.214 40.999 143.419 40.999 143.236 40.999C143.053 40.9786 142.9 40.9073 142.778 40.7851C142.696 40.7036 142.604 40.5712 142.503 40.3878C142.421 40.2044 142.044 39.3589 141.372 37.8512C140.781 36.5065 140.465 35.8342 140.424 35.8342C140.404 35.8342 140.098 36.5065 139.508 37.8512C138.835 39.3589 138.458 40.2044 138.377 40.3878C138.295 40.5712 138.214 40.7036 138.132 40.7851C137.99 40.9073 137.827 40.9786 137.643 40.999C137.48 40.999 136.696 40.999 135.29 40.999C133.64 40.999 132.794 40.9888 132.754 40.9685Z" fill="white"/>
<rect x="101.121" y="47.7549" width="36.516" height="25.2809" rx="1.52806" fill="#4B019F"/>
<path d="M113.805 66.905C113.732 66.8928 113.677 66.8378 113.64 66.74C113.616 66.6544 113.585 66.2938 113.549 65.6581C113.5 64.729 113.482 63.8489 113.494 63.0176C113.506 62.5897 113.512 61.3795 113.512 59.3869C113.512 57.3821 113.506 56.3613 113.494 56.3246C113.482 56.3124 113.17 56.3002 112.559 56.288C112.045 56.288 111.746 56.288 111.66 56.288C111.587 56.2758 111.538 56.2391 111.513 56.178C111.489 56.1535 111.477 56.0985 111.477 56.0129C111.477 55.9274 111.483 55.8601 111.495 55.8112C111.507 55.7623 111.629 55.6217 111.862 55.3895C112.106 55.145 112.296 54.9677 112.43 54.8577C112.919 54.491 113.237 54.2831 113.384 54.2343C113.445 54.222 113.964 54.2159 114.942 54.2159C115.92 54.2159 116.44 54.222 116.501 54.2343C116.697 54.2954 116.813 54.5643 116.849 55.0411C116.862 55.2244 116.868 56.288 116.868 58.2317C116.88 60.1754 116.88 61.5934 116.868 62.4858C116.855 63.745 116.874 64.8146 116.923 65.6948C116.959 66.1593 116.978 66.4527 116.978 66.5749C116.966 66.7461 116.917 66.85 116.831 66.8867C116.794 66.9111 116.287 66.9233 115.309 66.9233C114.343 66.9233 113.842 66.9172 113.805 66.905ZM121.56 66.9233C121.096 66.8867 120.643 66.7705 120.203 66.5749C119.653 66.3427 119.213 65.9637 118.883 65.4381C118.382 64.619 118.082 63.5188 117.985 62.1374C117.911 60.9761 117.948 59.9615 118.095 59.0935C118.168 58.6534 118.272 58.1644 118.406 57.6266C118.639 56.6975 118.969 55.9457 119.396 55.3711C119.885 54.7232 120.533 54.332 121.34 54.1976C121.438 54.1854 121.982 54.1731 122.972 54.1609C123.865 54.1609 124.421 54.167 124.641 54.1792C124.873 54.1915 125.13 54.2343 125.411 54.3076C126.01 54.4543 126.493 54.7171 126.86 55.0961C127.104 55.3528 127.281 55.6767 127.391 56.0679C127.514 56.508 127.52 56.8931 127.41 57.2232C127.324 57.4432 127.232 57.5654 127.135 57.5899C127.086 57.6021 126.566 57.6082 125.576 57.6082C124.598 57.6082 124.097 57.596 124.072 57.5716C124.011 57.5349 123.981 57.4432 123.981 57.2965C123.981 57.1865 123.999 57.0948 124.036 57.0214C124.109 56.8503 124.133 56.6853 124.109 56.5264C124.06 56.2696 123.981 56.0557 123.871 55.8846C123.81 55.7868 123.712 55.6706 123.577 55.5362C123.443 55.3895 123.357 55.31 123.321 55.2978C123.284 55.2733 123.241 55.2733 123.192 55.2978C123.156 55.3222 123.076 55.3956 122.954 55.5178C122.832 55.6278 122.74 55.7195 122.679 55.7929C122.275 56.3185 121.964 57.0153 121.744 57.8833C121.609 58.4089 121.542 58.7146 121.542 58.8001C121.542 58.8123 121.811 58.8185 122.349 58.8185L123.137 58.8368L123.449 58.8918C123.791 58.9652 124.072 59.0446 124.292 59.1302C124.867 59.338 125.338 59.5825 125.704 59.8637C126.499 60.4627 127.018 60.9394 127.263 61.2939C127.593 61.7951 127.758 62.4308 127.758 63.201C127.758 63.421 127.752 63.5921 127.74 63.7144C127.654 64.2278 127.538 64.6862 127.391 65.0897C127.184 65.6153 126.878 66.0309 126.474 66.3366C126.181 66.5566 125.857 66.7094 125.503 66.795C125.246 66.8561 125.001 66.8928 124.769 66.905C124.671 66.9172 124.133 66.9233 123.156 66.9233C122.19 66.9233 121.658 66.9233 121.56 66.9233ZM123.211 65.8781C123.516 65.6703 123.767 65.3708 123.962 64.9796C124.097 64.7351 124.219 64.3256 124.329 63.7511C124.366 63.5921 124.384 63.4088 124.384 63.201C124.384 62.5531 124.225 62.0152 123.907 61.5873C123.773 61.4284 123.51 61.1839 123.119 60.8538C122.728 60.5238 122.416 60.2854 122.184 60.1387C121.78 59.9064 121.524 59.7903 121.414 59.7903C121.389 59.7903 121.371 59.882 121.359 60.0654C121.297 60.591 121.297 61.2878 121.359 62.1558C121.444 63.256 121.676 64.1484 122.055 64.8329C122.214 65.1386 122.404 65.3892 122.624 65.5848C122.697 65.6459 122.789 65.7192 122.899 65.8048C123.021 65.8781 123.094 65.9148 123.119 65.9148C123.131 65.9148 123.162 65.9026 123.211 65.8781Z" fill="white"/>
</svg>
