<svg width="1468" height="960" viewBox="0 0 1468 960" fill="none" xmlns="http://www.w3.org/2000/svg">
<path d="M1419.97 849.738C1410.15 849.573 1390.47 856.929 1383.93 852.411C1381.96 844.928 1388.63 841.835 1393.21 839.023C1398.57 835.739 1424.29 823.764 1425.97 820.01C1427.81 815.886 1425.4 808.709 1424.6 805.018C1422.79 792.966 1420.96 780.914 1419.14 768.862C1417.88 762.219 1418.9 754.902 1412.59 753.324C1393.71 748.628 1396.83 788.741 1393.21 801.531C1390.91 809.65 1381.87 812.641 1375.73 817.07C1364.29 825.329 1352.61 844.571 1360.99 863.674C1363.05 868.382 1366.04 873.078 1369.45 876.527C1368.5 886.53 1361.99 896.495 1364.53 909.73C1369.31 934.585 1383.42 945.835 1409.31 950.175C1418.71 951.753 1429.52 949.971 1436.61 947.235C1446.27 943.506 1455.69 936.977 1461.72 929.558C1463.66 927.051 1465.59 924.556 1467.54 922.049V858.596H1467.46C1453.5 854.116 1435.24 850.018 1419.95 849.764L1419.97 849.738ZM1413.69 924.187C1393.71 920.993 1382.7 904.36 1395.94 886.161C1399.21 881.669 1404.87 878.487 1410.96 876.782C1412.77 876.515 1414.6 876.247 1416.42 875.98C1431.7 875.675 1443.79 878.933 1448.09 889.368C1454.98 906.091 1430.26 926.834 1413.69 924.187Z" fill="white"/>
<path d="M1321.69 958.738C1331.83 954.297 1340.55 937.269 1343.53 925.268C1345.03 919.248 1344.84 910.2 1340.8 907.324C1333.9 902.424 1325 914.12 1322.24 917.505C1313.46 928.233 1298.94 949.283 1278.83 940.807C1276.65 939.471 1274.45 938.134 1272.28 936.785C1269.78 933.311 1270.58 927.215 1269.55 922.328C1268.18 915.787 1266.53 909.271 1264.09 903.582C1256.43 885.74 1237.67 858.684 1221.77 849.483C1207.75 841.376 1185.52 854.153 1174.54 858.582C1169.44 860.631 1160.02 865.098 1157.88 857.513C1151.2 833.829 1185.5 837.265 1199.93 832.34C1233.07 821.039 1256.06 794.518 1271.19 765.387C1276.63 754.888 1280.9 743.994 1283.2 730.3C1284.56 722.168 1282.58 711.873 1276.1 710.486C1268.73 708.908 1263.52 717.281 1261.09 721.201C1251.87 736.078 1246.69 754.061 1236.79 768.072C1226.11 783.191 1211.41 796.719 1193.38 804.495C1179.92 810.298 1154.63 811.978 1144.23 820.034C1136.49 826.041 1135.22 835.598 1133.31 847.612C1132.56 852.321 1131.89 859.816 1132.76 865.289C1133.97 872.899 1134.24 879.975 1136.32 886.44C1142.81 906.738 1160.88 930.969 1180.82 937.854C1195.18 942.818 1224.85 939.814 1221.22 920.979C1218.37 906.128 1201.75 914.221 1187.64 911.6C1181.77 910.505 1177.82 907.222 1174.81 903.302C1172.67 900.515 1170.6 897.728 1171.53 892.587C1175.63 888.502 1181.95 887.14 1187.92 884.824C1193.03 882.838 1199.88 878.766 1207.85 880.268C1227.14 883.907 1239.04 914.043 1242.53 934.367C1244.07 943.365 1241.36 951.93 1240.9 959.642H1321.16V959.54C1321.34 959.273 1321.53 959.005 1321.71 958.738H1321.69Z" fill="white"/>
<path d="M1165.52 950.708C1156.36 952.108 1150.86 956.944 1143.83 959.642H1179.12C1178.77 958.446 1178.42 957.249 1178.08 956.053C1176.21 953.024 1171.13 949.843 1165.52 950.695V950.708Z" fill="white"/>
<path d="M1196.92 30.2618C1175.29 38.852 1157.97 48.7277 1139.32 59.7232C1133.94 62.8921 1121.48 68.8734 1119.93 74.9821C1118.13 82.1216 1127.92 87.0467 1131.4 89.7065C1146.76 101.504 1161.97 115.019 1184.63 119.435C1193.11 121.077 1204.82 118.773 1201.29 108.987C1197.39 98.1695 1185.49 91.4627 1176.99 84.8832C1175.07 83.3942 1170.99 80.2126 1171.8 76.3184C1172.93 70.9478 1180.73 68.199 1184.91 65.6028C1192.2 61.0849 1199.81 54.6581 1203.75 46.8569C1207.27 39.8574 1205.15 30.7454 1196.92 30.249V30.2618Z" fill="white"/>
<path d="M1335.34 158.811C1340.23 151.659 1330.44 141.134 1327.15 137.927C1313 124.056 1294.41 117.209 1265.72 117.311C1263.36 117.578 1260.99 117.845 1258.62 118.112C1251.37 119.576 1240.37 122.872 1238.7 129.63C1236.49 138.538 1247.86 138.907 1253.71 140.345C1263.9 142.662 1274.09 144.99 1284.29 147.307C1293.67 150.145 1302.4 154.039 1311.04 157.488C1316.02 159.473 1331.1 165.034 1335.34 158.824V158.811Z" fill="white"/>
<path d="M385.646 959.642H408.715C407.054 958.662 405.938 957.097 403.265 956.6C396.091 955.264 389.954 957.911 385.659 959.642H385.646Z" fill="white"/>
<path d="M341 958.472C341.805 956.639 343.984 954.666 343.452 951.777C341.999 943.747 323.783 938.148 311.782 939.993C297.381 942.22 280.346 943.518 280.385 959.642H339.897V959.541C340.261 959.184 340.624 958.828 340.987 958.472H341Z" fill="white"/>
<path d="M238.078 958.739C249.638 946.866 261.198 934.992 272.745 923.118C274.989 920.369 281.775 913.103 276.027 909.196C269.034 904.449 255.321 910.061 249.82 912.415C233.706 919.288 209.055 942.831 203.463 959.656H237.533V959.554C237.715 959.286 237.896 959.019 238.078 958.752V958.739Z" fill="white"/>
<path d="M157.262 951.776C160.259 948.468 163.269 945.171 166.266 941.863C178.345 927.164 192.253 915.137 198.48 894.457C201.646 883.945 200.647 863.952 191.929 860.452C181.653 856.316 177.034 880.789 174.452 887.228C166.331 907.489 147.258 920.457 134.323 936.505C129.108 942.983 119.546 948.875 119.857 959.641H163.372C161.335 957.554 159.299 955.467 157.262 953.38V951.776Z" fill="white"/>
<path d="M790.117 951.51C782.06 945.249 773.211 943.365 760.354 941.329C749.676 939.637 733.082 945.872 725.129 942.665C722.314 941.533 720.121 938.708 718.305 936.506C710.481 928.119 702.645 919.72 694.821 911.333C691.98 908.546 685.83 901.368 679.538 905.708C675.723 908.342 676.956 918.409 677.903 923.385C679.992 934.342 682.587 941.036 688.282 948.023C691.513 951.994 699.349 954.526 701.049 959.642H797.343C797.084 959.541 796.85 959.426 796.669 959.273C794.489 956.69 792.296 954.094 790.117 951.51Z" fill="white"/>
<path d="M874.761 949.092C870.752 944.803 866.756 940.527 862.747 936.238C856.415 928.424 849.708 920.203 841.729 914.005C837.629 910.824 829.494 902.653 821.255 905.975C815.17 908.418 814.029 917.212 816.883 923.919C822.89 938.007 835.358 947.946 844.181 959.54V959.642H884.725C884.271 959.54 883.946 959.426 883.765 959.273C880.768 955.875 877.758 952.49 874.761 949.092Z" fill="white"/>
<path d="M846.903 266.999C839.78 261.59 832.164 255.405 819.605 255.481C813.767 259.414 814.39 267.126 818.243 272.891C827.649 286.979 841.545 297.02 848.278 313.87C851.457 321.849 852.067 336.968 845.281 341.448C838.016 346.245 829.492 337.362 826.17 334.219C814.507 323.198 803.518 312.61 785.496 307.71C779.489 306.908 773.482 306.107 767.475 305.305C750.557 302.53 718.433 310.904 710.142 317.089C706.497 319.813 699.127 326.99 703.591 333.163C706.691 337.439 715.267 336.497 721.339 335.301C733.859 332.832 753.749 328.378 768.851 331.012C799.119 336.306 804.426 358.246 827.546 368.504C841.947 374.892 857.49 373.709 866.04 362.879C891.794 330.248 871.347 285.554 846.929 266.999H846.903Z" fill="white"/>
<path d="M982.6 568.282C997.65 573.258 1004.68 570.191 1013.18 561.855C1015.35 559.73 1018.32 557.694 1018.91 554.092C1020.34 545.527 1008.67 545.324 1000.62 545.527C994.095 547.92 967.083 553.634 974.141 564.006C975.815 566.475 979.421 567.238 982.6 568.295V568.282Z" fill="white"/>
<path d="M991.876 226.3C989.969 234.063 988.049 241.839 986.142 249.602C981.225 263.308 972.233 273.794 966.486 286.826C962.607 295.62 959.519 305.165 957.209 315.486C956.029 322.447 954.848 329.408 953.654 336.37C952.448 339.577 949.412 343.726 944.092 342.797C921.349 338.813 933.713 323.262 938.358 309.326C940.382 303.23 942.847 292.133 935.075 290.313C928.536 288.773 922.555 293.686 919.234 295.938C906.338 304.707 899.241 319.177 893.571 335.034C891.625 340.48 885.371 354.607 891.119 359.137C896.166 363.121 904.573 358.068 911.592 359.137C916.328 360.028 921.063 360.919 925.786 361.81C949.632 368.377 970.664 377.896 994.86 383.775C1007.04 386.728 1023.31 386.295 1031.45 380.288C1044.28 370.807 1038.19 336.701 1047.83 330.21C1056.75 324.203 1070.16 339.984 1077.6 341.995C1086.55 344.426 1091.38 336.624 1089.61 327.538C1083.25 294.831 1038.67 290.937 1022.72 317.357C1018.2 324.852 1015.72 353.601 1010.7 356.986C999.817 364.342 984.663 352.252 982.587 344.133C979.434 331.852 984.092 316.619 987.777 307.443C994.51 292.54 1001.24 277.625 1007.98 262.723C1017.94 237.715 1018.6 213.217 1045.38 204.08C1060.24 199.002 1074.28 204.932 1082.79 211.575C1086.43 214.413 1092.49 223.169 1099.72 218.002C1106.01 213.51 1103.17 201.025 1100.26 195.502C1092.91 181.541 1079.57 174.936 1057.67 175.153C1052.93 175.954 1048.2 176.756 1043.47 177.558C1031.19 181.261 1021.54 187.688 1012.62 194.7C1003.06 202.222 995.898 213.383 991.876 226.3Z" fill="white"/>
<path d="M1012.64 632.283C1017.83 644.144 1029.79 650.952 1043.22 654.783C1057.51 658.855 1082.81 657.583 1085.54 644.602C1090.29 621.936 1032.24 636.89 1038.86 610.317C1042.27 596.623 1062.16 599.118 1075.44 595.058C1089.52 590.757 1099.25 580.703 1109.84 572.825C1113.61 570.013 1119.09 567.175 1121.58 563.179C1125.37 557.083 1118.04 553.507 1114.21 551.394C1105.58 546.647 1086.3 534.061 1074.9 533.984C1059.34 542.473 1085.08 558.673 1073.26 566.653C1063.52 573.22 1041.92 569.885 1030.94 577.101C1017.99 585.615 1003.18 610.622 1012.65 632.27L1012.64 632.283Z" fill="white"/>
<path d="M1194.47 602.018C1193.27 597.259 1186.59 595.464 1182.45 593.454C1172.62 588.668 1150.99 576.922 1138.5 576.846C1126.82 582.763 1120.06 592.206 1110.38 599.88C1106.49 602.96 1099.69 607.453 1098.37 612.734C1097.32 616.946 1099.37 620.561 1101.36 622.648C1105.83 626.224 1110.28 629.787 1114.74 633.363C1120.83 638.11 1126.94 647.439 1135.49 649.169C1142.97 650.684 1147.16 644.435 1150.77 641.674C1161.94 633.134 1172.73 624.162 1183.8 615.699C1187.08 613.192 1196.14 608.802 1194.45 602.044L1194.47 602.018ZM1133.03 624.251C1130.31 623.004 1127.57 621.757 1124.85 620.497C1121.6 618.868 1118.48 617.621 1116.93 614.338C1119.23 608.331 1126.48 605.276 1131.67 602.018C1137.33 601.878 1150.12 607.885 1150.78 611.932C1148.41 614.656 1138.09 625.358 1133.03 624.251Z" fill="white"/>
<path d="M1224.76 595.859C1222.07 600.237 1217.37 609.4 1222.31 614.873C1227.23 620.307 1235.79 615.954 1239.79 613.002C1251.41 604.411 1264.5 591.863 1284.56 600.415C1296.5 605.506 1305.74 614.796 1309.68 627.726C1312.25 636.164 1311.26 646.739 1315.41 653.433C1318.06 657.697 1325.22 662.189 1331.53 657.989C1340.71 651.855 1338.55 626.403 1335.08 615.407C1327.22 590.527 1301.39 569.503 1267.92 569.618C1263.82 570.33 1259.73 571.043 1255.63 571.756C1241.92 575.968 1231.6 584.775 1224.78 595.859H1224.76Z" fill="white"/>
<path d="M960.206 143.274C986.129 136.77 1015.97 125.329 1030.37 107.653C1036.44 100.208 1048.98 81.7799 1026 82.2126C1009.82 90.2174 997.325 102.015 980.68 109.256C973.401 112.425 965.928 115.657 958.014 118.088C951.643 119.781 945.273 121.486 938.903 123.179C934.647 125.126 922.594 136.274 927.434 142.994C931.832 149.102 953.187 145.017 960.193 143.261L960.206 143.274Z" fill="white"/>
<path d="M1128.66 668.972C1126.47 675.017 1132.87 678.988 1135.49 681.558C1144.56 690.454 1156.74 704.224 1167.16 711.02C1171.05 713.565 1178.36 714.278 1182.44 711.287C1189.31 706.286 1187.06 693.89 1183.26 687.718C1175.01 674.317 1161.49 664.009 1139.58 664.149C1134.76 665.867 1130.35 664.314 1128.65 668.972H1128.66Z" fill="white"/>
<path d="M1056.05 727.361C1067.52 715.933 1078.98 704.505 1090.44 693.077C1095.19 687.019 1099.67 674.076 1085.52 674.331C1079.96 676.685 1074.68 676.953 1069.97 679.689C1053.72 689.106 1041 704.021 1029.57 718.249C1020.29 729.143 1011 740.037 1001.72 750.918C995.353 757.968 988.983 765.019 982.613 772.069C980.368 773.711 975.996 775.238 973.051 773.138C967.238 768.989 965.227 756.352 969.496 749.034C978.837 733.05 999.194 720.553 1011 705.65C1013.98 701.883 1026.6 683.888 1016.46 678.874C1012.35 676.838 1006.97 679.829 1004.18 681.012C993.213 685.683 985.999 692.975 977.423 699.758C961.166 712.599 930.327 741.03 941.653 772.871C944.845 781.843 949.814 789.186 955.302 795.906C961.919 804 972.713 811.508 982.055 816.789C985.065 818.495 991.747 819.271 994.886 817.057C1000.83 812.882 997.403 801.518 1000.35 794.289C1002.75 788.41 1018.24 777.045 1024.38 774.474C1029.99 772.12 1033.81 776.002 1036.66 778.763C1042.84 784.719 1049.4 791.909 1058.23 795.104C1062.51 796.656 1073.04 798.896 1075.97 794.569C1079.79 788.931 1073.64 781.728 1071.6 778.763C1065.37 769.689 1057.82 761.239 1050.31 753.323C1048.05 750.943 1041.85 746.896 1042.94 741.806C1044.18 736.092 1052.25 731.078 1056.05 727.349V727.361Z" fill="white"/>
<path d="M887.32 49.5435C892.237 62.0408 897.154 74.538 902.058 87.0353C904.238 92.444 905.652 100.614 910.245 103.643C914.371 106.354 927.786 101.531 931.808 100.423C951.386 95.0529 974.804 90.2296 984.224 74.9834C988.298 68.3785 987.545 54.5959 976.037 57.3066C964.749 60.9717 953.462 64.6242 942.187 68.2894C937.608 69.5366 930.173 70.6183 926.346 68.0221C922.609 65.4769 921.403 59.5591 920.066 54.634C919.262 51.6561 917.277 47.0873 918.159 43.1167C920.274 33.6483 944.237 38.8661 951.736 40.7114C958.016 42.1368 964.295 43.5621 970.575 45.0002C976.141 46.1074 981.616 44.6057 985.314 43.1294C999.676 37.3898 998.898 29.0414 994.876 13.4007C993.967 9.02285 993.059 4.65771 992.151 0.279855V0.0635076H968.408C968.707 4.65771 972.106 14.7115 967.578 16.875C964.14 18.6949 947.533 13.1971 942.732 12.319C932.937 10.5246 920.339 11.9117 911.335 13.388C908.013 13.9352 902.136 15.4624 898.503 14.1897C893.171 12.319 887.579 4.36501 884.349 0.0507812H844.777C848.215 3.7796 851.654 7.50841 855.105 11.2372C865.458 23.8363 880.301 33.9283 887.32 49.5308V49.5435Z" fill="white"/>
<path d="M1205.93 78.7377C1204.29 85.6354 1212.35 90.5351 1216.03 92.6604C1223.04 96.7201 1231.3 96.9873 1241.15 98.5527C1268.85 102.969 1286.42 91.3241 1293.84 74.449C1299.44 61.6972 1300.21 38.8789 1289.47 30.7976C1285.35 27.7051 1279.77 29.6904 1277.45 32.9357C1270.43 42.7858 1271.61 59.8264 1262.99 68.0222C1261.05 69.8548 1248.42 76.0525 1245.24 70.962C1243.45 68.1749 1248.69 57.5993 1249.88 54.8886C1254.25 44.9748 1258.61 35.0737 1262.99 25.1599C1265.49 19.2167 1267.02 12.3445 1270.63 7.48299C1280.84 7.5848 1291.41 11.3263 1302.3 8.81926C1309.77 7.1012 1314.31 2.82515 1319.93 0.0380859H1240.58C1237.79 17.8422 1226.13 42.9895 1217.93 56.7594C1214.01 63.3389 1207.78 70.8856 1205.91 78.725L1205.93 78.7377Z" fill="white"/>
<path d="M1015.36 46.871C1017.67 51.9997 1025.6 55.7158 1030.1 58.9228C1042.8 67.9585 1067.04 81.0794 1072.42 96.1474C1078.78 113.964 1049.72 125.596 1039.93 132.036C1036.56 134.25 1027.14 138.462 1029.01 145.157C1030.88 151.825 1042.88 153.734 1052.22 152.118C1066.04 149.725 1076.98 144.355 1084.16 135.51C1086.38 132.787 1088.11 129.541 1090.99 127.48C1095.68 127.976 1099.13 131.997 1102.46 134.174C1110.55 139.264 1118.66 144.355 1126.76 149.433C1138.77 156.661 1150.79 163.89 1162.8 171.131C1169.39 175.076 1177.98 178.029 1181.09 185.321C1185.52 195.693 1183.1 210.977 1185.19 223.08C1186.44 230.308 1188.84 243.48 1187.37 251.472C1183.88 270.447 1170.19 282.665 1166.63 302.085C1165.16 310.039 1174.71 315.282 1178.37 318.96C1185.19 325.807 1189.11 334.703 1191.47 346.004C1193.13 353.945 1193.68 366.62 1187.64 369.573C1181.75 368.186 1177.98 361.415 1173.72 358.055C1165.86 351.845 1156.51 343.955 1152.43 334.219C1147.66 322.829 1146.69 311.922 1140.69 301.818C1131.49 286.304 1120.63 273.451 1104.92 264.326C1098.55 261.386 1092.18 258.434 1085.81 255.494C1083.59 254.387 1079.84 252.809 1078.99 250.403V241.838C1078.03 237.537 1073.34 232.688 1067.52 234.877C1061.3 237.206 1045.11 253.089 1041.04 258.446C1039.22 260.839 1037.53 264.873 1039.4 268.627C1042.33 274.532 1068.91 279.483 1076.53 282.55C1095.26 290.084 1109.83 302.772 1117.77 320.844C1128.33 344.909 1120.59 357.521 1104.66 370.12C1097.08 376.114 1090.53 383.534 1082 388.599C1075.91 392.213 1067.89 393.32 1060.98 396.094C1050.49 400.294 1041.62 406.263 1033.41 412.702C1024.31 421.534 1015.2 430.379 1006.11 439.211C1002.87 442.393 999.389 448.247 993.551 448.591C987.038 445.104 980.499 416.418 974.713 408.414C966.072 396.451 946.727 392.111 927.759 397.965C921.298 400.816 914.837 403.679 908.376 406.53C901.227 402.279 869.427 386.308 856.505 395.28C852.587 397.991 853.417 404.914 852.405 410.539C848.98 429.666 853.119 448.387 861.682 459.013C866.742 465.275 890.367 477.352 893.896 461.419C896.543 449.469 873.125 434.515 883.79 422.858C887.293 419.027 894.091 421.28 897.438 423.392C906.598 429.196 910.529 438.855 912.722 451.518C914.733 463.099 906.598 470.174 902.07 475.889C890.783 489.098 879.495 502.308 868.221 515.518C861.682 523.74 854.637 534.57 844.737 539.355C835.214 543.962 816.337 533.424 806.515 531.592C795.085 529.454 797.317 542.244 800.508 547.398C810.447 563.408 837.757 575.243 860.293 562.389C878.911 551.776 897.192 526.565 910.529 509.906C919.767 498.363 932.676 488.182 938.93 474.018C943.575 463.48 942.407 449.392 939.202 438.129C938.385 435.241 933.571 423.38 935.102 420.453C936.361 418.047 943.484 417.678 947.117 418.582C956.691 420.949 957.898 438.944 961.038 447.776C963.308 454.203 965.592 460.63 967.862 467.056C967.097 472.351 960.182 478.154 957.21 482.048C947.207 495.182 936.387 507.03 924.723 518.471C920.299 522.811 901.227 538.146 903.433 546.596C905.898 556.039 921.921 552.145 928.823 549.269C942.783 543.478 954.356 532.343 963.217 521.411C966.63 517.198 969.769 511.802 974.142 508.557C979.059 508.875 981.329 514.411 983.704 517.389C988.128 522.951 994.291 529.352 1001.45 532.113C1006.37 534.01 1015.52 534.366 1018.38 530.51C1022.11 525.496 1018.44 519.68 1015.93 516.32C1010.74 510.071 1005.55 503.823 1000.38 497.574C998.403 495.156 994.719 492.866 993.824 489.544C992.098 483.13 1009.06 468.698 1012.39 464.638C1015.39 460.986 1020.33 453.414 1026.04 452.854C1031.58 455.488 1035.02 460.337 1039.96 463.569C1045.46 467.158 1052.41 469.462 1059.89 471.065C1074.67 474.247 1102.61 471.205 1105.48 460.082C1107.48 452.319 1099.47 449.94 1094.56 448.565C1085.17 445.943 1054.5 443.462 1053.88 434.108C1057.03 426.587 1076.94 416.775 1089.11 420.453C1106.13 427.859 1123.15 435.266 1140.16 442.686C1153.98 448.451 1169 452.701 1177.56 463.569C1181.69 468.813 1193.78 494.914 1204.59 487.673C1214.1 481.31 1207.33 456.443 1203.23 449.647C1192.35 431.652 1168.75 422.54 1148.35 414.026C1138.76 410.03 1124.59 407.026 1118.04 399.836C1118.26 393.638 1126.08 389.388 1129.78 386.181C1134.19 382.35 1139.68 374.218 1145.89 372.792C1151.27 371.558 1156.74 378.99 1159.27 381.357C1163.97 385.748 1181.34 404.85 1186.02 405.995C1192.35 407.535 1197.79 402.954 1200.76 400.638C1220.69 385.162 1221.21 346.449 1210.04 321.365C1207.4 316.809 1204.76 312.253 1202.12 307.71C1200.14 304.961 1196.14 301.907 1195.57 298.063C1194.77 292.617 1206.06 275.576 1208.95 271.822C1213.94 265.357 1232.07 275.169 1236.25 278.516C1241.32 282.576 1238.44 295.785 1240.07 303.154C1243.08 316.835 1249.53 327.385 1260 333.684C1267.94 338.457 1281.1 341.091 1293.31 338.508C1297.54 337.617 1310.04 333.443 1313.51 334.486C1313.96 334.753 1314.42 335.021 1314.87 335.288C1316.69 341.791 1306.42 366.913 1304.49 375.452C1302.95 382.324 1303.67 390.864 1309.13 392.595C1317.66 395.293 1322.98 386.728 1326.07 382.681C1336.41 369.127 1340.17 354.339 1343.81 333.404C1344.81 327.652 1346.57 315.944 1343.81 310.637C1341.12 305.432 1330.1 306.488 1323.07 307.697C1315.15 309.059 1281.62 314.29 1275.01 311.719C1270.98 310.141 1268.53 305.954 1267.64 301.27C1263.12 277.307 1282.04 270.256 1293.31 261.373C1307.42 250.238 1316.98 232.688 1324.7 215.317C1328.56 206.637 1339.31 188.248 1331.8 177.558C1324.91 175.611 1317.74 178.576 1312.69 181.045C1311.22 181.757 1309.2 183.781 1306.96 183.45C1302.22 181.223 1297.48 178.983 1292.76 176.756C1282.81 171.767 1272.86 167.3 1261.91 163.368C1257.43 161.764 1247.62 157.336 1242.25 161.23C1237.45 164.691 1237.34 172.544 1235.7 179.174C1230.98 198.289 1230.43 227.776 1249.35 231.937C1253.1 232.765 1256.2 231.517 1258.35 230.067C1272.09 220.776 1255.5 205.238 1261.35 194.178C1267.35 193.198 1284.11 203.596 1288.92 206.497C1291.46 208.025 1295.12 209.692 1294.66 213.993C1293.58 223.92 1269.19 245.326 1260.81 249.614C1257.5 251.307 1252.53 253.547 1246.88 252.554C1231.03 249.78 1214.85 238.11 1210.84 223.627C1209.57 213.09 1208.3 202.565 1207.02 192.028C1205.54 183.336 1206.77 166.091 1202.64 160.161C1199.36 155.439 1177.4 146.213 1170.97 142.484C1155.48 133.474 1139.93 124.298 1125.38 114.359C1120.01 110.694 1112.95 107.601 1109 102.574C1104.9 96.0583 1100.81 89.5424 1096.71 83.0265C1093.01 77.2615 1083.48 67.9458 1082.79 60.5264C1086.61 55.3213 1102.92 51.5416 1109.81 48.7418C1129.25 40.8642 1148.18 30.8104 1164.15 19.2803C1170.56 14.6606 1177.65 9.4174 1179.15 0.0508123H1142C1141.92 0.203528 1141.83 0.368971 1141.76 0.534413C1136.75 3.20694 1131.74 5.8922 1126.74 8.56473C1116.55 13.6553 1106.36 18.7458 1096.16 23.8236C1086.47 29.385 1074.61 36.4354 1062.59 38.8152C1049.39 41.4241 1046.23 19.6366 1050.57 9.35376C1054.06 1.11982 1061.08 3.91962 1067.4 0.0380859H1022.19C1022.28 11.9754 1021.47 21.991 1018.36 30.7722C1016.97 34.6919 1012.99 41.5769 1015.36 46.8456V46.871Z" fill="white"/>
<path d="M313.432 12.5862C322.423 11.199 329.13 8.61557 334.995 4.28862C336.344 2.876 337.693 1.4761 339.03 0.0634766H280.672C281.152 9.48096 301.353 14.457 313.432 12.5862Z" fill="white"/>
<path d="M356.025 21.9655C352.107 25.9871 348.202 29.9958 344.284 34.0174C334.955 45.3947 324.628 56.3139 312.886 65.3496C307.333 69.9056 301.78 74.4617 296.227 79.005C293.178 80.2394 279.75 75.8488 276.026 74.9835C259.095 71.1019 230.682 68.4039 218.149 77.3887C207.497 85.0245 197.637 107.385 205.045 124.794C211.506 139.977 243.5 158.15 264.012 145.144C267.645 142.84 271.109 140.219 272.744 136.044C276.597 126.232 266.62 124.794 259.368 123.458C249.741 121.689 226.88 117.718 229.605 105.514C231.084 98.8835 241.567 99.8507 249.806 99.8889C264.285 99.9525 283.007 102.74 289.39 111.139C295.825 119.589 291.998 132.723 288.3 141.402C278.933 163.355 266.854 181.439 261.82 208.355C258.628 225.434 263.571 255.71 274.924 260.037C280.165 262.035 283.616 257.365 285.303 254.679C291.686 244.46 286.276 227.878 289.13 213.968C295.708 181.948 316.506 161.599 322.708 130.139C325.756 114.715 313.768 91.5404 328.987 85.6863C333.658 83.8919 344.984 82.7465 349.188 85.6863C353.249 88.5243 355.506 109.345 353.833 116.751C349.071 137.762 335.305 152.754 327.625 171.92C324.719 179.161 323.239 191.824 331.997 193.886C341.663 196.164 350.836 181.859 354.118 176.743C362.331 163.928 369.337 149.662 375.409 134.695C380.014 123.356 382.96 110.134 389.875 100.958C394.247 95.1547 415.226 81.1175 412.268 72.0309C410.218 65.7441 400.098 65.0696 391.795 66.6731C380.027 68.9512 373.177 74.7798 366.132 65.6041C364.783 63.8479 363.031 62.0789 362.577 59.4446C361.63 53.9086 370.076 48.9454 372.684 46.0565C382.441 35.2391 393.417 25.7071 403.809 15.526C407.818 11.5936 413.228 6.96118 409.57 0.0507812H383.297C383.128 0.305308 382.96 0.547108 382.791 0.801635C373.813 2.69786 361.28 15.5642 356.038 21.9528L356.025 21.9655Z" fill="white"/>
<path d="M624.799 0.0634766H596.982C600.55 1.32338 604.313 2.74873 609.1 3.48686C615.263 4.42861 620.92 1.62882 624.799 0.0634766Z" fill="white"/>
<path d="M1453.83 386.168C1448.48 390.088 1448.29 401.91 1446.74 409.47C1443.6 424.665 1439.61 464.448 1451.38 472.936C1455.08 475.596 1461.83 475.138 1467.56 474.565V385.85C1463.76 384.768 1456.82 383.992 1453.83 386.168Z" fill="white"/>
<path d="M1399.77 268.87C1396.23 272.064 1387.76 278.758 1390.21 286.279C1392.1 292.057 1400.77 290.173 1406.32 288.684C1421.33 285.019 1436.36 281.367 1451.37 277.702C1451.64 278.058 1451.92 278.414 1452.19 278.771C1454.03 283.403 1448.49 313.832 1446.45 316.53C1441.08 323.656 1415.08 324.611 1404.13 327.245C1384.96 331.852 1372.54 340.532 1365.91 357.241C1365.09 360.359 1364.27 363.49 1363.46 366.621C1357.88 395.802 1386.19 397.253 1396.76 411.608C1403.21 420.364 1395.06 436.386 1388.58 440.268C1382.87 443.678 1376.82 439.479 1373.29 436.781C1361.21 427.554 1351.65 415.706 1338.07 407.854C1331.98 404.341 1318.88 401.669 1313.77 408.121C1306.46 417.36 1320.98 429.336 1326.33 433.561C1340.06 445.791 1353.8 458.021 1367.56 470.251C1373.01 474.553 1382.62 480.508 1384.22 488.195C1385.29 493.4 1382.06 498.262 1380.66 501.583C1375.56 513.762 1370.57 525.967 1359.64 532.381C1354.05 535.664 1338.38 537.319 1335.61 530.243C1333.9 525.789 1338.85 512.273 1339.71 506.941C1342.46 489.951 1336.03 474.667 1329.34 465.428C1317.09 448.514 1287.38 436.03 1262.44 450.436C1247.86 458.861 1240.38 470.34 1237.32 490.333C1236.65 494.775 1237.89 499.585 1238.68 502.92C1244.07 525.496 1258.98 541.455 1281.82 546.838C1285.94 547.805 1292.55 548.416 1297.67 547.64C1300.47 547.22 1305.59 545.896 1308.32 546.838C1312.66 548.327 1318.49 555.174 1323.06 557.821C1333.99 564.146 1354.6 565.024 1367.83 559.959C1381.49 554.741 1389.25 544.14 1396.23 532.381C1399.75 526.451 1401.61 520.698 1406.61 516.308C1413.72 516.575 1419.23 520.304 1425.99 521.665C1445.05 525.496 1458.13 515.557 1467.5 508.545H1467.57V487.661C1456.65 487.712 1446.98 490.69 1436.92 492.738C1432.78 493.591 1425.47 494.877 1421.91 492.471C1418.51 490.181 1416.52 485.459 1414.54 481.756C1412.47 477.9 1405.09 467.464 1406.62 461.406C1407.53 457.805 1411.36 455.234 1413.45 452.574C1420.23 443.908 1430.34 430.672 1426.28 413.746C1422.75 399.009 1413.58 387.454 1403.07 379.461C1399.68 376.891 1389.65 372.08 1391.05 365.539C1393.44 354.441 1424.14 345.52 1441.02 348.931C1451.11 350.98 1458.7 356.121 1467.57 359.036V245.873C1460.27 247.731 1452.97 249.589 1445.66 251.447C1428.86 256.398 1411.1 258.688 1399.8 268.857L1399.77 268.87ZM1302.02 520.075C1281.1 527.532 1259.31 505.134 1265.71 485.255C1268.75 475.838 1275.22 474.451 1284 470.531C1300.42 470.238 1308.95 479.172 1313.49 490.346C1318.68 503.149 1311.72 516.613 1302.02 520.075Z" fill="white"/>
<path d="M1393.22 197.372C1384.94 193.822 1367.08 175.368 1356.09 178.894C1344.4 182.648 1355.62 213.407 1351.44 226.834C1345.23 246.814 1327.04 259.68 1313.49 272.89C1310.17 276.135 1298.81 283.249 1303.11 290.567C1309.42 301.245 1328.95 292.222 1335.33 288.429C1351.95 278.553 1366.83 261.017 1374.91 242.907C1377.37 235.411 1379.83 227.915 1382.28 220.407C1387.32 220.738 1391.35 223.83 1395.39 225.497C1400.39 227.012 1405.4 228.539 1410.4 230.053C1432.21 235.335 1453.95 230.321 1467.46 221.756H1467.54V202.743C1441.78 202.921 1411.6 205.263 1393.19 197.385L1393.22 197.372Z" fill="white"/>
<path d="M1423.25 9.64618C1396.5 15.3348 1381.84 26.6231 1377.39 54.0993C1375.63 64.993 1379.72 75.2123 1383.4 81.41C1394.33 99.9141 1418.44 114.053 1451.38 108.453C1456.78 107.308 1462.18 106.163 1467.56 105.017V71.6234C1464.47 73.4051 1461.77 75.7595 1458.21 77.1339C1442.3 83.2299 1419.75 80.341 1411.52 70.1726C1408.83 66.8383 1404.99 62.5623 1406.33 55.4483C1408.37 44.7327 1416.78 40.4312 1427.08 37.7714C1429.62 37.415 1432.18 37.0587 1434.72 36.7024C1445.61 36.5242 1454.86 36.8805 1461.48 40.7239C1463.5 42.1874 1465.52 43.6637 1467.56 45.1272V11.2115C1462.44 10.2443 1457.31 9.27711 1452.2 8.29718C1442.9 6.83366 1430.88 8.01721 1423.25 9.63345V9.64618Z" fill="white"/>
<path d="M0.142578 623.196V643.444C6.95402 639.741 12.6497 624.291 0.142578 623.196Z" fill="white"/>
<path d="M18.021 717.714C22.9641 713.808 32.4872 708.093 30.3075 699.236C23.6777 689.755 5.77337 701.259 0.142578 703.461V746.552C1.21943 731.472 8.88717 724.93 18.021 717.714Z" fill="white"/>
<path d="M81.3647 934.902C91.1602 933.133 100.8 938.249 109.207 934.902C113.515 933.184 127.864 921.933 123.946 915.087C119.625 907.54 92.8468 905.466 80.2619 908.125C54.5341 913.56 36.1756 928.831 36.3054 959.642H63.0581C63.0711 946.075 69.8176 936.989 81.3517 934.902H81.3647Z" fill="white"/>
<path d="M19.3833 778.775C28.3744 775.695 36.1459 771.725 42.8665 766.456C50.7289 760.297 56.6191 750.981 62.5224 742.887C69.8009 733.342 77.0794 723.785 84.3579 714.227C89.0935 707.355 93.8291 700.483 98.5517 693.611C102.807 694.171 106.79 697.352 110.293 699.236C122.567 705.802 142.949 715.716 162.164 709.149C165.901 707.877 169.728 706.452 171.168 702.99C174.879 694.082 162.073 691.727 156.974 689.335C141.6 682.106 126.394 674.445 111.928 666.033C108.412 663.996 98.2143 656.17 93.6345 656.653C88.0166 657.251 78.5325 673.974 75.3409 678.619C66.6093 690.493 57.8647 702.366 49.133 714.24C42.1919 723.836 35.6529 733.635 27.2975 741.818C20.8364 748.143 11.9231 756.097 0.142578 750.714V787.404C0.259346 787.187 0.389087 786.984 0.544777 786.806C4.5019 781.766 12.6237 781.079 19.3833 778.775Z" fill="white"/>
<path d="M50.2358 858.849C59.9665 870.723 74.2251 880.687 90.6374 885.893C103.274 889.901 133.582 895.374 135.139 878.13C135.904 869.679 122.022 867.147 115.755 865.009C93.5177 857.424 77.5335 849.355 64.702 832.875C60.6671 827.682 54.6341 813.174 48.3157 811.456C30.7097 806.646 10.7944 816.063 1.63461 802.077C1.21943 801.441 0.609648 799.583 0.142578 797.343V835.56C10.496 836.718 24.9751 834.949 32.4872 839.301C39.8306 843.552 44.9813 852.435 50.2358 858.849Z" fill="white"/>
<path d="M11.7415 894.203C20.3044 891.861 40.635 895.616 44.7737 888.845C48.0821 883.436 41.9064 878.193 39.3116 875.724C29.9442 866.816 15.0888 861.904 0.142578 858.62V920.19C1.80327 917.034 4.52785 913.687 6.0069 910.009C8.12169 904.753 8.95204 898.721 11.7415 894.203Z" fill="white"/>
<path d="M33.8495 47.1385C29.6199 30.6452 16.5938 15.9844 0.142578 11.5557V45.9168C7.03186 51.2109 6.55182 65.1844 0.27232 70.6949H0.142578V104.687C18.6697 102.193 40.1809 71.7512 33.8495 47.1385Z" fill="white"/>
<path d="M75.8988 136.579C81.5036 129.694 89.9368 116.013 96.6445 111.139C102.937 106.57 114.64 107.232 121.49 103.376C136.812 94.7347 152.459 64.7896 141.963 40.7114C128.146 8.98464 74.2381 32.0575 63.0673 0.267098V0.0634766H36.3146C36.3794 24.7907 59.9146 39.4642 80.816 44.4657C90.2093 46.7182 113.355 46.9473 116.586 54.1122C118.895 59.2409 115.716 66.1004 113.861 69.1038C101.964 88.3461 83.2292 77.8087 67.4526 69.9056C63.9496 68.1494 58.2798 65.4896 54.0762 68.3021C38.1569 78.954 67.7769 94.7474 65.8178 103.389C64.3517 109.803 56.3207 116.293 51.6241 119.996C36.8465 131.616 21.8873 142.255 0.142578 147.256V176.209C28.4522 175.598 62.8208 152.665 75.8988 136.579Z" fill="white"/>
<path d="M170.911 52.216C174.077 62.7407 162.789 76.3706 159.442 83.8155C157.807 88.5497 156.159 93.2839 154.525 98.0054C152.332 107.206 155.031 118.584 162.711 119.971C170.392 121.345 180.538 101.429 183.73 96.4018C188.296 89.2369 193.11 81.6138 196.561 73.3672C211.819 36.9826 179.941 19.4457 164.411 0.0634766H119.209C119.585 0.19074 119.91 0.343456 120.13 0.547077C136.646 15.106 163.983 29.1686 170.911 52.2287V52.216Z" fill="white"/>
<path d="M0.142578 487.953V507.653C5.09871 504.014 13.493 488.424 0.142578 487.953Z" fill="white"/>
<path d="M0.142578 202.731V220.879C6.85022 218.397 13.506 202.553 0.142578 202.731Z" fill="white"/>
<path d="M29.2177 357.787C31.9812 342.388 8.86122 337.858 6.82428 329.395C7.18755 323.146 7.55083 316.898 7.91411 310.649C8.00493 295.925 8.09574 281.188 8.18656 266.463C8.18656 256.906 10.6127 244.625 0.142578 245.834V359.187C6.91509 362.267 26.9991 370.068 29.2047 357.787H29.2177Z" fill="white"/>
<path d="M90.9255 445.626C95.674 441.872 108.869 425.748 105.664 416.165C102.265 405.984 88.0452 415.656 83.8286 418.57C68.0001 429.514 55.4541 438.932 33.0477 444.277C27.3521 445.639 16.1424 448.999 9.83693 446.682C2.19515 443.883 2.84386 428.216 7.38482 422.311C13.1713 414.79 41.1955 425.582 45.8792 411.863C48.0069 405.627 41.0139 402.407 37.6925 400.346C28.0527 394.364 13.9887 386.894 0.158203 385.901V474.528C43.6865 475.253 67.2476 464.359 90.9255 445.601V445.626Z" fill="white"/>
<path d="M122.594 571.221C119.597 571.755 116.587 572.29 113.59 572.824C107.674 574.453 101.861 576.693 96.9313 579.518C75.2255 591.99 57.4768 612.25 44.2432 633.083C40.7531 638.581 26.2999 662.061 35.784 669.773C45.4757 677.651 58.1385 662.341 62.2643 657.187C76.2115 639.739 98.9553 604.564 124.242 600.415C149.126 596.33 140.096 627.446 138.163 642.463C136.386 656.284 147.933 667.724 160.284 660.14C167.433 655.749 164.968 638.085 166.564 628.273C172.506 591.596 158.779 570.953 122.607 571.233L122.594 571.221Z" fill="white"/>
<path d="M321.62 735.926C332.116 744.16 342.534 752.266 357.935 755.741C364.525 757.23 374.399 757.039 378.68 753.87C386.646 747.977 373.594 738.853 369.949 736.193C350.89 722.359 330.935 708.424 316.443 690.136C307.712 679.115 295.801 666.313 292.96 650.239C291.831 643.889 294.439 638.34 295.685 633.899C296.774 628.274 297.864 622.648 298.967 617.023C299.849 611.411 298.435 605.442 297.332 601.485C292.117 582.79 278.364 573.538 253.921 573.627C249.821 574.339 245.734 575.052 241.634 575.765C232.734 578.208 224.612 582.077 218.151 587.015C198.508 602.006 194.603 638.009 215.971 654.235C224.262 660.522 235.134 663.182 247.641 665.485C254.92 666.822 263.95 665.893 268.932 669.507C273.122 672.536 279.908 688.113 283.398 693.343C293.725 708.768 307.115 724.536 321.62 735.926ZM270.022 628.273C265.429 635.744 252.87 639.676 240.531 636.037C227.466 632.18 222.964 619.95 232.072 608.459C236.95 602.312 243.71 601.905 251.728 598.545C266.142 598.188 273.045 600.988 273.019 614.885C273.019 620.192 272.11 624.863 270.022 628.273Z" fill="white"/>
<path d="M260.186 716.646C264.74 715.081 269.138 713.172 271.383 709.418C275.457 702.596 265.506 698.778 261.821 696.564C251.377 690.277 237.209 677.933 221.419 678.085C212.908 682.514 215.127 691.715 219.512 698.969C226.129 709.939 240.426 723.417 260.186 716.646Z" fill="white"/>
<path d="M78.3652 762.969C83.8663 766.94 97.2037 763.58 104.846 763.504C116.535 763.389 128.848 762.015 140.343 763.771C146.142 764.662 154.563 766.52 161.361 765.107C166.33 764.076 171.377 759.991 173.103 755.728C176.229 747.99 168.328 744.618 163.541 742.607C150.852 737.275 133.804 735.773 115.484 735.913C111.657 736.18 107.843 736.448 104.015 736.715C92.5979 738.751 85.5919 741.818 79.1696 748.499C75.9391 751.859 73.2015 759.24 78.3523 762.957L78.3652 762.969Z" fill="white"/>
<path d="M232.889 557.032C238.806 553.355 244.462 547.615 248.173 541.774C250.353 537.841 252.545 533.921 254.725 529.989C258.423 527.456 268.075 529.874 273.019 528.92C283.074 526.96 293.881 518.179 295.957 508.571C299.304 493.019 269.762 501.202 257.735 499.191C248.03 497.575 242.75 492.446 235.899 488.208C226.454 482.38 215.815 478.04 200.402 478.027C194.084 480.28 185.871 479.694 179.656 481.514C159.91 487.267 139.774 492.79 122.596 501.329C116.174 504.524 101.747 511.459 106.482 523.028C109.778 531.045 123.089 529.505 132.962 527.851C134.999 527.507 139.294 526.616 141.149 527.851C142.965 530.791 144.795 533.743 146.611 536.683C149.972 541.952 154.538 547.882 159.443 551.675C175.647 564.248 212.286 569.835 232.889 557.032ZM176.646 528.907C174.052 526.375 168.745 521.717 170.367 515.519C172.534 507.272 187.765 510.161 195.757 507.222C210.833 506.903 235.303 510.518 223.055 526.502C213.753 538.656 187.986 539.992 176.646 528.907Z" fill="white"/>
<path d="M138.15 196.838C134.828 183.31 113.395 194 108.115 197.907C101.342 202.921 94.8161 210.557 92.0007 219.326C82.8929 247.782 120.946 271.898 149.061 266.731C184.429 260.215 203.41 225.142 190.293 183.985C181.73 157.107 164.786 135.612 128.315 135.777C121.932 138.361 110.904 140.664 118.753 151.036C123.113 156.801 132.804 159.334 139.227 163.088C155.38 172.544 163.981 183.896 167.9 205.67C169.275 213.332 167.731 222.049 164.617 227.089C156.846 239.701 140.226 242.819 126.94 232.981C124.475 231.148 121.322 228.692 120.661 225.218C118.935 216.22 141.731 211.461 138.137 196.826L138.15 196.838Z" fill="white"/>
<path d="M171.455 302.887C167.225 322.511 175.231 353.283 190.294 355.918C203.203 358.17 202.437 336.561 200.673 325.922C200.31 318.871 199.946 311.821 199.583 304.771C199.492 300.66 199.401 296.562 199.311 292.451C200.193 288.964 220.575 280.578 224.701 275.576C238.207 259.198 239.076 245.949 243.267 220.408C244.305 214.07 245.2 204.64 244.084 197.907C243.812 193.441 243.54 188.986 243.267 184.519C240.854 173.231 234.535 160.988 220.874 160.95C213.504 164.692 213.582 167.568 215.956 176.756C219.667 191.099 222.599 212.835 218.409 229.52C215.892 239.574 212.752 248.469 207.212 255.494C194.186 272.013 176.891 277.638 171.442 302.9L171.455 302.887Z" fill="white"/>
<path d="M213.504 756.542C229.073 768.594 268.268 775.543 289.403 763.236C293.594 760.805 298.083 758.095 299.237 752.788C301.443 742.645 287.483 743.841 280.126 742.607C256.643 739.756 233.16 736.893 209.69 734.042C198.013 739.96 207.238 751.681 213.517 756.542H213.504Z" fill="white"/>
<path d="M41.2335 567.213C52.5211 563.612 61.9014 555.429 68.5312 547.131C76.1341 537.625 84.6321 527.062 89.8218 515.532C94.1941 505.821 96.9836 494.47 105.105 488.488C111.67 483.652 121.738 482.545 129.951 479.389C143.107 474.324 155.601 468.457 166.811 461.445C174.686 456.52 181.368 449.864 187.829 443.501C190.644 440.739 192.629 436.234 197.936 436.005C206.304 440.103 211.169 450.691 218.409 456.354C236.845 470.786 251.856 475.635 285.576 475.635C295.216 475.635 320.412 477.467 323.798 472.148C329.701 462.896 333.36 434.605 329.26 421.802C322.812 401.695 311.563 385.227 303.87 366.099C300.276 357.165 299.199 347.404 297.318 336.638C293.918 317.192 301.469 295.175 305.777 280.934C307.982 273.668 309.28 264.912 300.587 263.792C295.618 265.866 292.323 266.77 288.573 269.684C268.515 285.261 264.117 330.898 273.017 362.612C275.482 371.406 278.285 379.818 281.749 387.785C282.774 390.152 285.939 394.441 284.746 397.699C281.411 403.743 262.456 398.195 260.173 407.345C259.329 410.73 261.224 413.263 262.352 414.841C268.178 422.935 275.651 422.324 288.288 424.22C292.232 424.806 294.905 424.284 297.564 425.824C301.846 428.305 307.464 435.89 303.026 441.897C297.577 449.266 277.649 451.556 264.26 448.858C245.434 445.079 235.236 433.638 225.493 421C222.47 417.093 216.216 412.626 215.658 406.811C218.85 399.951 229.45 394.059 234.224 387.53C244.759 373.124 248.82 354.709 250.338 331.025C251.246 316.848 249.78 295.086 239.414 292.732C232.59 291.179 228.347 296.6 227.127 300.762C225.765 313.972 224.403 327.182 223.028 340.392C220.368 353.869 216.229 363.706 209.106 372.526C203.748 379.156 195.782 382.834 185.351 384.578C175.27 386.258 159.701 383.356 156.133 391.272C150.126 404.622 172.934 407.829 177.696 413.505C176.827 418.366 166.227 425.366 162.412 428.229C152.76 435.483 142.679 442.393 130.742 447.509C120.817 451.76 109.166 454.102 100.435 459.561C94.246 463.43 87.707 469.615 85.4236 477.238C84.3986 480.649 85.5793 485.828 83.7888 488.488C81.1551 490.983 78.5083 493.49 75.8746 495.984C68.0512 504.727 60.2148 513.483 52.3913 522.226C44.3344 532.05 34.2534 540.552 27.0009 551.153C24.7693 554.411 21.5777 561.066 24.8212 565.61C27.6626 569.593 36.1736 568.817 41.2076 567.213H41.2335Z" fill="white"/>
<path d="M137.879 377.87C152.617 366.989 160.039 339.983 150.983 317.343C145.17 302.797 134.012 291.827 119.585 285.744C112.67 282.829 105.041 282.244 96.1018 280.92C92.0149 280.31 86.462 281.913 83.2703 280.386C80.8182 278.248 78.3531 276.097 75.901 273.959C66.4688 266.489 55.8429 251.497 39.8588 251.459C31.7369 255.659 31.2828 261.78 36.3038 269.67C41.1821 277.332 58.2821 290.287 59.7871 297.796C60.6304 302.033 58.0096 306.271 57.0625 309.313C54.7401 316.72 52.4956 328.148 54.6104 337.705C61.1624 367.485 103.354 403.386 137.879 377.87ZM81.3631 321.899C84.3213 314.582 89.2514 313.5 96.6467 310.382C114.162 310.064 123.296 318.514 128.044 330.464C132.676 342.147 127.162 355.115 118.21 358.589C100.526 365.436 74.2014 339.563 81.3502 321.899H81.3631Z" fill="white"/>
<path d="M1208.12 660.408C1202.39 657.124 1196.7 652.645 1187.92 652.645C1179.6 657.888 1185.83 666.262 1189.28 672.459C1197.11 686.509 1208.36 699.77 1223.96 706.197C1230.02 708.691 1243.86 712.255 1248.53 705.93C1254.03 698.485 1245.62 689.436 1242.25 685.313C1233.34 674.381 1220.83 667.687 1208.13 660.408H1208.12Z" fill="white"/>
<path d="M1195.01 726.826C1179.91 737.987 1168.27 753.093 1151.87 762.982C1146.16 766.418 1136.8 771.356 1127.84 767.538C1121.57 764.865 1105.79 747.952 1116.65 741.029C1123.91 736.396 1138.26 740.52 1143.4 733.8C1153.82 720.158 1135.58 706.337 1121.28 706.49C1118.22 707.737 1115.1 707.673 1112.55 709.162C1102.43 715.042 1095.16 725.121 1086.07 732.197C1082.18 735.226 1075.18 739.044 1074.87 745.318C1077.13 751.808 1082.94 754.455 1086.61 759.507C1096.54 773.188 1100.17 788.816 1118.56 794.327C1152.05 804.368 1183.93 777.133 1197.46 760.589C1203.39 753.335 1209.97 746.921 1211.93 735.684C1214.37 721.774 1202.3 721.456 1195 726.852L1195.01 726.826Z" fill="white"/>
<path d="M1293.29 653.713C1294.59 650.608 1294.16 645.721 1293.02 642.998C1288.57 632.448 1274.77 634.509 1261.9 632.282C1254.07 631.213 1246.24 630.144 1238.41 629.062C1226.97 633.937 1227.24 640.923 1235.41 648.877C1244.22 657.468 1284.81 673.999 1293.29 653.701V653.713Z" fill="white"/>
<path d="M1467.48 797.789C1467.39 797.61 1467.3 797.432 1467.21 797.254V788.689C1467.34 788.829 1467.46 789.058 1467.56 789.364V703.525C1467.46 703.728 1467.34 703.919 1467.21 704.059C1464.94 705.573 1462.66 707.101 1460.39 708.615C1455.03 707.406 1447.1 697.81 1442.64 694.425C1426.14 681.89 1397.16 660.026 1364.56 665.231C1338.63 669.367 1314.58 680.935 1307.5 703.257C1303.49 715.882 1305.07 732.592 1301.22 745.305C1298.51 754.277 1280.79 774.576 1291.66 783.064C1303.22 792.087 1330.39 799.736 1349.54 792.443C1364.33 786.806 1373.99 776.905 1380.93 763.516C1384.9 755.881 1391.04 742.391 1386.67 731.115C1384 724.205 1371.25 714.851 1364 724.421C1361.89 727.221 1361.36 730.823 1360.18 734.602C1356.89 745.191 1354.51 756.695 1346.53 762.727C1343.4 765.082 1336.3 769.231 1330.97 765.947C1325.96 762.855 1328.23 752.89 1327.14 745.865C1322.78 717.651 1337.06 701.196 1356.63 695.252C1386.32 686.242 1406.4 701.705 1421.61 713.731C1428.54 719.203 1435.62 725.528 1439.08 734.348C1441.9 741.5 1440.73 751.541 1442.08 760.055C1442.26 764.967 1442.44 769.88 1442.63 774.779C1445.23 790.993 1444.71 807.13 1448.91 821.103C1451.27 829.006 1455.64 838.436 1467.55 835.611V797.598C1467.52 797.674 1467.5 797.75 1467.47 797.801L1467.48 797.789ZM1467.48 742.085V748.779H1467.21C1467.3 746.552 1467.39 744.312 1467.48 742.085Z" fill="white"/>
<path d="M538.948 836.35C526.259 811.839 494.849 807.703 466.319 798.858C460.363 797.013 454.421 795.575 449.387 792.698C431.652 782.556 425.385 765.833 396.699 765.922C391.341 768.06 386.32 767.869 381.96 770.478C369.116 778.139 347.761 812.666 356.57 833.944C362.408 848.032 373.878 859.054 382.505 870.902C384.983 874.312 388.603 877.659 389.602 882.419C391.263 890.297 381.922 896.456 377.588 899.027C359.982 909.475 324.42 899.867 321.073 882.954C318.776 871.36 354.624 865.149 350.018 850.82C347.709 843.642 335.604 842.038 326.262 844.393C311.913 848.02 300.132 857.844 294.865 870.367C288.715 884.977 298.446 896.953 304.972 904.919C325.653 930.13 368.766 938.249 398.347 915.635C404.043 911.282 424.36 890.017 422.103 879.747C420.533 872.62 413.06 867.224 408.999 862.07C401.746 852.894 394.104 843.871 387.981 833.677C380.105 820.582 383.751 793.907 398.632 790.828C406.585 789.186 413.241 794.862 411.736 802.612C410.076 811.139 399.644 833.13 413.371 836.897C427.824 840.855 429.757 817.362 441.214 819.487C456.406 823.509 471.612 827.518 486.805 831.539C493.486 833.359 503.866 833.601 508.926 837.432C511.443 839.34 512.766 843.476 514.115 846.531C521.42 863.177 528.413 897.233 515.75 913.217C500.843 932.039 466.319 917.518 471.794 891.251C473.467 883.208 478.89 877.099 485.987 874.376C490.139 872.785 495.744 873.651 500.454 872.238C506.941 870.291 511.923 861.192 509.185 852.156C507.265 845.793 497.794 843.604 488.167 845.195C474.531 847.447 464.1 853.148 457.042 861.802C452.929 866.829 448.803 872.289 446.39 878.945C435.375 909.424 456.666 933.757 476.153 943.48C491.722 951.256 512.662 951.612 526.661 941.876C549.081 926.274 554.997 893.427 546.317 859.664C544.112 851.1 542.594 843.413 538.948 836.362V836.35Z" fill="white"/>
<path d="M416.355 498.656C407.053 501.138 393.002 506.394 395.882 519.54C396.894 524.198 399.165 527.367 402.706 529.454C406.106 531.452 412.022 531.833 416.628 530.523C430.004 526.743 444.315 525.165 462.491 525.165C470.769 525.165 479.812 525.852 482.147 520.074C484.548 514.144 478.411 509.588 475.595 507.488C464.84 499.483 451.463 496.582 431.911 496.772C426.722 497.396 421.532 498.02 416.355 498.643V498.656Z" fill="white"/>
<path d="M724.868 538.553C727.657 534.684 730.122 529.352 734.144 526.768C736.972 524.948 755.629 525.636 760.352 524.363C778.944 519.349 799.248 499.699 788.467 475.087C782.136 460.629 768.318 452.383 751.607 448.043C740.437 445.141 727.618 447.152 722.389 453.935C720.223 456.748 718.627 460.26 718.835 464.651C719.496 478.204 738.75 475.176 750.777 477.505C757.329 478.777 766.722 481.31 761.974 490.358C752.373 508.659 717.849 488.653 706.276 484.199C702.15 482.608 695.014 480.801 690.72 483.397C683.739 487.609 684.414 496.25 689.085 502.143C693.457 506.432 697.816 510.708 702.189 514.996C706.82 522.734 696.688 532.355 692.082 535.079C668.132 549.307 652.511 511.649 657.129 487.94C665.264 446.261 713.995 411.786 767.15 428.215C776.583 431.13 784.951 436.182 791.996 441.604C801.701 449.074 809.874 459.942 813.831 472.936C816.284 480.953 814.143 494.189 818.749 500.247C823.562 506.597 832.151 501.15 835.135 497.027C847.396 480.088 841.077 458.173 831.308 443.729C811.626 414.624 782.966 397.112 733.288 397.125C729.279 397.57 725.283 398.016 721.274 398.461C713.347 400.014 705.38 401.643 698.335 404.354C671.466 414.687 646.075 436.093 634.723 461.393C618.285 498.032 630.714 548.378 662.021 561.549C666.121 562.707 670.207 563.865 674.307 565.036C700.087 570.572 715.137 551.941 724.816 538.527L724.868 538.553Z" fill="white"/>
<path d="M905.066 816.534C900.318 814.879 892.948 816.865 888.952 817.603C875.848 819.295 862.744 821.001 849.641 822.693C845.424 824.271 836.705 836.769 833.527 840.637C825.003 851.022 811.406 859.447 799.677 866.612C790.141 872.428 770.044 882.825 752.996 880C735.144 877.047 721.469 869.195 717.499 852.689C713.723 836.998 723.609 812.601 703.032 812.792C699.581 814.612 696.766 815.719 694.573 818.684C687.671 827.987 686.568 851.709 690.473 865.556C697.051 888.819 716.409 902.449 741.254 907.871C784.29 917.25 827.442 886.529 846.916 867.426C854.195 859.663 861.473 851.887 868.751 844.124C870.918 841.452 873.915 835.42 879.403 836.361C884.865 837.303 889.393 842.954 892.78 846.275C902.718 856.023 912.786 866.726 920.622 878.409C923.503 882.698 928.251 891.212 923.905 896.888C918.546 903.875 894.674 893.503 886.228 891.53C879.572 889.977 873.241 891.772 872.034 897.155C870.127 905.593 878.015 912.223 882.413 915.099C889.277 919.592 923.412 932.394 935.374 929.556C942.328 927.902 947.505 922.353 950.113 916.435C965.137 882.418 939.603 856.393 925.267 838.232C920.661 832.391 912.15 819.015 905.066 816.534Z" fill="white"/>
<path d="M686.646 732.171C678.952 763.72 694.962 789.452 715.864 797.788C723.129 800.677 732.484 799.901 741.527 801.542C744.018 805.246 743.174 812.207 744.524 817.081C746.431 823.941 750.025 829.21 754.086 833.956C756.641 836.947 760.56 838.971 764.465 840.651C787.572 850.615 809.239 834.796 817.97 820.301C821.902 813.785 822.213 803.859 826.43 797.266C856.802 797.826 882.763 795.154 907.791 789.771C916.626 787.874 932.857 788.676 929.626 775.581C927.965 768.823 919.857 766.405 915.432 762.193C915.303 749.988 919.364 729.511 924.436 721.748C928.601 715.372 937.54 709.862 943.547 705.141C957.183 694.425 971.338 681.202 981.497 667.114C984.701 662.673 1000.59 632.6 988.321 626.95C981.224 623.081 969.885 638.836 966.2 642.489C953.356 655.19 941.433 669.265 927.161 680.515C920.505 685.758 915.238 693.56 906.688 696.856C899.889 699.477 890.275 695.507 884.567 694.183C868.764 690.518 855.414 694.514 848.252 703.83C839.365 715.398 842.297 734.971 839.248 752.839C838.119 759.431 841.051 767.576 833.513 767.83C826.455 764.98 821.681 758.82 816.037 754.442C807.552 747.85 799.041 741.691 790.102 735.429C785.911 732.489 778.775 727.832 783.277 721.239C791.101 718.923 798.937 716.594 806.761 714.278C822.823 707.609 841.817 694.094 852.079 681.61C857.373 675.17 872.812 651.359 879.377 649.208C884.489 647.528 893.804 648.966 898.761 649.743C920.401 653.141 940.511 647.49 943.807 631.799C945.961 621.541 933.791 620.968 924.423 622.419C905.948 623.132 887.473 623.845 868.998 624.557C862.861 625.512 856.659 624.621 851.522 625.894C847.266 632.346 846.656 642.221 842.79 648.661C832.982 664.951 815.869 678.619 798.289 687.222C790.738 690.925 780.06 694.934 768.253 693.114C762.311 692.198 750.985 690.811 748.053 694.718C741.76 703.104 757.316 727.31 760.884 732.209C757.225 738.954 750.531 744.07 746.418 750.955C742.967 756.733 741.15 766.621 735.766 770.503C733.444 772.183 729.136 772.577 725.932 771.305C711.31 765.489 708.585 738.751 718.835 725.783C722.48 721.176 733.859 719.292 735.494 716.136C737.79 711.974 731.16 701.157 729.487 697.925C720.846 681.253 718.173 668.769 714.748 646.243C711.647 625.894 725.659 606.83 735.766 598.837C738.763 596.47 742.461 594.052 744.498 590.807C748.974 583.706 745.419 576.528 737.128 575.815C734.858 576.083 732.574 576.35 730.304 576.617C725.529 577.813 720.742 579.901 716.928 582.242C695.274 595.529 680.392 629.966 689.085 666.605C690.837 673.974 692.86 681.05 695.637 687.489C697.388 691.536 700.658 695.596 701.372 700.343C702.059 704.911 697.388 708.844 695.637 711.593C691.835 717.561 688.501 724.523 686.633 732.209L686.646 732.171ZM866.286 751.719C866.312 737.045 868.064 724.09 878.573 719.318C902.925 718.91 892.585 777.121 874.2 773.15C865.469 771.267 866.273 762.154 866.286 751.732V751.719ZM768.539 761.365C769.745 759.787 771.782 759.584 773.728 758.693C786.313 758.489 798.911 772.399 800.754 783.064C802.038 790.458 797.186 797.508 795.019 802.344C792.839 807.218 790.011 813.874 784.367 815.198C777.543 816.801 775.285 809.789 773.715 805.819C770.744 798.323 761.792 770.172 768.526 761.365H768.539Z" fill="white"/>
<path d="M641.6 144.342C639.421 145.551 637.306 146.213 635.866 148.096C631.156 154.256 631.662 164.119 629.586 173.002C628.016 179.708 625.642 185.066 621.944 189.609C612.668 200.961 583.476 190.373 571.981 199.523C567.219 203.303 566.091 212.199 571.436 216.131C575.925 219.427 582.308 220.242 588.64 221.756C624.345 230.321 647.88 212.097 655.807 186.135C660.452 170.914 660.348 144.075 641.613 144.355L641.6 144.342Z" fill="white"/>
<path d="M824.796 126.398C821.721 130.153 817.284 138.463 823.161 142.739C827.651 146.01 840.832 145.513 847.735 144.343C870.504 140.486 884.724 132.443 890.874 112.743C894.909 99.8004 889.952 80.1128 876.135 80.3418C864.692 86.5777 865.6 103.796 855.662 111.407C847.267 117.821 831.465 118.266 824.809 126.398H824.796Z" fill="white"/>
<path d="M522.016 647.02C526.414 649.629 535.016 647.173 541.127 648.089C550.468 649.502 557.967 651.169 564.61 655.051C584.954 666.95 600.912 685.632 617.298 701.655C620.775 705.052 632.05 713.77 637.499 705.943C644.674 695.635 628.728 676.355 624.395 670.857C606.244 647.835 578.843 621.046 537.572 621.046C534.847 621.669 532.11 622.293 529.385 622.917C522.872 625.551 510.832 640.377 522.016 647.02Z" fill="white"/>
<path d="M451.853 140.333C441.772 134.3 437.218 122.147 427.825 115.694C424.478 113.391 419.483 113.849 417.446 117.031C412.684 124.501 415.811 137.227 419.081 143.54C426.787 158.404 449.479 179.721 474.234 169.247C489.608 162.744 504.853 141.86 495.524 119.97C488.207 102.79 456.913 72.0176 432.729 72.0303C421.286 77.4008 426.605 85.4438 433.002 91.8452C442.901 101.759 455.239 109.624 463.854 120.772C466.449 124.132 471.159 128.904 469.316 135.497C467.28 142.789 458.548 144.329 451.84 140.32L451.853 140.333Z" fill="white"/>
<path d="M601.745 173.002C614.304 165.532 615.497 138.094 620.583 122.657C624.047 112.132 638.28 116.421 641.601 108.467C646.039 97.8277 632.818 97.2296 627.68 93.7426C626.409 92.8772 626.344 91.0446 625.773 89.4538C623.554 83.3961 620.544 81.3217 611.852 81.4235C609.4 82.6197 607.103 82.8743 605.572 84.9105C602.562 88.8938 602.017 94.837 600.383 100.169C597.658 109.892 594.92 119.628 592.196 129.364C589.705 137.343 588.874 145.424 581.272 148.377C573.007 147.359 572.255 138.043 564.613 136.592C559.423 135.612 555.232 140.219 552.599 142.217C542.596 149.802 534.759 160.416 529.933 173.015C523.433 190.017 526.702 213.994 538.12 222.826C540.896 224.977 544.931 228.374 550.951 227.115C555.57 226.147 558.333 222.088 556.958 216.132C555.777 211.932 554.597 207.745 553.403 203.545C551.236 192.601 555.894 180.383 560.227 174.084C566.507 164.959 589.64 180.205 601.732 173.015L601.745 173.002Z" fill="white"/>
<path d="M704.396 217.188C718.992 225.88 742.398 222.801 757.63 216.921C761.989 215.241 771.629 209.222 777.285 210.227C783.928 211.41 789.014 215.088 794.489 217.455C802.131 221.032 809.773 224.595 817.427 228.171C821.19 230.055 829.468 234.267 834.359 230.576C844.673 222.826 829.87 207.007 825.355 203.533C818.984 199.244 812.614 194.968 806.244 190.679C802.144 188.172 795.683 186.072 793.14 182.114C788.988 175.649 790.571 162.503 788.223 154.804C781.826 133.793 766.984 119.552 738.804 119.717C734.419 121.423 729.722 121.308 725.7 122.937C711.26 128.753 700.375 139.405 692.94 152.131C679.953 174.351 685.441 205.913 704.409 217.214L704.396 217.188ZM713.673 168.714C718.084 157.705 725.531 153.824 736.339 148.899C753.698 148.593 768.203 161.358 760.912 179.162C757.578 187.32 749.456 191.748 740.984 194.968C736.741 196.572 729.424 198.213 723.507 196.572C713.271 193.734 708.989 180.409 713.673 168.714Z" fill="white"/>
<path d="M686.348 121.588C695.807 123.293 702.06 112.603 705.187 107.398C716.176 89.136 722.533 47.6736 712.011 24.1171C708.833 17.0031 704.473 8.46375 693.99 8.57829C684.48 14.5469 689.89 31.2693 689.89 44.4666C689.89 66.7504 684.934 84.7454 680.328 103.11C678.317 111.14 678.382 120.163 686.335 121.588H686.348Z" fill="white"/>
<path d="M442.835 452.586C424.191 455.412 403.381 453.185 387.955 449.367C378.12 446.936 369.7 443.996 357.102 444.009C341.974 452.599 352.989 461.177 362.564 467.043C380.196 477.835 415.732 485.598 441.473 476.69C448.284 474.336 457.73 470.645 459.494 463.569C461.583 455.17 451.113 451.339 442.835 452.586Z" fill="white"/>
<path d="M636.957 254.145C632.157 260.279 627.759 268.36 620.026 271.554C612.306 270.422 607.35 260.457 602.005 256.295C586.345 244.053 553.287 237.18 530.751 248.532C526.456 250.696 521.072 253.419 519.827 258.446C516.648 271.325 540.858 266.807 550.407 268.36C576.653 272.61 589.238 278.745 602.277 295.671C610.295 306.081 616.147 317.853 618.936 333.43C622.037 350.763 611.826 369.534 615.939 384.31C618.508 393.536 626.059 400.128 634.505 403.59C663.438 415.451 667.486 393.752 685.286 386.448C701.387 379.855 720.472 380.237 740.439 377.068C751.857 375.261 767.737 378.315 777.299 380.008C782.644 380.95 788.47 380.352 790.403 377.068C793.283 372.143 789.015 367.371 786.575 365.016C778.96 357.635 769.008 355.052 755.995 352.697C728.555 347.734 696.483 357.228 678.734 366.085C673.428 368.732 655.199 381.23 647.337 378.137C642.497 376.228 641.602 369.28 642.964 362.878C645.261 352.074 649.075 338.406 645.416 326.188C642.964 319.672 640.499 313.157 638.047 306.641C636.672 303.561 634.155 300.863 633.947 296.727C636.399 293.698 638.865 290.656 641.317 287.628C647.012 280.017 652.098 269.187 663.438 267.278C671.261 268.08 679.097 268.882 686.921 269.683C713.648 274.316 783.319 282.193 788.755 255.494C790.805 245.427 776.313 245.618 767.737 246.929H754.633C744.682 248.405 732.227 246.776 723.236 245.325C713.129 244.345 703.035 243.365 692.928 242.385C680.875 240.349 668.342 238.924 654.978 238.898C647.531 243.009 641.965 247.769 636.957 254.157V254.145Z" fill="white"/>
<path d="M658.802 306.908C655.481 314.862 658.555 328.988 664.264 332.348C669.493 335.427 675.422 330.451 678.185 328.326C687.384 321.288 694.753 310.713 699.476 299.399C702.694 291.7 701.357 283.478 691.562 283.593C677.485 289.04 664.394 293.469 658.802 306.895V306.908Z" fill="white"/>
<path d="M526.934 500.259C536.393 501.964 542.646 491.274 545.773 486.069C556.762 467.807 563.119 426.344 552.597 402.788C549.419 395.674 545.059 387.135 534.576 387.249C525.066 393.218 530.476 409.94 530.476 423.137C530.476 445.421 525.52 463.416 520.914 481.78C518.903 489.811 518.968 498.834 526.921 500.259H526.934Z" fill="white"/>
<path d="M856.738 182.916C853.974 185.677 847.915 189.89 849.096 196.037C850.77 204.818 859.423 215.992 863.835 223.347C869.569 232.905 874.383 242.908 880.766 251.74C882.79 254.54 884.866 258.943 891.145 257.365C896.465 256.029 902.381 239.497 904.794 234.063C908.92 224.773 912.734 215.203 916.808 205.403C918.222 201.993 922.05 196.342 920.091 190.946C917.262 183.158 908.375 176.655 903.432 170.33C899.579 165.404 895.362 155.529 887.045 155.338C873.747 161.027 866.248 173.435 856.738 182.916ZM896.594 191.748C895.05 194.777 893.494 197.818 891.95 200.847C890.561 203.163 888.888 209.488 885.67 208.878C882.777 207.821 881.986 204.869 880.481 202.451C878.56 199.371 875.602 195.948 874.746 192.002C873.5 186.288 882.063 176.362 884.853 173.791C886.085 173.804 886.423 173.842 887.032 174.326C889.679 175.522 897.775 186.886 896.594 191.735V191.748Z" fill="white"/>
<path d="M378.135 645.938C381.443 654.363 387.346 661.63 394.521 666.288C412.036 677.678 449.35 681.101 469.33 669.508C488.882 658.156 501 636.457 508.369 613.27C514.558 593.824 508.59 579.927 493.631 573.64C480.384 568.079 450.517 562.186 433.015 566.946C418.523 570.891 408.248 587.652 390.149 576.86C381.858 571.922 363.123 552.731 360.931 542.575C359.335 535.207 370.973 517.352 373.49 510.976C376.487 503.391 373.594 498.746 365.848 498.122C363.396 498.657 360.931 499.191 358.479 499.726C352.368 502.093 347.515 506.28 343.468 510.708C339.887 514.628 337.11 520.177 335.008 525.433C324.344 552.094 339.99 568.88 353.302 581.938C356.857 585.514 360.399 589.077 363.954 592.653C368.3 596.089 373.594 600.505 376.513 605.24C382.351 614.695 373.101 633.098 378.147 645.951L378.135 645.938ZM409.26 616.744C415.799 605.227 429.305 597.706 443.109 593.442C447.027 592.641 450.933 591.839 454.851 591.037C484.146 590.337 483.381 604.96 473.417 623.973C466.722 636.737 452.814 651.016 431.368 647.809C422.169 646.435 417.031 646.257 411.439 641.917C404.07 636.203 404.719 624.724 409.26 616.744Z" fill="white"/>
<path d="M356.843 416.966C372.659 429.336 401.682 439.619 431.38 433.574C436.751 432.327 442.122 431.08 447.494 429.82C451.983 428.445 457.743 424.488 462.777 425.264C469.615 438.576 475.401 453.949 484.068 465.708C486.52 469.042 492.358 476.207 498.807 471.868C501.181 470.277 501.959 467.172 502.906 464.105C508.096 447.115 497.47 432.327 491.71 421.255C489.699 417.399 486.728 411.023 490.075 406.531C497.743 396.197 507.992 387.301 516.01 377.069C519.306 372.857 522.757 366.354 528.024 364.216C532.76 362.294 540.752 363.719 546.318 364.216C567.297 366.099 588.056 369.573 596.826 354.569C598.5 351.693 600.096 346.984 599.006 342.25C597.825 338.852 596.645 335.467 595.451 332.069C587.887 315.194 574.887 296.562 557.502 289.219C551.391 286.636 544.722 286.05 537.301 284.663C522.614 281.927 504.152 283.658 497.444 292.159C485.625 307.138 504.424 332.693 498.534 351.617C496.458 358.298 491.554 363.032 487.61 367.957C474.921 383.814 459.521 397.571 437.374 404.113C408.104 412.767 380.975 405.105 367.21 387.772C343 357.305 334.904 287.03 378.406 270.473C387.345 267.063 400.488 265.841 410.076 269.672C428.993 277.218 433.741 291.472 437.646 314.125C440.527 330.784 436.102 350.446 424.27 354.022C412.606 357.547 400.709 347.15 402.979 335.009C405.172 323.211 410.984 314.239 413.086 302.875C413.618 299.986 412.451 297.873 411.451 296.448C405.509 287.921 391.03 293.012 384.971 297.784C375.747 305.051 372.205 326.698 376.24 342.505C381.728 364.012 401.825 392.29 432.483 380.531C465.943 367.703 474.389 311.35 454.046 277.689C441.915 257.62 421.221 232.893 385.516 239.93C378.51 241.305 371.802 242.896 365.588 245.288C362.552 246.459 359.788 248.291 356.026 248.775C355.935 248.686 355.844 248.597 355.753 248.508C355.74 243.761 355.857 239.421 357.933 236.723C362.176 231.225 376.214 230.411 383.596 228.158C388.163 226.759 392.743 224.671 396.427 222.266C400.865 219.377 408.273 209.985 413.086 209.145C419.625 208 436.686 218.614 442.032 220.93C445.807 222.559 452.307 224.964 455.68 221.197C461.389 214.834 451.684 200.186 448.856 196.292C442.109 187.001 432.483 178.233 423.466 171.119C417.523 166.436 412.567 160.582 406.534 155.86C401.163 151.648 397.4 145.628 387.696 145.679C377.433 152.348 379.496 186.301 372.14 197.895C369.065 202.757 360.839 203.813 355.753 206.727C345.919 212.365 336.461 220.497 331.725 231.098C328.417 238.518 326.769 251.511 328.728 262.163C329.533 266.566 331.66 272.484 330.635 277.702C329.001 282.793 327.353 287.883 325.718 292.961C324.447 299.566 323.175 306.171 321.891 312.776C315.002 352.1 337.356 401.695 356.843 416.954V416.966ZM528.024 317.612C529.503 315.639 531.67 315.041 534.031 313.858C549.432 313.514 557.268 319.266 562.432 328.849C564.313 332.362 567.375 337.872 564.067 341.97C561.563 345.075 552.377 344.108 546.863 344.108C539.753 344.108 532.215 344.833 529.114 340.888C525.624 336.447 523.976 322.97 528.024 317.586V317.612Z" fill="white"/>
<path d="M476.427 37.7584C485.924 25.6048 473.417 20.6288 460.313 20.8833C456.304 21.1505 452.308 21.4178 448.299 21.685C432.056 24.2685 418.485 24.2049 409.26 33.2024C406.691 35.7095 400.879 39.9346 402.981 45.7887C406.302 55.0408 418.563 54.8881 430.006 56.5043C447.832 59.0114 469.305 46.8577 476.414 37.7584H476.427Z" fill="white"/>
<path d="M164.357 0C164.357 0 164.396 0.038179 164.409 0.0636317H172.778C169.975 0.038179 167.16 0.0254527 164.357 0Z" fill="white"/>
<path d="M0.00165313 750.65C0.00165313 750.65 0.0924723 750.688 0.144369 750.713V746.552C0.0535498 747.863 -0.011321 749.212 0.00165313 750.65Z" fill="white"/>
<path d="M1467.56 789.363V797.584C1468.11 796.032 1468.19 791.272 1467.56 789.363Z" fill="white"/>
<path d="M1467.48 742.086C1467.39 744.313 1467.3 746.553 1467.21 748.78H1467.48V742.086Z" fill="white"/>
<path d="M1467.21 797.254C1467.3 797.432 1467.39 797.611 1467.48 797.789C1467.51 797.738 1467.54 797.662 1467.56 797.585V789.364C1467.46 789.059 1467.35 788.817 1467.21 788.689V797.254Z" fill="white"/>
</svg>
