<svg width="220" height="220" viewBox="0 0 220 220" fill="none" xmlns="http://www.w3.org/2000/svg">
<g opacity="0.7" filter="url(#filter0_f_1360_24576)">
<path fill-rule="evenodd" clip-rule="evenodd" d="M277.755 67.1085L286.338 65.8358L289.167 71.7394L282.866 77.7021L291.431 79.1544L292.308 85.6363L284.463 89.3485L292.143 93.3969L290.988 99.8408L282.382 100.925L288.457 107.153L285.349 112.926L276.82 111.298L280.682 119.09L275.967 123.628L268.337 119.455L269.607 128.025L263.721 130.879L257.762 124.565L256.311 133.114L249.846 134.014L246.126 126.128L242.096 133.842L235.653 132.654L234.57 124.062L228.349 130.114L222.588 127.023L224.208 118.484L216.422 122.319L211.912 117.587L216.08 109.975L207.498 111.248L204.636 105.325L210.969 99.3816L202.398 97.9034L201.52 91.4215L209.373 87.7353L201.692 83.6868L202.822 77.25L211.446 76.1327L205.378 69.9312L208.461 64.1645L216.989 65.793L213.154 57.9942L217.868 53.4556L225.473 57.6355L224.228 49.0591L230.088 46.212L236.048 52.5259L237.524 43.9698L243.99 43.0701L247.677 50.9364L251.714 43.2488L258.15 44.4109L259.265 53.0219L265.46 46.9763L271.222 50.068L269.628 58.5999L277.38 54.7463L281.916 59.4707L277.755 67.1085Z" fill="#FCEEA3"/>
<path d="M256.936 135.445C256.936 135.445 256.755 135.494 256.651 135.521L250.186 136.421C249.143 136.562 248.14 136.026 247.688 135.064L246.031 131.567L244.232 134.991C243.736 135.929 242.705 136.427 241.682 136.229L235.246 135.067C234.223 134.869 233.424 134.057 233.308 133.005L232.807 129.17L230.042 131.882C229.295 132.609 228.148 132.778 227.237 132.273L221.476 129.181C220.538 128.683 220.04 127.65 220.263 126.619L220.989 122.816L217.538 124.518C216.585 124.996 215.478 124.793 214.744 124.018L210.233 119.286C209.506 118.538 209.363 117.382 209.867 116.47L211.731 113.084L207.915 113.635C206.879 113.801 205.869 113.239 205.399 112.31L202.544 106.414C202.1 105.478 202.294 104.343 203.067 103.609L205.879 100.968L202.076 100.322C201.034 100.157 200.253 99.3114 200.112 98.2667L199.208 91.7917C199.067 90.7471 199.602 89.7434 200.561 89.2919L204.052 87.6348L200.632 85.8312C199.701 85.3588 199.196 84.3007 199.393 83.2765L200.548 76.8326C200.738 75.7826 201.556 75.0083 202.599 74.8676L206.428 74.3689L203.718 71.5977C202.991 70.8489 202.822 69.7007 203.326 68.7885L206.409 63.0218C206.906 62.0837 207.943 61.6115 208.966 61.8092L212.764 62.54L211.062 59.0826C210.591 58.1539 210.786 57.0191 211.559 56.2846L216.274 51.7462C217.021 51.0186 218.167 50.8502 219.086 51.3813L222.469 53.2505L221.916 49.4293C221.775 48.3847 222.309 47.381 223.236 46.9105L229.123 44.0565C230.082 43.6051 231.19 43.8079 231.924 44.5827L234.564 47.4006L235.206 43.5924C235.37 42.5492 236.232 41.7351 237.25 41.6013L243.722 40.7275C244.765 40.5868 245.775 41.149 246.219 42.0846L247.877 45.5818L249.675 42.1578C250.146 41.2266 251.203 40.7216 252.226 40.9193L258.661 42.0816C259.684 42.2793 260.484 43.092 260.626 44.1366L261.127 47.9716L263.873 45.2927C264.62 44.5651 265.767 44.3967 266.678 44.9019L272.439 47.9936C273.376 48.4919 273.849 49.5311 273.652 50.5553L272.951 54.3515L276.428 52.6426C277.355 52.1721 278.496 52.3939 279.223 53.1428L283.759 57.8673C284.486 58.6162 284.629 59.7713 284.125 60.6835L282.261 64.0696L286.077 63.5192C287.12 63.3785 288.123 63.9147 288.593 64.8434L291.448 70.74C291.893 71.6756 291.698 72.8103 290.925 73.5448L288.113 76.1857L291.916 76.832C292.958 76.9969 293.739 77.8424 293.88 78.887L294.784 85.362C294.925 86.4067 294.365 87.4173 293.431 87.8619L289.94 89.519L293.361 91.3226C294.298 91.8209 294.796 92.8531 294.599 93.8773L293.444 100.321C293.254 101.371 292.41 102.152 291.393 102.286L287.564 102.785L290.248 105.563C290.975 106.312 291.144 107.46 290.641 108.372L287.558 114.139C287.061 115.077 286.03 115.575 285 115.351L281.209 114.647L282.918 118.13C283.389 119.059 283.168 120.2 282.421 120.928L277.707 125.466C276.959 126.194 275.806 126.336 274.895 125.831L271.512 123.962L272.064 127.783C272.206 128.828 271.671 129.831 270.744 130.302L264.858 133.156C263.931 133.626 262.79 133.405 262.056 132.63L259.417 129.812L258.774 133.62C258.609 134.553 257.92 135.292 257.041 135.528L256.936 135.445ZM251.249 131.39L254.242 130.977L255.403 124.142C255.55 123.243 256.213 122.51 257.085 122.248C257.945 122.046 258.91 122.231 259.532 122.898L264.294 127.95L267.018 126.637L266.018 119.8C265.885 118.891 266.279 117.981 267.03 117.474C267.8 116.935 268.76 116.9 269.547 117.355L275.624 120.695L277.81 118.611L274.754 112.379C274.344 111.573 274.437 110.577 274.997 109.872C275.549 109.141 276.459 108.814 277.358 108.961L284.134 110.255L285.556 107.597L280.736 102.644C280.096 102.01 279.891 101.038 280.187 100.181C280.484 99.3247 281.234 98.7076 282.147 98.6016L289.01 97.7344L289.543 94.7603L283.416 91.5447C282.61 91.1222 282.108 90.2851 282.138 89.3612C282.167 88.4373 282.699 87.6287 283.511 87.2447L289.759 84.2937L289.344 81.2962L282.518 80.1274C281.619 79.9796 280.887 79.3153 280.625 78.4418C280.364 77.5682 280.607 76.6148 281.272 75.9926L286.294 71.2605L284.981 68.5313L278.128 69.535C277.221 69.667 276.338 69.2653 275.805 68.5197C275.273 67.7742 275.23 66.7864 275.684 65.9986L279.015 59.9157L276.931 57.726L270.744 60.7995C269.939 61.2094 268.944 61.1153 268.239 60.5546C267.509 60.0009 267.156 59.0963 267.328 58.1896L268.608 51.3796L265.953 49.9536L261.01 54.7755C260.352 55.4236 259.407 55.6212 258.551 55.3231C257.696 55.025 257.072 54.2485 256.972 53.3593L256.075 46.494L253.104 45.9576L249.898 52.0905C249.477 52.8972 248.615 53.4056 247.719 53.3684C246.803 53.3639 245.988 52.8051 245.604 51.9921L242.652 45.7328L239.659 46.1462L238.497 52.9803C238.35 53.8801 237.688 54.6129 236.815 54.8743C235.936 55.1099 234.991 54.8913 234.369 54.2253L229.607 49.1729L226.908 50.4788L227.916 57.3422C228.048 58.2504 227.648 59.1349 226.904 59.6674C226.153 60.1739 225.173 60.242 224.386 59.7868L218.309 56.4468L216.124 58.5311L219.205 64.7556C219.615 65.5617 219.522 66.5582 218.963 67.2632C218.41 67.9941 217.507 68.3472 216.602 68.1735L209.8 66.8872L208.378 69.5442L213.197 74.4982C213.845 75.1573 214.043 76.1035 213.746 76.9602C213.449 77.817 212.674 78.441 211.786 78.5401L204.924 79.4073L204.391 82.3814L210.518 85.5971C211.324 86.0196 211.825 86.8566 211.796 87.7805C211.766 88.7044 211.235 89.513 210.423 89.897L204.175 92.8481L204.59 95.8455L211.39 97.0212C212.288 97.169 213.021 97.8333 213.282 98.7069C213.518 99.5874 213.301 100.534 212.636 101.156L207.587 105.895L208.901 108.624L215.754 107.621C216.661 107.489 217.544 107.89 218.077 108.636C218.609 109.381 218.652 110.369 218.198 111.157L214.867 117.24L216.951 119.43L223.138 116.356C223.969 115.939 224.938 116.04 225.668 116.594C226.399 117.148 226.752 118.052 226.579 118.959L225.3 125.769L227.955 127.195L232.898 122.373C233.556 121.725 234.5 121.527 235.356 121.826C236.212 122.124 236.836 122.9 236.936 123.789L237.833 130.655L240.803 131.191L244.01 125.058C244.431 124.251 245.266 123.75 246.189 123.78C247.105 123.785 247.92 124.344 248.304 125.157L251.256 131.416L251.249 131.39Z" fill="#776503"/>
<path fill-rule="evenodd" clip-rule="evenodd" d="M276.772 58.269L278.385 59.9462L274.11 67.7809C274.715 68.5904 275.294 69.4066 275.836 70.2886L284.665 69.0054L285.668 71.0959L279.163 77.2245C279.478 78.1947 279.787 79.1391 280.024 80.1301L288.83 81.6565L289.143 83.9599L281.071 87.7602C281.095 88.7808 281.061 89.7892 280.993 90.7788L288.903 94.96L288.495 97.2623L279.624 98.3902C279.329 99.3574 279.001 100.306 278.647 101.261L284.881 107.668L283.793 109.708L275.004 108.038C274.421 108.861 273.831 109.657 273.156 110.449L277.106 118.467L275.432 120.081L267.598 115.768C266.797 116.399 265.956 116.985 265.128 117.513L266.416 126.355L264.329 127.358L258.204 120.839C257.242 121.18 256.267 121.469 255.31 121.726L253.793 130.542L251.493 130.853L247.658 122.749C246.665 122.765 245.639 122.763 244.625 122.701L240.456 130.619L238.182 130.201L237.049 121.317C236.083 121.021 235.135 120.692 234.174 120.311L227.781 126.548L225.743 125.457L227.403 116.657C226.563 116.105 225.786 115.481 225.002 114.83L217.005 118.805L215.391 117.128L219.692 109.286C219.087 108.477 218.501 107.635 217.974 106.804L209.145 108.088L208.141 105.997L214.646 99.8686C214.305 98.9052 214.016 97.9281 213.759 96.9699L204.96 95.4694L204.648 93.166L212.738 89.3329C212.714 88.3123 212.748 87.3038 212.809 86.2884L204.906 82.133L205.314 79.8307L214.185 78.7029C214.48 77.7357 214.808 76.7873 215.169 75.858L208.935 69.4512L210.049 67.404L218.831 69.0478C219.388 68.2323 220.004 67.4288 220.653 66.6443L216.704 58.6262L218.377 57.012L226.211 61.3246C227.012 60.6937 227.853 60.1075 228.707 59.5733L227.419 50.7311L229.532 49.7209L235.65 56.2142C236.612 55.8733 237.587 55.5841 238.551 55.3536L240.068 46.5369L242.368 46.2259L246.203 54.3304C247.222 54.3071 248.229 54.3426 249.21 54.385L253.379 46.4674L255.679 46.8783L256.812 55.7621C257.778 56.0583 258.725 56.3874 259.68 56.7423L266.073 50.505L268.118 51.6223L266.451 60.3961C267.272 60.9808 268.075 61.5984 268.852 62.2229L276.856 58.2741L276.772 58.269Z" fill="#FCEEA3"/>
<path d="M254.45 132.892C254.45 132.892 254.244 132.947 254.166 132.968L251.866 133.279C250.823 133.42 249.82 132.883 249.369 131.922L246.214 125.217C246.214 125.217 246.162 125.231 246.137 125.238L242.691 131.824C242.194 132.762 241.164 133.26 240.141 133.062L237.867 132.644C236.844 132.446 236.071 131.627 235.929 130.582L234.985 123.23C234.985 123.23 234.926 123.218 234.893 123.199L229.599 128.365C228.825 129.099 227.705 129.261 226.794 128.756L224.755 127.664C223.818 127.166 223.346 126.127 223.542 125.102L224.917 117.823C224.917 117.823 224.877 117.778 224.845 117.759L218.212 121.035C217.259 121.512 216.152 121.309 215.418 120.535L213.805 118.857C213.077 118.108 212.934 116.953 213.438 116.041L216.989 109.538C216.989 109.538 216.975 109.487 216.942 109.468L209.609 110.544C208.566 110.685 207.564 110.149 207.093 109.22L206.064 107.136C205.619 106.201 205.814 105.066 206.587 104.332L211.987 99.2486C211.987 99.2486 211.973 99.1968 211.966 99.171L204.671 97.9058C203.629 97.7409 202.848 96.8953 202.707 95.8507L202.395 93.5473C202.253 92.5027 202.814 91.4921 203.748 91.0475L210.467 87.8871C210.467 87.8871 210.453 87.8353 210.446 87.8094L203.867 84.3541C202.929 83.8558 202.431 82.8236 202.628 81.7994L203.043 79.5231C203.24 78.4989 204.084 77.7176 205.094 77.558L212.435 76.6178C212.435 76.6178 212.421 76.566 212.466 76.5263L207.277 71.2273C206.55 70.4784 206.381 69.3302 206.885 68.418L207.999 66.3708C208.496 65.4327 209.533 64.9605 210.556 65.1582L217.853 66.5339C217.853 66.5339 217.898 66.4941 217.917 66.4613L214.64 59.8173C214.169 58.8886 214.364 57.7539 215.137 57.0194L216.811 55.4051C217.584 54.6706 218.712 54.535 219.623 55.0403L226.12 58.601C226.12 58.601 226.171 58.5872 226.216 58.5474L225.135 51.204C224.994 50.1593 225.529 49.1556 226.482 48.6782L228.568 47.675C229.521 47.1976 230.636 47.4263 231.37 48.2011L236.45 53.6125C236.45 53.6125 236.502 53.5986 236.528 53.5917L237.785 46.2879C237.956 45.2706 238.793 44.4635 239.836 44.3228L242.136 44.0118C243.179 43.871 244.182 44.4073 244.633 45.3688L247.795 52.0993C247.795 52.0993 247.846 52.0855 247.872 52.0785L251.318 45.493C251.789 44.5618 252.845 44.0567 253.868 44.2545L256.167 44.6653C257.216 44.8562 257.99 45.6759 258.131 46.7205L259.076 54.0727C259.076 54.0727 259.134 54.0847 259.167 54.1037L264.488 48.931C265.235 48.2034 266.356 48.0418 267.293 48.5401L269.331 49.6317C270.242 50.1369 270.741 51.1691 270.544 52.1933L269.169 59.4731C269.169 59.4731 269.209 59.518 269.242 59.5369L275.874 56.261C276.801 55.7905 277.941 56.0123 278.668 56.7612L280.282 58.4384C281.009 59.1873 281.152 60.3425 280.648 61.2547L277.098 67.7574C277.098 67.7574 277.112 67.8092 277.144 67.8282L284.477 66.7516C285.52 66.6109 286.549 67.1402 286.993 68.0758L287.997 70.1662C288.442 71.1018 288.247 72.2365 287.492 72.9382L282.093 78.0212C282.093 78.0212 282.107 78.073 282.113 78.0989L289.408 79.3641C290.45 79.529 291.231 80.3745 291.372 81.4191L291.685 83.7225C291.826 84.7671 291.291 85.7709 290.331 86.2224L283.639 89.3757C283.639 89.3757 283.653 89.4275 283.659 89.4534L290.239 92.9088C291.176 93.4071 291.674 94.4394 291.477 95.4636L291.069 97.7657C290.872 98.7899 290.035 99.597 289.018 99.7308L281.677 100.671C281.677 100.671 281.665 100.73 281.646 100.762L286.809 106.068C287.536 106.817 287.705 107.966 287.201 108.878L286.087 110.925C285.59 111.863 284.553 112.335 283.537 112.163L276.266 110.781C276.266 110.781 276.221 110.821 276.202 110.853L279.479 117.497C279.95 118.426 279.755 119.561 278.982 120.295L277.308 121.91C276.535 122.644 275.407 122.78 274.496 122.274L267.999 118.714C267.999 118.714 267.948 118.728 267.929 118.76L268.984 126.111C269.151 127.148 268.591 128.159 267.663 128.63L265.577 129.633C264.617 130.084 263.51 129.881 262.775 129.107L257.695 123.695C257.695 123.695 257.643 123.709 257.592 123.723L256.334 131.027C256.168 131.959 255.48 132.699 254.601 132.935L254.45 132.892ZM244.066 120.408C244.325 120.339 244.572 120.328 244.851 120.337C245.78 120.393 246.729 120.416 247.664 120.388C248.598 120.359 249.491 120.897 249.889 121.762L252.093 126.473L252.966 121.354C253.132 120.421 253.769 119.696 254.751 119.432C255.967 119.107 256.691 118.913 257.446 118.627C258.407 118.286 259.341 118.564 259.995 119.249L263.561 123.04L262.823 117.908C262.684 116.974 263.103 116.057 263.906 115.536C264.69 115.048 265.46 114.509 266.216 113.918C266.972 113.327 268.003 113.245 268.823 113.719L273.372 116.219L271.071 111.562C270.648 110.704 270.76 109.675 271.397 108.949C272.008 108.23 272.579 107.467 273.099 106.717C273.637 105.934 274.592 105.567 275.523 105.734L280.631 106.697L277.002 102.978C276.347 102.293 276.135 101.295 276.484 100.425C276.826 99.5282 277.142 98.6386 277.399 97.737C277.682 96.8284 278.476 96.1716 279.39 96.0655L284.535 95.4087L279.921 92.981C279.082 92.5396 278.6 91.6696 278.648 90.7129C278.704 89.7821 278.72 88.8064 278.716 87.8636C278.713 86.9207 279.231 86.0603 280.094 85.6624L284.764 83.4397L279.651 82.5613C278.72 82.3946 277.955 81.7114 277.731 80.7722C277.488 79.8658 277.245 78.9593 276.924 78.0737C276.63 77.1812 276.866 76.2018 277.55 75.5468L281.333 71.9796L276.216 72.74C275.283 72.8789 274.334 72.4393 273.839 71.6281C273.319 70.8238 272.787 70.0783 272.222 69.3137C271.657 68.5492 271.581 67.5424 272.021 66.7028L274.514 62.1489L269.865 64.4493C269.035 64.8661 268.007 64.7531 267.288 64.1406C266.544 63.5351 265.807 62.9554 265.025 62.4155C264.243 61.8756 263.876 60.9192 264.041 59.9866L264.999 54.8726L261.288 58.5037C260.605 59.1588 259.609 59.3702 258.739 59.0204C257.843 58.6775 256.955 58.3604 256.054 58.1021C255.147 57.8179 254.497 57.0482 254.383 56.1072L253.723 50.9548L251.303 55.5726C250.862 56.4122 249.975 56.9275 249.039 56.8454C248.109 56.7892 247.161 56.7657 246.226 56.7941C245.291 56.8225 244.399 56.2845 244.001 55.4196L241.771 50.7157L240.898 55.8348C240.732 56.7675 240.074 57.4155 239.112 57.7565C237.845 58.096 237.154 58.3089 236.392 58.5686C235.462 58.818 234.523 58.6253 233.868 57.9403L230.31 54.1752L231.074 59.2998C231.213 60.2339 230.775 61.1841 229.965 61.6786C229.181 62.1662 228.411 62.7056 227.655 63.2968C226.899 63.888 225.868 63.9699 225.048 63.4957L220.498 60.9954L222.799 65.6527C223.223 66.5106 223.111 67.5398 222.5 68.2587C221.889 68.9776 221.317 69.7413 220.798 70.4912C220.259 71.2739 219.312 71.6666 218.373 71.474L213.265 70.511L216.894 74.2295C217.549 74.9145 217.761 75.9125 217.412 76.7831C217.064 77.6537 216.748 78.5433 216.491 79.4449C216.207 80.3535 215.414 81.0103 214.507 81.1423L209.362 81.7992L213.943 84.2079C214.781 84.6493 215.271 85.5451 215.215 86.476C215.167 87.4327 215.144 88.3824 215.147 89.3253C215.151 90.2682 214.633 91.1286 213.777 91.5523L209.081 93.782L214.194 94.6603C215.125 94.8271 215.89 95.5103 216.107 96.4236C216.35 97.33 216.593 98.2365 216.92 99.148C217.241 100.034 216.985 101.046 216.302 101.701L212.545 105.261L217.669 104.526C218.601 104.388 219.525 104.834 220.038 105.613C220.526 106.398 221.072 107.195 221.663 107.953C222.228 108.717 222.304 109.724 221.864 110.564L219.37 115.118L224.019 112.817C224.902 112.387 225.878 112.514 226.622 113.119C227.34 113.732 228.078 114.311 228.853 114.825C229.635 115.365 230.054 116.308 229.869 117.273L228.904 122.361L232.589 118.737C233.273 118.082 234.269 117.87 235.165 118.213C236.06 118.556 236.949 118.873 237.849 119.132C238.757 119.416 239.406 120.185 239.52 121.126L240.18 126.279L242.582 121.694C242.89 121.084 243.441 120.659 244.087 120.486L244.066 120.408Z" fill="#776503"/>
<path fill-rule="evenodd" clip-rule="evenodd" d="M216.605 92.4869C214.414 75.7261 226.228 60.3477 242.964 58.1671C259.7 55.9865 275.041 67.8359 277.232 84.5967C279.423 101.358 267.627 116.703 250.872 118.917C234.136 121.097 218.777 109.281 216.579 92.4938L216.605 92.4869ZM243.407 69.2341C242.536 69.9118 242.369 71.15 243.046 72.0233C243.724 72.8965 244.96 73.0648 245.832 72.3871C246.703 71.7095 246.87 70.4712 246.193 69.598C245.541 68.7178 244.279 68.5565 243.407 69.2341ZM248.03 104.69C247.159 105.367 246.992 106.606 247.669 107.479C248.346 108.352 249.583 108.52 250.455 107.843C251.326 107.165 251.493 105.927 250.816 105.053C250.138 104.18 248.902 104.012 248.03 104.69ZM266.232 85.0182C265.554 84.145 264.318 83.9768 263.446 84.6544C262.568 85.3061 262.408 86.5703 263.085 87.4435C263.737 88.3237 264.999 88.485 265.871 87.8074C266.742 87.1298 266.909 85.8915 266.232 85.0182ZM230.803 89.6262C230.126 88.753 228.889 88.5847 228.017 89.2624C227.146 89.94 226.979 91.1783 227.656 92.0515C228.333 92.9248 229.57 93.093 230.442 92.4154C231.313 91.7378 231.48 90.4994 230.803 89.6262Z" fill="#FCEEA3"/>
<path d="M255.489 120.428C254.093 120.802 252.643 121.079 251.172 121.279C233.147 123.611 216.563 110.846 214.194 92.8001C211.894 75.0136 224.424 58.1667 242.63 55.7864C251.358 54.6414 260.022 56.983 267.004 62.3565C273.986 67.7301 278.458 75.5249 279.609 84.2653C281.747 100.624 271.391 116.167 255.489 120.428ZM239.588 61.2923C226.014 64.9295 217.157 78.2109 218.989 92.1814C220.988 107.606 235.163 118.519 250.591 116.522C266.096 114.505 276.868 100.099 274.873 84.896C273.893 77.4143 270.065 70.7794 264.122 66.1821C258.153 61.5917 250.767 59.5737 243.297 60.5485C242.04 60.7187 240.804 60.9667 239.614 61.2854L239.588 61.2923ZM250.371 110.53C250.939 110.378 251.455 110.129 251.916 109.783C253.826 108.327 254.195 105.564 252.733 103.624C251.291 101.762 248.511 101.314 246.582 102.802C244.679 104.283 244.31 107.047 245.772 108.986C246.868 110.386 248.671 111.013 250.378 110.556L250.371 110.53ZM265.761 90.5017C266.33 90.3493 266.845 90.1003 267.3 89.7286C269.21 88.2731 269.578 85.5098 268.116 83.57C266.668 81.682 263.785 81.3717 261.991 82.7408C261.042 83.4392 260.436 84.4896 260.3 85.6364C260.145 86.8159 260.457 87.9813 261.168 88.8735C262.244 90.3059 264.073 90.9262 265.78 90.469L265.761 90.5017ZM230.332 95.1098C230.901 94.9574 231.416 94.7083 231.871 94.3366C232.787 93.6192 233.399 92.5947 233.561 91.4411C233.723 90.2874 233.411 89.122 232.687 88.178C231.246 86.3159 228.453 85.9261 226.536 87.3558C225.594 88.0801 225.007 89.0976 224.852 90.2772C224.69 91.4309 225.003 92.5963 225.72 93.5144C226.796 94.9468 228.618 95.5411 230.325 95.0839L230.332 95.1098ZM245.748 75.0745C246.291 74.929 246.806 74.68 247.268 74.3342C248.21 73.6099 248.789 72.5664 248.951 71.4127C249.087 70.266 248.775 69.1006 248.084 68.1756C246.662 66.2806 243.836 65.872 241.933 67.3534C240.991 68.0777 240.411 69.1211 240.249 70.2748C240.094 71.4544 240.426 72.5869 241.117 73.512C242.187 74.9185 244.015 75.5387 245.722 75.0815L245.748 75.0745Z" fill="#776503"/>
<path fill-rule="evenodd" clip-rule="evenodd" d="M218.185 92.2871C220.276 108.159 234.814 119.391 250.662 117.309C266.517 115.254 277.722 100.704 275.624 84.807C273.559 68.9285 259.002 57.7295 243.14 59.7591C227.285 61.8147 216.087 76.3896 218.178 92.2612L218.185 92.2871ZM241.24 65.5974C243.586 63.803 246.944 64.2355 248.738 66.5861C250.532 68.9366 250.103 72.2991 247.738 74.1263C245.392 75.9207 242.027 75.4622 240.24 73.1376C238.413 70.7681 238.868 67.3987 241.214 65.6043L241.24 65.5974ZM246.104 102.987C248.476 101.185 251.808 101.625 253.602 103.975C255.403 106.352 254.973 109.714 252.602 111.516C250.256 113.31 246.891 112.852 245.097 110.501C243.303 108.151 243.732 104.788 246.078 102.994L246.104 102.987ZM269.844 82.8862C271.638 85.2367 271.209 88.5992 268.837 90.4005C266.491 92.1949 263.133 91.7624 261.339 89.4119C259.545 87.0614 259.974 83.6988 262.346 81.8975C264.692 80.1032 268.05 80.5356 269.851 82.9121L269.844 82.8862ZM232.51 87.7271C234.304 90.0776 233.874 93.4402 231.529 95.2345C229.157 97.0358 225.824 96.5964 224.005 94.2528C222.211 91.9022 222.64 88.5397 225.012 86.7385C227.358 84.9441 230.716 85.3766 232.517 87.753L232.51 87.7271Z" fill="#FCEEA3"/>
<path d="M255.073 118.875C253.754 119.228 252.389 119.511 250.97 119.697C233.832 121.93 218.044 109.756 215.775 92.5997C213.568 75.6766 225.455 59.6401 242.814 57.4037C259.984 55.19 275.765 67.3378 278.009 84.5009C280.042 100.055 270.18 114.855 255.054 118.908L255.073 118.875ZM250.86 114.841C265.194 112.693 274.992 99.4096 273.276 85.3526C273.529 87.9496 272.49 90.5873 270.285 92.2883C266.978 94.8398 261.947 94.1617 259.422 90.8413C258.179 89.2035 257.631 87.1576 257.888 85.118C258.139 83.0525 259.205 81.2401 260.858 79.9644C264.14 77.4198 269.197 78.091 271.721 81.4114C272.532 82.4711 273.013 83.6466 273.203 84.8726C271.211 70.6121 258.167 60.5066 243.882 62.1137C246.463 61.9217 249.001 63.018 250.597 65.1442C251.872 66.8009 252.413 68.8209 252.137 70.8934C251.854 72.9399 250.795 74.7781 249.167 76.0469C245.808 78.6122 240.829 77.9203 238.304 74.5999C237.036 72.969 236.488 70.9232 236.764 68.8507C237.047 66.8042 238.106 64.9659 239.759 63.6902C240.746 62.9261 241.913 62.4193 243.078 62.218C228.879 64.2463 218.98 77.3628 220.455 91.3457C220.44 90.8777 220.458 90.4287 220.521 89.94C220.804 87.8934 221.864 86.0552 223.498 84.8123C226.786 82.2936 231.811 82.9458 234.361 86.2593C235.637 87.916 236.159 89.9688 235.902 92.0085C235.619 94.055 234.56 95.8932 232.925 97.1361C229.611 99.6617 224.587 99.0096 222.036 95.6961C221.319 94.778 220.847 93.7387 220.607 92.6372C222.783 106.654 235.655 116.528 249.74 115.002C247.203 115.155 244.716 114.045 243.135 111.97C241.86 110.314 241.312 108.268 241.595 106.221C241.878 104.175 242.911 102.343 244.572 101.093C247.879 98.5419 252.91 99.22 255.435 102.54C256.71 104.197 257.251 106.217 256.975 108.29C256.692 110.336 255.633 112.174 254.005 113.443C253.063 114.167 251.974 114.654 250.815 114.881L250.86 114.841ZM248.576 104.351C248.188 104.454 247.847 104.629 247.526 104.881C246.905 105.353 246.507 106.043 246.385 106.825C246.287 107.601 246.496 108.377 246.974 109.026C247.951 110.291 249.819 110.54 251.114 109.583C251.736 109.111 252.159 108.414 252.249 107.613C252.346 106.838 252.138 106.061 251.659 105.412C250.935 104.468 249.713 104.046 248.55 104.357L248.576 104.351ZM264.811 83.2353C264.423 83.3393 264.082 83.5139 263.787 83.7594C263.166 84.2313 262.743 84.9276 262.652 85.7289C262.555 86.5043 262.764 87.2813 263.242 87.9302C264.219 89.1952 266.087 89.4441 267.382 88.4864C268.67 87.5028 268.917 85.6324 267.934 84.3415C267.21 83.3975 265.981 82.9495 264.818 83.2613L264.811 83.2353ZM227.477 88.0763C227.115 88.1733 226.748 88.3549 226.453 88.6003C225.806 89.0792 225.408 89.7685 225.311 90.544C225.188 91.3263 225.397 92.1033 225.901 92.7452C226.871 93.9843 228.746 94.2591 230.034 93.2755C230.656 92.8036 231.079 92.1073 231.176 91.3319C231.273 90.5565 231.065 89.7795 230.586 89.1306C229.862 88.1866 228.64 87.7645 227.477 88.0763ZM243.712 66.9611C243.35 67.0581 242.983 67.2397 242.681 67.4593C242.034 67.9381 241.637 68.6275 241.546 69.4288C241.449 70.2042 241.658 70.9811 242.129 71.6042C243.106 72.8692 244.981 73.144 246.269 72.1603C246.891 71.6884 247.288 70.9991 247.404 70.1908C247.501 69.4154 247.293 68.6384 246.814 67.9895C246.083 67.0196 244.868 66.6235 243.705 66.9352L243.712 66.9611Z" fill="#776503"/>
<path fill-rule="evenodd" clip-rule="evenodd" d="M214.347 213.139C200.182 217.157 185.283 215.542 172.531 208.079L30.9941 125.512C-1.29916 106.658 20.7552 55.7555 57.1157 68.6898L180.989 98.3667L203.444 59.403C236.473 2.08989 326.102 53.9325 293.073 111.246L250.867 184.368C242.468 198.943 229.082 208.969 214.354 213.165L214.347 213.139ZM270.175 102.115C277.609 89.2147 273.182 72.6923 260.293 65.2374C247.398 57.7566 230.902 62.1768 223.448 75.11C216.014 88.0104 220.441 104.533 233.33 111.988C246.225 119.468 262.721 115.048 270.175 102.115ZM59.4047 105.881C63.8571 98.1929 61.2133 88.326 53.5133 83.8942C45.8392 79.4554 36.0139 82.0881 31.5615 89.7762C27.1349 97.4573 29.7787 107.324 37.4528 111.763C45.1528 116.195 54.9781 113.562 59.4047 105.881Z" fill="url(#paint0_linear_1360_24576)"/>
<path d="M29.4621 88.5613C24.3735 97.3913 27.4128 108.734 36.2347 113.837C40.4981 116.303 45.4967 116.962 50.2543 115.687C55.0118 114.413 58.9853 111.349 61.4703 107.075C63.9554 102.801 64.5838 97.8029 63.307 93.0378C62.0302 88.2727 58.9611 84.2654 54.6978 81.7994C46.1382 76.8485 34.3995 79.9939 29.4621 88.5613ZM57.3053 104.666C53.6544 111.001 44.9667 113.329 38.6372 109.668C32.1109 105.893 29.8627 97.5026 33.6271 90.9703C35.4621 87.7863 38.4039 85.5269 41.9203 84.5847C45.4368 83.6425 49.14 84.1213 52.2953 85.9682C55.4695 87.7823 57.735 90.7559 58.6787 94.2779C59.6225 97.8 59.1403 101.482 57.3053 104.666Z" fill="#776503"/>
<path d="M239.186 60.2065C231.61 62.2364 225.265 67.1009 221.349 73.8957C217.433 80.6906 216.401 88.628 218.427 96.19C220.46 103.778 225.323 110.136 232.111 114.062C238.9 117.989 246.827 119.029 254.403 116.999C261.979 114.969 268.298 110.112 272.24 103.31C276.156 96.515 277.188 88.5775 275.155 80.9897C273.122 73.4018 268.266 67.0699 261.477 63.1433C254.689 59.2166 246.762 58.1765 239.186 60.2065ZM268.082 100.927C264.809 106.605 259.503 110.692 253.168 112.389C246.833 114.087 240.227 113.22 234.521 109.919C228.847 106.638 224.762 101.321 223.062 94.9758C221.362 88.6309 222.222 82.0164 225.514 76.3048C228.812 70.619 234.093 66.5394 240.428 64.842C246.763 63.1446 253.369 64.0114 259.075 67.312C264.749 70.5937 268.834 75.9109 270.534 82.2557C272.234 88.6005 271.38 95.2409 268.082 100.927Z" fill="#776503"/>
<path d="M292.048 55.8124C277.739 37.1635 252.972 28.0897 231.796 33.7638C219.126 37.1586 208.589 45.6166 201.325 58.2215L179.76 95.6424L57.8755 66.4596C50.8323 63.9613 43.994 63.5731 37.53 65.3051C24.8346 68.7068 15.0548 80.4037 13.2043 94.3893C11.3878 108.088 17.5502 120.537 29.7639 127.645L171.301 210.212C184.177 217.726 199.387 219.673 214.125 215.724L214.978 215.496C230.714 211.03 244.56 200.131 252.914 185.596L295.12 112.473C306.11 93.4016 304.983 72.7476 292.029 55.8452L292.048 55.8124ZM290.974 110.031L248.768 183.154C241.012 196.612 228.224 206.701 213.67 210.822L212.895 211.03C199.398 214.647 185.484 212.879 173.722 206.01L32.1853 123.444C21.7356 117.334 16.4228 106.711 17.9872 94.9673C19.5975 82.8781 27.9573 72.8108 38.8169 69.9009C44.3243 68.4252 50.207 68.7641 56.5445 71.0074L180.418 100.684C181.455 100.934 182.525 100.481 183.055 99.5614L205.502 60.5719C212.097 49.0899 221.628 41.4288 233.057 38.3666C252.087 33.2675 275.3 41.8141 288.253 58.7165C299.972 74.007 300.962 92.6994 290.974 110.031Z" fill="#776503"/>
<path fill-rule="evenodd" clip-rule="evenodd" d="M61.4583 125.233C73.7511 118.053 79.813 103.134 75.9713 89.3132L188.681 116.319L204.231 89.3366C204.821 120.599 238.377 140.752 266.154 126.62L237.349 176.528C226.131 195.994 200.784 206.477 180.384 194.568L61.4773 125.2L61.4583 125.233Z" fill="url(#paint1_linear_1360_24576)"/>
<path d="M209.948 200.551C199.296 203.406 188.343 202.038 179.146 196.675L60.2401 127.308C59.4858 126.872 59.0569 126.098 59.0487 125.24C59.0404 124.382 59.4944 123.594 60.2405 123.172C71.7165 116.461 77.2356 102.825 73.6506 89.9625C73.4285 89.1338 73.641 88.2719 74.2211 87.6446C74.8082 87.0432 75.6804 86.7818 76.5085 86.9763L187.471 113.562L202.106 88.1293C202.628 87.1843 203.757 86.743 204.794 86.9926C205.838 87.268 206.588 88.2051 206.6 89.2844C206.832 101.629 212.677 112.998 222.611 120.495C234.973 129.812 251.34 131.422 265.052 124.472C266.031 123.988 267.138 124.191 267.872 124.966C268.606 125.74 268.75 126.896 268.22 127.815L239.414 177.723C232.945 188.949 222.204 197.268 209.974 200.545L209.948 200.551ZM65.9877 125.074L181.549 192.506C189.755 197.275 199.133 198.453 208.673 195.897C219.533 192.987 229.473 185.3 235.223 175.321L260.51 131.518C246.696 135.914 231.585 133.301 219.71 124.353C210.644 117.512 204.632 107.798 202.556 96.9462L190.714 117.495C190.184 118.414 189.121 118.893 188.077 118.618L79.0971 92.5001C81.0707 104.934 76.0139 117.502 65.9808 125.048L65.9877 125.074Z" fill="#776503"/>
<path fill-rule="evenodd" clip-rule="evenodd" d="M85.4174 118.979C86.5138 123.071 90.7117 125.499 94.8228 124.397C98.9339 123.296 101.304 119.108 100.207 115.016C99.1108 110.924 94.913 108.496 90.8277 109.591C86.7424 110.685 84.3211 114.887 85.4174 118.979Z" fill="#FCEEA3"/>
<path d="M95.4143 126.709C90.0621 128.143 84.5266 124.963 83.0902 119.603C81.6538 114.242 84.8318 108.727 90.1771 107.267C95.5293 105.833 101.065 109.013 102.501 114.374C103.938 119.734 100.766 125.275 95.4143 126.709ZM91.4451 111.896C88.6526 112.644 86.9879 115.533 87.7374 118.33C88.4868 121.127 91.3728 122.796 94.1911 122.041C97.0094 121.286 98.6482 118.404 97.8988 115.607C97.1494 112.81 94.2634 111.141 91.471 111.889L91.4451 111.896Z" fill="#776503"/>
<path fill-rule="evenodd" clip-rule="evenodd" d="M207.099 141.416L209.438 150.143L211.783 158.897L205.399 165.27L198.996 171.677L190.273 169.323L181.557 166.996L179.212 158.242L176.873 149.515L183.251 143.115L189.628 136.716L198.376 139.062L207.099 141.416Z" fill="url(#paint2_linear_1360_24576)"/>
<path fill-rule="evenodd" clip-rule="evenodd" d="M206.812 141.687L211.392 158.779L205.142 165.034L198.892 171.288L192.297 169.53L200.191 139.936L206.786 141.694L206.812 141.687ZM188.434 168.456L196.354 138.855L189.751 137.071L183.501 143.325L177.252 149.58L181.831 166.672L188.434 168.456ZM210.33 138.163L188.442 132.287L172.424 148.32L178.295 170.229L200.183 176.105L216.2 160.072L210.33 138.163Z" fill="#776503"/>
</g>
<defs>
<filter id="filter0_f_1360_24576" x="-7" y="-12.001" width="349.689" height="282.515" filterUnits="userSpaceOnUse" color-interpolation-filters="sRGB">
<feFlood flood-opacity="0" result="BackgroundImageFix"/>
<feBlend mode="normal" in="SourceGraphic" in2="BackgroundImageFix" result="shape"/>
<feGaussianBlur stdDeviation="2" result="effect1_foregroundBlur_1360_24576"/>
</filter>
<linearGradient id="paint0_linear_1360_24576" x1="143.779" y1="39.287" x2="191.977" y2="219.161" gradientUnits="userSpaceOnUse">
<stop stop-color="#FCD1A3"/>
<stop offset="0.519298" stop-color="#DDBC06"/>
<stop offset="1" stop-color="#776503"/>
</linearGradient>
<linearGradient id="paint1_linear_1360_24576" x1="148.769" y1="69.8071" x2="184.931" y2="204.765" gradientUnits="userSpaceOnUse">
<stop offset="0.519298" stop-color="#FBD921"/>
<stop offset="1" stop-color="#958114"/>
</linearGradient>
<linearGradient id="paint2_linear_1360_24576" x1="189.641" y1="136.712" x2="199.009" y2="171.673" gradientUnits="userSpaceOnUse">
<stop stop-color="#FCD1A3"/>
<stop offset="0.519298" stop-color="#DDBC06"/>
<stop offset="1" stop-color="#776503"/>
</linearGradient>
</defs>
</svg>
