<svg width="360" height="179" viewBox="0 0 360 179" fill="none" xmlns="http://www.w3.org/2000/svg">
<g filter="url(#filter0_f_1360_24600)">
<path fill-rule="evenodd" clip-rule="evenodd" d="M91.1531 84.9027C52.047 75.8221 10.3893 77.7126 -1.83808 89.1383C-14.0642 100.555 7.76087 117.191 46.8669 126.272C86.0001 135.356 127.631 133.462 139.858 122.036C152.084 110.619 130.286 93.9872 91.1531 84.9027Z" fill="#261701"/>
<path d="M11.0872 115.696C-7.61004 106.466 -14.0929 95.9327 -5.81411 88.2041C7.08695 76.1509 51.1499 74.1447 92.4319 83.7379C105.71 86.8177 117.652 90.8737 126.962 95.4742C145.66 104.696 152.143 115.229 143.864 122.958C137.607 128.795 123.968 132.473 105.403 133.323C86.8385 134.164 65.613 132.078 45.644 127.437C32.3663 124.357 20.4235 120.301 11.1144 115.7L11.0872 115.696ZM120.779 96.5494C112.455 92.4438 101.783 88.8154 89.9301 86.0674C53.0545 77.5071 13.6882 79.302 2.16799 90.0597C-5.21474 96.9664 0.541783 106.372 17.2693 114.621C25.5941 118.727 36.2393 122.342 48.1186 125.103C65.9648 129.248 84.9437 131.12 101.523 130.365C118.103 129.609 130.298 126.321 135.881 121.111C143.263 114.204 137.507 104.799 120.779 96.5494Z" fill="#261701"/>
<path d="M135.139 93.8535C118.897 85.9001 96.716 79.6456 72.7091 76.2346C48.7294 72.8275 25.781 72.6752 8.10894 75.8093C-27.1199 82.0487 -30.4986 99.7294 -0.249488 115.731C1.60883 116.714 3.60575 117.699 5.66348 118.647C21.608 125.969 42.6389 131.723 65.2852 134.938C89.2649 138.345 112.213 138.497 129.885 135.363C166.141 128.936 168.645 110.387 135.112 93.8496L135.139 93.8535Z" fill="#261701"/>
<path fill-rule="evenodd" clip-rule="evenodd" d="M24.0496 68.495L277.516 47.7506C280.631 47.5289 283.82 47.3722 287.134 47.306C290.282 47.243 293.53 47.2577 296.82 47.3602C314.125 47.9317 330.589 51.0717 343.586 57.0636L344.132 57.3233L345.351 57.9244L345.998 58.2531L346.256 58.3898C348.422 59.5529 350.305 60.7478 351.853 61.9578C353.324 63.1206 354.461 64.2896 355.24 65.4431C359.418 71.7231 352.127 76.4513 341.939 79.6938L341.851 79.7264L158.532 134.904C151.07 136.964 143.391 138.982 134.31 140.32C124.49 141.777 113.889 142.288 101.634 141.946L101.413 141.941C96.5159 141.806 91.5008 141.528 86.4479 141.127C81.4222 140.729 76.36 140.2 71.2871 139.551C44.4238 136.109 18.6705 129.394 -0.747126 120.73C-1.21777 120.527 -1.65862 120.309 -2.10078 120.101L-3.29628 119.53L-5.47737 118.473C-6.67033 117.885 -7.94359 117.276 -9.05237 116.682L-9.23265 116.583C-12.6083 114.757 -15.6719 112.885 -18.3702 110.984C-21.0192 109.127 -23.277 107.253 -25.2006 105.373C-34.8863 95.864 -34.5889 86.6603 -24.4573 79.7599C-19.5933 76.4573 -13.0137 73.9722 -3.94445 72.1354C4.41005 70.4401 14.1364 69.4405 23.854 68.503L24.0509 68.4861L24.0496 68.495ZM285.006 52.8319L284.781 52.8449L31.9333 73.5423C23.0058 74.3943 13.9295 75.3155 6.26254 76.8652C-1.43289 78.4198 -6.95483 80.5047 -11.053 83.3109C-19.7681 89.2469 -20.0214 97.18 -11.6999 105.361C-10.0709 106.972 -8.08178 108.589 -5.83879 110.18C-3.518 111.809 -0.890175 113.428 2.02249 114.998L2.17681 115.083C3.10533 115.579 4.16989 116.095 5.15539 116.581L7.28455 117.612L8.37629 118.131C8.66157 118.272 8.97535 118.408 9.28784 118.552C26.0176 126.015 48.1847 131.787 71.3111 134.754C75.6752 135.31 80.0533 135.768 84.391 136.121C88.7572 136.469 93.0843 136.703 97.3167 136.823L97.4825 136.829C107.857 137.118 116.75 136.696 125.094 135.461C133.381 134.236 140.487 132.334 147.284 130.459L330.344 75.3438C337.768 72.9712 344.251 69.4217 341.169 64.7848C340.667 64.0243 339.917 63.2552 338.944 62.4902C337.871 61.6474 336.572 60.8266 335.077 60.0226L334.949 59.9498L334.535 59.7363L334.094 59.5188L333.55 59.2503L333.237 59.1057C324.174 54.9209 312.963 52.9174 300.854 52.5235C298.201 52.4313 295.618 52.4307 293.111 52.4774C290.327 52.5293 287.64 52.6678 285.031 52.8446L285.006 52.8319Z" fill="#261701"/>
<path d="M279.531 49.3808L279.868 49.3569C282.899 49.1411 285.946 49.0003 288.984 48.9305C292.02 48.8695 295.074 48.8835 298.06 48.9783C313.734 49.4961 328.476 52.2434 340.221 57.6746L340.273 57.7002L340.715 57.9088L340.742 57.9127L341.363 58.2285L341.882 58.4843L341.909 58.4883L342.451 58.7746L342.503 58.8002L342.709 58.9114C344.747 60.0016 346.425 61.0765 347.746 62.127C349.093 63.1903 350.109 64.2332 350.769 65.2429C354.17 70.3694 349.222 74.8283 338.217 78.3426L338.215 78.3604L155.043 133.487L154.986 133.497C147.119 135.661 139.849 137.539 131.364 138.79C122.794 140.056 113.037 140.689 100.283 140.338L100.061 140.333C95.3589 140.2 90.5912 139.939 85.7573 139.56C80.9247 139.172 76.0815 138.665 71.2535 138.051C46.3545 134.856 21.5361 128.593 2.37783 120.057C2.14314 119.951 1.72694 119.755 1.18105 119.495L0.0646255 118.954L-2.1151 117.889C-3.61928 117.147 -5.01844 116.447 -5.50863 116.186L-5.68891 116.088C-8.98804 114.309 -11.896 112.514 -14.4179 110.738C-16.9398 108.962 -19.1249 107.162 -20.9512 105.378C-30.2215 96.2636 -29.8986 87.462 -20.2314 80.8933C-15.1799 77.4456 -8.61277 75.2395 -0.716638 73.6413C7.12124 72.0618 16.2052 71.0875 26.4577 70.1002L26.5146 70.0903L279.448 49.3779L279.503 49.3858L279.531 49.3808ZM282.653 51.234L282.372 51.2569L29.4382 71.9693C19.4112 72.9346 10.5538 73.8783 3.0876 75.3844C-4.32294 76.8895 -10.4823 78.9642 -15.2531 82.1987C-24.3705 88.421 -24.7072 96.7406 -15.9223 105.368C-14.2181 107.035 -12.1576 108.736 -9.73559 110.434C-7.31362 112.132 -4.55875 113.833 -1.46582 115.501L-1.28426 115.59C-0.794067 115.851 0.501364 116.499 1.87587 117.177L4.03092 118.221L5.12147 118.749C5.48454 118.928 5.84888 119.099 6.16264 119.234C24.2759 127.312 47.7814 133.241 71.3172 136.258C75.9262 136.849 80.5233 137.33 85.0541 137.693C89.612 138.059 94.1322 138.302 98.5588 138.423L98.7519 138.433C110.76 138.758 119.926 138.176 127.959 136.978C136.075 135.783 143.143 133.956 150.809 131.836L333.953 76.7054C343.998 73.4965 348.546 69.4963 345.557 64.9816C344.988 64.1118 344.117 63.2166 342.97 62.3088C341.797 61.3883 340.348 60.4552 338.543 59.4889L338.336 59.3866L337.844 59.1347L337.377 58.9045L336.781 58.6103L336.391 58.4273C326.181 53.7152 313.276 51.323 299.509 50.8715C296.772 50.7853 293.97 50.7622 291.155 50.8279C288.342 50.8847 285.462 51.0136 282.598 51.2262L282.653 51.234Z" fill="url(#paint0_linear_1360_24600)"/>
<path fill-rule="evenodd" clip-rule="evenodd" d="M298.608 53.6579C285.103 54.2765 279.874 59.1478 286.957 64.5507C294.041 69.9448 310.731 73.8239 324.236 73.2052C337.74 72.5866 342.969 67.7154 335.885 62.3213C328.801 56.9272 312.111 53.0481 298.579 53.6628L298.608 53.6579Z" fill="#261701"/>
<path d="M289.086 67.3206C287.348 66.4637 285.867 65.5621 284.665 64.6466C280.911 61.7876 280.176 58.9829 282.583 56.7304C284.991 54.4778 290.25 53.0614 297.406 52.7424C309.569 52.1841 324.526 54.9805 333.759 59.5338C335.496 60.3907 336.977 61.2922 338.179 62.2078C341.906 65.0629 342.641 67.8675 340.261 70.124C337.854 72.3766 332.595 73.793 325.438 74.112C313.275 74.6703 298.318 71.8739 289.086 67.3206ZM329.914 60.1938C322.263 56.4207 309.876 54.1029 299.783 54.5607C293.856 54.8304 289.493 56.0044 287.502 57.8732C285.51 59.7419 286.12 62.0666 289.224 64.4334C290.225 65.1934 291.451 65.9404 292.903 66.6567C300.554 70.4298 312.941 72.7475 323.034 72.2897C328.961 72.0201 333.324 70.846 335.315 68.9773C337.307 67.1085 336.697 64.7838 333.594 62.4171C332.592 61.6571 331.366 60.91 329.914 60.1938Z" fill="#261701"/>
<path fill-rule="evenodd" clip-rule="evenodd" d="M279.548 58.9012C278.831 64.6574 292.506 71.3446 310.117 73.8438C327.728 76.3431 342.578 73.7084 343.295 67.9522C344.013 62.1961 330.338 55.5089 312.727 53.0097C295.116 50.5104 280.266 53.1451 279.521 58.8973L279.548 58.9012ZM309.557 54.5818C312.463 54.4569 316.011 55.2846 317.512 56.4335C319.04 57.5863 317.918 58.6293 315.038 58.7581C312.159 58.8869 308.583 58.0642 307.082 56.9153C305.555 55.7536 306.676 54.7195 309.555 54.5907L309.557 54.5818ZM307.83 68.117C310.738 67.9832 314.285 68.8109 315.786 69.9598C317.314 71.1216 316.193 72.1556 313.286 72.2805C310.406 72.4094 306.831 71.5866 305.33 70.4377C303.828 69.2888 304.924 68.2419 307.803 68.1131L307.83 68.117ZM337.363 66.1381C338.863 67.2959 337.769 68.3339 334.862 68.4588C331.983 68.5876 328.407 67.7649 326.906 66.616C325.405 65.467 326.5 64.4202 329.406 64.2953C332.287 64.1576 335.862 64.9892 337.363 66.1381ZM295.937 60.2464C297.464 61.4081 296.343 62.4421 293.463 62.571C290.555 62.7047 287.008 61.8771 285.507 60.7282C284.006 59.5792 285.101 58.5324 288.008 58.4075C290.916 58.2737 294.463 59.1014 295.964 60.2503L295.937 60.2464Z" fill="url(#paint1_linear_1360_24600)"/>
<path d="M306.015 57.7584C308.609 59.0374 312.801 59.8221 316.213 59.6613C318.226 59.5707 319.699 59.176 320.374 58.5396C321.047 57.9121 320.828 57.1198 319.777 56.3165C317.651 54.6881 312.408 53.4805 308.328 53.6538C306.315 53.7444 304.842 54.139 304.167 54.7754C303.494 55.403 303.713 56.1953 304.764 56.9986C305.088 57.2536 305.524 57.5065 306.016 57.7495L306.015 57.7584ZM309.111 55.931C309.369 55.6873 309.947 55.5261 310.73 55.4939C312.072 55.4335 313.721 55.7434 314.733 56.2423C314.914 56.3318 315.093 56.4391 315.218 56.5385C315.617 56.8496 315.711 57.162 315.454 57.4057C315.197 57.6494 314.618 57.8106 313.836 57.8429C312.243 57.9124 310.199 57.446 309.348 56.7982C308.921 56.4832 308.854 56.1747 309.111 55.931Z" fill="#261701"/>
<path d="M286.778 57.488C284.765 57.5786 283.292 57.9732 282.618 58.6008C281.943 59.2372 282.136 60.0167 283.187 60.82C283.539 61.0789 283.948 61.3279 284.44 61.571C287.034 62.85 291.226 63.6347 294.638 63.4738C296.651 63.3832 298.124 62.9886 298.799 62.3522C299.473 61.7246 299.253 60.9324 298.202 60.129C296.076 58.5006 290.835 57.2842 286.753 57.4663L286.778 57.488ZM293.879 61.2182C293.622 61.4619 293.043 61.6231 292.261 61.6554C290.668 61.7249 288.624 61.2586 287.771 60.6196C287.372 60.3085 287.278 59.9961 287.535 59.7524C287.793 59.5087 288.37 59.3564 289.154 59.3153C290.496 59.2549 292.119 59.5521 293.131 60.0509C293.312 60.1404 293.491 60.2477 293.616 60.3471C294.043 60.6621 294.109 60.9706 293.852 61.2143L293.879 61.2182Z" fill="#261701"/>
<path d="M336.919 58.9924C330.668 55.9099 322.129 53.4851 312.848 52.1669C303.648 50.8605 294.852 50.7987 288.068 52.0045C281.285 53.2015 277.367 55.5264 276.962 58.5292C276.589 61.5094 279.777 64.8302 285.924 67.8614C292.174 70.9439 300.713 73.3687 309.994 74.6869C328.993 77.3859 345.07 74.5293 345.88 68.3246C346.253 65.3445 343.065 62.0236 336.919 58.9924ZM310.21 72.9972C302.316 71.8788 295.058 69.8195 289.741 67.1975C284.502 64.6139 281.797 61.7973 282.134 59.2647C282.446 56.7105 285.813 54.7409 291.571 53.7134C297.329 52.6948 304.821 52.7411 312.634 53.8478C320.527 54.9661 327.786 57.0255 333.102 59.6474C338.419 62.2694 341.046 65.0476 340.709 67.5802C340.034 72.8533 326.351 75.2849 310.211 72.9883L310.21 72.9972Z" fill="#261701"/>
<path d="M339.655 66.0337C337.53 64.3964 332.26 63.1849 328.205 63.3799C326.192 63.4705 324.718 63.8651 324.044 64.5015C323.37 65.1291 323.589 65.9213 324.613 66.7208C324.964 66.9797 325.373 67.2287 325.866 67.4717C328.459 68.7507 332.651 69.5354 336.063 69.3746C340.2 69.1914 341.805 67.6926 339.655 66.0337ZM333.687 67.5473C332.094 67.6168 330.05 67.1505 329.198 66.5115C328.799 66.2004 328.705 65.888 328.962 65.6443C329.219 65.4006 329.798 65.2394 330.607 65.2111C331.949 65.1507 333.572 65.4568 334.583 65.9556C334.765 66.0451 334.944 66.1524 335.068 66.2518C335.919 66.8996 335.279 67.4867 333.658 67.5611L333.687 67.5473Z" fill="#261701"/>
<path d="M306.628 67.202C304.615 67.2926 303.142 67.6872 302.467 68.3236C301.793 68.9512 302.012 69.7434 303.063 70.5468C303.388 70.8018 303.823 71.0547 304.316 71.2977C306.91 72.5768 311.102 73.3614 314.514 73.2006C316.526 73.11 318 72.7154 318.673 72.0878C319.348 71.4514 319.155 70.6719 318.078 69.8558C315.952 68.2274 310.682 67.0159 306.628 67.202ZM313.728 70.9411C313.471 71.1848 312.892 71.346 312.11 71.3783C310.516 71.4478 308.473 70.9814 307.647 70.3464C307.221 70.0314 307.154 69.7229 307.411 69.4792C307.668 69.2355 308.247 69.0743 309.029 69.0421C310.371 68.9817 311.994 69.2877 313.005 69.7865C313.187 69.8761 313.366 69.9833 313.49 70.0828C313.917 70.3978 313.984 70.7063 313.725 70.9588L313.728 70.9411Z" fill="#261701"/>
<path fill-rule="evenodd" clip-rule="evenodd" d="M306.366 59.5742C301.025 59.8196 298.971 61.7426 301.775 63.876C304.579 66.0006 311.165 67.5283 316.477 67.2878C321.817 67.0423 323.871 65.1193 321.068 62.9859C318.263 60.8613 311.706 59.3287 306.366 59.5742Z" fill="#A58EEC"/>
<path d="M301.451 65.1612C300.673 64.7775 300.007 64.3828 299.483 63.9723C297.805 62.6983 297.487 61.4389 298.547 60.4414C299.609 59.435 301.977 58.8069 305.164 58.659C311.621 58.3751 319.927 60.2955 323.36 62.8817C326.814 65.5163 324.25 67.8912 317.679 68.195C312.256 68.4375 305.574 67.1948 301.451 65.1612ZM317.575 62.3568C315.034 61.1033 310.923 60.3304 307.568 60.4813C305.611 60.5709 304.166 60.9606 303.494 61.5792C302.822 62.1979 303.043 62.9724 304.068 63.763C306.144 65.3569 311.306 66.5439 315.303 66.3677C319.358 66.1816 320.931 64.7055 318.803 63.086C318.478 62.8399 318.069 62.5909 317.604 62.3518L317.575 62.3568Z" fill="#261701"/>
<path fill-rule="evenodd" clip-rule="evenodd" d="M12.3641 77.8888C-21.6112 83.9103 -23.7678 101.205 7.50064 116.493C38.7678 131.79 91.681 139.308 125.63 133.274C159.606 127.253 161.762 109.958 130.494 94.6697C99.2266 79.3729 46.3135 71.8546 12.3641 77.8888ZM113.592 94.1925C121.762 96.0933 126.265 99.54 123.728 101.919C121.163 104.303 112.524 104.698 104.352 102.806C96.2094 100.909 91.6517 97.4547 94.2156 95.0798C96.7808 92.6959 105.448 92.3045 113.592 94.1925ZM33.6423 108.357C41.8124 110.258 46.3157 113.704 43.7789 116.083C41.2137 118.467 32.547 118.858 24.4028 116.971C16.2599 115.074 11.7021 111.619 14.2661 109.244C16.8313 106.86 25.4981 106.469 33.6423 108.357ZM120.56 127.011C117.995 129.395 109.328 129.786 101.213 127.893C93.0414 126.001 88.512 122.542 91.076 120.167C93.6399 117.792 102.281 117.388 110.424 119.284C118.594 121.185 123.124 124.636 120.586 127.024L120.56 127.011ZM47.0001 91.008C44.4349 93.3919 35.7682 93.7833 27.6525 91.8904C19.4811 89.9985 14.9518 86.5389 17.5158 84.164C20.0797 81.789 28.7206 81.3848 36.8635 83.2816C45.0336 85.1824 49.5641 88.6331 47.0261 91.0208L47.0001 91.008Z" fill="url(#paint2_linear_1360_24600)"/>
</g>
<defs>
<filter id="filter0_f_1360_24600" x="-61" y="-23.1475" width="443.467" height="225.531" filterUnits="userSpaceOnUse" color-interpolation-filters="sRGB">
<feFlood flood-opacity="0" result="BackgroundImageFix"/>
<feBlend mode="normal" in="SourceGraphic" in2="BackgroundImageFix" result="shape"/>
<feGaussianBlur stdDeviation="12" result="effect1_foregroundBlur_1360_24600"/>
</filter>
<linearGradient id="paint0_linear_1360_24600" x1="169.364" y1="29.5248" x2="152.059" y2="149.722" gradientUnits="userSpaceOnUse">
<stop stop-color="#A98BEA"/>
<stop offset="1" stop-color="#82ABFF"/>
</linearGradient>
<linearGradient id="paint1_linear_1360_24600" x1="312.904" y1="53.0349" x2="309.913" y2="73.8146" gradientUnits="userSpaceOnUse">
<stop stop-color="#A98BEA"/>
<stop offset="1" stop-color="#82ABFF"/>
</linearGradient>
<linearGradient id="paint2_linear_1360_24600" x1="72.9179" y1="78.3492" x2="65.0765" y2="132.814" gradientUnits="userSpaceOnUse">
<stop stop-color="#A98BEA"/>
<stop offset="1" stop-color="#82ABFF"/>
</linearGradient>
</defs>
</svg>
