<svg width="212" height="126" viewBox="0 0 212 126" fill="none" xmlns="http://www.w3.org/2000/svg">
<g filter="url(#filter0_di_6118_11174)">
<circle cx="102.312" cy="63.296" r="51.296" fill="url(#paint0_linear_6118_11174)"/>
</g>
<path d="M153.608 64.7518C170.114 70.8888 196.517 83.0974 202.658 88.009C208.8 92.9206 208.632 96.5765 202.177 98.4782C195.722 100.38 183.294 100.435 166.589 98.6357C149.883 96.8365 129.712 93.2706 108.825 88.4243C87.9384 83.5779 67.3526 77.6869 49.8741 71.5542C32.3957 65.4216 18.8751 59.3459 11.1555 54.1553C3.43602 48.9647 1.89324 44.9118 6.73753 42.5492C11.5818 40.1866 40.0924 40.2789 55.7404 41.6028L53.4851 47.5584C41.3836 46.5346 32.8799 46.9657 29.1335 48.7928C25.3871 50.62 26.5803 53.7543 32.5503 57.7685C38.5203 61.7828 48.9766 66.4816 62.4939 71.2243C76.0111 75.9671 91.9315 80.523 108.084 84.271C124.238 88.019 139.837 90.7767 152.757 92.1682C165.677 93.5596 175.287 93.5171 180.279 92.0463C185.271 90.5756 185.402 87.7483 180.652 83.9499C175.902 80.1514 165.753 75.5351 152.987 70.789L153.162 69.4683L153.353 67.8018L153.541 66.2044L153.608 64.7518Z" fill="url(#paint1_linear_6118_11174)"/>
<g filter="url(#filter1_i_6118_11174)">
<circle cx="47.5996" cy="24.1521" r="3.416" fill="#FFC23F"/>
</g>
<g filter="url(#filter2_i_6118_11174)">
<circle cx="148.345" cy="35.184" r="5.264" fill="#02B9BF"/>
</g>
<g filter="url(#filter3_i_6118_11174)">
<circle cx="128.52" cy="111.12" r="5.488" fill="url(#paint2_linear_6118_11174)"/>
</g>
<g filter="url(#filter4_i_6118_11174)">
<circle cx="140.113" cy="108.6" r="2.968" fill="url(#paint3_linear_6118_11174)"/>
</g>
<path d="M54.3732 44.9281C50.1071 44.9281 45.2432 45.5221 40.9908 45.2618C37.5966 45.054 30.0821 42.0108 26.7682 42.9682C23.5129 43.9086 16.2403 42.0721 13.0483 44.4242C10.8956 44.4242 16.8582 50.2896 17.2483 51.7601C17.2483 57.0241 28.8414 57.9017 33.9492 60.9857C35.7923 62.0985 37.6596 63.1633 39.5004 64.2809C41.6603 65.5922 44.1659 67.2413 46.5967 67.9863C49.3553 68.8316 52.1426 69.4415 54.8278 70.5431C56.2269 71.1171 57.3524 71.8601 58.6836 72.5257C60.6171 73.4924 62.7677 73.936 64.7544 74.7407C66.5434 75.4654 68.4509 75.867 70.2236 76.6549C71.5115 77.2273 73.0691 77.163 74.4212 77.5573C76.174 78.0686 76.4369 77.4734 78.2338 77.8002C78.5817 77.8634 80.2552 78.5921 80.4647 78.8016C80.9845 79.3214 81.8553 79.6628 82.5293 79.9091C86.0253 81.1865 89.4746 83.3711 93.3036 83.6008C96.8816 83.8155 99.9794 85.4602 103.49 85.9115C106.875 86.3467 110.561 86.1873 113.85 87.2082C116.375 87.992 118.884 87.8837 121.538 88.277C124.53 88.7202 123.653 90.3442 126.73 90.3442C127.868 90.3442 132.293 91.3559 133.394 91.8562C134.077 92.1665 140.992 92.819 141.738 92.8642C150.935 93.4215 149.579 94.4164 158.762 95.1602C162.735 95.4819 170.163 94.3173 173.994 95.4962C176.109 96.1469 180.387 95.4206 182.588 95.7424C184.105 95.9642 185.655 95.9065 187.182 95.9065C188.748 95.9065 190.63 96.1108 192.159 95.633C194.582 94.876 201.222 94.8321 201.994 92.8642C202.559 91.4237 197.626 89.8789 194.347 88.277C192.159 87.2082 187.924 83.1463 187.182 82.6162C184.526 80.7191 185.682 80.7152 182.588 79.7602C179.286 78.7409 179.053 76.1867 175.834 74.9595C171.895 73.458 167.233 73.0394 163.522 71.0802C159.839 69.1361 162.764 70.012 158.762 69.0642C156.83 68.6066 154.618 68.0002 153.554 67.7202" stroke="#FCF9F5" stroke-width="0.224" stroke-linecap="round"/>
<defs>
<filter id="filter0_di_6118_11174" x="39.8156" y="0.800031" width="124.992" height="124.992" filterUnits="userSpaceOnUse" color-interpolation-filters="sRGB">
<feFlood flood-opacity="0" result="BackgroundImageFix"/>
<feColorMatrix in="SourceAlpha" type="matrix" values="0 0 0 0 0 0 0 0 0 0 0 0 0 0 0 0 0 0 127 0" result="hardAlpha"/>
<feOffset/>
<feGaussianBlur stdDeviation="5.6"/>
<feComposite in2="hardAlpha" operator="out"/>
<feColorMatrix type="matrix" values="0 0 0 0 1 0 0 0 0 1 0 0 0 0 1 0 0 0 1 0"/>
<feBlend mode="normal" in2="BackgroundImageFix" result="effect1_dropShadow_6118_11174"/>
<feBlend mode="normal" in="SourceGraphic" in2="effect1_dropShadow_6118_11174" result="shape"/>
<feColorMatrix in="SourceAlpha" type="matrix" values="0 0 0 0 0 0 0 0 0 0 0 0 0 0 0 0 0 0 127 0" result="hardAlpha"/>
<feOffset dx="15.232"/>
<feGaussianBlur stdDeviation="2.8"/>
<feComposite in2="hardAlpha" operator="arithmetic" k2="-1" k3="1"/>
<feColorMatrix type="matrix" values="0 0 0 0 0 0 0 0 0 0 0 0 0 0 0 0 0 0 0.25 0"/>
<feBlend mode="normal" in2="shape" result="effect2_innerShadow_6118_11174"/>
</filter>
<filter id="filter1_i_6118_11174" x="44.1836" y="20.7361" width="7.28003" height="7.168" filterUnits="userSpaceOnUse" color-interpolation-filters="sRGB">
<feFlood flood-opacity="0" result="BackgroundImageFix"/>
<feBlend mode="normal" in="SourceGraphic" in2="BackgroundImageFix" result="shape"/>
<feColorMatrix in="SourceAlpha" type="matrix" values="0 0 0 0 0 0 0 0 0 0 0 0 0 0 0 0 0 0 127 0" result="hardAlpha"/>
<feOffset dx="1.68" dy="0.336"/>
<feGaussianBlur stdDeviation="0.224"/>
<feComposite in2="hardAlpha" operator="arithmetic" k2="-1" k3="1"/>
<feColorMatrix type="matrix" values="0 0 0 0 0 0 0 0 0 0 0 0 0 0 0 0 0 0 0.25 0"/>
<feBlend mode="normal" in2="shape" result="effect1_innerShadow_6118_11174"/>
</filter>
<filter id="filter2_i_6118_11174" x="143.081" y="29.92" width="10.9763" height="10.864" filterUnits="userSpaceOnUse" color-interpolation-filters="sRGB">
<feFlood flood-opacity="0" result="BackgroundImageFix"/>
<feBlend mode="normal" in="SourceGraphic" in2="BackgroundImageFix" result="shape"/>
<feColorMatrix in="SourceAlpha" type="matrix" values="0 0 0 0 0 0 0 0 0 0 0 0 0 0 0 0 0 0 127 0" result="hardAlpha"/>
<feOffset dx="1.68" dy="0.336"/>
<feGaussianBlur stdDeviation="0.224"/>
<feComposite in2="hardAlpha" operator="arithmetic" k2="-1" k3="1"/>
<feColorMatrix type="matrix" values="0 0 0 0 0 0 0 0 0 0 0 0 0 0 0 0 0 0 0.25 0"/>
<feBlend mode="normal" in2="shape" result="effect1_innerShadow_6118_11174"/>
</filter>
<filter id="filter3_i_6118_11174" x="123.032" y="105.632" width="11.0876" height="11.088" filterUnits="userSpaceOnUse" color-interpolation-filters="sRGB">
<feFlood flood-opacity="0" result="BackgroundImageFix"/>
<feBlend mode="normal" in="SourceGraphic" in2="BackgroundImageFix" result="shape"/>
<feColorMatrix in="SourceAlpha" type="matrix" values="0 0 0 0 0 0 0 0 0 0 0 0 0 0 0 0 0 0 127 0" result="hardAlpha"/>
<feOffset dx="2.464" dy="0.336"/>
<feGaussianBlur stdDeviation="0.056"/>
<feComposite in2="hardAlpha" operator="arithmetic" k2="-1" k3="1"/>
<feColorMatrix type="matrix" values="0 0 0 0 0 0 0 0 0 0 0 0 0 0 0 0 0 0 0.25 0"/>
<feBlend mode="normal" in2="shape" result="effect1_innerShadow_6118_11174"/>
</filter>
<filter id="filter4_i_6118_11174" x="137.145" y="105.632" width="6.04755" height="6.048" filterUnits="userSpaceOnUse" color-interpolation-filters="sRGB">
<feFlood flood-opacity="0" result="BackgroundImageFix"/>
<feBlend mode="normal" in="SourceGraphic" in2="BackgroundImageFix" result="shape"/>
<feColorMatrix in="SourceAlpha" type="matrix" values="0 0 0 0 0 0 0 0 0 0 0 0 0 0 0 0 0 0 127 0" result="hardAlpha"/>
<feOffset dx="2.464" dy="0.336"/>
<feGaussianBlur stdDeviation="0.056"/>
<feComposite in2="hardAlpha" operator="arithmetic" k2="-1" k3="1"/>
<feColorMatrix type="matrix" values="0 0 0 0 0 0 0 0 0 0 0 0 0 0 0 0 0 0 0.25 0"/>
<feBlend mode="normal" in2="shape" result="effect1_innerShadow_6118_11174"/>
</filter>
<linearGradient id="paint0_linear_6118_11174" x1="150.92" y1="31.208" x2="87.0796" y2="95.496" gradientUnits="userSpaceOnUse">
<stop stop-color="#26248B"/>
<stop offset="0.834" stop-color="#191856"/>
</linearGradient>
<linearGradient id="paint1_linear_6118_11174" x1="3.99613" y1="45.5058" x2="207.008" y2="95.1417" gradientUnits="userSpaceOnUse">
<stop stop-color="#26248B"/>
<stop offset="1" stop-color="#FFC23F"/>
</linearGradient>
<linearGradient id="paint2_linear_6118_11174" x1="128.52" y1="105.632" x2="128.52" y2="116.608" gradientUnits="userSpaceOnUse">
<stop stop-color="#FFC23F"/>
<stop offset="1" stop-color="#997426"/>
</linearGradient>
<linearGradient id="paint3_linear_6118_11174" x1="140.113" y1="105.632" x2="140.113" y2="111.568" gradientUnits="userSpaceOnUse">
<stop stop-color="#FFC23F"/>
<stop offset="1" stop-color="#997426"/>
</linearGradient>
</defs>
</svg>
