<svg width="973" height="793" viewBox="0 0 973 793" fill="none" xmlns="http://www.w3.org/2000/svg">
<g filter="url(#filter0_di_5241_4024)">
<ellipse cx="472.746" cy="408.678" rx="212.243" ry="212.243" transform="rotate(-30 472.746 408.678)" fill="url(#paint0_linear_5241_4024)"/>
</g>
<path d="M659.565 307.773C731.407 295.615 851.273 284.74 883.44 289.634C915.608 294.528 922.568 307.976 903.373 328.145C884.178 348.313 839.76 374.22 776.177 402.334C712.593 430.448 632.937 459.401 548.068 485.245C463.199 511.09 377.247 532.569 301.929 546.754C226.611 560.938 165.594 567.139 127.194 564.51C88.7945 561.88 74.8817 550.55 87.3523 532.062C99.823 513.574 202.176 454.922 260.985 427.293L265.225 453.299C219.744 474.667 190.165 493.803 180.52 508.101C170.876 522.399 181.636 531.162 211.333 533.195C241.03 535.229 288.219 530.433 346.467 519.463C404.715 508.494 471.187 491.883 536.822 471.895C602.457 451.908 664.06 429.517 713.233 407.774C762.407 386.032 796.757 365.996 811.602 350.399C826.447 334.801 821.064 324.401 796.187 320.616C771.31 316.831 725.39 321.287 669.83 330.69L667.724 325.596L664.96 319.229L662.328 313.117L659.565 307.773Z" fill="url(#paint1_linear_5241_4024)"/>
<g filter="url(#filter1_i_5241_4024)">
<circle cx="195.716" cy="381.602" r="14.1341" transform="rotate(-30 195.716 381.602)" fill="#FFC23F"/>
</g>
<g filter="url(#filter2_i_5241_4024)">
<ellipse cx="579.535" cy="212.712" rx="21.7804" ry="21.7804" transform="rotate(-30 579.535 212.712)" fill="#02B9BF"/>
</g>
<g filter="url(#filter3_i_5241_4024)">
<circle cx="665.595" cy="525.825" r="22.7073" transform="rotate(-30 665.595 525.825)" fill="url(#paint2_linear_5241_4024)"/>
</g>
<g filter="url(#filter4_i_5241_4024)">
<ellipse cx="701.919" cy="492.814" rx="12.2805" ry="12.2805" transform="rotate(-30 701.919 492.814)" fill="url(#paint3_linear_5241_4024)"/>
</g>
<path d="M262.966 442.037C247.679 450.863 231.48 463.054 215.704 470.918C203.111 477.196 169.889 481.837 159.995 492.123C150.276 502.228 120.417 510.693 113.845 525.725C106.131 530.178 139.631 538.86 144.071 543.322C154.961 562.185 198.319 541.346 223.001 541.829C231.908 542.004 240.802 541.956 249.71 542.152C260.162 542.383 272.552 543.109 282.804 540.749C294.437 538.071 305.687 534.49 317.588 532.882C323.789 532.045 329.359 532.378 335.506 532.01C344.434 531.474 353.058 528.614 361.842 527.387C369.751 526.283 377.417 523.776 385.399 522.932C391.198 522.318 396.647 518.865 402.308 517.481C409.646 515.687 409.357 513.011 416.472 510.464C417.849 509.971 425.353 509.12 426.537 509.437C429.475 510.224 433.302 509.646 436.226 509.134C451.396 506.479 468.275 507.171 482.471 500.073C495.736 493.44 510.239 492.924 523.752 487.279C536.781 481.836 549.659 473.64 563.557 470.493C574.228 468.076 582.993 462.499 593.318 458.416C604.957 453.815 605.174 461.448 616.198 455.084C620.276 452.729 638.226 447.199 643.205 446.715C646.293 446.414 672.424 434.445 675.189 433.065C709.297 416.036 706.496 422.406 740.941 406.072C755.843 399.006 780.049 379.466 796.217 375.764C805.141 373.721 818.97 362.267 827.522 358.867C833.417 356.523 838.851 353.109 844.323 349.95C849.934 346.711 857.101 343.549 861.591 338.674C868.706 330.95 892.408 317.056 891.103 308.406C890.149 302.075 869.276 306.746 854.212 307.789C844.162 308.485 820.584 302.692 816.828 302.327C803.386 301.024 807.521 298.619 794.457 301.598C780.516 304.778 774.397 296.107 760.323 298.369C743.103 301.137 725.531 309.282 708.18 309.939C690.963 310.591 703.255 307.68 686.953 312.563C679.085 314.92 669.903 317.324 665.511 318.521" stroke="#FCF9F5" stroke-width="0.826939" stroke-linecap="round"/>
<g filter="url(#filter5_di_5241_4024)">
<circle cx="719.5" cy="101.5" r="17.5" transform="rotate(-75 719.5 101.5)" fill="#E73D2B" fill-opacity="0.2" shape-rendering="crispEdges"/>
</g>
<g filter="url(#filter6_i_5241_4024)">
<ellipse cx="706.952" cy="102.84" rx="2.80571" ry="1.45833" transform="rotate(-102.467 706.952 102.84)" fill="#64277B" fill-opacity="0.5"/>
</g>
<g filter="url(#filter7_i_5241_4024)">
<ellipse cx="713.978" cy="88.2572" rx="2.16384" ry="1.12471" transform="rotate(162.771 713.978 88.2572)" fill="#64277B" fill-opacity="0.5"/>
</g>
<g filter="url(#filter8_i_5241_4024)">
<ellipse cx="729.864" cy="94.7078" rx="4.22892" ry="2.19808" transform="rotate(-137.853 729.864 94.7078)" fill="#64277B" fill-opacity="0.5"/>
</g>
<g filter="url(#filter9_i_5241_4024)">
<ellipse cx="720.469" cy="87.1051" rx="0.681612" ry="0.951087" transform="rotate(-75 720.469 87.1051)" fill="#64277B" fill-opacity="0.5"/>
</g>
<g filter="url(#filter10_i_5241_4024)">
<ellipse cx="716.356" cy="109.437" rx="1.53759" ry="2.1558" transform="rotate(-75 716.356 109.437)" fill="#64277B" fill-opacity="0.5"/>
</g>
<defs>
<filter id="filter0_di_5241_4024" x="219.12" y="155.052" width="507.251" height="507.251" filterUnits="userSpaceOnUse" color-interpolation-filters="sRGB">
<feFlood flood-opacity="0" result="BackgroundImageFix"/>
<feColorMatrix in="SourceAlpha" type="matrix" values="0 0 0 0 0 0 0 0 0 0 0 0 0 0 0 0 0 0 127 0" result="hardAlpha"/>
<feOffset/>
<feGaussianBlur stdDeviation="20.6735"/>
<feComposite in2="hardAlpha" operator="out"/>
<feColorMatrix type="matrix" values="0 0 0 0 1 0 0 0 0 1 0 0 0 0 1 0 0 0 1 0"/>
<feBlend mode="normal" in2="BackgroundImageFix" result="effect1_dropShadow_5241_4024"/>
<feBlend mode="normal" in="SourceGraphic" in2="effect1_dropShadow_5241_4024" result="shape"/>
<feColorMatrix in="SourceAlpha" type="matrix" values="0 0 0 0 0 0 0 0 0 0 0 0 0 0 0 0 0 0 127 0" result="hardAlpha"/>
<feOffset dx="56.2319"/>
<feGaussianBlur stdDeviation="10.3367"/>
<feComposite in2="hardAlpha" operator="arithmetic" k2="-1" k3="1"/>
<feColorMatrix type="matrix" values="0 0 0 0 0 0 0 0 0 0 0 0 0 0 0 0 0 0 0.25 0"/>
<feBlend mode="normal" in2="shape" result="effect2_innerShadow_5241_4024"/>
</filter>
<filter id="filter1_i_5241_4024" x="181.579" y="367.466" width="29.9267" height="29.5133" filterUnits="userSpaceOnUse" color-interpolation-filters="sRGB">
<feFlood flood-opacity="0" result="BackgroundImageFix"/>
<feBlend mode="normal" in="SourceGraphic" in2="BackgroundImageFix" result="shape"/>
<feColorMatrix in="SourceAlpha" type="matrix" values="0 0 0 0 0 0 0 0 0 0 0 0 0 0 0 0 0 0 127 0" result="hardAlpha"/>
<feOffset dx="6.20204" dy="1.24041"/>
<feGaussianBlur stdDeviation="0.826939"/>
<feComposite in2="hardAlpha" operator="arithmetic" k2="-1" k3="1"/>
<feColorMatrix type="matrix" values="0 0 0 0 0 0 0 0 0 0 0 0 0 0 0 0 0 0 0.25 0"/>
<feBlend mode="normal" in2="shape" result="effect1_innerShadow_5241_4024"/>
</filter>
<filter id="filter2_i_5241_4024" x="557.751" y="190.928" width="45.2221" height="44.8086" filterUnits="userSpaceOnUse" color-interpolation-filters="sRGB">
<feFlood flood-opacity="0" result="BackgroundImageFix"/>
<feBlend mode="normal" in="SourceGraphic" in2="BackgroundImageFix" result="shape"/>
<feColorMatrix in="SourceAlpha" type="matrix" values="0 0 0 0 0 0 0 0 0 0 0 0 0 0 0 0 0 0 127 0" result="hardAlpha"/>
<feOffset dx="6.20204" dy="1.24041"/>
<feGaussianBlur stdDeviation="0.826939"/>
<feComposite in2="hardAlpha" operator="arithmetic" k2="-1" k3="1"/>
<feColorMatrix type="matrix" values="0 0 0 0 0 0 0 0 0 0 0 0 0 0 0 0 0 0 0.25 0"/>
<feBlend mode="normal" in2="shape" result="effect1_innerShadow_5241_4024"/>
</filter>
<filter id="filter3_i_5241_4024" x="642.884" y="503.114" width="45.8356" height="45.8356" filterUnits="userSpaceOnUse" color-interpolation-filters="sRGB">
<feFlood flood-opacity="0" result="BackgroundImageFix"/>
<feBlend mode="normal" in="SourceGraphic" in2="BackgroundImageFix" result="shape"/>
<feColorMatrix in="SourceAlpha" type="matrix" values="0 0 0 0 0 0 0 0 0 0 0 0 0 0 0 0 0 0 127 0" result="hardAlpha"/>
<feOffset dx="9.09633" dy="1.24041"/>
<feGaussianBlur stdDeviation="0.206735"/>
<feComposite in2="hardAlpha" operator="arithmetic" k2="-1" k3="1"/>
<feColorMatrix type="matrix" values="0 0 0 0 0 0 0 0 0 0 0 0 0 0 0 0 0 0 0.25 0"/>
<feBlend mode="normal" in2="shape" result="effect1_innerShadow_5241_4024"/>
</filter>
<filter id="filter4_i_5241_4024" x="689.637" y="480.531" width="24.9784" height="24.9785" filterUnits="userSpaceOnUse" color-interpolation-filters="sRGB">
<feFlood flood-opacity="0" result="BackgroundImageFix"/>
<feBlend mode="normal" in="SourceGraphic" in2="BackgroundImageFix" result="shape"/>
<feColorMatrix in="SourceAlpha" type="matrix" values="0 0 0 0 0 0 0 0 0 0 0 0 0 0 0 0 0 0 127 0" result="hardAlpha"/>
<feOffset dx="9.09633" dy="1.24041"/>
<feGaussianBlur stdDeviation="0.206735"/>
<feComposite in2="hardAlpha" operator="arithmetic" k2="-1" k3="1"/>
<feColorMatrix type="matrix" values="0 0 0 0 0 0 0 0 0 0 0 0 0 0 0 0 0 0 0.25 0"/>
<feBlend mode="normal" in2="shape" result="effect1_innerShadow_5241_4024"/>
</filter>
<filter id="filter5_di_5241_4024" x="699.459" y="81.4594" width="40.0811" height="40.0812" filterUnits="userSpaceOnUse" color-interpolation-filters="sRGB">
<feFlood flood-opacity="0" result="BackgroundImageFix"/>
<feColorMatrix in="SourceAlpha" type="matrix" values="0 0 0 0 0 0 0 0 0 0 0 0 0 0 0 0 0 0 127 0" result="hardAlpha"/>
<feOffset/>
<feGaussianBlur stdDeviation="1.26812"/>
<feComposite in2="hardAlpha" operator="out"/>
<feColorMatrix type="matrix" values="0 0 0 0 0.905882 0 0 0 0 0.239216 0 0 0 0 0.168627 0 0 0 1 0"/>
<feBlend mode="normal" in2="BackgroundImageFix" result="effect1_dropShadow_5241_4024"/>
<feBlend mode="normal" in="SourceGraphic" in2="effect1_dropShadow_5241_4024" result="shape"/>
<feColorMatrix in="SourceAlpha" type="matrix" values="0 0 0 0 0 0 0 0 0 0 0 0 0 0 0 0 0 0 127 0" result="hardAlpha"/>
<feOffset dx="3.20199" dy="-0.951087"/>
<feGaussianBlur stdDeviation="0.634058"/>
<feComposite in2="hardAlpha" operator="arithmetic" k2="-1" k3="1"/>
<feColorMatrix type="matrix" values="0 0 0 0 0 0 0 0 0 0 0 0 0 0 0 0 0 0 0.25 0"/>
<feBlend mode="normal" in2="shape" result="effect2_innerShadow_5241_4024"/>
</filter>
<filter id="filter6_i_5241_4024" x="705.404" y="100.082" width="3.0957" height="5.6425" filterUnits="userSpaceOnUse" color-interpolation-filters="sRGB">
<feFlood flood-opacity="0" result="BackgroundImageFix"/>
<feBlend mode="normal" in="SourceGraphic" in2="BackgroundImageFix" result="shape"/>
<feColorMatrix in="SourceAlpha" type="matrix" values="0 0 0 0 0 0 0 0 0 0 0 0 0 0 0 0 0 0 127 0" result="hardAlpha"/>
<feOffset dy="0.380435"/>
<feGaussianBlur stdDeviation="0.0634058"/>
<feComposite in2="hardAlpha" operator="arithmetic" k2="-1" k3="1"/>
<feColorMatrix type="matrix" values="0 0 0 0 0 0 0 0 0 0 0 0 0 0 0 0 0 0 0.25 0"/>
<feBlend mode="normal" in2="shape" result="effect1_innerShadow_5241_4024"/>
</filter>
<filter id="filter7_i_5241_4024" x="711.758" y="87.0061" width="4.31431" height="2.62901" filterUnits="userSpaceOnUse" color-interpolation-filters="sRGB">
<feFlood flood-opacity="0" result="BackgroundImageFix"/>
<feBlend mode="normal" in="SourceGraphic" in2="BackgroundImageFix" result="shape"/>
<feColorMatrix in="SourceAlpha" type="matrix" values="0 0 0 0 0 0 0 0 0 0 0 0 0 0 0 0 0 0 127 0" result="hardAlpha"/>
<feOffset dx="-0.22192" dy="0.285326"/>
<feGaussianBlur stdDeviation="0.0634058"/>
<feComposite in2="hardAlpha" operator="arithmetic" k2="-1" k3="1"/>
<feColorMatrix type="matrix" values="0 0 0 0 0 0 0 0 0 0 0 0 0 0 0 0 0 0 0.25 0"/>
<feBlend mode="normal" in2="shape" result="effect1_innerShadow_5241_4024"/>
</filter>
<filter id="filter8_i_5241_4024" x="726.272" y="91.4031" width="7.05845" height="6.57772" filterUnits="userSpaceOnUse" color-interpolation-filters="sRGB">
<feFlood flood-opacity="0" result="BackgroundImageFix"/>
<feBlend mode="normal" in="SourceGraphic" in2="BackgroundImageFix" result="shape"/>
<feColorMatrix in="SourceAlpha" type="matrix" values="0 0 0 0 0 0 0 0 0 0 0 0 0 0 0 0 0 0 127 0" result="hardAlpha"/>
<feOffset dx="-0.443841" dy="-0.0317029"/>
<feGaussianBlur stdDeviation="0.0634058"/>
<feComposite in2="hardAlpha" operator="arithmetic" k2="-1" k3="1"/>
<feColorMatrix type="matrix" values="0 0 0 0 0 0 0 0 0 0 0 0 0 0 0 0 0 0 0.25 0"/>
<feBlend mode="normal" in2="shape" result="effect1_innerShadow_5241_4024"/>
</filter>
<filter id="filter9_i_5241_4024" x="719.406" y="86.402" width="1.99815" height="1.40613" filterUnits="userSpaceOnUse" color-interpolation-filters="sRGB">
<feFlood flood-opacity="0" result="BackgroundImageFix"/>
<feBlend mode="normal" in="SourceGraphic" in2="BackgroundImageFix" result="shape"/>
<feColorMatrix in="SourceAlpha" type="matrix" values="0 0 0 0 0 0 0 0 0 0 0 0 0 0 0 0 0 0 127 0" result="hardAlpha"/>
<feOffset dx="-0.253623"/>
<feGaussianBlur stdDeviation="0.0634058"/>
<feComposite in2="hardAlpha" operator="arithmetic" k2="-1" k3="1"/>
<feColorMatrix type="matrix" values="0 0 0 0 0 0 0 0 0 0 0 0 0 0 0 0 0 0 0.25 0"/>
<feBlend mode="normal" in2="shape" result="effect1_innerShadow_5241_4024"/>
</filter>
<filter id="filter10_i_5241_4024" x="714.235" y="107.85" width="4.36766" height="3.26906" filterUnits="userSpaceOnUse" color-interpolation-filters="sRGB">
<feFlood flood-opacity="0" result="BackgroundImageFix"/>
<feBlend mode="normal" in="SourceGraphic" in2="BackgroundImageFix" result="shape"/>
<feColorMatrix in="SourceAlpha" type="matrix" values="0 0 0 0 0 0 0 0 0 0 0 0 0 0 0 0 0 0 127 0" result="hardAlpha"/>
<feOffset dx="0.317029" dy="0.0951087"/>
<feGaussianBlur stdDeviation="0.0634058"/>
<feComposite in2="hardAlpha" operator="arithmetic" k2="-1" k3="1"/>
<feColorMatrix type="matrix" values="0 0 0 0 0 0 0 0 0 0 0 0 0 0 0 0 0 0 0.25 0"/>
<feBlend mode="normal" in2="shape" result="effect1_innerShadow_5241_4024"/>
</filter>
<linearGradient id="paint0_linear_5241_4024" x1="673.867" y1="275.91" x2="409.722" y2="541.909" gradientUnits="userSpaceOnUse">
<stop stop-color="#26248B"/>
<stop offset="0.834" stop-color="#191856"/>
</linearGradient>
<linearGradient id="paint1_linear_5241_4024" x1="83.6458" y1="548.328" x2="913.783" y2="306.193" gradientUnits="userSpaceOnUse">
<stop stop-color="#26248B"/>
<stop offset="1" stop-color="#FFC23F"/>
</linearGradient>
<linearGradient id="paint2_linear_5241_4024" x1="665.595" y1="503.118" x2="665.595" y2="548.533" gradientUnits="userSpaceOnUse">
<stop stop-color="#FFC23F"/>
<stop offset="1" stop-color="#997426"/>
</linearGradient>
<linearGradient id="paint3_linear_5241_4024" x1="701.919" y1="480.533" x2="701.919" y2="505.094" gradientUnits="userSpaceOnUse">
<stop stop-color="#FFC23F"/>
<stop offset="1" stop-color="#997426"/>
</linearGradient>
</defs>
</svg>
