<svg width="237" height="143" viewBox="0 0 237 143" fill="none" xmlns="http://www.w3.org/2000/svg">
<path d="M-36.1407 32.5083C-38.6168 36.3707 -41.0369 43.1051 -42.3589 48.0389C-38.3208 40.6445 -30.9257 34.6087 -24.1652 32.4883C-16.1608 29.9777 -9.42777 33.1466 -0.851566 37.9597C7.72464 42.7728 15.1347 55.9123 18.0408 59.8002C23.0486 66.4998 34.7731 88.7812 38.3286 93.9286C49.935 110.731 66.9722 130.155 81.9147 135.428C113.474 146.564 134.522 143.251 152.159 135.096C180.471 122.005 191.953 106.199 198.453 81.9414C200.938 72.667 202.784 62.7577 206.954 54.0535C210.423 46.8118 214.001 37.0519 222.933 27.073C227.31 22.183 232.619 20.3753 240.523 16.924C249.813 13.7814 256.948 14.9922 264.928 16.3464L264.963 16.3523C274.964 18.0494 278.649 21.0646 283.806 28.5216C277.091 15.9591 275.652 10.9884 269.185 4.81704C262.816 -1.26098 262.009 -2.60452 254.492 -6.90998C246.974 -11.2154 242.312 -13.4164 232.424 -12.8229C223.934 -12.3133 212.078 -9.57059 201.381 0.40843C192.781 8.4318 192.483 9.93815 188.224 17.1508C184.487 23.4793 179.816 32.346 172.304 48.4154C169.331 54.7743 163.34 66.0482 152.102 81.3176C143.053 93.6131 118.058 106.141 103.397 104.573C81.2973 102.21 66.9786 92.3826 53.2205 76.6202C42.1177 63.9 32.0264 42.622 19.2436 31.5007C8.71522 22.3407 -6.04977 16.0232 -20.7197 19.6294C-25.2286 20.7378 -33.1979 27.9178 -36.1407 32.5083Z" fill="#430F78" fill-opacity="0.4"/>
</svg>
