<svg width="237" height="121" viewBox="0 0 237 121" fill="none" xmlns="http://www.w3.org/2000/svg">
<path d="M-17.4477 10.3739C-19.5025 13.579 -21.5108 19.1675 -22.6078 23.2616C-19.2568 17.1256 -13.1199 12.117 -7.50951 10.3574C-0.866879 8.27415 4.72074 10.9039 11.838 14.8981C18.9552 18.8922 25.1048 29.796 27.5166 33.0223C31.6725 38.5819 41.4026 57.0719 44.3534 61.3433C53.9854 75.2866 64.9051 97.4893 76.9513 107.52C98.2941 125.292 126.455 121.568 141.091 114.801C164.586 103.938 171.843 71.5275 177.236 51.398C179.298 43.7018 182.455 35.1064 184.291 28.2557C186.126 21.4051 186.981 14.4434 192.325 5.54765C195.13 0.879397 201.915 -9.71863 206.876 -15.4742C212.948 -22.5183 221.49 -29.7113 227.774 -32.8214C235.536 -36.6634 236.262 -36.6099 250.562 -31.9673C241.919 -39.0419 239.222 -39.7645 237.249 -40.2933C230.112 -42.2055 228.468 -42.6461 223.631 -42.3558C218.795 -42.0655 211.323 -40.2256 203.094 -34.6406C197.254 -30.6769 193.981 -29.5886 185.105 -21.3078C177.968 -14.6499 172.927 -5.48968 169.393 0.495599C166.292 5.74708 163.091 8.35942 159.537 21.6231C158.03 27.2496 152.775 48.8674 143.449 61.5383C135.939 71.7414 110.645 84.5222 98.478 83.2211C80.1383 81.26 68.1293 60.0609 56.7115 46.9805C47.4974 36.4247 39.1226 18.7674 28.5144 9.53843C19.777 1.93707 7.52385 -3.30566 -4.65029 -0.313293C-8.39212 0.60644 -15.0056 6.56462 -17.4477 10.3739Z" fill="#2A1261" fill-opacity="0.7"/>
</svg>
