<svg width="237" height="217" viewBox="0 0 237 217" fill="none" xmlns="http://www.w3.org/2000/svg">
<g clip-path="url(#clip0_5269_4298)">
<path d="M-23.5885 106.917C-8.45518 92.9338 6.91493 79.1135 28.6481 78.2916C35.3774 78.0375 42.361 79.1084 48.0611 82.8725C58.1876 89.5607 65.7909 100.021 73.202 109.415C77.3141 114.626 81.5243 120.198 88.2384 122.268C101.437 126.339 113.775 118.538 122.667 109.502C130.592 101.449 135.74 90.51 145.299 84.0647C152.787 79.0165 159.662 77.4945 168.518 76.2088C175.063 75.2585 182.035 74.7523 188.567 76.3402C195.304 77.978 198.98 86.0583 202.767 91.2269C206.101 95.7762 209.771 99.1849 214.214 102.591C220.733 107.588 226.237 103.992 231.462 98.4362" stroke="#B643CD" stroke-width="0.223119" stroke-linecap="round"/>
<path d="M-51.523 48.2406C-36.3901 34.2585 -21.0196 20.4375 0.713603 19.6157C7.44273 19.3614 14.4263 20.4323 20.1264 24.1973C30.253 30.8847 37.8566 41.3453 45.2677 50.739C49.3788 55.9509 53.589 61.5222 60.3031 63.5926C73.5029 67.6632 85.8409 59.8618 94.7331 50.8264C102.658 42.7737 107.805 31.8341 117.365 25.389C124.852 20.3409 131.728 18.8188 140.584 17.5327C147.128 16.5824 154.101 16.0767 160.633 17.6646C167.37 19.3024 171.045 27.3826 174.832 32.5508C178.166 37.1006 181.836 40.5093 186.28 43.9154C192.798 48.9123 198.303 45.3162 203.527 39.7602" stroke="#B643CD" stroke-width="0.223119"/>
<path d="M-50.0535 51.3289C-34.9202 37.3461 -19.5497 23.5252 2.1831 22.7039C8.91223 22.4497 15.8958 23.5205 21.5963 27.2849C31.7225 33.9729 39.3263 44.4328 46.7374 53.8265C50.8492 59.0387 55.0593 64.6101 61.7734 66.6804C74.9726 70.7507 87.3102 62.9499 96.2025 53.9142C104.127 45.8615 109.275 34.9222 118.834 28.4768C126.322 23.4286 133.198 21.9065 142.054 20.6209C148.598 19.6705 155.57 19.1645 162.103 20.7523C168.84 22.3901 172.515 30.4703 176.302 35.639C179.636 40.1884 183.306 43.5971 187.749 47.0032C194.268 52.0001 199.772 48.404 204.997 42.848" stroke="#B643CD" stroke-width="0.223119"/>
<path d="M-48.5811 54.4174C-33.4481 40.4353 -18.0776 26.6143 3.65557 25.7924C10.3847 25.5382 17.3682 26.609 23.0683 30.374C33.195 37.0614 40.7982 47.5219 48.2099 56.9159C52.3211 62.1278 56.5312 67.6991 63.2453 69.7695C76.4445 73.8398 88.7825 66.0383 97.6746 57.003C105.599 48.9502 110.747 38.0111 120.306 31.5656C127.794 26.5174 134.67 24.9954 143.526 23.7097C150.07 22.7594 157.042 22.2532 163.575 23.8415C170.312 25.4789 173.987 33.5592 177.774 38.7277C181.108 43.2771 184.778 46.6858 189.222 50.0924C195.74 55.0889 201.244 51.4928 206.469 45.9372" stroke="#B643CD" stroke-width="0.223119"/>
<path d="M-47.1116 57.5056C-31.9782 43.5229 -16.6078 29.7019 5.12507 28.8807C11.8542 28.6264 18.8377 29.6972 24.5382 33.4616C34.6642 40.1495 42.2685 50.6097 49.6796 60.0034C53.7907 65.2153 58.0009 70.7866 64.715 72.857C77.9148 76.9276 90.2524 69.1268 99.1441 60.0908C107.069 52.038 112.217 41.0988 121.777 34.6537C129.263 29.6051 136.14 28.0835 144.995 26.7975C151.54 25.8471 158.512 25.3413 165.045 26.9292C171.781 28.5667 175.457 36.6473 179.244 41.8156C182.578 46.3653 186.248 49.774 190.691 53.1801C197.21 58.177 202.714 54.5806 207.939 49.0249" stroke="#B643CD" stroke-width="0.223119"/>
<path d="M-45.6431 60.5931C-30.5101 46.611 -15.1397 32.7901 6.59349 31.9682C13.3227 31.7139 20.3062 32.7848 26.0063 36.5498C36.1328 43.2379 43.7365 53.6978 51.1475 63.0915C55.2587 68.3033 59.4688 73.8747 66.1836 75.9454C79.3827 80.0157 91.7203 72.2149 100.613 63.179C108.538 55.1262 113.685 44.187 123.245 37.7415C130.732 32.6933 137.608 31.1713 146.464 29.8856C153.009 28.9353 159.98 28.4291 166.513 30.017C173.25 31.6549 176.925 39.7351 180.713 44.9037C184.046 49.4531 187.716 52.8618 192.159 56.2679C198.678 61.2648 204.183 57.6687 209.407 52.1127" stroke="#B643CD" stroke-width="0.223119"/>
<path d="M-44.1721 63.6819C-29.0388 49.6991 -13.6684 35.8782 8.06446 35.0569C14.7937 34.8027 21.7771 35.8735 27.4776 39.6379C37.604 46.326 45.2076 56.7858 52.6183 66.1801C56.7304 71.3917 60.9406 76.963 67.6547 79.0334C80.8538 83.1037 93.1915 75.3029 102.084 66.267C110.008 58.2145 115.156 47.2753 124.716 40.8298C132.203 35.7816 139.079 34.2596 147.935 32.9739C154.48 32.0236 161.451 31.5175 167.984 33.1054C174.721 34.7431 178.396 42.8234 182.184 47.992C185.517 52.5414 189.187 55.9501 193.63 59.3562C200.149 64.3531 205.654 60.757 210.878 55.2014" stroke="#B643CD" stroke-width="0.223119"/>
<path d="M-42.7008 66.77C-27.5675 52.7872 -12.1974 38.9669 9.53583 38.145C16.265 37.8907 23.2485 38.9616 28.9486 42.7266C39.0751 49.4139 46.6791 59.8748 54.0901 69.2685C58.2016 74.4797 62.4118 80.051 69.1255 82.122C82.3253 86.1927 94.6633 78.3912 103.555 69.3556C111.479 61.3027 116.627 50.3635 126.187 43.9184C133.674 38.8698 140.551 37.3481 149.406 36.0622C155.951 35.1118 162.922 34.6057 169.455 36.1939C176.192 37.8313 179.868 45.9119 183.655 51.0802C186.988 55.6296 190.658 59.0383 195.102 62.4448C201.62 67.4413 207.125 63.8453 212.349 58.2896" stroke="#B643CD" stroke-width="0.223119"/>
<path d="M-41.2317 69.8581C-26.0984 55.8753 -10.7279 42.0544 11.0049 41.2331C17.7341 40.9789 24.7175 42.0497 30.4182 45.8142C40.544 52.5019 48.1483 62.9622 55.559 72.3565C59.6705 77.5677 63.8807 83.139 70.5948 85.2094C83.7946 89.2801 96.1322 81.4792 105.024 72.443C112.949 64.3905 118.096 53.4513 127.656 47.0062C135.144 41.958 142.02 40.436 150.875 39.1499C157.42 38.1996 164.392 37.6938 170.925 39.2817C177.662 40.9195 181.337 48.9998 185.124 54.168C188.458 58.7178 192.128 62.1265 196.571 65.5326C203.09 70.5295 208.594 66.9334 213.819 61.3774" stroke="#B643CD" stroke-width="0.223119"/>
<path d="M-39.7618 72.9462C-24.6288 58.9641 -9.25834 45.1432 12.4749 44.3213C19.204 44.067 26.1875 45.1378 31.8876 48.9029C42.0144 55.5903 49.6177 66.0508 57.0288 75.4446C61.1405 80.6568 65.3511 86.2274 72.0648 88.2984C85.2639 92.3687 97.6019 84.5673 106.494 75.5321C114.419 67.4792 119.567 56.54 129.126 50.0945C136.613 45.0463 143.489 43.5243 152.345 42.2386C158.89 41.2883 165.862 40.7821 172.394 42.37C179.131 44.0079 182.807 52.0881 186.594 57.2567C189.927 61.806 193.597 65.2147 198.041 68.6209C204.559 73.6178 210.064 70.0217 215.288 64.4657" stroke="#B643CD" stroke-width="0.223119"/>
<path d="M-38.2893 76.0349C-23.1559 62.0521 -7.78583 48.2318 13.9473 47.4099C20.6765 47.1557 27.66 48.2265 33.3603 51.9907C43.4868 58.6789 51.0904 69.1387 58.5011 78.5331C62.6132 83.7446 66.8234 89.316 73.5375 91.3863C86.7366 95.4566 99.0743 87.6558 107.967 78.6199C115.891 70.5676 121.039 59.6282 130.598 53.1827C138.086 48.1346 144.962 46.6125 153.818 45.3269C160.362 44.3766 167.334 43.8704 173.867 45.4583C180.604 47.0961 184.279 55.1764 188.066 60.345C191.4 64.8943 195.07 68.303 199.514 71.7096C206.032 76.7061 211.536 73.11 216.761 67.5543" stroke="#B643CD" stroke-width="0.223119"/>
<path d="M-36.8209 79.1225C-21.6879 65.1404 -6.31749 51.3194 15.4157 50.4975C22.1449 50.2433 29.1284 51.3141 34.8287 55.0793C44.955 61.7664 52.5589 72.2273 59.9699 81.621C64.0811 86.8328 68.2912 92.4041 75.0053 94.4745C88.2051 98.5452 100.543 90.7437 109.435 81.7081C117.359 73.6551 122.507 62.716 132.067 56.2709C139.554 51.2224 146.43 49.7007 155.286 48.4146C161.83 47.4643 168.802 46.9582 175.335 48.5465C182.072 50.1839 185.748 58.2645 189.534 63.4327C192.868 67.9825 196.538 71.3912 200.982 74.7973C207.501 79.7942 213.004 76.1978 218.229 70.6421" stroke="#B643CD" stroke-width="0.223119"/>
<path d="M-35.3498 82.2111C-20.2165 68.2283 -4.8464 54.408 16.8868 53.5861C23.6159 53.3318 30.5993 54.4026 36.3 58.1671C46.4265 64.8552 54.0302 75.3151 61.4409 84.7094C65.5524 89.9206 69.7625 95.492 76.4772 97.5627C89.6764 101.633 102.014 93.8322 110.906 84.7963C118.831 76.7439 123.979 65.8046 133.538 59.3592C141.026 54.311 147.901 52.7889 156.757 51.5032C163.302 50.5529 170.274 50.0468 176.806 51.6347C183.543 53.2725 187.219 61.3527 191.006 66.5213C194.34 71.0707 198.009 74.4795 202.453 77.8855C208.972 82.8825 214.476 79.2864 219.7 73.7304" stroke="#B643CD" stroke-width="0.223119"/>
<path d="M-33.879 85.2992C-18.746 71.3171 -3.37555 57.4961 18.3577 56.6742C25.0869 56.42 32.0706 57.491 37.7703 61.2558C47.8972 67.9433 55.5004 78.4037 62.9115 87.7974C67.0233 93.0097 71.2334 98.581 77.9475 100.651C91.1467 104.722 103.485 96.9202 112.377 87.885C120.302 79.8319 125.449 68.8929 135.009 62.4474C142.496 57.3993 149.372 55.8772 158.228 54.5916C164.773 53.6413 171.744 53.1351 178.277 54.723C185.014 56.3607 188.689 64.4411 192.477 69.6096C195.81 74.159 199.48 77.5677 203.923 80.9739C210.442 85.9708 215.947 82.3747 221.171 76.819" stroke="#B643CD" stroke-width="0.223119"/>
<path d="M-32.4079 88.3873C-17.2746 74.4046 -1.90445 60.5843 19.8288 59.7624C26.5578 59.5081 33.5415 60.579 39.2416 64.3432C49.3681 71.0313 56.9724 81.4915 64.3831 90.8859C68.4946 96.0971 72.7047 101.668 79.4188 103.739C92.6179 107.809 104.956 100.009 113.848 90.973C121.772 82.92 126.92 71.9807 136.48 65.5356C143.967 60.4871 150.844 58.9654 159.699 57.6794C166.244 56.7291 173.216 56.2229 179.748 57.8112C186.485 59.4486 190.161 67.5292 193.948 72.6974C197.281 77.2468 200.951 80.6555 205.395 84.0621C211.913 89.0586 217.418 85.4625 222.642 79.9068" stroke="#B643CD" stroke-width="0.223119"/>
<path d="M-30.9395 91.4755C-15.8065 77.4934 -0.436038 63.6724 21.2974 62.8506C28.026 62.5961 35.0097 63.667 40.7101 67.4322C50.8359 74.12 58.4402 84.5802 65.8513 93.9739C69.9624 99.1857 74.1726 104.757 80.8866 106.827C94.0864 110.898 106.424 103.097 115.316 94.061C123.241 86.008 128.388 75.069 137.948 68.6239C145.436 63.5757 152.312 62.0537 161.167 60.7676C167.712 59.8173 174.684 59.3115 181.217 60.8994C187.954 62.5373 191.629 70.6175 195.416 75.7857C198.75 80.3354 202.42 83.7442 206.863 87.1503C213.382 92.1472 218.886 88.5511 224.111 82.9951" stroke="#B643CD" stroke-width="0.223119"/>
<path d="M-29.467 94.5641C-14.3336 80.5813 1.03641 66.761 22.7697 65.9392C29.499 65.685 36.482 66.7556 42.1828 70.5201C52.3092 77.2082 59.9129 87.6681 67.3236 97.0624C71.4357 102.274 75.6459 107.845 82.36 109.916C95.5591 113.986 107.897 106.185 116.789 97.1499C124.714 89.0969 129.861 78.1576 139.421 71.7121C146.908 66.664 153.784 65.1419 162.64 63.8563C169.185 62.906 176.157 62.3998 182.689 63.9877C189.426 65.6255 193.101 73.7058 196.889 78.8744C200.222 83.4237 203.892 86.8325 208.336 90.2386C214.854 95.2355 220.359 91.6394 225.583 86.0834" stroke="#B643CD" stroke-width="0.223119"/>
<path d="M-27.9985 97.6517C-12.8656 83.6695 2.50485 69.8486 24.2379 69.0266C30.9673 68.7725 37.9509 69.8434 43.6506 73.6082C53.7771 80.2963 61.3808 90.7562 68.7918 100.15C72.9036 105.362 77.1138 110.933 83.8279 113.004C97.027 117.074 109.365 109.273 118.257 100.237C126.182 92.1844 131.329 81.2457 140.889 74.7999C148.376 69.7518 155.252 68.2297 164.108 66.944C170.653 65.9937 177.625 65.4876 184.157 67.0755C190.894 68.7133 194.57 76.7935 198.357 81.9621C201.69 86.5115 205.36 89.9202 209.804 93.3267C216.322 98.3233 221.827 94.7272 227.052 89.1715" stroke="#B643CD" stroke-width="0.223119"/>
<path d="M-26.5295 100.74C-11.3962 86.7575 3.97394 72.9372 25.7068 72.1152C32.4361 71.861 39.4198 72.9319 45.1205 76.6964C55.2464 83.3842 62.8507 93.8444 70.2614 103.239C74.3729 108.45 78.583 114.021 85.2971 116.092C98.4969 120.162 110.835 112.362 119.726 103.326C127.651 95.2729 132.799 84.3336 142.359 77.8886C149.846 72.84 156.722 71.3184 165.577 70.0323C172.122 69.082 179.094 68.5758 185.627 70.1641C192.363 71.8015 196.039 79.8822 199.826 85.0504C203.16 89.6001 206.83 93.0088 211.273 96.415C217.792 101.412 223.296 97.8154 228.521 92.2598" stroke="#B643CD" stroke-width="0.223119"/>
<path d="M-25.0569 103.829C-9.92365 89.8461 5.44683 76.0252 27.1798 75.2041C33.9091 74.9499 40.8925 76.0198 46.5929 79.785C56.7194 86.4731 64.323 96.933 71.7341 106.327C75.8452 111.539 80.0554 117.11 86.7701 119.181C99.9692 123.251 112.307 115.45 121.199 106.414C129.124 98.3618 134.272 87.4225 143.831 80.9768C151.319 75.9287 158.194 74.4066 167.05 73.1206C173.595 72.1707 180.567 71.6645 187.099 73.2524C193.836 74.8902 197.512 82.9705 201.299 88.1386C204.633 92.6884 208.302 96.0971 212.746 99.5033C219.265 104.5 224.769 100.904 229.993 95.3481" stroke="#B643CD" stroke-width="0.223119"/>
</g>
<defs>
<clipPath id="clip0_5269_4298">
<rect width="277.56" height="175.892" fill="white" transform="translate(12.9473 -74.9219) rotate(30)"/>
</clipPath>
</defs>
</svg>
