<svg width="58" height="209" viewBox="0 0 58 209" fill="none" xmlns="http://www.w3.org/2000/svg">
<g clip-path="url(#clip0_5269_4277)">
<path d="M52.0931 98.838C67.2265 84.8552 82.5966 71.0349 104.33 70.213C111.059 69.9588 118.043 71.0298 123.743 74.7939C133.869 81.482 141.473 91.9426 148.884 101.336C152.996 106.548 157.206 112.119 163.92 114.189C177.119 118.26 189.457 110.459 198.349 101.424C206.274 93.3707 211.422 82.4314 220.981 75.986C228.468 70.9379 235.344 69.4158 244.2 68.1302C250.745 67.1799 257.717 66.6737 264.249 68.2616C270.986 69.8994 274.661 77.9797 278.449 83.1483C281.782 87.6976 285.452 91.1063 289.896 94.5125C296.414 99.5094 301.919 95.9133 307.144 90.3576" stroke="#B643CD" stroke-width="0.223119" stroke-linecap="round"/>
<path d="M24.1552 40.162C39.2881 26.1799 54.6586 12.3589 76.3918 11.5371C83.121 11.2828 90.1045 12.3536 95.8046 16.1187C105.931 22.806 113.535 33.2667 120.946 42.6604C125.057 47.8723 129.267 53.4436 135.981 55.5139C149.181 59.5846 161.519 51.7832 170.411 42.7478C178.336 34.6951 183.483 23.7555 193.043 17.3104C200.531 12.2622 207.406 10.7402 216.262 9.45413C222.806 8.50382 229.779 7.99808 236.311 9.58594C243.048 11.2238 246.724 19.304 250.51 24.4722C253.845 29.022 257.514 32.4307 261.958 35.8368C268.477 40.8337 273.981 37.2376 279.205 31.6816" stroke="#B643CD" stroke-width="0.223119"/>
<path d="M25.6262 43.2503C40.7595 29.2675 56.13 15.4466 77.8628 14.6253C84.5919 14.371 91.5755 15.4419 97.2759 19.2063C107.402 25.8943 115.006 36.3542 122.417 45.7479C126.529 50.9601 130.739 56.5314 137.453 58.6018C150.652 62.6721 162.99 54.8713 171.882 45.8356C179.807 37.7829 184.955 26.8436 194.514 20.3982C202.002 15.35 208.877 13.8279 217.733 12.5423C224.278 11.5919 231.25 11.0858 237.782 12.6737C244.519 14.3115 248.195 22.3917 251.982 27.5604C255.315 32.1097 258.985 35.5185 263.429 38.9246C269.948 43.9215 275.452 40.3254 280.676 34.7694" stroke="#B643CD" stroke-width="0.223119"/>
<path d="M27.0961 46.3383C42.2291 32.3562 57.5996 18.5352 79.3328 17.7133C86.0619 17.4591 93.0454 18.5299 98.7456 22.2949C108.872 28.9823 116.475 39.4428 123.887 48.8368C127.998 54.0487 132.208 59.62 138.923 61.6904C152.122 65.7607 164.46 57.9592 173.352 48.9239C181.277 40.8711 186.424 29.932 195.984 23.4865C203.471 18.4383 210.347 16.9163 219.203 15.6306C225.748 14.6803 232.719 14.1741 239.252 15.7624C245.989 17.3998 249.664 25.4801 253.452 30.6486C256.785 35.198 260.455 38.6067 264.899 42.0133C271.417 47.0098 276.922 43.4137 282.146 37.8581" stroke="#B643CD" stroke-width="0.223119"/>
<path d="M28.5671 49.427C43.7005 35.4443 59.071 21.6233 80.8038 20.8021C87.5329 20.5478 94.5164 21.6186 100.217 25.383C110.343 32.0709 117.947 42.5311 125.358 51.9248C129.469 57.1367 133.68 62.708 140.394 64.7783C153.593 68.849 165.931 61.0482 174.823 52.0122C182.747 43.9594 187.895 33.0202 197.455 26.5751C204.942 21.5265 211.818 20.0049 220.674 18.7188C227.219 17.7685 234.191 17.2627 240.723 18.8506C247.46 20.4881 251.136 28.5687 254.923 33.7369C258.257 38.2866 261.927 41.6954 266.37 45.1015C272.889 50.0984 278.393 46.5019 283.617 40.9463" stroke="#B643CD" stroke-width="0.223119"/>
<path d="M30.0371 52.5145C45.17 38.5324 60.5405 24.7114 82.2737 23.8896C89.0029 23.6353 95.9863 24.7061 101.686 28.4712C111.813 35.1593 119.417 45.6192 126.828 55.0129C130.939 60.2247 135.149 65.796 141.864 67.8668C155.063 71.9371 167.401 64.1363 176.293 55.1004C184.218 47.0476 189.365 36.1084 198.925 29.6629C206.412 24.6147 213.288 23.0927 222.144 21.807C228.689 20.8567 235.661 20.3505 242.193 21.9384C248.93 23.5763 252.605 31.6565 256.393 36.8251C259.726 41.3745 263.396 44.7832 267.84 48.1893C274.358 53.1862 279.863 49.5901 285.087 44.0341" stroke="#B643CD" stroke-width="0.223119"/>
<path d="M31.5076 55.6033C46.6408 41.6205 62.0113 27.7996 83.7442 26.9783C90.4733 26.7241 97.4568 27.7949 103.157 31.5593C113.284 38.2473 120.887 48.7072 128.298 58.1015C132.41 63.3131 136.62 68.8844 143.334 70.9548C156.534 75.0251 168.871 67.2243 177.764 58.1884C185.688 50.1359 190.836 39.1966 200.395 32.7511C207.883 27.703 214.759 26.1809 223.615 24.8953C230.159 23.945 237.131 23.4389 243.663 25.0268C250.401 26.6645 254.076 34.7448 257.863 39.9134C261.197 44.4628 264.867 47.8715 269.31 51.2776C275.829 56.2745 281.333 52.6784 286.558 47.1227" stroke="#B643CD" stroke-width="0.223119"/>
<path d="M32.9775 58.6914C48.1107 44.7086 63.4809 30.8883 85.2141 30.0664C91.9432 29.8121 98.9267 30.883 104.627 34.648C114.753 41.3353 122.357 51.7962 129.768 61.1899C133.88 66.4011 138.09 71.9724 144.804 74.0434C158.004 78.1141 170.342 70.3126 179.233 61.277C187.158 53.2241 192.306 42.2848 201.865 35.8398C209.352 30.7912 216.229 29.2695 225.084 27.9835C231.629 27.0332 238.601 26.5271 245.134 28.1153C251.87 29.7527 255.546 37.8333 259.333 43.0016C262.666 47.551 266.336 50.9597 270.78 54.3662C277.298 59.3627 282.803 55.7666 288.028 50.211" stroke="#B643CD" stroke-width="0.223119"/>
<path d="M34.4485 61.7795C49.5818 47.7967 64.9523 33.9758 86.6851 33.1545C93.4142 32.9003 100.398 33.9711 106.098 37.7356C116.224 44.4233 123.829 54.8835 131.239 64.2779C135.351 69.4891 139.561 75.0604 146.275 77.1308C159.475 81.2015 171.812 73.4006 180.704 64.3644C188.629 56.3119 193.777 45.3727 203.336 38.9276C210.824 33.8794 217.7 32.3574 226.555 31.0713C233.1 30.121 240.072 29.6152 246.605 31.2031C253.342 32.8409 257.017 40.9212 260.804 46.0894C264.138 50.6391 267.808 54.0478 272.251 57.454C278.77 62.4509 284.274 58.8548 289.499 53.2988" stroke="#B643CD" stroke-width="0.223119"/>
<path d="M35.9198 64.8676C51.0528 50.8855 66.4233 37.0646 88.1565 36.2427C94.8856 35.9884 101.869 37.0592 107.569 40.8242C117.696 47.5117 125.299 57.9722 132.71 67.3659C136.822 72.5781 141.033 78.1488 147.746 80.2198C160.946 84.2901 173.284 76.4887 182.176 67.4534C190.1 59.4005 195.248 48.4614 204.808 42.0159C212.295 36.9677 219.171 35.4457 228.027 34.16C234.572 33.2097 241.543 32.7035 248.076 34.2914C254.813 35.9292 258.488 44.0095 262.276 49.1781C265.609 53.7274 269.279 57.1361 273.722 60.5423C280.241 65.5392 285.746 61.9431 290.97 56.3871" stroke="#B643CD" stroke-width="0.223119"/>
<path d="M37.388 67.9563C52.5213 53.9735 67.8914 40.1532 89.6246 39.3313C96.3537 39.0771 103.337 40.1479 109.038 43.9121C119.164 50.6003 126.768 61.0601 134.178 70.4545C138.29 75.666 142.501 81.2373 149.215 83.3077C162.414 87.378 174.752 79.5772 183.644 70.5413C191.568 62.4889 196.716 51.5496 206.276 45.1041C213.763 40.056 220.639 38.5339 229.495 37.2483C236.04 36.298 243.011 35.7918 249.544 37.3797C256.281 39.0175 259.956 47.0978 263.744 52.2664C267.077 56.8157 270.747 60.2244 275.191 63.6309C281.709 68.6275 287.214 65.0314 292.438 59.4757" stroke="#B643CD" stroke-width="0.223119"/>
<path d="M38.8588 71.0439C53.9918 57.0618 69.3622 43.2408 91.0954 42.4189C97.8246 42.1647 104.808 43.2355 110.508 47.0007C120.635 53.6878 128.239 64.1486 135.65 73.5424C139.761 78.7542 143.971 84.3255 150.685 86.3959C163.885 90.4666 176.223 82.6651 185.114 73.6295C193.039 65.5765 198.187 54.6374 207.747 48.1923C215.234 43.1438 222.11 41.6221 230.965 40.336C237.51 39.3857 244.482 38.8796 251.015 40.4679C257.751 42.1053 261.427 50.1859 265.214 55.3541C268.548 59.9039 272.218 63.3126 276.662 66.7187C283.18 71.7156 288.684 68.1191 293.909 62.5635" stroke="#B643CD" stroke-width="0.223119"/>
<path d="M40.3299 74.1324C55.4632 60.1497 70.8333 46.3294 92.5665 45.5075C99.2956 45.2532 106.279 46.324 111.98 50.0885C122.106 56.7766 129.71 67.2365 137.121 76.6308C141.232 81.842 145.442 87.4133 152.157 89.4841C165.356 93.5544 177.694 85.7536 186.586 76.7177C194.511 68.6653 199.658 57.726 209.218 51.2806C216.705 46.2324 223.581 44.7103 232.437 43.4246C238.982 42.4743 245.954 41.9682 252.486 43.5561C259.223 45.1939 262.898 53.2741 266.686 58.4427C270.019 62.9921 273.689 66.4008 278.133 69.8069C284.651 74.8039 290.156 71.2078 295.38 65.6518" stroke="#B643CD" stroke-width="0.223119"/>
<path d="M41.8012 77.2206C56.9341 63.2384 72.3046 49.4175 94.0378 48.5956C100.767 48.3414 107.751 49.4124 113.45 53.1771C123.577 59.8646 131.181 70.3251 138.592 79.7188C142.703 84.931 146.914 90.5024 153.628 92.5727C166.827 96.643 179.165 88.8416 188.057 79.8063C195.982 71.7533 201.129 60.8143 210.689 54.3688C218.176 49.3206 225.052 47.7986 233.908 46.513C240.453 45.5626 247.425 45.0565 253.957 46.6444C260.694 48.2821 264.369 56.3624 268.157 61.531C271.49 66.0804 275.16 69.4891 279.604 72.8953C286.122 77.8922 291.627 74.2961 296.852 68.7404" stroke="#B643CD" stroke-width="0.223119"/>
<path d="M43.2708 80.3087C58.4042 66.326 73.7743 52.5057 95.5075 51.6838C102.237 51.4295 109.22 52.5004 114.92 56.2646C125.047 62.9527 132.651 73.4129 140.062 82.8073C144.173 88.0185 148.383 93.5898 155.098 95.6601C168.297 99.7305 180.635 91.93 189.526 82.8944C197.451 74.8414 202.599 63.9021 212.159 57.457C219.646 52.4085 226.522 50.8868 235.378 49.6008C241.922 48.6505 248.894 48.1443 255.427 49.7326C262.164 51.37 265.84 59.4506 269.626 64.6188C272.96 69.1682 276.63 72.5769 281.074 75.9834C287.592 80.98 293.096 77.3839 298.321 71.8282" stroke="#B643CD" stroke-width="0.223119"/>
<path d="M44.7421 83.3969C59.8751 69.4148 75.2456 55.5938 96.979 54.772C103.708 54.5175 110.691 55.5884 116.392 59.3536C126.518 66.0414 134.122 76.5016 141.533 85.8953C145.644 91.1071 149.854 96.6784 156.568 98.7488C169.768 102.819 182.106 95.0187 190.998 85.9824C198.922 77.9294 204.07 66.9904 213.63 60.5453C221.118 55.4971 227.993 53.9751 236.849 52.689C243.393 51.7387 250.366 51.2329 256.898 52.8208C263.635 54.4587 267.311 62.5389 271.097 67.7071C274.431 72.2568 278.101 75.6655 282.545 79.0717C289.063 84.0686 294.568 80.4725 299.792 74.9165" stroke="#B643CD" stroke-width="0.223119"/>
<path d="M46.2112 86.485C61.3446 72.5022 76.7146 58.6819 98.4479 57.8601C105.177 57.6059 112.16 58.6765 117.861 62.441C127.987 69.1291 135.591 79.589 143.002 88.9833C147.114 94.1949 151.324 99.7662 158.038 101.837C171.237 105.907 183.575 98.1061 192.467 89.0708C200.392 81.0178 205.54 70.0785 215.099 63.633C222.587 58.5849 229.462 57.0628 238.318 55.7772C244.863 54.8269 251.835 54.3207 258.367 55.9086C265.104 57.5464 268.78 65.6267 272.567 70.7953C275.901 75.3446 279.57 78.7534 284.014 82.1595C290.533 87.1564 296.037 83.5603 301.261 78.0043" stroke="#B643CD" stroke-width="0.223119"/>
<path d="M47.6826 89.5731C62.8155 75.5909 78.186 61.77 99.9191 60.948C106.648 60.6939 113.632 61.7648 119.332 65.5296C129.458 72.2177 137.062 82.6776 144.473 92.0713C148.585 97.2835 152.795 102.855 159.509 104.925C172.708 108.995 185.046 101.195 193.938 92.1588C201.863 84.1058 207.011 73.1671 216.57 66.7213C224.058 61.6731 230.933 60.1511 239.789 58.8654C246.334 57.9151 253.306 57.409 259.838 58.9969C266.575 60.6346 270.251 68.7149 274.038 73.8835C277.372 78.4329 281.041 81.8416 285.486 85.2481C292.004 90.2446 297.508 86.6486 302.733 81.0929" stroke="#B643CD" stroke-width="0.223119"/>
<path d="M49.1522 92.6617C64.2855 78.6789 79.6556 64.8586 101.388 64.0365C108.118 63.7824 115.101 64.8533 120.802 68.6178C130.928 75.3056 138.532 85.7658 145.943 95.1602C150.055 100.371 154.265 105.943 160.979 108.013C174.179 112.084 186.516 104.283 195.408 95.2473C203.332 87.1943 208.48 76.2549 218.04 69.8099C225.527 64.7614 232.403 63.2398 241.259 61.9537C247.804 61.0034 254.775 60.4972 261.308 62.0855C268.045 63.7229 271.721 71.8036 275.508 76.9717C278.842 81.5215 282.512 84.9302 286.955 88.3364C293.474 93.3333 298.978 89.7368 304.202 84.1812" stroke="#B643CD" stroke-width="0.223119"/>
<path d="M50.6232 95.7503C65.7565 81.7675 81.127 67.9466 102.86 67.1254C109.589 66.8713 116.573 67.9412 122.273 71.7063C132.4 78.3945 140.003 88.8543 147.414 98.248C151.525 103.46 155.736 109.031 162.45 111.102C175.649 115.172 187.987 107.371 196.88 98.3355C204.804 90.2832 209.952 79.3439 219.511 72.8982C226.999 67.85 233.874 66.328 242.73 65.042C249.275 64.092 256.247 63.5859 262.779 65.1738C269.516 66.8116 273.192 74.8918 276.979 80.06C280.313 84.6098 283.983 88.0185 288.426 91.4247C294.945 96.4216 300.449 92.8255 305.673 87.2695" stroke="#B643CD" stroke-width="0.223119"/>
</g>
<defs>
<clipPath id="clip0_5269_4277">
<rect width="277.56" height="175.892" fill="white" transform="translate(88.6265 -83.0005) rotate(30)"/>
</clipPath>
</defs>
</svg>
